%TF.GenerationSoftware,KiCad,Pcbnew,(5.1.7)-1*%
%TF.CreationDate,2021-11-13T22:00:46+01:00*%
%TF.ProjectId,synthesizer-board,73796e74-6865-4736-997a-65722d626f61,rev?*%
%TF.SameCoordinates,Original*%
%TF.FileFunction,Soldermask,Bot*%
%TF.FilePolarity,Negative*%
%FSLAX46Y46*%
G04 Gerber Fmt 4.6, Leading zero omitted, Abs format (unit mm)*
G04 Created by KiCad (PCBNEW (5.1.7)-1) date 2021-11-13 22:00:46*
%MOMM*%
%LPD*%
G01*
G04 APERTURE LIST*
%ADD10R,1.700000X1.700000*%
%ADD11O,1.700000X1.700000*%
%ADD12R,1.750000X1.750000*%
%ADD13C,1.750000*%
%ADD14C,3.000000*%
%ADD15R,3.000000X3.000000*%
%ADD16C,1.900000*%
%ADD17R,1.900000X1.900000*%
%ADD18C,2.750000*%
%ADD19C,7.000000*%
G04 APERTURE END LIST*
D10*
X179960000Y-136500000D03*
D11*
X182500000Y-136500000D03*
X185040000Y-136500000D03*
D10*
X209960000Y-136500000D03*
D11*
X212500000Y-136500000D03*
X215040000Y-136500000D03*
D12*
X79000000Y-93000000D03*
D13*
X81500000Y-93000000D03*
X84000000Y-93000000D03*
X86500000Y-93000000D03*
X89000000Y-93000000D03*
X91500000Y-93000000D03*
X94000000Y-93000000D03*
D14*
X190490000Y-97000000D03*
D15*
X170000000Y-97000000D03*
D16*
X176500000Y-148000000D03*
X174000000Y-148000000D03*
X171500000Y-148000000D03*
X169000000Y-148000000D03*
X166500000Y-148000000D03*
D17*
X164000000Y-148000000D03*
D16*
X156500000Y-148000000D03*
X154000000Y-148000000D03*
X151500000Y-148000000D03*
X149000000Y-148000000D03*
X146500000Y-148000000D03*
X144000000Y-148000000D03*
X141500000Y-148000000D03*
X139000000Y-148000000D03*
X136500000Y-148000000D03*
X134000000Y-148000000D03*
X131500000Y-148000000D03*
X129000000Y-148000000D03*
X126500000Y-148000000D03*
D17*
X124000000Y-148000000D03*
D16*
X116500000Y-148000000D03*
X114000000Y-148000000D03*
X111500000Y-148000000D03*
X109000000Y-148000000D03*
X106500000Y-148000000D03*
X104000000Y-148000000D03*
X101500000Y-148000000D03*
X99000000Y-148000000D03*
X96500000Y-148000000D03*
X94000000Y-148000000D03*
X91500000Y-148000000D03*
X89000000Y-148000000D03*
X86500000Y-148000000D03*
X84000000Y-148000000D03*
X81500000Y-148000000D03*
D17*
X79000000Y-148000000D03*
D13*
X157960000Y-65500000D03*
X160500000Y-65500000D03*
X163040000Y-65500000D03*
D10*
X197960000Y-64500000D03*
D11*
X200500000Y-64500000D03*
X203040000Y-64500000D03*
D10*
X160500000Y-104960000D03*
D11*
X160500000Y-107500000D03*
X160500000Y-110040000D03*
D10*
X115500000Y-70000000D03*
D11*
X118040000Y-70000000D03*
X115500000Y-72540000D03*
X118040000Y-72540000D03*
X115500000Y-75080000D03*
X118040000Y-75080000D03*
X115500000Y-77620000D03*
X118040000Y-77620000D03*
X115500000Y-80160000D03*
X118040000Y-80160000D03*
D18*
X217000000Y-52500000D03*
X213500000Y-52500000D03*
X210000000Y-52500000D03*
X206500000Y-52500000D03*
X203000000Y-52500000D03*
X198000000Y-52500000D03*
D19*
X212600000Y-38000000D03*
X212600000Y-157000000D03*
X88900000Y-157000000D03*
X88900000Y-38000000D03*
D12*
X174150000Y-51000000D03*
D13*
X176690000Y-51000000D03*
X179230000Y-51000000D03*
X181770000Y-51000000D03*
X184310000Y-51000000D03*
X186850000Y-51000000D03*
M02*
