%TF.GenerationSoftware,KiCad,Pcbnew,(5.1.7)-1*%
%TF.CreationDate,2021-11-13T22:00:46+01:00*%
%TF.ProjectId,synthesizer-board,73796e74-6865-4736-997a-65722d626f61,rev?*%
%TF.SameCoordinates,Original*%
%TF.FileFunction,Paste,Top*%
%TF.FilePolarity,Positive*%
%FSLAX46Y46*%
G04 Gerber Fmt 4.6, Leading zero omitted, Abs format (unit mm)*
G04 Created by KiCad (PCBNEW (5.1.7)-1) date 2021-11-13 22:00:46*
%MOMM*%
%LPD*%
G01*
G04 APERTURE LIST*
%ADD10R,1.250000X1.000000*%
%ADD11R,1.300000X0.700000*%
%ADD12R,0.900000X0.800000*%
%ADD13R,0.900000X1.700000*%
%ADD14R,1.220000X0.650000*%
%ADD15R,5.900000X2.200000*%
%ADD16R,2.500000X1.800000*%
%ADD17R,1.000000X1.250000*%
%ADD18R,1.000000X0.250000*%
%ADD19R,0.250000X1.000000*%
%ADD20R,1.100000X1.100000*%
%ADD21R,1.400000X1.200000*%
%ADD22R,0.500000X0.900000*%
%ADD23R,1.800000X1.000000*%
%ADD24R,0.800000X1.300000*%
%ADD25R,0.800000X1.750000*%
%ADD26R,0.800000X0.900000*%
G04 APERTURE END LIST*
D10*
X202000000Y-130500000D03*
X202000000Y-132500000D03*
X172000000Y-130500000D03*
X172000000Y-132500000D03*
D11*
X154000000Y-120950000D03*
X154000000Y-119050000D03*
D12*
X153000000Y-124250000D03*
X153000000Y-126150000D03*
X155000000Y-125200000D03*
D13*
X149000000Y-155000000D03*
X151900000Y-155000000D03*
D11*
X174500000Y-70450000D03*
X174500000Y-68550000D03*
X174500000Y-75450000D03*
X174500000Y-73550000D03*
D14*
X175690000Y-130550000D03*
X175690000Y-131500000D03*
X175690000Y-132450000D03*
X178310000Y-132450000D03*
X178310000Y-131500000D03*
X178310000Y-130550000D03*
D11*
X167000000Y-132450000D03*
X167000000Y-130550000D03*
X169500000Y-130550000D03*
X169500000Y-132450000D03*
D15*
X177000000Y-125000000D03*
X177000000Y-121000000D03*
D16*
X182500000Y-128000000D03*
X186500000Y-128000000D03*
D10*
X187000000Y-121000000D03*
X187000000Y-123000000D03*
X184500000Y-121000000D03*
X184500000Y-123000000D03*
X182000000Y-121000000D03*
X182000000Y-123000000D03*
D17*
X176000000Y-128000000D03*
X178000000Y-128000000D03*
X182500000Y-131500000D03*
X184500000Y-131500000D03*
D10*
X214500000Y-121000000D03*
X214500000Y-123000000D03*
X217000000Y-121000000D03*
X217000000Y-123000000D03*
D16*
X212500000Y-128000000D03*
X216500000Y-128000000D03*
D15*
X207000000Y-125000000D03*
X207000000Y-121000000D03*
D14*
X205690000Y-130550000D03*
X205690000Y-131500000D03*
X205690000Y-132450000D03*
X208310000Y-132450000D03*
X208310000Y-131500000D03*
X208310000Y-130550000D03*
D11*
X197000000Y-132450000D03*
X197000000Y-130550000D03*
X199500000Y-130550000D03*
X199500000Y-132450000D03*
D10*
X212000000Y-121000000D03*
X212000000Y-123000000D03*
D17*
X206000000Y-128000000D03*
X208000000Y-128000000D03*
X212500000Y-131500000D03*
X214500000Y-131500000D03*
D11*
X178500000Y-65450000D03*
X178500000Y-63550000D03*
X178500000Y-70450000D03*
X178500000Y-68550000D03*
X178500000Y-75450000D03*
X178500000Y-73550000D03*
D10*
X182500000Y-65500000D03*
X182500000Y-63500000D03*
X182500000Y-70500000D03*
X182500000Y-68500000D03*
X182500000Y-75500000D03*
X182500000Y-73500000D03*
X150250000Y-93250000D03*
X150250000Y-91250000D03*
X148000000Y-93250000D03*
X148000000Y-91250000D03*
D18*
X144700000Y-94750000D03*
X144700000Y-94250000D03*
X144700000Y-93750000D03*
X144700000Y-93250000D03*
X144700000Y-92750000D03*
X144700000Y-92250000D03*
X144700000Y-91750000D03*
X144700000Y-91250000D03*
X144700000Y-90750000D03*
X144700000Y-90250000D03*
X144700000Y-89750000D03*
X144700000Y-89250000D03*
X144700000Y-88750000D03*
X144700000Y-88250000D03*
X144700000Y-87750000D03*
X144700000Y-87250000D03*
D19*
X142750000Y-85300000D03*
X142250000Y-85300000D03*
X141750000Y-85300000D03*
X141250000Y-85300000D03*
X140750000Y-85300000D03*
X140250000Y-85300000D03*
X139750000Y-85300000D03*
X139250000Y-85300000D03*
X138750000Y-85300000D03*
X138250000Y-85300000D03*
X137750000Y-85300000D03*
X137250000Y-85300000D03*
X136750000Y-85300000D03*
X136250000Y-85300000D03*
X135750000Y-85300000D03*
X135250000Y-85300000D03*
D18*
X133300000Y-87250000D03*
X133300000Y-87750000D03*
X133300000Y-88250000D03*
X133300000Y-88750000D03*
X133300000Y-89250000D03*
X133300000Y-89750000D03*
X133300000Y-90250000D03*
X133300000Y-90750000D03*
X133300000Y-91250000D03*
X133300000Y-91750000D03*
X133300000Y-92250000D03*
X133300000Y-92750000D03*
X133300000Y-93250000D03*
X133300000Y-93750000D03*
X133300000Y-94250000D03*
X133300000Y-94750000D03*
D19*
X135250000Y-96700000D03*
X135750000Y-96700000D03*
X136250000Y-96700000D03*
X136750000Y-96700000D03*
X137250000Y-96700000D03*
X137750000Y-96700000D03*
X138250000Y-96700000D03*
X138750000Y-96700000D03*
X139250000Y-96700000D03*
X139750000Y-96700000D03*
X140250000Y-96700000D03*
X140750000Y-96700000D03*
X141250000Y-96700000D03*
X141750000Y-96700000D03*
X142250000Y-96700000D03*
X142750000Y-96700000D03*
D11*
X79000000Y-138950000D03*
X79000000Y-137050000D03*
X81500000Y-138950000D03*
X81500000Y-137050000D03*
X84000000Y-138950000D03*
X84000000Y-137050000D03*
X86500000Y-138950000D03*
X86500000Y-137050000D03*
X89000000Y-138950000D03*
X89000000Y-137050000D03*
X91500000Y-138950000D03*
X91500000Y-137050000D03*
X94000000Y-138950000D03*
X94000000Y-137050000D03*
X99000000Y-138950000D03*
X99000000Y-137050000D03*
X101500000Y-138950000D03*
X101500000Y-137050000D03*
X104000000Y-138950000D03*
X104000000Y-137050000D03*
X106500000Y-138950000D03*
X106500000Y-137050000D03*
X109000000Y-138950000D03*
X109000000Y-137050000D03*
X111500000Y-138950000D03*
X111500000Y-137050000D03*
X124000000Y-138950000D03*
X124000000Y-137050000D03*
X126500000Y-138950000D03*
X126500000Y-137050000D03*
X129000000Y-138950000D03*
X129000000Y-137050000D03*
X131500000Y-138950000D03*
X131500000Y-137050000D03*
X80280000Y-119050000D03*
X80280000Y-120950000D03*
X82810000Y-119050000D03*
X82810000Y-120950000D03*
X85360000Y-119050000D03*
X85360000Y-120950000D03*
X87900000Y-119050000D03*
X87900000Y-120950000D03*
X91980000Y-119050000D03*
X91980000Y-120950000D03*
X94510000Y-119050000D03*
X94510000Y-120950000D03*
X97060000Y-119050000D03*
X97060000Y-120950000D03*
X99600000Y-119050000D03*
X99600000Y-120950000D03*
X103680000Y-119050000D03*
X103680000Y-120950000D03*
X106210000Y-119050000D03*
X106210000Y-120950000D03*
X108760000Y-119050000D03*
X108760000Y-120950000D03*
X111300000Y-119050000D03*
X111300000Y-120950000D03*
X115400000Y-119050000D03*
X115400000Y-120950000D03*
X186500000Y-70450000D03*
X186500000Y-68550000D03*
X171610000Y-41450000D03*
X171610000Y-39550000D03*
X171610000Y-45950000D03*
X171610000Y-44050000D03*
X198000000Y-41450000D03*
X198000000Y-39550000D03*
X198000000Y-45950000D03*
X198000000Y-44050000D03*
X195500000Y-74950000D03*
X195500000Y-73050000D03*
X195500000Y-70450000D03*
X195500000Y-68550000D03*
X134000000Y-120950000D03*
X134000000Y-119050000D03*
X136500000Y-120950000D03*
X136500000Y-119050000D03*
X141500000Y-120950000D03*
X141500000Y-119050000D03*
X139000000Y-120950000D03*
X139000000Y-119050000D03*
X144000000Y-120950000D03*
X144000000Y-119050000D03*
X136500000Y-138950000D03*
X136500000Y-137050000D03*
X134000000Y-138950000D03*
X134000000Y-137050000D03*
X141500000Y-138950000D03*
X141500000Y-137050000D03*
X139000000Y-138950000D03*
X139000000Y-137050000D03*
X144000000Y-138950000D03*
X144000000Y-137050000D03*
X124000000Y-120950000D03*
X124000000Y-119050000D03*
X126500000Y-120950000D03*
X126500000Y-119050000D03*
X129000000Y-120950000D03*
X129000000Y-119050000D03*
X131500000Y-120950000D03*
X131500000Y-119050000D03*
X151500000Y-137050000D03*
X151500000Y-138950000D03*
X154000000Y-138950000D03*
X154000000Y-137050000D03*
X146500000Y-137050000D03*
X146500000Y-138950000D03*
X149000000Y-138950000D03*
X149000000Y-137050000D03*
X159000000Y-138950000D03*
X159000000Y-137050000D03*
X156500000Y-138950000D03*
X156500000Y-137050000D03*
X156500000Y-120950000D03*
X156500000Y-119050000D03*
X205500000Y-70450000D03*
X205500000Y-68550000D03*
X117900000Y-120950000D03*
X117900000Y-119050000D03*
X79000000Y-68950000D03*
X79000000Y-67050000D03*
X81500000Y-68950000D03*
X81500000Y-67050000D03*
X84000000Y-68950000D03*
X84000000Y-67050000D03*
X79000000Y-83950000D03*
X79000000Y-82050000D03*
X81500000Y-83950000D03*
X81500000Y-82050000D03*
X84000000Y-83950000D03*
X84000000Y-82050000D03*
X86500000Y-68950000D03*
X86500000Y-67050000D03*
X89000000Y-68950000D03*
X89000000Y-67050000D03*
X91500000Y-68950000D03*
X91500000Y-67050000D03*
X94000000Y-68950000D03*
X94000000Y-67050000D03*
X86500000Y-83950000D03*
X86500000Y-82050000D03*
X89000000Y-83950000D03*
X89000000Y-82050000D03*
X91500000Y-83950000D03*
X91500000Y-82050000D03*
X94000000Y-83950000D03*
X94000000Y-82050000D03*
X220500000Y-63550000D03*
X220500000Y-65450000D03*
D20*
X220500000Y-70900000D03*
X220500000Y-68100000D03*
D12*
X93000000Y-77050000D03*
X93000000Y-78950000D03*
X95000000Y-78000000D03*
X90500000Y-72050000D03*
X90500000Y-73950000D03*
X92500000Y-73000000D03*
X88000000Y-77050000D03*
X88000000Y-78950000D03*
X90000000Y-78000000D03*
X85500000Y-72050000D03*
X85500000Y-73950000D03*
X87500000Y-73000000D03*
X83000000Y-77050000D03*
X83000000Y-78950000D03*
X85000000Y-78000000D03*
X80500000Y-72050000D03*
X80500000Y-73950000D03*
X82500000Y-73000000D03*
X78000000Y-77050000D03*
X78000000Y-78950000D03*
X80000000Y-78000000D03*
D20*
X124000000Y-129800000D03*
X124000000Y-132600000D03*
D21*
X154400000Y-88350000D03*
X156600000Y-88350000D03*
X156600000Y-86650000D03*
X154400000Y-86650000D03*
D22*
X156250000Y-84500000D03*
X154750000Y-84500000D03*
D10*
X159000000Y-86500000D03*
X159000000Y-88500000D03*
D17*
X156500000Y-90500000D03*
X154500000Y-90500000D03*
D23*
X154500000Y-98250000D03*
X154500000Y-95750000D03*
D17*
X159000000Y-95750000D03*
X157000000Y-95750000D03*
X159000000Y-98250000D03*
X157000000Y-98250000D03*
D10*
X160500000Y-69500000D03*
X160500000Y-71500000D03*
D20*
X131500000Y-129800000D03*
X131500000Y-132600000D03*
X129000000Y-129800000D03*
X129000000Y-132600000D03*
X126500000Y-129800000D03*
X126500000Y-132600000D03*
D24*
X111300000Y-125850000D03*
X110020000Y-125850000D03*
X108760000Y-125850000D03*
X107490000Y-125850000D03*
X106210000Y-125850000D03*
X104940000Y-125850000D03*
X103680000Y-125850000D03*
X102400000Y-125850000D03*
X102400000Y-132150000D03*
X103680000Y-132150000D03*
X104940000Y-132150000D03*
X106210000Y-132150000D03*
X107490000Y-132150000D03*
X108760000Y-132150000D03*
X110020000Y-132150000D03*
X111300000Y-132150000D03*
D25*
X116520000Y-137430000D03*
X113980000Y-137430000D03*
X113980000Y-142930000D03*
X116520000Y-142930000D03*
D20*
X205500000Y-72600000D03*
X205500000Y-75400000D03*
D12*
X155500000Y-130250000D03*
X155500000Y-132150000D03*
X157500000Y-131200000D03*
X145500000Y-130250000D03*
X145500000Y-132150000D03*
X147500000Y-131200000D03*
X150500000Y-130250000D03*
X150500000Y-132150000D03*
X152500000Y-131200000D03*
X143000000Y-124250000D03*
X143000000Y-126150000D03*
X145000000Y-125200000D03*
X138000000Y-124250000D03*
X138000000Y-126150000D03*
X140000000Y-125200000D03*
X140500000Y-130250000D03*
X140500000Y-132150000D03*
X142500000Y-131200000D03*
X135500000Y-130250000D03*
X135500000Y-132150000D03*
X137500000Y-131200000D03*
X133000000Y-124250000D03*
X133000000Y-126150000D03*
X135000000Y-125200000D03*
D26*
X199550000Y-70500000D03*
X201450000Y-70500000D03*
X200500000Y-68500000D03*
X202050000Y-41500000D03*
X203950000Y-41500000D03*
X203000000Y-39500000D03*
X175660000Y-41500000D03*
X177560000Y-41500000D03*
X176610000Y-39500000D03*
D12*
X186500000Y-63550000D03*
X186500000Y-65450000D03*
X188500000Y-64500000D03*
D10*
X176690000Y-46000000D03*
X176690000Y-44000000D03*
X181770000Y-46000000D03*
X181770000Y-44000000D03*
X186850000Y-46000000D03*
X186850000Y-44000000D03*
D17*
X186310000Y-54000000D03*
X184310000Y-54000000D03*
D10*
X203000000Y-46000000D03*
X203000000Y-44000000D03*
D24*
X115400000Y-125850000D03*
X114120000Y-125850000D03*
X114120000Y-132150000D03*
X115400000Y-132150000D03*
X99600000Y-125850000D03*
X98320000Y-125850000D03*
X97060000Y-125850000D03*
X95790000Y-125850000D03*
X94510000Y-125850000D03*
X93240000Y-125850000D03*
X91980000Y-125850000D03*
X90700000Y-125850000D03*
X90700000Y-132150000D03*
X91980000Y-132150000D03*
X93240000Y-132150000D03*
X94510000Y-132150000D03*
X95790000Y-132150000D03*
X97060000Y-132150000D03*
X98320000Y-132150000D03*
X99600000Y-132150000D03*
X87900000Y-125850000D03*
X86620000Y-125850000D03*
X85360000Y-125850000D03*
X84090000Y-125850000D03*
X82810000Y-125850000D03*
X81540000Y-125850000D03*
X80280000Y-125850000D03*
X79000000Y-125850000D03*
X79000000Y-132150000D03*
X80280000Y-132150000D03*
X81540000Y-132150000D03*
X82810000Y-132150000D03*
X84090000Y-132150000D03*
X85360000Y-132150000D03*
X86620000Y-132150000D03*
X87900000Y-132150000D03*
M02*
