M48
; DRILL file {KiCad (5.1.7)-1} date 01/04/22 17:07:29
; FORMAT={-:-/ absolute / metric / decimal}
; #@! TF.CreationDate,2022-01-04T17:07:29+01:00
; #@! TF.GenerationSoftware,Kicad,Pcbnew,(5.1.7)-1
; #@! TF.FileFunction,Plated,1,2,PTH
FMAT,2
METRIC
T1C0.400
T2C0.800
T3C1.000
T4C1.100
T5C1.500
T6C4.000
%
G90
G05
T1
X78.0Y-80.5
X79.0Y-135.5
X80.5Y-75.5
X81.45Y-129.0
X81.5Y-135.5
X82.45Y-129.0
X83.0Y-80.5
X83.45Y-129.0
X84.0Y-135.5
X84.45Y-129.0
X85.45Y-129.0
X85.5Y-75.5
X86.5Y-135.5
X88.0Y-80.5
X89.0Y-135.5
X90.5Y-75.5
X91.5Y-135.5
X93.0Y-80.5
X93.15Y-129.0
X94.0Y-135.5
X94.15Y-129.0
X95.15Y-129.0
X96.15Y-129.0
X97.15Y-129.0
X99.0Y-135.5
X100.41Y-70.0
X101.5Y-135.5
X102.5Y-102.75
X104.0Y-135.5
X104.85Y-129.0
X105.85Y-129.0
X106.5Y-135.5
X106.85Y-129.0
X107.58Y-102.75
X107.85Y-129.0
X108.85Y-129.0
X109.0Y-135.5
X111.5Y-135.5
X113.75Y-129.0
X113.98Y-135.5
X114.75Y-70.0
X114.75Y-129.0
X115.75Y-129.0
X120.25Y-107.5
X124.0Y-113.0
X124.0Y-135.5
X125.25Y-123.0
X126.5Y-113.0
X126.5Y-135.5
X127.75Y-123.0
X129.0Y-93.5
X129.0Y-113.0
X129.0Y-135.5
X130.25Y-123.0
X131.0Y-93.0
X131.5Y-57.0
X131.5Y-113.0
X131.5Y-135.5
X132.25Y-57.75
X133.0Y-58.5
X133.0Y-128.65
X133.75Y-59.25
X134.0Y-135.5
X134.5Y-60.0
X135.25Y-92.75
X135.5Y-134.65
X136.5Y-135.5
X136.75Y-95.25
X138.0Y-128.65
X139.0Y-135.5
X140.5Y-134.65
X141.0Y-57.0
X141.5Y-135.5
X141.75Y-57.75
X142.5Y-58.5
X142.75Y-133.5
X143.0Y-89.25
X143.0Y-90.75
X143.0Y-128.65
X143.25Y-59.25
X143.5Y-64.5
X144.0Y-60.0
X144.0Y-135.5
X145.0Y-66.0
X145.5Y-134.65
X146.75Y-85.0
X149.0Y-144.5
X150.5Y-134.65
X151.0Y-103.5
X152.0Y-93.25
X152.9Y-86.65
X153.0Y-128.65
X154.0Y-144.5
X155.5Y-134.65
X156.5Y-92.0
X159.0Y-94.25
X159.0Y-99.75
X160.5Y-73.5
X162.0Y-88.5
X166.5Y-115.0
X166.5Y-116.18
X166.5Y-117.36
X166.5Y-118.54
X166.5Y-119.72
X166.5Y-120.9
X166.5Y-122.08
X166.5Y-123.26
X166.5Y-124.44
X166.5Y-125.62
X166.5Y-126.8
X166.5Y-127.98
X166.5Y-129.16
X166.5Y-130.34
X166.5Y-131.52
X166.5Y-132.7
X166.5Y-133.88
X166.5Y-135.1
X166.5Y-136.27
X166.5Y-137.45
X166.5Y-138.6
X167.68Y-115.0
X167.68Y-138.6
X168.86Y-115.0
X168.86Y-138.6
X170.04Y-115.0
X170.04Y-138.6
X171.22Y-115.0
X171.22Y-138.6
X171.61Y-48.0
X174.5Y-67.0
X174.5Y-79.5
X175.28Y-115.0
X175.28Y-138.6
X176.46Y-115.0
X176.46Y-138.6
X177.64Y-115.0
X177.64Y-138.6
X178.82Y-115.0
X178.82Y-138.6
X179.55Y-41.5
X180.0Y-117.5
X180.0Y-138.6
X181.18Y-115.0
X181.18Y-138.6
X181.77Y-42.08
X181.77Y-48.0
X182.36Y-115.0
X182.36Y-138.6
X182.5Y-67.0
X182.5Y-72.0
X182.5Y-77.0
X183.0Y-147.25
X183.54Y-115.0
X183.54Y-138.6
X184.72Y-115.0
X185.5Y-136.5
X185.9Y-115.0
X186.5Y-72.0
X186.85Y-42.0
X187.08Y-115.0
X187.08Y-138.6
X188.26Y-115.0
X188.26Y-138.6
X189.44Y-115.0
X189.44Y-138.6
X190.62Y-115.0
X190.62Y-138.6
X191.8Y-115.0
X191.8Y-138.6
X192.98Y-115.0
X192.98Y-138.6
X194.2Y-115.0
X194.2Y-138.6
X195.36Y-115.0
X195.36Y-138.6
X196.55Y-115.0
X196.55Y-138.6
X197.69Y-115.0
X197.69Y-138.6
X198.0Y-48.0
X198.87Y-115.0
X198.87Y-138.6
X200.05Y-115.0
X200.05Y-138.6
X201.23Y-115.0
X201.23Y-138.6
X202.0Y-112.0
X202.41Y-115.0
X202.41Y-138.6
X203.59Y-115.0
X203.59Y-138.6
X204.77Y-115.0
X204.77Y-138.6
X205.95Y-41.5
X205.95Y-138.6
X206.45Y-67.5
X207.1Y-117.5
X207.13Y-138.6
X208.0Y-48.0
X208.25Y-145.75
X208.35Y-115.0
X208.35Y-138.6
X209.51Y-115.0
X209.51Y-138.6
X210.1Y-133.25
X210.7Y-115.0
X210.75Y-136.5
X211.85Y-115.0
X211.85Y-138.6
X215.88Y-115.0
X215.88Y-138.6
X217.06Y-115.0
X217.06Y-138.6
X218.24Y-115.0
X218.24Y-138.6
X219.42Y-115.0
X219.42Y-138.6
X220.6Y-115.0
X220.6Y-116.18
X220.6Y-117.36
X220.6Y-118.54
X220.6Y-119.72
X220.6Y-120.9
X220.6Y-122.08
X220.6Y-123.26
X220.6Y-124.44
X220.6Y-125.62
X220.6Y-126.8
X220.6Y-127.98
X220.6Y-129.16
X220.6Y-130.34
X220.6Y-131.52
X220.6Y-132.7
X220.6Y-133.88
X220.6Y-135.1
X220.6Y-136.26
X220.6Y-137.45
X220.6Y-138.6
T2
X181.77Y-40.5
X174.5Y-63.55
X167.61Y-44.05
X200.5Y-74.0
X185.5Y-143.0
X170.5Y-75.45
X156.5Y-113.125
X180.0Y-112.0
X207.0Y-44.0
X146.5Y-113.125
X194.0Y-44.05
X196.5Y-74.0
X210.75Y-141.5
X216.0Y-68.1
X207.1Y-112.0
X96.5Y-139.0
X151.5Y-113.125
T3
X102.5Y-92.21
X102.5Y-94.75
X105.04Y-92.21
X105.04Y-94.75
X107.58Y-92.21
X107.58Y-94.75
X110.12Y-92.21
X110.12Y-94.75
X112.66Y-92.21
X112.66Y-94.75
X115.2Y-92.21
X115.2Y-94.75
X79.0Y-93.0
X81.5Y-93.0
X84.0Y-93.0
X86.5Y-93.0
X89.0Y-93.0
X91.5Y-93.0
X94.0Y-93.0
X160.5Y-104.96
X160.5Y-107.5
X160.5Y-110.04
X174.15Y-51.0
X176.69Y-51.0
X179.23Y-51.0
X181.77Y-51.0
X184.31Y-51.0
X186.85Y-51.0
X121.5Y-70.0
X121.5Y-72.54
X121.5Y-75.08
X121.5Y-77.62
X121.5Y-80.16
X124.04Y-70.0
X124.04Y-72.54
X124.04Y-75.08
X124.04Y-77.62
X124.04Y-80.16
X157.96Y-65.5
X160.5Y-65.5
X163.04Y-65.5
T4
X79.0Y-148.0
X81.5Y-148.0
X84.0Y-148.0
X86.5Y-148.0
X89.0Y-148.0
X91.5Y-148.0
X94.0Y-148.0
X96.5Y-148.0
X99.0Y-148.0
X101.5Y-148.0
X104.0Y-148.0
X106.5Y-148.0
X109.0Y-148.0
X111.5Y-148.0
X114.0Y-148.0
X116.5Y-148.0
X124.0Y-148.0
X126.5Y-148.0
X129.0Y-148.0
X131.5Y-148.0
X134.0Y-148.0
X136.5Y-148.0
X139.0Y-148.0
X141.5Y-148.0
X144.0Y-148.0
X146.5Y-148.0
X149.0Y-148.0
X151.5Y-148.0
X154.0Y-148.0
X156.5Y-148.0
X164.0Y-148.0
X166.5Y-148.0
X169.0Y-148.0
X171.5Y-148.0
X174.0Y-148.0
X176.5Y-148.0
T5
X198.0Y-52.5
X203.0Y-52.5
X206.5Y-52.5
X210.0Y-52.5
X213.5Y-52.5
X217.0Y-52.5
X170.0Y-94.5
X190.49Y-94.5
T6
X88.9Y-38.0
X88.9Y-157.0
X212.6Y-157.0
X212.6Y-38.0
T2
X213.55Y-115.0G85X214.15Y-115.0
G05
X172.95Y-138.6G85X173.55Y-138.6
G05
X172.95Y-115.0G85X173.55Y-115.0
G05
X213.55Y-138.6G85X214.15Y-138.6
G05
T0
M30
