M48
; DRILL file {KiCad (5.1.7)-1} date 11/13/21 22:00:49
; FORMAT={-:-/ absolute / metric / decimal}
; #@! TF.CreationDate,2021-11-13T22:00:49+01:00
; #@! TF.GenerationSoftware,Kicad,Pcbnew,(5.1.7)-1
; #@! TF.FileFunction,Plated,1,2,PTH
FMAT,2
METRIC
T1C0.400
T2C1.000
T3C1.100
T4C1.500
T5C4.000
%
G90
G05
T1
X78.0Y-80.5
X79.0Y-135.5
X80.5Y-75.5
X81.45Y-129.0
X81.5Y-135.5
X82.45Y-129.0
X83.0Y-80.5
X83.45Y-129.0
X84.0Y-135.5
X84.45Y-129.0
X85.45Y-129.0
X85.5Y-75.5
X86.5Y-135.5
X88.0Y-80.5
X89.0Y-135.5
X90.5Y-75.5
X91.5Y-135.5
X93.0Y-80.5
X93.15Y-129.0
X94.0Y-135.5
X94.15Y-129.0
X95.15Y-129.0
X96.15Y-129.0
X97.15Y-129.0
X99.0Y-135.5
X101.5Y-135.5
X104.0Y-135.5
X104.85Y-129.0
X105.85Y-129.0
X106.5Y-135.5
X106.65Y-92.5
X106.85Y-129.0
X107.85Y-129.0
X108.85Y-129.0
X109.0Y-135.5
X111.5Y-135.5
X113.75Y-129.0
X113.98Y-135.5
X114.75Y-129.0
X115.75Y-129.0
X120.25Y-112.0
X124.0Y-113.0
X124.0Y-135.5
X125.25Y-123.0
X126.5Y-113.0
X126.5Y-135.5
X127.75Y-123.0
X129.0Y-93.5
X129.0Y-113.0
X129.0Y-135.5
X130.25Y-123.0
X131.0Y-93.0
X131.5Y-113.0
X131.5Y-135.5
X133.0Y-128.65
X134.0Y-135.5
X135.25Y-92.75
X135.5Y-134.65
X136.5Y-135.5
X136.75Y-95.25
X138.0Y-128.65
X139.0Y-135.5
X140.5Y-134.65
X141.5Y-60.5
X141.5Y-135.5
X141.75Y-94.25
X142.75Y-133.5
X143.0Y-62.0
X143.0Y-89.25
X143.0Y-90.75
X143.0Y-128.65
X144.0Y-135.5
X145.5Y-134.65
X149.0Y-144.5
X150.5Y-134.65
X151.0Y-103.5
X152.0Y-93.25
X152.9Y-86.65
X153.0Y-128.65
X154.0Y-144.5
X155.5Y-134.65
X156.5Y-92.0
X156.5Y-112.0
X159.0Y-94.25
X159.0Y-99.75
X160.5Y-73.5
X161.0Y-78.5
X162.0Y-88.5
X165.0Y-116.0
X165.0Y-117.0
X165.0Y-118.0
X165.0Y-119.0
X165.0Y-120.0
X165.0Y-121.0
X165.0Y-122.0
X165.0Y-123.0
X165.0Y-124.0
X165.0Y-125.0
X165.0Y-126.0
X165.0Y-127.0
X165.0Y-128.0
X165.0Y-129.0
X165.0Y-130.0
X165.0Y-131.0
X165.0Y-132.0
X165.0Y-133.0
X165.0Y-134.0
X165.0Y-135.0
X165.0Y-136.0
X165.0Y-137.0
X165.0Y-138.0
X165.0Y-139.0
X166.0Y-116.0
X166.0Y-139.0
X167.0Y-116.0
X167.0Y-139.0
X168.0Y-116.0
X168.0Y-139.0
X169.0Y-116.0
X169.0Y-139.0
X170.0Y-116.0
X170.0Y-139.0
X171.0Y-116.0
X171.0Y-139.0
X171.61Y-48.0
X172.0Y-116.0
X172.0Y-139.0
X173.0Y-116.0
X173.0Y-139.0
X174.0Y-116.0
X174.0Y-139.0
X174.5Y-67.0
X175.0Y-116.0
X175.0Y-139.0
X176.0Y-116.0
X176.0Y-139.0
X177.0Y-139.0
X178.0Y-116.0
X178.0Y-139.0
X179.0Y-116.0
X179.0Y-139.0
X179.55Y-41.5
X179.96Y-141.5
X180.0Y-116.0
X181.0Y-116.0
X181.0Y-139.0
X181.77Y-42.08
X181.77Y-48.0
X182.0Y-116.0
X182.0Y-139.0
X182.5Y-67.0
X182.5Y-72.0
X182.5Y-77.0
X183.0Y-116.0
X183.0Y-139.0
X184.0Y-116.0
X184.0Y-139.0
X185.0Y-116.0
X185.04Y-144.0
X186.0Y-116.0
X186.0Y-139.0
X186.5Y-72.0
X186.85Y-42.0
X187.0Y-116.0
X187.0Y-139.0
X188.0Y-116.0
X188.0Y-139.0
X189.0Y-116.0
X189.0Y-139.0
X190.0Y-116.0
X190.0Y-139.0
X191.0Y-116.0
X191.0Y-139.0
X192.0Y-116.0
X192.0Y-139.0
X193.0Y-116.0
X193.0Y-139.0
X194.0Y-116.0
X194.0Y-139.0
X195.0Y-116.0
X195.0Y-139.0
X196.0Y-116.0
X196.0Y-139.0
X197.0Y-116.0
X197.0Y-139.0
X198.0Y-48.0
X198.0Y-116.0
X198.0Y-139.0
X199.0Y-116.0
X199.0Y-139.0
X200.0Y-116.0
X200.0Y-139.0
X201.0Y-116.0
X201.0Y-139.0
X201.45Y-72.5
X202.0Y-116.0
X202.0Y-139.0
X203.0Y-116.0
X203.0Y-139.0
X204.0Y-116.0
X204.0Y-139.0
X205.0Y-116.0
X205.0Y-139.0
X205.95Y-41.5
X206.0Y-116.0
X206.0Y-139.0
X207.0Y-139.0
X208.0Y-48.0
X208.0Y-116.0
X208.0Y-139.0
X209.0Y-116.0
X209.0Y-139.0
X209.96Y-141.5
X210.0Y-116.0
X210.0Y-133.0
X211.0Y-116.0
X211.0Y-139.0
X212.0Y-116.0
X212.0Y-139.0
X213.0Y-116.0
X213.0Y-139.0
X214.0Y-116.0
X214.0Y-139.0
X215.0Y-116.0
X215.04Y-144.0
X216.0Y-116.0
X216.0Y-139.0
X217.0Y-116.0
X217.0Y-139.0
X218.0Y-116.0
X218.0Y-139.0
X219.0Y-116.0
X219.0Y-139.0
X220.0Y-116.0
X220.0Y-117.0
X220.0Y-118.0
X220.0Y-119.0
X220.0Y-120.0
X220.0Y-121.0
X220.0Y-122.0
X220.0Y-123.0
X220.0Y-124.0
X220.0Y-125.0
X220.0Y-126.0
X220.0Y-127.0
X220.0Y-128.0
X220.0Y-129.0
X220.0Y-130.0
X220.0Y-131.0
X220.0Y-132.0
X220.0Y-133.0
X220.0Y-134.0
X220.0Y-135.0
X220.0Y-136.0
X220.0Y-137.0
X220.0Y-138.0
X220.0Y-139.0
X220.5Y-73.0
T2
X197.96Y-64.5
X200.5Y-64.5
X203.04Y-64.5
X179.96Y-136.5
X182.5Y-136.5
X185.04Y-136.5
X174.15Y-51.0
X176.69Y-51.0
X179.23Y-51.0
X181.77Y-51.0
X184.31Y-51.0
X186.85Y-51.0
X115.5Y-70.0
X115.5Y-72.54
X115.5Y-75.08
X115.5Y-77.62
X115.5Y-80.16
X118.04Y-70.0
X118.04Y-72.54
X118.04Y-75.08
X118.04Y-77.62
X118.04Y-80.16
X157.96Y-65.5
X160.5Y-65.5
X163.04Y-65.5
X79.0Y-93.0
X81.5Y-93.0
X84.0Y-93.0
X86.5Y-93.0
X89.0Y-93.0
X91.5Y-93.0
X94.0Y-93.0
X160.5Y-104.96
X160.5Y-107.5
X160.5Y-110.04
X209.96Y-136.5
X212.5Y-136.5
X215.04Y-136.5
T3
X124.0Y-148.0
X126.5Y-148.0
X129.0Y-148.0
X131.5Y-148.0
X134.0Y-148.0
X136.5Y-148.0
X139.0Y-148.0
X141.5Y-148.0
X144.0Y-148.0
X146.5Y-148.0
X149.0Y-148.0
X151.5Y-148.0
X154.0Y-148.0
X156.5Y-148.0
X79.0Y-148.0
X81.5Y-148.0
X84.0Y-148.0
X86.5Y-148.0
X89.0Y-148.0
X91.5Y-148.0
X94.0Y-148.0
X96.5Y-148.0
X99.0Y-148.0
X101.5Y-148.0
X104.0Y-148.0
X106.5Y-148.0
X109.0Y-148.0
X111.5Y-148.0
X114.0Y-148.0
X116.5Y-148.0
X164.0Y-148.0
X166.5Y-148.0
X169.0Y-148.0
X171.5Y-148.0
X174.0Y-148.0
X176.5Y-148.0
T4
X170.0Y-97.0
X190.49Y-97.0
X198.0Y-52.5
X203.0Y-52.5
X206.5Y-52.5
X210.0Y-52.5
X213.5Y-52.5
X217.0Y-52.5
T5
X212.6Y-157.0
X88.9Y-38.0
X212.6Y-38.0
X88.9Y-157.0
T0
M30
