%TF.GenerationSoftware,KiCad,Pcbnew,(5.1.7)-1*%
%TF.CreationDate,2021-11-13T22:00:46+01:00*%
%TF.ProjectId,synthesizer-board,73796e74-6865-4736-997a-65722d626f61,rev?*%
%TF.SameCoordinates,Original*%
%TF.FileFunction,Copper,L2,Bot*%
%TF.FilePolarity,Positive*%
%FSLAX46Y46*%
G04 Gerber Fmt 4.6, Leading zero omitted, Abs format (unit mm)*
G04 Created by KiCad (PCBNEW (5.1.7)-1) date 2021-11-13 22:00:46*
%MOMM*%
%LPD*%
G01*
G04 APERTURE LIST*
%TA.AperFunction,ComponentPad*%
%ADD10R,1.700000X1.700000*%
%TD*%
%TA.AperFunction,ComponentPad*%
%ADD11O,1.700000X1.700000*%
%TD*%
%TA.AperFunction,ComponentPad*%
%ADD12R,1.750000X1.750000*%
%TD*%
%TA.AperFunction,ComponentPad*%
%ADD13C,1.750000*%
%TD*%
%TA.AperFunction,ComponentPad*%
%ADD14C,3.000000*%
%TD*%
%TA.AperFunction,ComponentPad*%
%ADD15R,3.000000X3.000000*%
%TD*%
%TA.AperFunction,ComponentPad*%
%ADD16C,1.900000*%
%TD*%
%TA.AperFunction,ComponentPad*%
%ADD17R,1.900000X1.900000*%
%TD*%
%TA.AperFunction,ComponentPad*%
%ADD18C,2.750000*%
%TD*%
%TA.AperFunction,ComponentPad*%
%ADD19C,7.000000*%
%TD*%
%TA.AperFunction,ViaPad*%
%ADD20C,0.800000*%
%TD*%
%TA.AperFunction,Conductor*%
%ADD21C,0.500000*%
%TD*%
%TA.AperFunction,Conductor*%
%ADD22C,0.250000*%
%TD*%
%TA.AperFunction,Conductor*%
%ADD23C,0.252000*%
%TD*%
%TA.AperFunction,Conductor*%
%ADD24C,0.100000*%
%TD*%
G04 APERTURE END LIST*
D10*
X179960000Y-136500000D03*
D11*
X182500000Y-136500000D03*
X185040000Y-136500000D03*
D10*
X209960000Y-136500000D03*
D11*
X212500000Y-136500000D03*
X215040000Y-136500000D03*
D12*
X79000000Y-93000000D03*
D13*
X81500000Y-93000000D03*
X84000000Y-93000000D03*
X86500000Y-93000000D03*
X89000000Y-93000000D03*
X91500000Y-93000000D03*
X94000000Y-93000000D03*
D14*
X190490000Y-97000000D03*
D15*
X170000000Y-97000000D03*
D16*
X176500000Y-148000000D03*
X174000000Y-148000000D03*
X171500000Y-148000000D03*
X169000000Y-148000000D03*
X166500000Y-148000000D03*
D17*
X164000000Y-148000000D03*
D16*
X156500000Y-148000000D03*
X154000000Y-148000000D03*
X151500000Y-148000000D03*
X149000000Y-148000000D03*
X146500000Y-148000000D03*
X144000000Y-148000000D03*
X141500000Y-148000000D03*
X139000000Y-148000000D03*
X136500000Y-148000000D03*
X134000000Y-148000000D03*
X131500000Y-148000000D03*
X129000000Y-148000000D03*
X126500000Y-148000000D03*
D17*
X124000000Y-148000000D03*
D16*
X116500000Y-148000000D03*
X114000000Y-148000000D03*
X111500000Y-148000000D03*
X109000000Y-148000000D03*
X106500000Y-148000000D03*
X104000000Y-148000000D03*
X101500000Y-148000000D03*
X99000000Y-148000000D03*
X96500000Y-148000000D03*
X94000000Y-148000000D03*
X91500000Y-148000000D03*
X89000000Y-148000000D03*
X86500000Y-148000000D03*
X84000000Y-148000000D03*
X81500000Y-148000000D03*
D17*
X79000000Y-148000000D03*
D13*
X157960000Y-65500000D03*
X160500000Y-65500000D03*
X163040000Y-65500000D03*
D10*
X197960000Y-64500000D03*
D11*
X200500000Y-64500000D03*
X203040000Y-64500000D03*
D10*
X160500000Y-104960000D03*
D11*
X160500000Y-107500000D03*
X160500000Y-110040000D03*
D10*
X115500000Y-70000000D03*
D11*
X118040000Y-70000000D03*
X115500000Y-72540000D03*
X118040000Y-72540000D03*
X115500000Y-75080000D03*
X118040000Y-75080000D03*
X115500000Y-77620000D03*
X118040000Y-77620000D03*
X115500000Y-80160000D03*
X118040000Y-80160000D03*
D18*
X217000000Y-52500000D03*
X213500000Y-52500000D03*
X210000000Y-52500000D03*
X206500000Y-52500000D03*
X203000000Y-52500000D03*
X198000000Y-52500000D03*
D19*
X212600000Y-38000000D03*
X212600000Y-157000000D03*
X88900000Y-157000000D03*
X88900000Y-38000000D03*
D12*
X174150000Y-51000000D03*
D13*
X176690000Y-51000000D03*
X179230000Y-51000000D03*
X181770000Y-51000000D03*
X184310000Y-51000000D03*
X186850000Y-51000000D03*
D20*
X143000000Y-128650000D03*
X138000000Y-128650000D03*
X133000000Y-128650000D03*
X135500000Y-134650000D03*
X140500000Y-134650000D03*
X145500000Y-134650000D03*
X155500000Y-134650000D03*
X83450000Y-129000000D03*
X84450000Y-129000000D03*
X85450000Y-129000000D03*
X82450000Y-129000000D03*
X81450000Y-129000000D03*
X95150000Y-129000000D03*
X96150000Y-129000000D03*
X97150000Y-129000000D03*
X94150000Y-129000000D03*
X93150000Y-129000000D03*
X106850000Y-129000000D03*
X107850000Y-129000000D03*
X108850000Y-129000000D03*
X105850000Y-129000000D03*
X104850000Y-129000000D03*
X114750000Y-129000000D03*
X115750000Y-129000000D03*
X113750000Y-129000000D03*
X113980000Y-135500000D03*
X201450000Y-72500000D03*
X181770000Y-42080000D03*
X186850000Y-42000000D03*
X179550000Y-41500000D03*
X205950000Y-41500000D03*
X160500000Y-73500000D03*
X149000000Y-144500000D03*
X154000000Y-144500000D03*
X152900000Y-86650000D03*
X156500000Y-92000000D03*
X162000000Y-88500000D03*
X159000000Y-94250000D03*
X159000000Y-99750000D03*
X150500000Y-134650000D03*
X125250000Y-123000000D03*
X127750000Y-123000000D03*
X130250000Y-123000000D03*
X78000000Y-80500000D03*
X83000000Y-80500000D03*
X88000000Y-80500000D03*
X93000000Y-80500000D03*
X80500000Y-75500000D03*
X85500000Y-75500000D03*
X90500000Y-75500000D03*
X143000000Y-90750000D03*
X152000000Y-93250000D03*
X186500000Y-72000000D03*
X220000000Y-139000000D03*
X218000000Y-139000000D03*
X217000000Y-139000000D03*
X216000000Y-139000000D03*
X214000000Y-139000000D03*
X220000000Y-138000000D03*
X220000000Y-137000000D03*
X220000000Y-136000000D03*
X220000000Y-135000000D03*
X220000000Y-134000000D03*
X220000000Y-133000000D03*
X220000000Y-132000000D03*
X220000000Y-131000000D03*
X220000000Y-130000000D03*
X220000000Y-129000000D03*
X220000000Y-128000000D03*
X220000000Y-127000000D03*
X220000000Y-126000000D03*
X220000000Y-125000000D03*
X220000000Y-124000000D03*
X220000000Y-123000000D03*
X220000000Y-122000000D03*
X213000000Y-139000000D03*
X212000000Y-139000000D03*
X211000000Y-139000000D03*
X209000000Y-139000000D03*
X208000000Y-139000000D03*
X207000000Y-139000000D03*
X206000000Y-139000000D03*
X205000000Y-139000000D03*
X204000000Y-139000000D03*
X203000000Y-139000000D03*
X202000000Y-139000000D03*
X201000000Y-139000000D03*
X200000000Y-139000000D03*
X199000000Y-139000000D03*
X198000000Y-139000000D03*
X197000000Y-139000000D03*
X196000000Y-139000000D03*
X195000000Y-139000000D03*
X194000000Y-139000000D03*
X193000000Y-139000000D03*
X192000000Y-139000000D03*
X191000000Y-139000000D03*
X190000000Y-139000000D03*
X189000000Y-139000000D03*
X188000000Y-139000000D03*
X187000000Y-139000000D03*
X186000000Y-139000000D03*
X184000000Y-139000000D03*
X183000000Y-139000000D03*
X182000000Y-139000000D03*
X181000000Y-139000000D03*
X179000000Y-139000000D03*
X178000000Y-139000000D03*
X177000000Y-139000000D03*
X176000000Y-139000000D03*
X175000000Y-139000000D03*
X174000000Y-139000000D03*
X173000000Y-139000000D03*
X172000000Y-139000000D03*
X171000000Y-139000000D03*
X170000000Y-139000000D03*
X169000000Y-139000000D03*
X168000000Y-139000000D03*
X167000000Y-139000000D03*
X165000000Y-139000000D03*
X165000000Y-138000000D03*
X165000000Y-137000000D03*
X165000000Y-136000000D03*
X165000000Y-135000000D03*
X165000000Y-134000000D03*
X165000000Y-133000000D03*
X165000000Y-132000000D03*
X165000000Y-131000000D03*
X165000000Y-130000000D03*
X165000000Y-129000000D03*
X165000000Y-128000000D03*
X165000000Y-127000000D03*
X165000000Y-126000000D03*
X165000000Y-125000000D03*
X165000000Y-124000000D03*
X165000000Y-123000000D03*
X165000000Y-122000000D03*
X165000000Y-121000000D03*
X165000000Y-120000000D03*
X165000000Y-119000000D03*
X165000000Y-118000000D03*
X165000000Y-117000000D03*
X165000000Y-116000000D03*
X167000000Y-116000000D03*
X168000000Y-116000000D03*
X169000000Y-116000000D03*
X170000000Y-116000000D03*
X171000000Y-116000000D03*
X172000000Y-116000000D03*
X173000000Y-116000000D03*
X174000000Y-116000000D03*
X176000000Y-116000000D03*
X178000000Y-116000000D03*
X179000000Y-116000000D03*
X180000000Y-116000000D03*
X181000000Y-116000000D03*
X182000000Y-116000000D03*
X183000000Y-116000000D03*
X184000000Y-116000000D03*
X185000000Y-116000000D03*
X186000000Y-116000000D03*
X187000000Y-116000000D03*
X188000000Y-116000000D03*
X189000000Y-116000000D03*
X190000000Y-116000000D03*
X191000000Y-116000000D03*
X192000000Y-116000000D03*
X193000000Y-116000000D03*
X194000000Y-116000000D03*
X195000000Y-116000000D03*
X196000000Y-116000000D03*
X197000000Y-116000000D03*
X198000000Y-116000000D03*
X199000000Y-116000000D03*
X200000000Y-116000000D03*
X201000000Y-116000000D03*
X202000000Y-116000000D03*
X203000000Y-116000000D03*
X204000000Y-116000000D03*
X206000000Y-116000000D03*
X208000000Y-116000000D03*
X209000000Y-116000000D03*
X210000000Y-116000000D03*
X211000000Y-116000000D03*
X212000000Y-116000000D03*
X213000000Y-116000000D03*
X214000000Y-116000000D03*
X215000000Y-116000000D03*
X216000000Y-116000000D03*
X217000000Y-116000000D03*
X218000000Y-116000000D03*
X220000000Y-116000000D03*
X220000000Y-117000000D03*
X220000000Y-118000000D03*
X220000000Y-119000000D03*
X220000000Y-121000000D03*
X220000000Y-120000000D03*
X182500000Y-67000000D03*
X182500000Y-72000000D03*
X182500000Y-77000000D03*
X174500000Y-67000000D03*
X153000000Y-128650000D03*
X166000000Y-116000000D03*
X166000000Y-139000000D03*
X219000000Y-116000000D03*
X219000000Y-139000000D03*
X205000000Y-116000000D03*
X175000000Y-116000000D03*
X171610000Y-48000000D03*
X198000000Y-48000000D03*
X181770000Y-48000000D03*
X208000000Y-48000000D03*
X142750000Y-133500000D03*
X179960000Y-141500000D03*
X209960000Y-141500000D03*
X156500000Y-112000000D03*
X120250000Y-112000000D03*
X106650000Y-92500000D03*
X141750000Y-94250000D03*
X161000000Y-78500000D03*
X220500000Y-73000000D03*
X79000000Y-135500000D03*
X81500000Y-135500000D03*
X84000000Y-135500000D03*
X86500000Y-135500000D03*
X89000000Y-135500000D03*
X91500000Y-135500000D03*
X94000000Y-135500000D03*
X99000000Y-135500000D03*
X101500000Y-135500000D03*
X104000000Y-135500000D03*
X106500000Y-135500000D03*
X109000000Y-135500000D03*
X111500000Y-135500000D03*
X143000000Y-62000000D03*
X136750000Y-95250000D03*
X141500000Y-60500000D03*
X135250000Y-92750000D03*
X143000000Y-89250000D03*
X131000000Y-93000000D03*
X129000000Y-93500000D03*
X134000000Y-135500000D03*
X136500000Y-135500000D03*
X141500000Y-135500000D03*
X139000000Y-135500000D03*
X144000000Y-135500000D03*
X124000000Y-135500000D03*
X124000000Y-113000000D03*
X126500000Y-135500000D03*
X126500000Y-113000000D03*
X129000000Y-135500000D03*
X129000000Y-113000000D03*
X131500000Y-135500000D03*
X131500000Y-113000000D03*
X210000000Y-133000000D03*
X151000000Y-103500000D03*
X185040000Y-144000000D03*
X215040000Y-144000000D03*
D21*
X171610000Y-48000000D02*
X181750000Y-48000000D01*
X198000000Y-48000000D02*
X208000000Y-48000000D01*
X181770000Y-48000000D02*
X198000000Y-48000000D01*
X179960000Y-141500000D02*
X209960000Y-141500000D01*
X159500000Y-133500000D02*
X142750000Y-133500000D01*
X170000000Y-141500000D02*
X164000000Y-141500000D01*
X164000000Y-141500000D02*
X162500000Y-140000000D01*
X162500000Y-140000000D02*
X162500000Y-136500000D01*
X162500000Y-136500000D02*
X159500000Y-133500000D01*
X171500000Y-143000000D02*
X170000000Y-141500000D01*
X171500000Y-148000000D02*
X171500000Y-143000000D01*
X156500000Y-112000000D02*
X156500000Y-107500000D01*
X160500000Y-107500000D02*
X156500000Y-107500000D01*
X120250000Y-112000000D02*
X120250000Y-107750000D01*
X150000000Y-107500000D02*
X156500000Y-107500000D01*
X113250000Y-107500000D02*
X150000000Y-107500000D01*
X106650000Y-100900000D02*
X113250000Y-107500000D01*
X106650000Y-92500000D02*
X106650000Y-100900000D01*
X161000000Y-78500000D02*
X215000000Y-78500000D01*
X215000000Y-78500000D02*
X220500000Y-73000000D01*
D22*
X79000000Y-135500000D02*
X79000000Y-148000000D01*
X81500000Y-135500000D02*
X81500000Y-148000000D01*
X84000000Y-135500000D02*
X84000000Y-148000000D01*
X86500000Y-135500000D02*
X86500000Y-148000000D01*
X89000000Y-135500000D02*
X89000000Y-148000000D01*
X91500000Y-135500000D02*
X91500000Y-148000000D01*
X94000000Y-135500000D02*
X94000000Y-148000000D01*
X99040000Y-147960000D02*
X99000000Y-148000000D01*
X99000000Y-135500000D02*
X99000000Y-148000000D01*
X101540000Y-147960000D02*
X101500000Y-148000000D01*
X101480000Y-147980000D02*
X101500000Y-148000000D01*
X101500000Y-135500000D02*
X101500000Y-148000000D01*
X104040000Y-147960000D02*
X104000000Y-148000000D01*
X104000000Y-135500000D02*
X104000000Y-148000000D01*
X106480000Y-147980000D02*
X106500000Y-148000000D01*
X106500000Y-135500000D02*
X106500000Y-148000000D01*
X109000000Y-135500000D02*
X109000000Y-148000000D01*
X111500000Y-135500000D02*
X111500000Y-148000000D01*
X136750000Y-68250000D02*
X143000000Y-62000000D01*
X136750000Y-95250000D02*
X136750000Y-68250000D01*
X135250000Y-66750000D02*
X141500000Y-60500000D01*
X135250000Y-92750000D02*
X135250000Y-66750000D01*
X141750000Y-89250000D02*
X143000000Y-89250000D01*
X139500000Y-91500000D02*
X141750000Y-89250000D01*
X137000000Y-98000000D02*
X139500000Y-95500000D01*
X121250000Y-88750000D02*
X130500000Y-98000000D01*
X121250000Y-81750000D02*
X121250000Y-88750000D01*
X139500000Y-95500000D02*
X139500000Y-91500000D01*
X119660000Y-80160000D02*
X121250000Y-81750000D01*
X130500000Y-98000000D02*
X137000000Y-98000000D01*
X118040000Y-80160000D02*
X119660000Y-80160000D01*
X125000000Y-87000000D02*
X131000000Y-93000000D01*
X125000000Y-75250000D02*
X125000000Y-87000000D01*
X119750000Y-70000000D02*
X125000000Y-75250000D01*
X118040000Y-70000000D02*
X119750000Y-70000000D01*
X119790000Y-72540000D02*
X118040000Y-72540000D01*
X123750000Y-76500000D02*
X119790000Y-72540000D01*
X123750000Y-88250000D02*
X123750000Y-76500000D01*
X129000000Y-93500000D02*
X123750000Y-88250000D01*
X134000000Y-148000000D02*
X134000000Y-135500000D01*
X136500000Y-148000000D02*
X136500000Y-135500000D01*
X141500000Y-148000000D02*
X141500000Y-135500000D01*
X139000000Y-148000000D02*
X139000000Y-135500000D01*
X144000000Y-148000000D02*
X144000000Y-135500000D01*
X124000000Y-135500000D02*
X124000000Y-113000000D01*
X126500000Y-135500000D02*
X126500000Y-113000000D01*
X129000000Y-135500000D02*
X129000000Y-113000000D01*
X131500000Y-135500000D02*
X131500000Y-113000000D01*
X155000000Y-103500000D02*
X151000000Y-103500000D01*
X156500000Y-102000000D02*
X155000000Y-103500000D01*
X196000000Y-102000000D02*
X156500000Y-102000000D01*
X207000000Y-113000000D02*
X196000000Y-102000000D01*
X207000000Y-117500000D02*
X207000000Y-113000000D01*
X210000000Y-133000000D02*
X205500000Y-133000000D01*
X205500000Y-133000000D02*
X202000000Y-129500000D01*
X202000000Y-122500000D02*
X207000000Y-117500000D01*
X202000000Y-129500000D02*
X202000000Y-122500000D01*
D21*
X185040000Y-144000000D02*
X215040000Y-144000000D01*
X169000000Y-148000000D02*
X166000000Y-151000000D01*
X99500000Y-151000000D02*
X96500000Y-148000000D01*
X166000000Y-151000000D02*
X99500000Y-151000000D01*
X164000000Y-148000000D02*
X161900000Y-150100000D01*
X118600000Y-150100000D02*
X116500000Y-148000000D01*
X161900000Y-150100000D02*
X118600000Y-150100000D01*
D23*
X86621432Y-34526691D02*
X86563052Y-34565700D01*
X86166713Y-35085693D01*
X88900000Y-37818981D01*
X91633287Y-35085693D01*
X91236948Y-34565700D01*
X90988152Y-34430000D01*
X210506065Y-34430000D01*
X210321432Y-34526691D01*
X210263052Y-34565700D01*
X209866713Y-35085693D01*
X212600000Y-37818981D01*
X215333287Y-35085693D01*
X214936948Y-34565700D01*
X214688152Y-34430000D01*
X227570000Y-34430000D01*
X227570001Y-160570000D01*
X214693935Y-160570000D01*
X214878568Y-160473309D01*
X214936948Y-160434300D01*
X215333287Y-159914307D01*
X212600000Y-157181019D01*
X209866713Y-159914307D01*
X210263052Y-160434300D01*
X210511848Y-160570000D01*
X90993935Y-160570000D01*
X91178568Y-160473309D01*
X91236948Y-160434300D01*
X91633287Y-159914307D01*
X88900000Y-157181019D01*
X86166713Y-159914307D01*
X86563052Y-160434300D01*
X86811848Y-160570000D01*
X73930000Y-160570000D01*
X73930000Y-156964894D01*
X84746145Y-156964894D01*
X84819111Y-157775945D01*
X85048903Y-158557177D01*
X85426691Y-159278568D01*
X85465700Y-159336948D01*
X85985693Y-159733287D01*
X88718981Y-157000000D01*
X89081019Y-157000000D01*
X91814307Y-159733287D01*
X92334300Y-159336948D01*
X92724227Y-158622046D01*
X92967191Y-157844809D01*
X93053855Y-157035106D01*
X93047539Y-156964894D01*
X208446145Y-156964894D01*
X208519111Y-157775945D01*
X208748903Y-158557177D01*
X209126691Y-159278568D01*
X209165700Y-159336948D01*
X209685693Y-159733287D01*
X212418981Y-157000000D01*
X212781019Y-157000000D01*
X215514307Y-159733287D01*
X216034300Y-159336948D01*
X216424227Y-158622046D01*
X216667191Y-157844809D01*
X216753855Y-157035106D01*
X216680889Y-156224055D01*
X216451097Y-155442823D01*
X216073309Y-154721432D01*
X216034300Y-154663052D01*
X215514307Y-154266713D01*
X212781019Y-157000000D01*
X212418981Y-157000000D01*
X209685693Y-154266713D01*
X209165700Y-154663052D01*
X208775773Y-155377954D01*
X208532809Y-156155191D01*
X208446145Y-156964894D01*
X93047539Y-156964894D01*
X92980889Y-156224055D01*
X92751097Y-155442823D01*
X92373309Y-154721432D01*
X92334300Y-154663052D01*
X91814307Y-154266713D01*
X89081019Y-157000000D01*
X88718981Y-157000000D01*
X85985693Y-154266713D01*
X85465700Y-154663052D01*
X85075773Y-155377954D01*
X84832809Y-156155191D01*
X84746145Y-156964894D01*
X73930000Y-156964894D01*
X73930000Y-154085693D01*
X86166713Y-154085693D01*
X88900000Y-156818981D01*
X91633287Y-154085693D01*
X209866713Y-154085693D01*
X212600000Y-156818981D01*
X215333287Y-154085693D01*
X214936948Y-153565700D01*
X214222046Y-153175773D01*
X213444809Y-152932809D01*
X212635106Y-152846145D01*
X211824055Y-152919111D01*
X211042823Y-153148903D01*
X210321432Y-153526691D01*
X210263052Y-153565700D01*
X209866713Y-154085693D01*
X91633287Y-154085693D01*
X91236948Y-153565700D01*
X90522046Y-153175773D01*
X89744809Y-152932809D01*
X88935106Y-152846145D01*
X88124055Y-152919111D01*
X87342823Y-153148903D01*
X86621432Y-153526691D01*
X86563052Y-153565700D01*
X86166713Y-154085693D01*
X73930000Y-154085693D01*
X73930000Y-147050000D01*
X77420972Y-147050000D01*
X77420972Y-148950000D01*
X77433059Y-149072717D01*
X77468854Y-149190719D01*
X77526982Y-149299469D01*
X77605210Y-149394790D01*
X77700531Y-149473018D01*
X77809281Y-149531146D01*
X77927283Y-149566941D01*
X78050000Y-149579028D01*
X79950000Y-149579028D01*
X80072717Y-149566941D01*
X80190719Y-149531146D01*
X80299469Y-149473018D01*
X80394790Y-149394790D01*
X80473018Y-149299469D01*
X80508558Y-149232979D01*
X80753484Y-149396633D01*
X81040298Y-149515436D01*
X81344778Y-149576000D01*
X81655222Y-149576000D01*
X81959702Y-149515436D01*
X82246516Y-149396633D01*
X82504642Y-149224159D01*
X82724159Y-149004642D01*
X82750000Y-148965968D01*
X82775841Y-149004642D01*
X82995358Y-149224159D01*
X83253484Y-149396633D01*
X83540298Y-149515436D01*
X83844778Y-149576000D01*
X84155222Y-149576000D01*
X84459702Y-149515436D01*
X84746516Y-149396633D01*
X85004642Y-149224159D01*
X85224159Y-149004642D01*
X85250000Y-148965968D01*
X85275841Y-149004642D01*
X85495358Y-149224159D01*
X85753484Y-149396633D01*
X86040298Y-149515436D01*
X86344778Y-149576000D01*
X86655222Y-149576000D01*
X86959702Y-149515436D01*
X87246516Y-149396633D01*
X87504642Y-149224159D01*
X87724159Y-149004642D01*
X87750000Y-148965968D01*
X87775841Y-149004642D01*
X87995358Y-149224159D01*
X88253484Y-149396633D01*
X88540298Y-149515436D01*
X88844778Y-149576000D01*
X89155222Y-149576000D01*
X89459702Y-149515436D01*
X89746516Y-149396633D01*
X90004642Y-149224159D01*
X90224159Y-149004642D01*
X90250000Y-148965968D01*
X90275841Y-149004642D01*
X90495358Y-149224159D01*
X90753484Y-149396633D01*
X91040298Y-149515436D01*
X91344778Y-149576000D01*
X91655222Y-149576000D01*
X91959702Y-149515436D01*
X92246516Y-149396633D01*
X92504642Y-149224159D01*
X92724159Y-149004642D01*
X92750000Y-148965968D01*
X92775841Y-149004642D01*
X92995358Y-149224159D01*
X93253484Y-149396633D01*
X93540298Y-149515436D01*
X93844778Y-149576000D01*
X94155222Y-149576000D01*
X94459702Y-149515436D01*
X94746516Y-149396633D01*
X95004642Y-149224159D01*
X95224159Y-149004642D01*
X95250000Y-148965968D01*
X95275841Y-149004642D01*
X95495358Y-149224159D01*
X95753484Y-149396633D01*
X96040298Y-149515436D01*
X96344778Y-149576000D01*
X96655222Y-149576000D01*
X96959702Y-149515436D01*
X97076219Y-149467173D01*
X99032638Y-151423593D01*
X99052367Y-151447633D01*
X99148297Y-151526360D01*
X99257743Y-151584860D01*
X99376498Y-151620884D01*
X99469053Y-151630000D01*
X99469054Y-151630000D01*
X99500000Y-151633048D01*
X99530946Y-151630000D01*
X165969054Y-151630000D01*
X166000000Y-151633048D01*
X166030946Y-151630000D01*
X166030947Y-151630000D01*
X166123502Y-151620884D01*
X166242257Y-151584860D01*
X166351703Y-151526360D01*
X166447633Y-151447633D01*
X166467366Y-151423588D01*
X168423782Y-149467173D01*
X168540298Y-149515436D01*
X168844778Y-149576000D01*
X169155222Y-149576000D01*
X169459702Y-149515436D01*
X169746516Y-149396633D01*
X170004642Y-149224159D01*
X170224159Y-149004642D01*
X170250000Y-148965968D01*
X170275841Y-149004642D01*
X170495358Y-149224159D01*
X170753484Y-149396633D01*
X171040298Y-149515436D01*
X171344778Y-149576000D01*
X171655222Y-149576000D01*
X171959702Y-149515436D01*
X172246516Y-149396633D01*
X172504642Y-149224159D01*
X172724159Y-149004642D01*
X172750000Y-148965968D01*
X172775841Y-149004642D01*
X172995358Y-149224159D01*
X173253484Y-149396633D01*
X173540298Y-149515436D01*
X173844778Y-149576000D01*
X174155222Y-149576000D01*
X174459702Y-149515436D01*
X174746516Y-149396633D01*
X175004642Y-149224159D01*
X175128941Y-149099860D01*
X175581159Y-149099860D01*
X175671028Y-149358750D01*
X175952035Y-149494366D01*
X176254101Y-149572555D01*
X176565616Y-149590311D01*
X176874609Y-149546952D01*
X177169206Y-149444145D01*
X177328972Y-149358750D01*
X177418841Y-149099860D01*
X176500000Y-148181019D01*
X175581159Y-149099860D01*
X175128941Y-149099860D01*
X175224159Y-149004642D01*
X175303828Y-148885408D01*
X175400140Y-148918841D01*
X176318981Y-148000000D01*
X176681019Y-148000000D01*
X177599860Y-148918841D01*
X177858750Y-148828972D01*
X177994366Y-148547965D01*
X178072555Y-148245899D01*
X178090311Y-147934384D01*
X178046952Y-147625391D01*
X177944145Y-147330794D01*
X177858750Y-147171028D01*
X177599860Y-147081159D01*
X176681019Y-148000000D01*
X176318981Y-148000000D01*
X175400140Y-147081159D01*
X175303828Y-147114592D01*
X175224159Y-146995358D01*
X175128941Y-146900140D01*
X175581159Y-146900140D01*
X176500000Y-147818981D01*
X177418841Y-146900140D01*
X177328972Y-146641250D01*
X177047965Y-146505634D01*
X176745899Y-146427445D01*
X176434384Y-146409689D01*
X176125391Y-146453048D01*
X175830794Y-146555855D01*
X175671028Y-146641250D01*
X175581159Y-146900140D01*
X175128941Y-146900140D01*
X175004642Y-146775841D01*
X174746516Y-146603367D01*
X174459702Y-146484564D01*
X174155222Y-146424000D01*
X173844778Y-146424000D01*
X173540298Y-146484564D01*
X173253484Y-146603367D01*
X172995358Y-146775841D01*
X172775841Y-146995358D01*
X172750000Y-147034032D01*
X172724159Y-146995358D01*
X172504642Y-146775841D01*
X172246516Y-146603367D01*
X172130000Y-146555104D01*
X172130000Y-143923177D01*
X184260000Y-143923177D01*
X184260000Y-144076823D01*
X184289975Y-144227518D01*
X184348773Y-144369469D01*
X184434135Y-144497221D01*
X184542779Y-144605865D01*
X184670531Y-144691227D01*
X184812482Y-144750025D01*
X184963177Y-144780000D01*
X185116823Y-144780000D01*
X185267518Y-144750025D01*
X185409469Y-144691227D01*
X185501101Y-144630000D01*
X214578899Y-144630000D01*
X214670531Y-144691227D01*
X214812482Y-144750025D01*
X214963177Y-144780000D01*
X215116823Y-144780000D01*
X215267518Y-144750025D01*
X215409469Y-144691227D01*
X215537221Y-144605865D01*
X215645865Y-144497221D01*
X215731227Y-144369469D01*
X215790025Y-144227518D01*
X215820000Y-144076823D01*
X215820000Y-143923177D01*
X215790025Y-143772482D01*
X215731227Y-143630531D01*
X215645865Y-143502779D01*
X215537221Y-143394135D01*
X215409469Y-143308773D01*
X215267518Y-143249975D01*
X215116823Y-143220000D01*
X214963177Y-143220000D01*
X214812482Y-143249975D01*
X214670531Y-143308773D01*
X214578899Y-143370000D01*
X185501101Y-143370000D01*
X185409469Y-143308773D01*
X185267518Y-143249975D01*
X185116823Y-143220000D01*
X184963177Y-143220000D01*
X184812482Y-143249975D01*
X184670531Y-143308773D01*
X184542779Y-143394135D01*
X184434135Y-143502779D01*
X184348773Y-143630531D01*
X184289975Y-143772482D01*
X184260000Y-143923177D01*
X172130000Y-143923177D01*
X172130000Y-143030945D01*
X172133048Y-142999999D01*
X172120884Y-142876498D01*
X172084860Y-142757743D01*
X172026360Y-142648297D01*
X171947633Y-142552367D01*
X171923588Y-142532634D01*
X170814131Y-141423177D01*
X179180000Y-141423177D01*
X179180000Y-141576823D01*
X179209975Y-141727518D01*
X179268773Y-141869469D01*
X179354135Y-141997221D01*
X179462779Y-142105865D01*
X179590531Y-142191227D01*
X179732482Y-142250025D01*
X179883177Y-142280000D01*
X180036823Y-142280000D01*
X180187518Y-142250025D01*
X180329469Y-142191227D01*
X180421101Y-142130000D01*
X209498899Y-142130000D01*
X209590531Y-142191227D01*
X209732482Y-142250025D01*
X209883177Y-142280000D01*
X210036823Y-142280000D01*
X210187518Y-142250025D01*
X210329469Y-142191227D01*
X210457221Y-142105865D01*
X210565865Y-141997221D01*
X210651227Y-141869469D01*
X210710025Y-141727518D01*
X210740000Y-141576823D01*
X210740000Y-141423177D01*
X210710025Y-141272482D01*
X210651227Y-141130531D01*
X210565865Y-141002779D01*
X210457221Y-140894135D01*
X210329469Y-140808773D01*
X210187518Y-140749975D01*
X210036823Y-140720000D01*
X209883177Y-140720000D01*
X209732482Y-140749975D01*
X209590531Y-140808773D01*
X209498899Y-140870000D01*
X180421101Y-140870000D01*
X180329469Y-140808773D01*
X180187518Y-140749975D01*
X180036823Y-140720000D01*
X179883177Y-140720000D01*
X179732482Y-140749975D01*
X179590531Y-140808773D01*
X179462779Y-140894135D01*
X179354135Y-141002779D01*
X179268773Y-141130531D01*
X179209975Y-141272482D01*
X179180000Y-141423177D01*
X170814131Y-141423177D01*
X170467366Y-141076412D01*
X170447633Y-141052367D01*
X170351703Y-140973640D01*
X170242257Y-140915140D01*
X170123502Y-140879116D01*
X170030947Y-140870000D01*
X170030946Y-140870000D01*
X170000000Y-140866952D01*
X169969054Y-140870000D01*
X164260954Y-140870000D01*
X163130000Y-139739046D01*
X163130000Y-136530946D01*
X163133048Y-136500000D01*
X163120884Y-136376499D01*
X163084860Y-136257743D01*
X163080735Y-136250025D01*
X163026360Y-136148297D01*
X162947633Y-136052367D01*
X162923593Y-136032638D01*
X162540955Y-135650000D01*
X178229762Y-135650000D01*
X178229762Y-137350000D01*
X178246676Y-137521726D01*
X178296766Y-137686852D01*
X178378109Y-137839034D01*
X178487578Y-137972422D01*
X178620966Y-138081891D01*
X178773148Y-138163234D01*
X178938274Y-138213324D01*
X179110000Y-138230238D01*
X180810000Y-138230238D01*
X180981726Y-138213324D01*
X181146852Y-138163234D01*
X181299034Y-138081891D01*
X181432422Y-137972422D01*
X181490679Y-137901435D01*
X181682433Y-138029561D01*
X181996544Y-138159670D01*
X182330004Y-138226000D01*
X182669996Y-138226000D01*
X183003456Y-138159670D01*
X183317567Y-138029561D01*
X183600261Y-137840671D01*
X183770000Y-137670932D01*
X183939739Y-137840671D01*
X184222433Y-138029561D01*
X184536544Y-138159670D01*
X184870004Y-138226000D01*
X185209996Y-138226000D01*
X185543456Y-138159670D01*
X185857567Y-138029561D01*
X186140261Y-137840671D01*
X186380671Y-137600261D01*
X186569561Y-137317567D01*
X186699670Y-137003456D01*
X186766000Y-136669996D01*
X186766000Y-136330004D01*
X186699670Y-135996544D01*
X186569561Y-135682433D01*
X186547890Y-135650000D01*
X208229762Y-135650000D01*
X208229762Y-137350000D01*
X208246676Y-137521726D01*
X208296766Y-137686852D01*
X208378109Y-137839034D01*
X208487578Y-137972422D01*
X208620966Y-138081891D01*
X208773148Y-138163234D01*
X208938274Y-138213324D01*
X209110000Y-138230238D01*
X210810000Y-138230238D01*
X210981726Y-138213324D01*
X211146852Y-138163234D01*
X211299034Y-138081891D01*
X211432422Y-137972422D01*
X211490679Y-137901435D01*
X211682433Y-138029561D01*
X211996544Y-138159670D01*
X212330004Y-138226000D01*
X212669996Y-138226000D01*
X213003456Y-138159670D01*
X213317567Y-138029561D01*
X213600261Y-137840671D01*
X213770000Y-137670932D01*
X213939739Y-137840671D01*
X214222433Y-138029561D01*
X214536544Y-138159670D01*
X214870004Y-138226000D01*
X215209996Y-138226000D01*
X215543456Y-138159670D01*
X215857567Y-138029561D01*
X216140261Y-137840671D01*
X216380671Y-137600261D01*
X216569561Y-137317567D01*
X216699670Y-137003456D01*
X216766000Y-136669996D01*
X216766000Y-136330004D01*
X216699670Y-135996544D01*
X216569561Y-135682433D01*
X216380671Y-135399739D01*
X216140261Y-135159329D01*
X215857567Y-134970439D01*
X215543456Y-134840330D01*
X215209996Y-134774000D01*
X214870004Y-134774000D01*
X214536544Y-134840330D01*
X214222433Y-134970439D01*
X213939739Y-135159329D01*
X213770000Y-135329068D01*
X213600261Y-135159329D01*
X213317567Y-134970439D01*
X213003456Y-134840330D01*
X212669996Y-134774000D01*
X212330004Y-134774000D01*
X211996544Y-134840330D01*
X211682433Y-134970439D01*
X211490679Y-135098565D01*
X211432422Y-135027578D01*
X211299034Y-134918109D01*
X211146852Y-134836766D01*
X210981726Y-134786676D01*
X210810000Y-134769762D01*
X209110000Y-134769762D01*
X208938274Y-134786676D01*
X208773148Y-134836766D01*
X208620966Y-134918109D01*
X208487578Y-135027578D01*
X208378109Y-135160966D01*
X208296766Y-135313148D01*
X208246676Y-135478274D01*
X208229762Y-135650000D01*
X186547890Y-135650000D01*
X186380671Y-135399739D01*
X186140261Y-135159329D01*
X185857567Y-134970439D01*
X185543456Y-134840330D01*
X185209996Y-134774000D01*
X184870004Y-134774000D01*
X184536544Y-134840330D01*
X184222433Y-134970439D01*
X183939739Y-135159329D01*
X183770000Y-135329068D01*
X183600261Y-135159329D01*
X183317567Y-134970439D01*
X183003456Y-134840330D01*
X182669996Y-134774000D01*
X182330004Y-134774000D01*
X181996544Y-134840330D01*
X181682433Y-134970439D01*
X181490679Y-135098565D01*
X181432422Y-135027578D01*
X181299034Y-134918109D01*
X181146852Y-134836766D01*
X180981726Y-134786676D01*
X180810000Y-134769762D01*
X179110000Y-134769762D01*
X178938274Y-134786676D01*
X178773148Y-134836766D01*
X178620966Y-134918109D01*
X178487578Y-135027578D01*
X178378109Y-135160966D01*
X178296766Y-135313148D01*
X178246676Y-135478274D01*
X178229762Y-135650000D01*
X162540955Y-135650000D01*
X159967366Y-133076412D01*
X159947633Y-133052367D01*
X159851703Y-132973640D01*
X159742257Y-132915140D01*
X159623502Y-132879116D01*
X159530947Y-132870000D01*
X159530946Y-132870000D01*
X159500000Y-132866952D01*
X159469054Y-132870000D01*
X143211101Y-132870000D01*
X143119469Y-132808773D01*
X142977518Y-132749975D01*
X142826823Y-132720000D01*
X142673177Y-132720000D01*
X142522482Y-132749975D01*
X142380531Y-132808773D01*
X142252779Y-132894135D01*
X142144135Y-133002779D01*
X142058773Y-133130531D01*
X141999975Y-133272482D01*
X141970000Y-133423177D01*
X141970000Y-133576823D01*
X141999975Y-133727518D01*
X142058773Y-133869469D01*
X142144135Y-133997221D01*
X142252779Y-134105865D01*
X142380531Y-134191227D01*
X142522482Y-134250025D01*
X142673177Y-134280000D01*
X142826823Y-134280000D01*
X142977518Y-134250025D01*
X143119469Y-134191227D01*
X143211101Y-134130000D01*
X159239046Y-134130000D01*
X161870001Y-136760956D01*
X161870000Y-139969054D01*
X161866952Y-140000000D01*
X161870000Y-140030946D01*
X161879116Y-140123501D01*
X161915140Y-140242256D01*
X161973640Y-140351702D01*
X162052367Y-140447633D01*
X162076412Y-140467366D01*
X163532634Y-141923588D01*
X163552367Y-141947633D01*
X163648297Y-142026360D01*
X163757743Y-142084860D01*
X163876498Y-142120884D01*
X163999999Y-142133048D01*
X164030945Y-142130000D01*
X169739046Y-142130000D01*
X170870001Y-143260955D01*
X170870000Y-146555104D01*
X170753484Y-146603367D01*
X170495358Y-146775841D01*
X170275841Y-146995358D01*
X170250000Y-147034032D01*
X170224159Y-146995358D01*
X170004642Y-146775841D01*
X169746516Y-146603367D01*
X169459702Y-146484564D01*
X169155222Y-146424000D01*
X168844778Y-146424000D01*
X168540298Y-146484564D01*
X168253484Y-146603367D01*
X167995358Y-146775841D01*
X167775841Y-146995358D01*
X167750000Y-147034032D01*
X167724159Y-146995358D01*
X167504642Y-146775841D01*
X167246516Y-146603367D01*
X166959702Y-146484564D01*
X166655222Y-146424000D01*
X166344778Y-146424000D01*
X166040298Y-146484564D01*
X165753484Y-146603367D01*
X165508558Y-146767021D01*
X165473018Y-146700531D01*
X165394790Y-146605210D01*
X165299469Y-146526982D01*
X165190719Y-146468854D01*
X165072717Y-146433059D01*
X164950000Y-146420972D01*
X163050000Y-146420972D01*
X162927283Y-146433059D01*
X162809281Y-146468854D01*
X162700531Y-146526982D01*
X162605210Y-146605210D01*
X162526982Y-146700531D01*
X162468854Y-146809281D01*
X162433059Y-146927283D01*
X162420972Y-147050000D01*
X162420972Y-148688074D01*
X161639046Y-149470000D01*
X157069394Y-149470000D01*
X157246516Y-149396633D01*
X157504642Y-149224159D01*
X157724159Y-149004642D01*
X157896633Y-148746516D01*
X158015436Y-148459702D01*
X158076000Y-148155222D01*
X158076000Y-147844778D01*
X158015436Y-147540298D01*
X157896633Y-147253484D01*
X157724159Y-146995358D01*
X157504642Y-146775841D01*
X157246516Y-146603367D01*
X156959702Y-146484564D01*
X156655222Y-146424000D01*
X156344778Y-146424000D01*
X156040298Y-146484564D01*
X155753484Y-146603367D01*
X155495358Y-146775841D01*
X155275841Y-146995358D01*
X155250000Y-147034032D01*
X155224159Y-146995358D01*
X155004642Y-146775841D01*
X154746516Y-146603367D01*
X154459702Y-146484564D01*
X154155222Y-146424000D01*
X153844778Y-146424000D01*
X153540298Y-146484564D01*
X153253484Y-146603367D01*
X152995358Y-146775841D01*
X152775841Y-146995358D01*
X152750000Y-147034032D01*
X152724159Y-146995358D01*
X152504642Y-146775841D01*
X152246516Y-146603367D01*
X151959702Y-146484564D01*
X151655222Y-146424000D01*
X151344778Y-146424000D01*
X151040298Y-146484564D01*
X150753484Y-146603367D01*
X150495358Y-146775841D01*
X150275841Y-146995358D01*
X150250000Y-147034032D01*
X150224159Y-146995358D01*
X150004642Y-146775841D01*
X149746516Y-146603367D01*
X149459702Y-146484564D01*
X149155222Y-146424000D01*
X148844778Y-146424000D01*
X148540298Y-146484564D01*
X148253484Y-146603367D01*
X147995358Y-146775841D01*
X147775841Y-146995358D01*
X147750000Y-147034032D01*
X147724159Y-146995358D01*
X147504642Y-146775841D01*
X147246516Y-146603367D01*
X146959702Y-146484564D01*
X146655222Y-146424000D01*
X146344778Y-146424000D01*
X146040298Y-146484564D01*
X145753484Y-146603367D01*
X145495358Y-146775841D01*
X145275841Y-146995358D01*
X145250000Y-147034032D01*
X145224159Y-146995358D01*
X145004642Y-146775841D01*
X144746516Y-146603367D01*
X144505000Y-146503327D01*
X144505000Y-136098086D01*
X144605865Y-135997221D01*
X144691227Y-135869469D01*
X144750025Y-135727518D01*
X144780000Y-135576823D01*
X144780000Y-135423177D01*
X144750025Y-135272482D01*
X144691227Y-135130531D01*
X144605865Y-135002779D01*
X144497221Y-134894135D01*
X144369469Y-134808773D01*
X144227518Y-134749975D01*
X144076823Y-134720000D01*
X143923177Y-134720000D01*
X143772482Y-134749975D01*
X143630531Y-134808773D01*
X143502779Y-134894135D01*
X143394135Y-135002779D01*
X143308773Y-135130531D01*
X143249975Y-135272482D01*
X143220000Y-135423177D01*
X143220000Y-135576823D01*
X143249975Y-135727518D01*
X143308773Y-135869469D01*
X143394135Y-135997221D01*
X143495001Y-136098087D01*
X143495000Y-146503327D01*
X143253484Y-146603367D01*
X142995358Y-146775841D01*
X142775841Y-146995358D01*
X142750000Y-147034032D01*
X142724159Y-146995358D01*
X142504642Y-146775841D01*
X142246516Y-146603367D01*
X142005000Y-146503327D01*
X142005000Y-136098086D01*
X142105865Y-135997221D01*
X142191227Y-135869469D01*
X142250025Y-135727518D01*
X142280000Y-135576823D01*
X142280000Y-135423177D01*
X142250025Y-135272482D01*
X142191227Y-135130531D01*
X142105865Y-135002779D01*
X141997221Y-134894135D01*
X141869469Y-134808773D01*
X141727518Y-134749975D01*
X141576823Y-134720000D01*
X141423177Y-134720000D01*
X141272482Y-134749975D01*
X141130531Y-134808773D01*
X141002779Y-134894135D01*
X140894135Y-135002779D01*
X140808773Y-135130531D01*
X140749975Y-135272482D01*
X140720000Y-135423177D01*
X140720000Y-135576823D01*
X140749975Y-135727518D01*
X140808773Y-135869469D01*
X140894135Y-135997221D01*
X140995001Y-136098087D01*
X140995000Y-146503327D01*
X140753484Y-146603367D01*
X140495358Y-146775841D01*
X140275841Y-146995358D01*
X140250000Y-147034032D01*
X140224159Y-146995358D01*
X140004642Y-146775841D01*
X139746516Y-146603367D01*
X139505000Y-146503327D01*
X139505000Y-136098086D01*
X139605865Y-135997221D01*
X139691227Y-135869469D01*
X139750025Y-135727518D01*
X139780000Y-135576823D01*
X139780000Y-135423177D01*
X139750025Y-135272482D01*
X139691227Y-135130531D01*
X139605865Y-135002779D01*
X139497221Y-134894135D01*
X139369469Y-134808773D01*
X139227518Y-134749975D01*
X139076823Y-134720000D01*
X138923177Y-134720000D01*
X138772482Y-134749975D01*
X138630531Y-134808773D01*
X138502779Y-134894135D01*
X138394135Y-135002779D01*
X138308773Y-135130531D01*
X138249975Y-135272482D01*
X138220000Y-135423177D01*
X138220000Y-135576823D01*
X138249975Y-135727518D01*
X138308773Y-135869469D01*
X138394135Y-135997221D01*
X138495001Y-136098087D01*
X138495000Y-146503327D01*
X138253484Y-146603367D01*
X137995358Y-146775841D01*
X137775841Y-146995358D01*
X137750000Y-147034032D01*
X137724159Y-146995358D01*
X137504642Y-146775841D01*
X137246516Y-146603367D01*
X137005000Y-146503327D01*
X137005000Y-136098086D01*
X137105865Y-135997221D01*
X137191227Y-135869469D01*
X137250025Y-135727518D01*
X137280000Y-135576823D01*
X137280000Y-135423177D01*
X137250025Y-135272482D01*
X137191227Y-135130531D01*
X137105865Y-135002779D01*
X136997221Y-134894135D01*
X136869469Y-134808773D01*
X136727518Y-134749975D01*
X136576823Y-134720000D01*
X136423177Y-134720000D01*
X136272482Y-134749975D01*
X136130531Y-134808773D01*
X136002779Y-134894135D01*
X135894135Y-135002779D01*
X135808773Y-135130531D01*
X135749975Y-135272482D01*
X135720000Y-135423177D01*
X135720000Y-135576823D01*
X135749975Y-135727518D01*
X135808773Y-135869469D01*
X135894135Y-135997221D01*
X135995001Y-136098087D01*
X135995000Y-146503327D01*
X135753484Y-146603367D01*
X135495358Y-146775841D01*
X135275841Y-146995358D01*
X135250000Y-147034032D01*
X135224159Y-146995358D01*
X135004642Y-146775841D01*
X134746516Y-146603367D01*
X134505000Y-146503327D01*
X134505000Y-136098086D01*
X134605865Y-135997221D01*
X134691227Y-135869469D01*
X134750025Y-135727518D01*
X134780000Y-135576823D01*
X134780000Y-135423177D01*
X134750025Y-135272482D01*
X134691227Y-135130531D01*
X134605865Y-135002779D01*
X134497221Y-134894135D01*
X134369469Y-134808773D01*
X134227518Y-134749975D01*
X134076823Y-134720000D01*
X133923177Y-134720000D01*
X133772482Y-134749975D01*
X133630531Y-134808773D01*
X133502779Y-134894135D01*
X133394135Y-135002779D01*
X133308773Y-135130531D01*
X133249975Y-135272482D01*
X133220000Y-135423177D01*
X133220000Y-135576823D01*
X133249975Y-135727518D01*
X133308773Y-135869469D01*
X133394135Y-135997221D01*
X133495001Y-136098087D01*
X133495000Y-146503327D01*
X133253484Y-146603367D01*
X132995358Y-146775841D01*
X132775841Y-146995358D01*
X132750000Y-147034032D01*
X132724159Y-146995358D01*
X132504642Y-146775841D01*
X132246516Y-146603367D01*
X131959702Y-146484564D01*
X131655222Y-146424000D01*
X131344778Y-146424000D01*
X131040298Y-146484564D01*
X130753484Y-146603367D01*
X130495358Y-146775841D01*
X130275841Y-146995358D01*
X130250000Y-147034032D01*
X130224159Y-146995358D01*
X130004642Y-146775841D01*
X129746516Y-146603367D01*
X129459702Y-146484564D01*
X129155222Y-146424000D01*
X128844778Y-146424000D01*
X128540298Y-146484564D01*
X128253484Y-146603367D01*
X127995358Y-146775841D01*
X127775841Y-146995358D01*
X127750000Y-147034032D01*
X127724159Y-146995358D01*
X127504642Y-146775841D01*
X127246516Y-146603367D01*
X126959702Y-146484564D01*
X126655222Y-146424000D01*
X126344778Y-146424000D01*
X126040298Y-146484564D01*
X125753484Y-146603367D01*
X125508558Y-146767021D01*
X125473018Y-146700531D01*
X125394790Y-146605210D01*
X125299469Y-146526982D01*
X125190719Y-146468854D01*
X125072717Y-146433059D01*
X124950000Y-146420972D01*
X123050000Y-146420972D01*
X122927283Y-146433059D01*
X122809281Y-146468854D01*
X122700531Y-146526982D01*
X122605210Y-146605210D01*
X122526982Y-146700531D01*
X122468854Y-146809281D01*
X122433059Y-146927283D01*
X122420972Y-147050000D01*
X122420972Y-148950000D01*
X122433059Y-149072717D01*
X122468854Y-149190719D01*
X122526982Y-149299469D01*
X122605210Y-149394790D01*
X122696854Y-149470000D01*
X118860954Y-149470000D01*
X117967173Y-148576219D01*
X118015436Y-148459702D01*
X118076000Y-148155222D01*
X118076000Y-147844778D01*
X118015436Y-147540298D01*
X117896633Y-147253484D01*
X117724159Y-146995358D01*
X117504642Y-146775841D01*
X117246516Y-146603367D01*
X116959702Y-146484564D01*
X116655222Y-146424000D01*
X116344778Y-146424000D01*
X116040298Y-146484564D01*
X115753484Y-146603367D01*
X115495358Y-146775841D01*
X115275841Y-146995358D01*
X115250000Y-147034032D01*
X115224159Y-146995358D01*
X115004642Y-146775841D01*
X114746516Y-146603367D01*
X114459702Y-146484564D01*
X114155222Y-146424000D01*
X113844778Y-146424000D01*
X113540298Y-146484564D01*
X113253484Y-146603367D01*
X112995358Y-146775841D01*
X112775841Y-146995358D01*
X112750000Y-147034032D01*
X112724159Y-146995358D01*
X112504642Y-146775841D01*
X112246516Y-146603367D01*
X112005000Y-146503327D01*
X112005000Y-136098086D01*
X112105865Y-135997221D01*
X112191227Y-135869469D01*
X112250025Y-135727518D01*
X112280000Y-135576823D01*
X112280000Y-135423177D01*
X112250025Y-135272482D01*
X112191227Y-135130531D01*
X112105865Y-135002779D01*
X111997221Y-134894135D01*
X111869469Y-134808773D01*
X111727518Y-134749975D01*
X111576823Y-134720000D01*
X111423177Y-134720000D01*
X111272482Y-134749975D01*
X111130531Y-134808773D01*
X111002779Y-134894135D01*
X110894135Y-135002779D01*
X110808773Y-135130531D01*
X110749975Y-135272482D01*
X110720000Y-135423177D01*
X110720000Y-135576823D01*
X110749975Y-135727518D01*
X110808773Y-135869469D01*
X110894135Y-135997221D01*
X110995000Y-136098086D01*
X110995001Y-146503327D01*
X110753484Y-146603367D01*
X110495358Y-146775841D01*
X110275841Y-146995358D01*
X110250000Y-147034032D01*
X110224159Y-146995358D01*
X110004642Y-146775841D01*
X109746516Y-146603367D01*
X109505000Y-146503327D01*
X109505000Y-136098086D01*
X109605865Y-135997221D01*
X109691227Y-135869469D01*
X109750025Y-135727518D01*
X109780000Y-135576823D01*
X109780000Y-135423177D01*
X109750025Y-135272482D01*
X109691227Y-135130531D01*
X109605865Y-135002779D01*
X109497221Y-134894135D01*
X109369469Y-134808773D01*
X109227518Y-134749975D01*
X109076823Y-134720000D01*
X108923177Y-134720000D01*
X108772482Y-134749975D01*
X108630531Y-134808773D01*
X108502779Y-134894135D01*
X108394135Y-135002779D01*
X108308773Y-135130531D01*
X108249975Y-135272482D01*
X108220000Y-135423177D01*
X108220000Y-135576823D01*
X108249975Y-135727518D01*
X108308773Y-135869469D01*
X108394135Y-135997221D01*
X108495000Y-136098086D01*
X108495001Y-146503327D01*
X108253484Y-146603367D01*
X107995358Y-146775841D01*
X107775841Y-146995358D01*
X107750000Y-147034032D01*
X107724159Y-146995358D01*
X107504642Y-146775841D01*
X107246516Y-146603367D01*
X107005000Y-146503327D01*
X107005000Y-136098086D01*
X107105865Y-135997221D01*
X107191227Y-135869469D01*
X107250025Y-135727518D01*
X107280000Y-135576823D01*
X107280000Y-135423177D01*
X107250025Y-135272482D01*
X107191227Y-135130531D01*
X107105865Y-135002779D01*
X106997221Y-134894135D01*
X106869469Y-134808773D01*
X106727518Y-134749975D01*
X106576823Y-134720000D01*
X106423177Y-134720000D01*
X106272482Y-134749975D01*
X106130531Y-134808773D01*
X106002779Y-134894135D01*
X105894135Y-135002779D01*
X105808773Y-135130531D01*
X105749975Y-135272482D01*
X105720000Y-135423177D01*
X105720000Y-135576823D01*
X105749975Y-135727518D01*
X105808773Y-135869469D01*
X105894135Y-135997221D01*
X105995000Y-136098086D01*
X105995001Y-146503327D01*
X105753484Y-146603367D01*
X105495358Y-146775841D01*
X105275841Y-146995358D01*
X105250000Y-147034032D01*
X105224159Y-146995358D01*
X105004642Y-146775841D01*
X104746516Y-146603367D01*
X104505000Y-146503327D01*
X104505000Y-136098086D01*
X104605865Y-135997221D01*
X104691227Y-135869469D01*
X104750025Y-135727518D01*
X104780000Y-135576823D01*
X104780000Y-135423177D01*
X104750025Y-135272482D01*
X104691227Y-135130531D01*
X104605865Y-135002779D01*
X104497221Y-134894135D01*
X104369469Y-134808773D01*
X104227518Y-134749975D01*
X104076823Y-134720000D01*
X103923177Y-134720000D01*
X103772482Y-134749975D01*
X103630531Y-134808773D01*
X103502779Y-134894135D01*
X103394135Y-135002779D01*
X103308773Y-135130531D01*
X103249975Y-135272482D01*
X103220000Y-135423177D01*
X103220000Y-135576823D01*
X103249975Y-135727518D01*
X103308773Y-135869469D01*
X103394135Y-135997221D01*
X103495000Y-136098086D01*
X103495001Y-146503327D01*
X103253484Y-146603367D01*
X102995358Y-146775841D01*
X102775841Y-146995358D01*
X102750000Y-147034032D01*
X102724159Y-146995358D01*
X102504642Y-146775841D01*
X102246516Y-146603367D01*
X102005000Y-146503327D01*
X102005000Y-136098086D01*
X102105865Y-135997221D01*
X102191227Y-135869469D01*
X102250025Y-135727518D01*
X102280000Y-135576823D01*
X102280000Y-135423177D01*
X102250025Y-135272482D01*
X102191227Y-135130531D01*
X102105865Y-135002779D01*
X101997221Y-134894135D01*
X101869469Y-134808773D01*
X101727518Y-134749975D01*
X101576823Y-134720000D01*
X101423177Y-134720000D01*
X101272482Y-134749975D01*
X101130531Y-134808773D01*
X101002779Y-134894135D01*
X100894135Y-135002779D01*
X100808773Y-135130531D01*
X100749975Y-135272482D01*
X100720000Y-135423177D01*
X100720000Y-135576823D01*
X100749975Y-135727518D01*
X100808773Y-135869469D01*
X100894135Y-135997221D01*
X100995000Y-136098086D01*
X100995001Y-146503327D01*
X100753484Y-146603367D01*
X100495358Y-146775841D01*
X100275841Y-146995358D01*
X100250000Y-147034032D01*
X100224159Y-146995358D01*
X100004642Y-146775841D01*
X99746516Y-146603367D01*
X99505000Y-146503327D01*
X99505000Y-136098086D01*
X99605865Y-135997221D01*
X99691227Y-135869469D01*
X99750025Y-135727518D01*
X99780000Y-135576823D01*
X99780000Y-135423177D01*
X99750025Y-135272482D01*
X99691227Y-135130531D01*
X99605865Y-135002779D01*
X99497221Y-134894135D01*
X99369469Y-134808773D01*
X99227518Y-134749975D01*
X99076823Y-134720000D01*
X98923177Y-134720000D01*
X98772482Y-134749975D01*
X98630531Y-134808773D01*
X98502779Y-134894135D01*
X98394135Y-135002779D01*
X98308773Y-135130531D01*
X98249975Y-135272482D01*
X98220000Y-135423177D01*
X98220000Y-135576823D01*
X98249975Y-135727518D01*
X98308773Y-135869469D01*
X98394135Y-135997221D01*
X98495000Y-136098086D01*
X98495001Y-146503327D01*
X98253484Y-146603367D01*
X97995358Y-146775841D01*
X97775841Y-146995358D01*
X97750000Y-147034032D01*
X97724159Y-146995358D01*
X97504642Y-146775841D01*
X97246516Y-146603367D01*
X96959702Y-146484564D01*
X96655222Y-146424000D01*
X96344778Y-146424000D01*
X96040298Y-146484564D01*
X95753484Y-146603367D01*
X95495358Y-146775841D01*
X95275841Y-146995358D01*
X95250000Y-147034032D01*
X95224159Y-146995358D01*
X95004642Y-146775841D01*
X94746516Y-146603367D01*
X94505000Y-146503327D01*
X94505000Y-136098086D01*
X94605865Y-135997221D01*
X94691227Y-135869469D01*
X94750025Y-135727518D01*
X94780000Y-135576823D01*
X94780000Y-135423177D01*
X94750025Y-135272482D01*
X94691227Y-135130531D01*
X94605865Y-135002779D01*
X94497221Y-134894135D01*
X94369469Y-134808773D01*
X94227518Y-134749975D01*
X94076823Y-134720000D01*
X93923177Y-134720000D01*
X93772482Y-134749975D01*
X93630531Y-134808773D01*
X93502779Y-134894135D01*
X93394135Y-135002779D01*
X93308773Y-135130531D01*
X93249975Y-135272482D01*
X93220000Y-135423177D01*
X93220000Y-135576823D01*
X93249975Y-135727518D01*
X93308773Y-135869469D01*
X93394135Y-135997221D01*
X93495000Y-136098086D01*
X93495001Y-146503327D01*
X93253484Y-146603367D01*
X92995358Y-146775841D01*
X92775841Y-146995358D01*
X92750000Y-147034032D01*
X92724159Y-146995358D01*
X92504642Y-146775841D01*
X92246516Y-146603367D01*
X92005000Y-146503327D01*
X92005000Y-136098086D01*
X92105865Y-135997221D01*
X92191227Y-135869469D01*
X92250025Y-135727518D01*
X92280000Y-135576823D01*
X92280000Y-135423177D01*
X92250025Y-135272482D01*
X92191227Y-135130531D01*
X92105865Y-135002779D01*
X91997221Y-134894135D01*
X91869469Y-134808773D01*
X91727518Y-134749975D01*
X91576823Y-134720000D01*
X91423177Y-134720000D01*
X91272482Y-134749975D01*
X91130531Y-134808773D01*
X91002779Y-134894135D01*
X90894135Y-135002779D01*
X90808773Y-135130531D01*
X90749975Y-135272482D01*
X90720000Y-135423177D01*
X90720000Y-135576823D01*
X90749975Y-135727518D01*
X90808773Y-135869469D01*
X90894135Y-135997221D01*
X90995000Y-136098086D01*
X90995001Y-146503327D01*
X90753484Y-146603367D01*
X90495358Y-146775841D01*
X90275841Y-146995358D01*
X90250000Y-147034032D01*
X90224159Y-146995358D01*
X90004642Y-146775841D01*
X89746516Y-146603367D01*
X89505000Y-146503327D01*
X89505000Y-136098086D01*
X89605865Y-135997221D01*
X89691227Y-135869469D01*
X89750025Y-135727518D01*
X89780000Y-135576823D01*
X89780000Y-135423177D01*
X89750025Y-135272482D01*
X89691227Y-135130531D01*
X89605865Y-135002779D01*
X89497221Y-134894135D01*
X89369469Y-134808773D01*
X89227518Y-134749975D01*
X89076823Y-134720000D01*
X88923177Y-134720000D01*
X88772482Y-134749975D01*
X88630531Y-134808773D01*
X88502779Y-134894135D01*
X88394135Y-135002779D01*
X88308773Y-135130531D01*
X88249975Y-135272482D01*
X88220000Y-135423177D01*
X88220000Y-135576823D01*
X88249975Y-135727518D01*
X88308773Y-135869469D01*
X88394135Y-135997221D01*
X88495000Y-136098086D01*
X88495001Y-146503327D01*
X88253484Y-146603367D01*
X87995358Y-146775841D01*
X87775841Y-146995358D01*
X87750000Y-147034032D01*
X87724159Y-146995358D01*
X87504642Y-146775841D01*
X87246516Y-146603367D01*
X87005000Y-146503327D01*
X87005000Y-136098086D01*
X87105865Y-135997221D01*
X87191227Y-135869469D01*
X87250025Y-135727518D01*
X87280000Y-135576823D01*
X87280000Y-135423177D01*
X87250025Y-135272482D01*
X87191227Y-135130531D01*
X87105865Y-135002779D01*
X86997221Y-134894135D01*
X86869469Y-134808773D01*
X86727518Y-134749975D01*
X86576823Y-134720000D01*
X86423177Y-134720000D01*
X86272482Y-134749975D01*
X86130531Y-134808773D01*
X86002779Y-134894135D01*
X85894135Y-135002779D01*
X85808773Y-135130531D01*
X85749975Y-135272482D01*
X85720000Y-135423177D01*
X85720000Y-135576823D01*
X85749975Y-135727518D01*
X85808773Y-135869469D01*
X85894135Y-135997221D01*
X85995000Y-136098086D01*
X85995001Y-146503327D01*
X85753484Y-146603367D01*
X85495358Y-146775841D01*
X85275841Y-146995358D01*
X85250000Y-147034032D01*
X85224159Y-146995358D01*
X85004642Y-146775841D01*
X84746516Y-146603367D01*
X84505000Y-146503327D01*
X84505000Y-136098086D01*
X84605865Y-135997221D01*
X84691227Y-135869469D01*
X84750025Y-135727518D01*
X84780000Y-135576823D01*
X84780000Y-135423177D01*
X84750025Y-135272482D01*
X84691227Y-135130531D01*
X84605865Y-135002779D01*
X84497221Y-134894135D01*
X84369469Y-134808773D01*
X84227518Y-134749975D01*
X84076823Y-134720000D01*
X83923177Y-134720000D01*
X83772482Y-134749975D01*
X83630531Y-134808773D01*
X83502779Y-134894135D01*
X83394135Y-135002779D01*
X83308773Y-135130531D01*
X83249975Y-135272482D01*
X83220000Y-135423177D01*
X83220000Y-135576823D01*
X83249975Y-135727518D01*
X83308773Y-135869469D01*
X83394135Y-135997221D01*
X83495000Y-136098086D01*
X83495001Y-146503327D01*
X83253484Y-146603367D01*
X82995358Y-146775841D01*
X82775841Y-146995358D01*
X82750000Y-147034032D01*
X82724159Y-146995358D01*
X82504642Y-146775841D01*
X82246516Y-146603367D01*
X82005000Y-146503327D01*
X82005000Y-136098086D01*
X82105865Y-135997221D01*
X82191227Y-135869469D01*
X82250025Y-135727518D01*
X82280000Y-135576823D01*
X82280000Y-135423177D01*
X82250025Y-135272482D01*
X82191227Y-135130531D01*
X82105865Y-135002779D01*
X81997221Y-134894135D01*
X81869469Y-134808773D01*
X81727518Y-134749975D01*
X81576823Y-134720000D01*
X81423177Y-134720000D01*
X81272482Y-134749975D01*
X81130531Y-134808773D01*
X81002779Y-134894135D01*
X80894135Y-135002779D01*
X80808773Y-135130531D01*
X80749975Y-135272482D01*
X80720000Y-135423177D01*
X80720000Y-135576823D01*
X80749975Y-135727518D01*
X80808773Y-135869469D01*
X80894135Y-135997221D01*
X80995000Y-136098086D01*
X80995001Y-146503327D01*
X80753484Y-146603367D01*
X80508558Y-146767021D01*
X80473018Y-146700531D01*
X80394790Y-146605210D01*
X80299469Y-146526982D01*
X80190719Y-146468854D01*
X80072717Y-146433059D01*
X79950000Y-146420972D01*
X79505000Y-146420972D01*
X79505000Y-136098086D01*
X79605865Y-135997221D01*
X79691227Y-135869469D01*
X79750025Y-135727518D01*
X79780000Y-135576823D01*
X79780000Y-135423177D01*
X79750025Y-135272482D01*
X79691227Y-135130531D01*
X79605865Y-135002779D01*
X79497221Y-134894135D01*
X79369469Y-134808773D01*
X79227518Y-134749975D01*
X79076823Y-134720000D01*
X78923177Y-134720000D01*
X78772482Y-134749975D01*
X78630531Y-134808773D01*
X78502779Y-134894135D01*
X78394135Y-135002779D01*
X78308773Y-135130531D01*
X78249975Y-135272482D01*
X78220000Y-135423177D01*
X78220000Y-135576823D01*
X78249975Y-135727518D01*
X78308773Y-135869469D01*
X78394135Y-135997221D01*
X78495000Y-136098086D01*
X78495001Y-146420972D01*
X78050000Y-146420972D01*
X77927283Y-146433059D01*
X77809281Y-146468854D01*
X77700531Y-146526982D01*
X77605210Y-146605210D01*
X77526982Y-146700531D01*
X77468854Y-146809281D01*
X77433059Y-146927283D01*
X77420972Y-147050000D01*
X73930000Y-147050000D01*
X73930000Y-112923177D01*
X123220000Y-112923177D01*
X123220000Y-113076823D01*
X123249975Y-113227518D01*
X123308773Y-113369469D01*
X123394135Y-113497221D01*
X123495001Y-113598087D01*
X123495000Y-134901914D01*
X123394135Y-135002779D01*
X123308773Y-135130531D01*
X123249975Y-135272482D01*
X123220000Y-135423177D01*
X123220000Y-135576823D01*
X123249975Y-135727518D01*
X123308773Y-135869469D01*
X123394135Y-135997221D01*
X123502779Y-136105865D01*
X123630531Y-136191227D01*
X123772482Y-136250025D01*
X123923177Y-136280000D01*
X124076823Y-136280000D01*
X124227518Y-136250025D01*
X124369469Y-136191227D01*
X124497221Y-136105865D01*
X124605865Y-135997221D01*
X124691227Y-135869469D01*
X124750025Y-135727518D01*
X124780000Y-135576823D01*
X124780000Y-135423177D01*
X124750025Y-135272482D01*
X124691227Y-135130531D01*
X124605865Y-135002779D01*
X124505000Y-134901914D01*
X124505000Y-113598086D01*
X124605865Y-113497221D01*
X124691227Y-113369469D01*
X124750025Y-113227518D01*
X124780000Y-113076823D01*
X124780000Y-112923177D01*
X125720000Y-112923177D01*
X125720000Y-113076823D01*
X125749975Y-113227518D01*
X125808773Y-113369469D01*
X125894135Y-113497221D01*
X125995001Y-113598087D01*
X125995000Y-134901914D01*
X125894135Y-135002779D01*
X125808773Y-135130531D01*
X125749975Y-135272482D01*
X125720000Y-135423177D01*
X125720000Y-135576823D01*
X125749975Y-135727518D01*
X125808773Y-135869469D01*
X125894135Y-135997221D01*
X126002779Y-136105865D01*
X126130531Y-136191227D01*
X126272482Y-136250025D01*
X126423177Y-136280000D01*
X126576823Y-136280000D01*
X126727518Y-136250025D01*
X126869469Y-136191227D01*
X126997221Y-136105865D01*
X127105865Y-135997221D01*
X127191227Y-135869469D01*
X127250025Y-135727518D01*
X127280000Y-135576823D01*
X127280000Y-135423177D01*
X127250025Y-135272482D01*
X127191227Y-135130531D01*
X127105865Y-135002779D01*
X127005000Y-134901914D01*
X127005000Y-113598086D01*
X127105865Y-113497221D01*
X127191227Y-113369469D01*
X127250025Y-113227518D01*
X127280000Y-113076823D01*
X127280000Y-112923177D01*
X128220000Y-112923177D01*
X128220000Y-113076823D01*
X128249975Y-113227518D01*
X128308773Y-113369469D01*
X128394135Y-113497221D01*
X128495001Y-113598087D01*
X128495000Y-134901914D01*
X128394135Y-135002779D01*
X128308773Y-135130531D01*
X128249975Y-135272482D01*
X128220000Y-135423177D01*
X128220000Y-135576823D01*
X128249975Y-135727518D01*
X128308773Y-135869469D01*
X128394135Y-135997221D01*
X128502779Y-136105865D01*
X128630531Y-136191227D01*
X128772482Y-136250025D01*
X128923177Y-136280000D01*
X129076823Y-136280000D01*
X129227518Y-136250025D01*
X129369469Y-136191227D01*
X129497221Y-136105865D01*
X129605865Y-135997221D01*
X129691227Y-135869469D01*
X129750025Y-135727518D01*
X129780000Y-135576823D01*
X129780000Y-135423177D01*
X129750025Y-135272482D01*
X129691227Y-135130531D01*
X129605865Y-135002779D01*
X129505000Y-134901914D01*
X129505000Y-113598086D01*
X129605865Y-113497221D01*
X129691227Y-113369469D01*
X129750025Y-113227518D01*
X129780000Y-113076823D01*
X129780000Y-112923177D01*
X130720000Y-112923177D01*
X130720000Y-113076823D01*
X130749975Y-113227518D01*
X130808773Y-113369469D01*
X130894135Y-113497221D01*
X130995001Y-113598087D01*
X130995000Y-134901914D01*
X130894135Y-135002779D01*
X130808773Y-135130531D01*
X130749975Y-135272482D01*
X130720000Y-135423177D01*
X130720000Y-135576823D01*
X130749975Y-135727518D01*
X130808773Y-135869469D01*
X130894135Y-135997221D01*
X131002779Y-136105865D01*
X131130531Y-136191227D01*
X131272482Y-136250025D01*
X131423177Y-136280000D01*
X131576823Y-136280000D01*
X131727518Y-136250025D01*
X131869469Y-136191227D01*
X131997221Y-136105865D01*
X132105865Y-135997221D01*
X132191227Y-135869469D01*
X132250025Y-135727518D01*
X132280000Y-135576823D01*
X132280000Y-135423177D01*
X132250025Y-135272482D01*
X132191227Y-135130531D01*
X132105865Y-135002779D01*
X132005000Y-134901914D01*
X132005000Y-113598086D01*
X132105865Y-113497221D01*
X132191227Y-113369469D01*
X132250025Y-113227518D01*
X132280000Y-113076823D01*
X132280000Y-112923177D01*
X132250025Y-112772482D01*
X132191227Y-112630531D01*
X132105865Y-112502779D01*
X131997221Y-112394135D01*
X131869469Y-112308773D01*
X131727518Y-112249975D01*
X131576823Y-112220000D01*
X131423177Y-112220000D01*
X131272482Y-112249975D01*
X131130531Y-112308773D01*
X131002779Y-112394135D01*
X130894135Y-112502779D01*
X130808773Y-112630531D01*
X130749975Y-112772482D01*
X130720000Y-112923177D01*
X129780000Y-112923177D01*
X129750025Y-112772482D01*
X129691227Y-112630531D01*
X129605865Y-112502779D01*
X129497221Y-112394135D01*
X129369469Y-112308773D01*
X129227518Y-112249975D01*
X129076823Y-112220000D01*
X128923177Y-112220000D01*
X128772482Y-112249975D01*
X128630531Y-112308773D01*
X128502779Y-112394135D01*
X128394135Y-112502779D01*
X128308773Y-112630531D01*
X128249975Y-112772482D01*
X128220000Y-112923177D01*
X127280000Y-112923177D01*
X127250025Y-112772482D01*
X127191227Y-112630531D01*
X127105865Y-112502779D01*
X126997221Y-112394135D01*
X126869469Y-112308773D01*
X126727518Y-112249975D01*
X126576823Y-112220000D01*
X126423177Y-112220000D01*
X126272482Y-112249975D01*
X126130531Y-112308773D01*
X126002779Y-112394135D01*
X125894135Y-112502779D01*
X125808773Y-112630531D01*
X125749975Y-112772482D01*
X125720000Y-112923177D01*
X124780000Y-112923177D01*
X124750025Y-112772482D01*
X124691227Y-112630531D01*
X124605865Y-112502779D01*
X124497221Y-112394135D01*
X124369469Y-112308773D01*
X124227518Y-112249975D01*
X124076823Y-112220000D01*
X123923177Y-112220000D01*
X123772482Y-112249975D01*
X123630531Y-112308773D01*
X123502779Y-112394135D01*
X123394135Y-112502779D01*
X123308773Y-112630531D01*
X123249975Y-112772482D01*
X123220000Y-112923177D01*
X73930000Y-112923177D01*
X73930000Y-92125000D01*
X77244762Y-92125000D01*
X77244762Y-93875000D01*
X77261676Y-94046726D01*
X77311766Y-94211852D01*
X77393109Y-94364034D01*
X77502578Y-94497422D01*
X77635966Y-94606891D01*
X77788148Y-94688234D01*
X77953274Y-94738324D01*
X78125000Y-94755238D01*
X79875000Y-94755238D01*
X80046726Y-94738324D01*
X80211852Y-94688234D01*
X80364034Y-94606891D01*
X80497422Y-94497422D01*
X80529973Y-94457758D01*
X80670591Y-94551716D01*
X80989252Y-94683710D01*
X81327542Y-94751000D01*
X81672458Y-94751000D01*
X82010748Y-94683710D01*
X82329409Y-94551716D01*
X82616197Y-94360090D01*
X82750000Y-94226287D01*
X82883803Y-94360090D01*
X83170591Y-94551716D01*
X83489252Y-94683710D01*
X83827542Y-94751000D01*
X84172458Y-94751000D01*
X84510748Y-94683710D01*
X84829409Y-94551716D01*
X85116197Y-94360090D01*
X85250000Y-94226287D01*
X85383803Y-94360090D01*
X85670591Y-94551716D01*
X85989252Y-94683710D01*
X86327542Y-94751000D01*
X86672458Y-94751000D01*
X87010748Y-94683710D01*
X87329409Y-94551716D01*
X87616197Y-94360090D01*
X87750000Y-94226287D01*
X87883803Y-94360090D01*
X88170591Y-94551716D01*
X88489252Y-94683710D01*
X88827542Y-94751000D01*
X89172458Y-94751000D01*
X89510748Y-94683710D01*
X89829409Y-94551716D01*
X90116197Y-94360090D01*
X90250000Y-94226287D01*
X90383803Y-94360090D01*
X90670591Y-94551716D01*
X90989252Y-94683710D01*
X91327542Y-94751000D01*
X91672458Y-94751000D01*
X92010748Y-94683710D01*
X92329409Y-94551716D01*
X92616197Y-94360090D01*
X92750000Y-94226287D01*
X92883803Y-94360090D01*
X93170591Y-94551716D01*
X93489252Y-94683710D01*
X93827542Y-94751000D01*
X94172458Y-94751000D01*
X94510748Y-94683710D01*
X94829409Y-94551716D01*
X95116197Y-94360090D01*
X95360090Y-94116197D01*
X95551716Y-93829409D01*
X95683710Y-93510748D01*
X95751000Y-93172458D01*
X95751000Y-92827542D01*
X95683710Y-92489252D01*
X95656341Y-92423177D01*
X105870000Y-92423177D01*
X105870000Y-92576823D01*
X105899975Y-92727518D01*
X105958773Y-92869469D01*
X106020000Y-92961101D01*
X106020001Y-100869044D01*
X106016952Y-100900000D01*
X106029116Y-101023501D01*
X106065140Y-101142256D01*
X106065141Y-101142257D01*
X106123641Y-101251703D01*
X106202368Y-101347633D01*
X106226408Y-101367362D01*
X112782638Y-107923593D01*
X112802367Y-107947633D01*
X112898297Y-108026360D01*
X113007743Y-108084860D01*
X113126498Y-108120884D01*
X113138171Y-108122034D01*
X113250000Y-108133049D01*
X113280954Y-108130000D01*
X119620001Y-108130000D01*
X119620000Y-111538899D01*
X119558773Y-111630531D01*
X119499975Y-111772482D01*
X119470000Y-111923177D01*
X119470000Y-112076823D01*
X119499975Y-112227518D01*
X119558773Y-112369469D01*
X119644135Y-112497221D01*
X119752779Y-112605865D01*
X119880531Y-112691227D01*
X120022482Y-112750025D01*
X120173177Y-112780000D01*
X120326823Y-112780000D01*
X120477518Y-112750025D01*
X120619469Y-112691227D01*
X120747221Y-112605865D01*
X120855865Y-112497221D01*
X120941227Y-112369469D01*
X121000025Y-112227518D01*
X121030000Y-112076823D01*
X121030000Y-111923177D01*
X121000025Y-111772482D01*
X120941227Y-111630531D01*
X120880000Y-111538899D01*
X120880000Y-108130000D01*
X155870001Y-108130000D01*
X155870000Y-111538899D01*
X155808773Y-111630531D01*
X155749975Y-111772482D01*
X155720000Y-111923177D01*
X155720000Y-112076823D01*
X155749975Y-112227518D01*
X155808773Y-112369469D01*
X155894135Y-112497221D01*
X156002779Y-112605865D01*
X156130531Y-112691227D01*
X156272482Y-112750025D01*
X156423177Y-112780000D01*
X156576823Y-112780000D01*
X156727518Y-112750025D01*
X156869469Y-112691227D01*
X156997221Y-112605865D01*
X157105865Y-112497221D01*
X157191227Y-112369469D01*
X157250025Y-112227518D01*
X157280000Y-112076823D01*
X157280000Y-111923177D01*
X157250025Y-111772482D01*
X157191227Y-111630531D01*
X157130000Y-111538899D01*
X157130000Y-108130000D01*
X158892746Y-108130000D01*
X158970439Y-108317567D01*
X159159329Y-108600261D01*
X159329068Y-108770000D01*
X159159329Y-108939739D01*
X158970439Y-109222433D01*
X158840330Y-109536544D01*
X158774000Y-109870004D01*
X158774000Y-110209996D01*
X158840330Y-110543456D01*
X158970439Y-110857567D01*
X159159329Y-111140261D01*
X159399739Y-111380671D01*
X159682433Y-111569561D01*
X159996544Y-111699670D01*
X160330004Y-111766000D01*
X160669996Y-111766000D01*
X161003456Y-111699670D01*
X161317567Y-111569561D01*
X161600261Y-111380671D01*
X161840671Y-111140261D01*
X162029561Y-110857567D01*
X162159670Y-110543456D01*
X162226000Y-110209996D01*
X162226000Y-109870004D01*
X162159670Y-109536544D01*
X162029561Y-109222433D01*
X161840671Y-108939739D01*
X161670932Y-108770000D01*
X161840671Y-108600261D01*
X162029561Y-108317567D01*
X162159670Y-108003456D01*
X162226000Y-107669996D01*
X162226000Y-107330004D01*
X162159670Y-106996544D01*
X162029561Y-106682433D01*
X161901435Y-106490679D01*
X161972422Y-106432422D01*
X162081891Y-106299034D01*
X162163234Y-106146852D01*
X162213324Y-105981726D01*
X162230238Y-105810000D01*
X162230238Y-104110000D01*
X162213324Y-103938274D01*
X162163234Y-103773148D01*
X162081891Y-103620966D01*
X161972422Y-103487578D01*
X161839034Y-103378109D01*
X161686852Y-103296766D01*
X161521726Y-103246676D01*
X161350000Y-103229762D01*
X159650000Y-103229762D01*
X159478274Y-103246676D01*
X159313148Y-103296766D01*
X159160966Y-103378109D01*
X159027578Y-103487578D01*
X158918109Y-103620966D01*
X158836766Y-103773148D01*
X158786676Y-103938274D01*
X158769762Y-104110000D01*
X158769762Y-105810000D01*
X158786676Y-105981726D01*
X158836766Y-106146852D01*
X158918109Y-106299034D01*
X159027578Y-106432422D01*
X159098565Y-106490679D01*
X158970439Y-106682433D01*
X158892746Y-106870000D01*
X156530947Y-106870000D01*
X156500000Y-106866952D01*
X156469054Y-106870000D01*
X113510955Y-106870000D01*
X110064132Y-103423177D01*
X150220000Y-103423177D01*
X150220000Y-103576823D01*
X150249975Y-103727518D01*
X150308773Y-103869469D01*
X150394135Y-103997221D01*
X150502779Y-104105865D01*
X150630531Y-104191227D01*
X150772482Y-104250025D01*
X150923177Y-104280000D01*
X151076823Y-104280000D01*
X151227518Y-104250025D01*
X151369469Y-104191227D01*
X151497221Y-104105865D01*
X151598086Y-104005000D01*
X154975205Y-104005000D01*
X155000000Y-104007442D01*
X155024795Y-104005000D01*
X155024805Y-104005000D01*
X155098997Y-103997693D01*
X155194190Y-103968816D01*
X155281920Y-103921923D01*
X155358816Y-103858816D01*
X155374628Y-103839549D01*
X156709178Y-102505000D01*
X195790823Y-102505000D01*
X206495001Y-113209179D01*
X206495000Y-117290822D01*
X201660447Y-122125376D01*
X201641185Y-122141184D01*
X201625377Y-122160446D01*
X201625372Y-122160451D01*
X201578077Y-122218080D01*
X201531184Y-122305811D01*
X201502308Y-122401003D01*
X201492558Y-122500000D01*
X201495001Y-122524805D01*
X201495000Y-129475205D01*
X201492558Y-129500000D01*
X201495000Y-129524795D01*
X201495000Y-129524804D01*
X201502307Y-129598996D01*
X201531184Y-129694189D01*
X201578077Y-129781920D01*
X201641184Y-129858816D01*
X201660451Y-129874628D01*
X205125376Y-133339554D01*
X205141184Y-133358816D01*
X205160446Y-133374624D01*
X205160450Y-133374628D01*
X205218079Y-133421923D01*
X205264972Y-133446987D01*
X205305810Y-133468816D01*
X205401003Y-133497693D01*
X205475195Y-133505000D01*
X205475207Y-133505000D01*
X205499999Y-133507442D01*
X205524791Y-133505000D01*
X209401914Y-133505000D01*
X209502779Y-133605865D01*
X209630531Y-133691227D01*
X209772482Y-133750025D01*
X209923177Y-133780000D01*
X210076823Y-133780000D01*
X210227518Y-133750025D01*
X210369469Y-133691227D01*
X210497221Y-133605865D01*
X210605865Y-133497221D01*
X210691227Y-133369469D01*
X210750025Y-133227518D01*
X210780000Y-133076823D01*
X210780000Y-132923177D01*
X210750025Y-132772482D01*
X210691227Y-132630531D01*
X210605865Y-132502779D01*
X210497221Y-132394135D01*
X210369469Y-132308773D01*
X210227518Y-132249975D01*
X210076823Y-132220000D01*
X209923177Y-132220000D01*
X209772482Y-132249975D01*
X209630531Y-132308773D01*
X209502779Y-132394135D01*
X209401914Y-132495000D01*
X205709178Y-132495000D01*
X202505000Y-129290823D01*
X202505000Y-122709177D01*
X207339554Y-117874624D01*
X207358816Y-117858816D01*
X207374624Y-117839554D01*
X207374628Y-117839550D01*
X207421923Y-117781921D01*
X207468816Y-117694190D01*
X207468816Y-117694189D01*
X207497693Y-117598997D01*
X207505000Y-117524805D01*
X207505000Y-117524795D01*
X207507442Y-117500000D01*
X207505000Y-117475205D01*
X207505000Y-113024794D01*
X207507442Y-112999999D01*
X207505000Y-112975204D01*
X207505000Y-112975195D01*
X207497693Y-112901003D01*
X207468816Y-112805810D01*
X207438998Y-112750025D01*
X207421923Y-112718079D01*
X207374628Y-112660450D01*
X207374624Y-112660446D01*
X207358816Y-112641184D01*
X207339554Y-112625376D01*
X196374628Y-101660451D01*
X196358816Y-101641184D01*
X196281920Y-101578077D01*
X196194190Y-101531184D01*
X196098997Y-101502307D01*
X196024805Y-101495000D01*
X196024795Y-101495000D01*
X196000000Y-101492558D01*
X195975205Y-101495000D01*
X156524791Y-101495000D01*
X156499999Y-101492558D01*
X156475207Y-101495000D01*
X156475195Y-101495000D01*
X156401003Y-101502307D01*
X156305810Y-101531184D01*
X156264972Y-101553013D01*
X156218079Y-101578077D01*
X156160450Y-101625372D01*
X156160446Y-101625376D01*
X156141184Y-101641184D01*
X156125376Y-101660446D01*
X154790823Y-102995000D01*
X151598086Y-102995000D01*
X151497221Y-102894135D01*
X151369469Y-102808773D01*
X151227518Y-102749975D01*
X151076823Y-102720000D01*
X150923177Y-102720000D01*
X150772482Y-102749975D01*
X150630531Y-102808773D01*
X150502779Y-102894135D01*
X150394135Y-103002779D01*
X150308773Y-103130531D01*
X150249975Y-103272482D01*
X150220000Y-103423177D01*
X110064132Y-103423177D01*
X107280000Y-100639046D01*
X107280000Y-92961101D01*
X107341227Y-92869469D01*
X107400025Y-92727518D01*
X107430000Y-92576823D01*
X107430000Y-92423177D01*
X107400025Y-92272482D01*
X107341227Y-92130531D01*
X107255865Y-92002779D01*
X107147221Y-91894135D01*
X107019469Y-91808773D01*
X106877518Y-91749975D01*
X106726823Y-91720000D01*
X106573177Y-91720000D01*
X106422482Y-91749975D01*
X106280531Y-91808773D01*
X106152779Y-91894135D01*
X106044135Y-92002779D01*
X105958773Y-92130531D01*
X105899975Y-92272482D01*
X105870000Y-92423177D01*
X95656341Y-92423177D01*
X95551716Y-92170591D01*
X95360090Y-91883803D01*
X95116197Y-91639910D01*
X94829409Y-91448284D01*
X94510748Y-91316290D01*
X94172458Y-91249000D01*
X93827542Y-91249000D01*
X93489252Y-91316290D01*
X93170591Y-91448284D01*
X92883803Y-91639910D01*
X92750000Y-91773713D01*
X92616197Y-91639910D01*
X92329409Y-91448284D01*
X92010748Y-91316290D01*
X91672458Y-91249000D01*
X91327542Y-91249000D01*
X90989252Y-91316290D01*
X90670591Y-91448284D01*
X90383803Y-91639910D01*
X90250000Y-91773713D01*
X90116197Y-91639910D01*
X89829409Y-91448284D01*
X89510748Y-91316290D01*
X89172458Y-91249000D01*
X88827542Y-91249000D01*
X88489252Y-91316290D01*
X88170591Y-91448284D01*
X87883803Y-91639910D01*
X87750000Y-91773713D01*
X87616197Y-91639910D01*
X87329409Y-91448284D01*
X87010748Y-91316290D01*
X86672458Y-91249000D01*
X86327542Y-91249000D01*
X85989252Y-91316290D01*
X85670591Y-91448284D01*
X85383803Y-91639910D01*
X85250000Y-91773713D01*
X85116197Y-91639910D01*
X84829409Y-91448284D01*
X84510748Y-91316290D01*
X84172458Y-91249000D01*
X83827542Y-91249000D01*
X83489252Y-91316290D01*
X83170591Y-91448284D01*
X82883803Y-91639910D01*
X82750000Y-91773713D01*
X82616197Y-91639910D01*
X82329409Y-91448284D01*
X82010748Y-91316290D01*
X81672458Y-91249000D01*
X81327542Y-91249000D01*
X80989252Y-91316290D01*
X80670591Y-91448284D01*
X80529973Y-91542242D01*
X80497422Y-91502578D01*
X80364034Y-91393109D01*
X80211852Y-91311766D01*
X80046726Y-91261676D01*
X79875000Y-91244762D01*
X78125000Y-91244762D01*
X77953274Y-91261676D01*
X77788148Y-91311766D01*
X77635966Y-91393109D01*
X77502578Y-91502578D01*
X77393109Y-91635966D01*
X77311766Y-91788148D01*
X77261676Y-91953274D01*
X77244762Y-92125000D01*
X73930000Y-92125000D01*
X73930000Y-80517708D01*
X114059757Y-80517708D01*
X114103745Y-80662736D01*
X114228653Y-80925472D01*
X114402418Y-81158791D01*
X114618362Y-81353727D01*
X114868187Y-81502789D01*
X115142292Y-81600248D01*
X115372000Y-81479974D01*
X115372000Y-80288000D01*
X114180695Y-80288000D01*
X114059757Y-80517708D01*
X73930000Y-80517708D01*
X73930000Y-72897708D01*
X114059757Y-72897708D01*
X114103745Y-73042736D01*
X114228653Y-73305472D01*
X114402418Y-73538791D01*
X114618362Y-73733727D01*
X114746194Y-73810000D01*
X114618362Y-73886273D01*
X114402418Y-74081209D01*
X114228653Y-74314528D01*
X114103745Y-74577264D01*
X114059757Y-74722292D01*
X114180695Y-74952000D01*
X115372000Y-74952000D01*
X115372000Y-72668000D01*
X114180695Y-72668000D01*
X114059757Y-72897708D01*
X73930000Y-72897708D01*
X73930000Y-69150000D01*
X113769762Y-69150000D01*
X113769762Y-70850000D01*
X113786676Y-71021726D01*
X113836766Y-71186852D01*
X113918109Y-71339034D01*
X114027578Y-71472422D01*
X114160966Y-71581891D01*
X114311998Y-71662619D01*
X114228653Y-71774528D01*
X114103745Y-72037264D01*
X114059757Y-72182292D01*
X114180695Y-72412000D01*
X115372000Y-72412000D01*
X115372000Y-72392000D01*
X115628000Y-72392000D01*
X115628000Y-72412000D01*
X115648000Y-72412000D01*
X115648000Y-72668000D01*
X115628000Y-72668000D01*
X115628000Y-74952000D01*
X115648000Y-74952000D01*
X115648000Y-75208000D01*
X115628000Y-75208000D01*
X115628000Y-75228000D01*
X115372000Y-75228000D01*
X115372000Y-75208000D01*
X114180695Y-75208000D01*
X114059757Y-75437708D01*
X114103745Y-75582736D01*
X114228653Y-75845472D01*
X114402418Y-76078791D01*
X114528937Y-76193002D01*
X114399739Y-76279329D01*
X114159329Y-76519739D01*
X113970439Y-76802433D01*
X113840330Y-77116544D01*
X113774000Y-77450004D01*
X113774000Y-77789996D01*
X113840330Y-78123456D01*
X113970439Y-78437567D01*
X114159329Y-78720261D01*
X114399739Y-78960671D01*
X114528937Y-79046998D01*
X114402418Y-79161209D01*
X114228653Y-79394528D01*
X114103745Y-79657264D01*
X114059757Y-79802292D01*
X114180695Y-80032000D01*
X115372000Y-80032000D01*
X115372000Y-80012000D01*
X115628000Y-80012000D01*
X115628000Y-80032000D01*
X115648000Y-80032000D01*
X115648000Y-80288000D01*
X115628000Y-80288000D01*
X115628000Y-81479974D01*
X115857708Y-81600248D01*
X116131813Y-81502789D01*
X116381638Y-81353727D01*
X116597582Y-81158791D01*
X116615475Y-81134765D01*
X116699329Y-81260261D01*
X116939739Y-81500671D01*
X117222433Y-81689561D01*
X117536544Y-81819670D01*
X117870004Y-81886000D01*
X118209996Y-81886000D01*
X118543456Y-81819670D01*
X118857567Y-81689561D01*
X119140261Y-81500671D01*
X119380671Y-81260261D01*
X119569561Y-80977567D01*
X119626332Y-80840509D01*
X120745000Y-81959178D01*
X120745001Y-88725195D01*
X120742558Y-88750000D01*
X120752308Y-88848997D01*
X120781184Y-88944189D01*
X120828077Y-89031920D01*
X120875372Y-89089549D01*
X120875377Y-89089554D01*
X120891185Y-89108816D01*
X120910447Y-89124624D01*
X130125376Y-98339554D01*
X130141184Y-98358816D01*
X130160446Y-98374624D01*
X130160450Y-98374628D01*
X130218079Y-98421923D01*
X130264972Y-98446987D01*
X130305810Y-98468816D01*
X130401003Y-98497693D01*
X130475195Y-98505000D01*
X130475207Y-98505000D01*
X130499999Y-98507442D01*
X130524791Y-98505000D01*
X136975205Y-98505000D01*
X137000000Y-98507442D01*
X137024795Y-98505000D01*
X137024805Y-98505000D01*
X137098997Y-98497693D01*
X137194190Y-98468816D01*
X137281920Y-98421923D01*
X137358816Y-98358816D01*
X137374628Y-98339549D01*
X139839554Y-95874624D01*
X139858816Y-95858816D01*
X139874624Y-95839554D01*
X139874628Y-95839550D01*
X139921923Y-95781921D01*
X139968816Y-95694190D01*
X139975571Y-95671923D01*
X139997693Y-95598997D01*
X140005000Y-95524805D01*
X140005000Y-95524795D01*
X140007442Y-95500000D01*
X167368552Y-95500000D01*
X167368552Y-98500000D01*
X167390292Y-98720735D01*
X167454678Y-98932986D01*
X167559235Y-99128599D01*
X167699945Y-99300055D01*
X167871401Y-99440765D01*
X168067014Y-99545322D01*
X168279265Y-99609708D01*
X168500000Y-99631448D01*
X171500000Y-99631448D01*
X171720735Y-99609708D01*
X171932986Y-99545322D01*
X172128599Y-99440765D01*
X172300055Y-99300055D01*
X172440765Y-99128599D01*
X172545322Y-98932986D01*
X172609708Y-98720735D01*
X172631448Y-98500000D01*
X172631448Y-98491780D01*
X189179239Y-98491780D01*
X189335399Y-98806939D01*
X189710100Y-98997470D01*
X190114772Y-99111240D01*
X190533865Y-99143876D01*
X190951271Y-99094124D01*
X191350951Y-98963896D01*
X191644601Y-98806939D01*
X191800761Y-98491780D01*
X190490000Y-97181019D01*
X189179239Y-98491780D01*
X172631448Y-98491780D01*
X172631448Y-97043865D01*
X188346124Y-97043865D01*
X188395876Y-97461271D01*
X188526104Y-97860951D01*
X188683061Y-98154601D01*
X188998220Y-98310761D01*
X190308981Y-97000000D01*
X190671019Y-97000000D01*
X191981780Y-98310761D01*
X192296939Y-98154601D01*
X192487470Y-97779900D01*
X192601240Y-97375228D01*
X192633876Y-96956135D01*
X192584124Y-96538729D01*
X192453896Y-96139049D01*
X192296939Y-95845399D01*
X191981780Y-95689239D01*
X190671019Y-97000000D01*
X190308981Y-97000000D01*
X188998220Y-95689239D01*
X188683061Y-95845399D01*
X188492530Y-96220100D01*
X188378760Y-96624772D01*
X188346124Y-97043865D01*
X172631448Y-97043865D01*
X172631448Y-95508220D01*
X189179239Y-95508220D01*
X190490000Y-96818981D01*
X191800761Y-95508220D01*
X191644601Y-95193061D01*
X191269900Y-95002530D01*
X190865228Y-94888760D01*
X190446135Y-94856124D01*
X190028729Y-94905876D01*
X189629049Y-95036104D01*
X189335399Y-95193061D01*
X189179239Y-95508220D01*
X172631448Y-95508220D01*
X172631448Y-95500000D01*
X172609708Y-95279265D01*
X172545322Y-95067014D01*
X172440765Y-94871401D01*
X172300055Y-94699945D01*
X172128599Y-94559235D01*
X171932986Y-94454678D01*
X171720735Y-94390292D01*
X171500000Y-94368552D01*
X168500000Y-94368552D01*
X168279265Y-94390292D01*
X168067014Y-94454678D01*
X167871401Y-94559235D01*
X167699945Y-94699945D01*
X167559235Y-94871401D01*
X167454678Y-95067014D01*
X167390292Y-95279265D01*
X167368552Y-95500000D01*
X140007442Y-95500000D01*
X140005000Y-95475205D01*
X140005000Y-94173177D01*
X140970000Y-94173177D01*
X140970000Y-94326823D01*
X140999975Y-94477518D01*
X141058773Y-94619469D01*
X141144135Y-94747221D01*
X141252779Y-94855865D01*
X141380531Y-94941227D01*
X141522482Y-95000025D01*
X141673177Y-95030000D01*
X141826823Y-95030000D01*
X141977518Y-95000025D01*
X142119469Y-94941227D01*
X142247221Y-94855865D01*
X142355865Y-94747221D01*
X142441227Y-94619469D01*
X142500025Y-94477518D01*
X142530000Y-94326823D01*
X142530000Y-94173177D01*
X142500025Y-94022482D01*
X142441227Y-93880531D01*
X142355865Y-93752779D01*
X142247221Y-93644135D01*
X142119469Y-93558773D01*
X141977518Y-93499975D01*
X141826823Y-93470000D01*
X141673177Y-93470000D01*
X141522482Y-93499975D01*
X141380531Y-93558773D01*
X141252779Y-93644135D01*
X141144135Y-93752779D01*
X141058773Y-93880531D01*
X140999975Y-94022482D01*
X140970000Y-94173177D01*
X140005000Y-94173177D01*
X140005000Y-91709177D01*
X141959178Y-89755000D01*
X142401914Y-89755000D01*
X142502779Y-89855865D01*
X142630531Y-89941227D01*
X142772482Y-90000025D01*
X142923177Y-90030000D01*
X143076823Y-90030000D01*
X143227518Y-90000025D01*
X143369469Y-89941227D01*
X143497221Y-89855865D01*
X143605865Y-89747221D01*
X143691227Y-89619469D01*
X143750025Y-89477518D01*
X143780000Y-89326823D01*
X143780000Y-89173177D01*
X143750025Y-89022482D01*
X143691227Y-88880531D01*
X143605865Y-88752779D01*
X143497221Y-88644135D01*
X143369469Y-88558773D01*
X143227518Y-88499975D01*
X143076823Y-88470000D01*
X142923177Y-88470000D01*
X142772482Y-88499975D01*
X142630531Y-88558773D01*
X142502779Y-88644135D01*
X142401914Y-88745000D01*
X141774795Y-88745000D01*
X141750000Y-88742558D01*
X141725205Y-88745000D01*
X141725195Y-88745000D01*
X141651003Y-88752307D01*
X141555810Y-88781184D01*
X141468079Y-88828077D01*
X141410451Y-88875371D01*
X141410446Y-88875376D01*
X141391184Y-88891184D01*
X141375376Y-88910446D01*
X139160447Y-91125376D01*
X139141185Y-91141184D01*
X139125377Y-91160446D01*
X139125372Y-91160451D01*
X139078077Y-91218080D01*
X139031184Y-91305811D01*
X139002308Y-91401003D01*
X138992558Y-91500000D01*
X138995001Y-91524805D01*
X138995000Y-95290822D01*
X136790823Y-97495000D01*
X130709178Y-97495000D01*
X128387355Y-95173177D01*
X135970000Y-95173177D01*
X135970000Y-95326823D01*
X135999975Y-95477518D01*
X136058773Y-95619469D01*
X136144135Y-95747221D01*
X136252779Y-95855865D01*
X136380531Y-95941227D01*
X136522482Y-96000025D01*
X136673177Y-96030000D01*
X136826823Y-96030000D01*
X136977518Y-96000025D01*
X137119469Y-95941227D01*
X137247221Y-95855865D01*
X137355865Y-95747221D01*
X137441227Y-95619469D01*
X137500025Y-95477518D01*
X137530000Y-95326823D01*
X137530000Y-95173177D01*
X137500025Y-95022482D01*
X137441227Y-94880531D01*
X137355865Y-94752779D01*
X137255000Y-94651914D01*
X137255000Y-78423177D01*
X160220000Y-78423177D01*
X160220000Y-78576823D01*
X160249975Y-78727518D01*
X160308773Y-78869469D01*
X160394135Y-78997221D01*
X160502779Y-79105865D01*
X160630531Y-79191227D01*
X160772482Y-79250025D01*
X160923177Y-79280000D01*
X161076823Y-79280000D01*
X161227518Y-79250025D01*
X161369469Y-79191227D01*
X161461101Y-79130000D01*
X214969054Y-79130000D01*
X215000000Y-79133048D01*
X215030946Y-79130000D01*
X215030947Y-79130000D01*
X215123502Y-79120884D01*
X215242257Y-79084860D01*
X215351703Y-79026360D01*
X215447633Y-78947633D01*
X215467366Y-78923588D01*
X220619430Y-73771525D01*
X220727518Y-73750025D01*
X220869469Y-73691227D01*
X220997221Y-73605865D01*
X221105865Y-73497221D01*
X221191227Y-73369469D01*
X221250025Y-73227518D01*
X221280000Y-73076823D01*
X221280000Y-72923177D01*
X221250025Y-72772482D01*
X221191227Y-72630531D01*
X221105865Y-72502779D01*
X220997221Y-72394135D01*
X220869469Y-72308773D01*
X220727518Y-72249975D01*
X220576823Y-72220000D01*
X220423177Y-72220000D01*
X220272482Y-72249975D01*
X220130531Y-72308773D01*
X220002779Y-72394135D01*
X219894135Y-72502779D01*
X219808773Y-72630531D01*
X219749975Y-72772482D01*
X219728475Y-72880570D01*
X214739046Y-77870000D01*
X161461101Y-77870000D01*
X161369469Y-77808773D01*
X161227518Y-77749975D01*
X161076823Y-77720000D01*
X160923177Y-77720000D01*
X160772482Y-77749975D01*
X160630531Y-77808773D01*
X160502779Y-77894135D01*
X160394135Y-78002779D01*
X160308773Y-78130531D01*
X160249975Y-78272482D01*
X160220000Y-78423177D01*
X137255000Y-78423177D01*
X137255000Y-68459177D01*
X139167833Y-66546344D01*
X157094675Y-66546344D01*
X157175476Y-66797571D01*
X157443694Y-66925692D01*
X157731753Y-66999024D01*
X158028584Y-67014750D01*
X158322779Y-66972265D01*
X158603033Y-66873201D01*
X158744524Y-66797571D01*
X158825325Y-66546344D01*
X157960000Y-65681019D01*
X157094675Y-66546344D01*
X139167833Y-66546344D01*
X140145593Y-65568584D01*
X156445250Y-65568584D01*
X156487735Y-65862779D01*
X156586799Y-66143033D01*
X156662429Y-66284524D01*
X156913656Y-66365325D01*
X157778981Y-65500000D01*
X158141019Y-65500000D01*
X158932626Y-66291607D01*
X158948284Y-66329409D01*
X159139910Y-66616197D01*
X159383803Y-66860090D01*
X159670591Y-67051716D01*
X159989252Y-67183710D01*
X160327542Y-67251000D01*
X160672458Y-67251000D01*
X161010748Y-67183710D01*
X161329409Y-67051716D01*
X161616197Y-66860090D01*
X161770000Y-66706287D01*
X161923803Y-66860090D01*
X162210591Y-67051716D01*
X162529252Y-67183710D01*
X162867542Y-67251000D01*
X163212458Y-67251000D01*
X163550748Y-67183710D01*
X163869409Y-67051716D01*
X164156197Y-66860090D01*
X164400090Y-66616197D01*
X164591716Y-66329409D01*
X164723710Y-66010748D01*
X164791000Y-65672458D01*
X164791000Y-65327542D01*
X164723710Y-64989252D01*
X164591716Y-64670591D01*
X164400090Y-64383803D01*
X164156197Y-64139910D01*
X163869409Y-63948284D01*
X163550748Y-63816290D01*
X163212458Y-63749000D01*
X162867542Y-63749000D01*
X162529252Y-63816290D01*
X162210591Y-63948284D01*
X161923803Y-64139910D01*
X161770000Y-64293713D01*
X161616197Y-64139910D01*
X161329409Y-63948284D01*
X161010748Y-63816290D01*
X160672458Y-63749000D01*
X160327542Y-63749000D01*
X159989252Y-63816290D01*
X159670591Y-63948284D01*
X159383803Y-64139910D01*
X159139910Y-64383803D01*
X158948284Y-64670591D01*
X158932626Y-64708393D01*
X158141019Y-65500000D01*
X157778981Y-65500000D01*
X156913656Y-64634675D01*
X156662429Y-64715476D01*
X156534308Y-64983694D01*
X156460976Y-65271753D01*
X156445250Y-65568584D01*
X140145593Y-65568584D01*
X141260521Y-64453656D01*
X157094675Y-64453656D01*
X157960000Y-65318981D01*
X158825325Y-64453656D01*
X158744524Y-64202429D01*
X158476306Y-64074308D01*
X158188247Y-64000976D01*
X157891416Y-63985250D01*
X157597221Y-64027735D01*
X157316967Y-64126799D01*
X157175476Y-64202429D01*
X157094675Y-64453656D01*
X141260521Y-64453656D01*
X142064177Y-63650000D01*
X196229762Y-63650000D01*
X196229762Y-65350000D01*
X196246676Y-65521726D01*
X196296766Y-65686852D01*
X196378109Y-65839034D01*
X196487578Y-65972422D01*
X196620966Y-66081891D01*
X196773148Y-66163234D01*
X196938274Y-66213324D01*
X197110000Y-66230238D01*
X198810000Y-66230238D01*
X198981726Y-66213324D01*
X199146852Y-66163234D01*
X199299034Y-66081891D01*
X199432422Y-65972422D01*
X199490679Y-65901435D01*
X199682433Y-66029561D01*
X199996544Y-66159670D01*
X200330004Y-66226000D01*
X200669996Y-66226000D01*
X201003456Y-66159670D01*
X201317567Y-66029561D01*
X201600261Y-65840671D01*
X201770000Y-65670932D01*
X201939739Y-65840671D01*
X202222433Y-66029561D01*
X202536544Y-66159670D01*
X202870004Y-66226000D01*
X203209996Y-66226000D01*
X203543456Y-66159670D01*
X203857567Y-66029561D01*
X204140261Y-65840671D01*
X204380671Y-65600261D01*
X204569561Y-65317567D01*
X204699670Y-65003456D01*
X204766000Y-64669996D01*
X204766000Y-64330004D01*
X204699670Y-63996544D01*
X204569561Y-63682433D01*
X204380671Y-63399739D01*
X204140261Y-63159329D01*
X203857567Y-62970439D01*
X203543456Y-62840330D01*
X203209996Y-62774000D01*
X202870004Y-62774000D01*
X202536544Y-62840330D01*
X202222433Y-62970439D01*
X201939739Y-63159329D01*
X201770000Y-63329068D01*
X201600261Y-63159329D01*
X201317567Y-62970439D01*
X201003456Y-62840330D01*
X200669996Y-62774000D01*
X200330004Y-62774000D01*
X199996544Y-62840330D01*
X199682433Y-62970439D01*
X199490679Y-63098565D01*
X199432422Y-63027578D01*
X199299034Y-62918109D01*
X199146852Y-62836766D01*
X198981726Y-62786676D01*
X198810000Y-62769762D01*
X197110000Y-62769762D01*
X196938274Y-62786676D01*
X196773148Y-62836766D01*
X196620966Y-62918109D01*
X196487578Y-63027578D01*
X196378109Y-63160966D01*
X196296766Y-63313148D01*
X196246676Y-63478274D01*
X196229762Y-63650000D01*
X142064177Y-63650000D01*
X142934177Y-62780000D01*
X143076823Y-62780000D01*
X143227518Y-62750025D01*
X143369469Y-62691227D01*
X143497221Y-62605865D01*
X143605865Y-62497221D01*
X143691227Y-62369469D01*
X143750025Y-62227518D01*
X143780000Y-62076823D01*
X143780000Y-61923177D01*
X143750025Y-61772482D01*
X143691227Y-61630531D01*
X143605865Y-61502779D01*
X143497221Y-61394135D01*
X143369469Y-61308773D01*
X143227518Y-61249975D01*
X143076823Y-61220000D01*
X142923177Y-61220000D01*
X142772482Y-61249975D01*
X142630531Y-61308773D01*
X142502779Y-61394135D01*
X142394135Y-61502779D01*
X142308773Y-61630531D01*
X142249975Y-61772482D01*
X142220000Y-61923177D01*
X142220000Y-62065823D01*
X136410447Y-67875376D01*
X136391185Y-67891184D01*
X136375377Y-67910446D01*
X136375372Y-67910451D01*
X136328077Y-67968080D01*
X136281184Y-68055811D01*
X136252308Y-68151003D01*
X136242558Y-68250000D01*
X136245001Y-68274805D01*
X136245000Y-94651914D01*
X136144135Y-94752779D01*
X136058773Y-94880531D01*
X135999975Y-95022482D01*
X135970000Y-95173177D01*
X128387355Y-95173177D01*
X121755000Y-88540823D01*
X121755000Y-81774795D01*
X121757442Y-81750000D01*
X121755000Y-81725205D01*
X121755000Y-81725195D01*
X121747693Y-81651003D01*
X121718816Y-81555810D01*
X121671923Y-81468079D01*
X121624629Y-81410451D01*
X121624624Y-81410446D01*
X121608816Y-81391184D01*
X121589554Y-81375376D01*
X120034628Y-79820451D01*
X120018816Y-79801184D01*
X119941920Y-79738077D01*
X119854190Y-79691184D01*
X119758997Y-79662307D01*
X119699635Y-79656461D01*
X119569561Y-79342433D01*
X119380671Y-79059739D01*
X119210932Y-78890000D01*
X119380671Y-78720261D01*
X119569561Y-78437567D01*
X119699670Y-78123456D01*
X119766000Y-77789996D01*
X119766000Y-77450004D01*
X119699670Y-77116544D01*
X119569561Y-76802433D01*
X119380671Y-76519739D01*
X119210932Y-76350000D01*
X119380671Y-76180261D01*
X119569561Y-75897567D01*
X119699670Y-75583456D01*
X119766000Y-75249996D01*
X119766000Y-74910004D01*
X119699670Y-74576544D01*
X119569561Y-74262433D01*
X119380671Y-73979739D01*
X119210932Y-73810000D01*
X119380671Y-73640261D01*
X119569561Y-73357567D01*
X119664408Y-73128585D01*
X123245001Y-76709178D01*
X123245000Y-88225205D01*
X123242558Y-88250000D01*
X123245000Y-88274795D01*
X123245000Y-88274804D01*
X123252307Y-88348996D01*
X123281184Y-88444189D01*
X123328077Y-88531920D01*
X123391184Y-88608816D01*
X123410451Y-88624628D01*
X128220000Y-93434178D01*
X128220000Y-93576823D01*
X128249975Y-93727518D01*
X128308773Y-93869469D01*
X128394135Y-93997221D01*
X128502779Y-94105865D01*
X128630531Y-94191227D01*
X128772482Y-94250025D01*
X128923177Y-94280000D01*
X129076823Y-94280000D01*
X129227518Y-94250025D01*
X129369469Y-94191227D01*
X129497221Y-94105865D01*
X129605865Y-93997221D01*
X129691227Y-93869469D01*
X129750025Y-93727518D01*
X129780000Y-93576823D01*
X129780000Y-93423177D01*
X129750025Y-93272482D01*
X129691227Y-93130531D01*
X129605865Y-93002779D01*
X129497221Y-92894135D01*
X129369469Y-92808773D01*
X129227518Y-92749975D01*
X129076823Y-92720000D01*
X128934178Y-92720000D01*
X124255000Y-88040823D01*
X124255000Y-76524795D01*
X124257442Y-76500000D01*
X124255000Y-76475205D01*
X124255000Y-76475195D01*
X124247693Y-76401003D01*
X124218816Y-76305810D01*
X124201667Y-76273727D01*
X124171923Y-76218079D01*
X124124628Y-76160451D01*
X124108816Y-76141184D01*
X124089549Y-76125372D01*
X120164628Y-72200451D01*
X120148816Y-72181184D01*
X120071920Y-72118077D01*
X119984190Y-72071184D01*
X119888997Y-72042307D01*
X119814805Y-72035000D01*
X119814795Y-72035000D01*
X119790000Y-72032558D01*
X119765205Y-72035000D01*
X119699030Y-72035000D01*
X119569561Y-71722433D01*
X119380671Y-71439739D01*
X119210932Y-71270000D01*
X119380671Y-71100261D01*
X119569561Y-70817567D01*
X119652693Y-70616870D01*
X124495000Y-75459178D01*
X124495001Y-86975195D01*
X124492558Y-87000000D01*
X124502308Y-87098997D01*
X124531184Y-87194189D01*
X124578077Y-87281920D01*
X124625372Y-87339549D01*
X124625377Y-87339554D01*
X124641185Y-87358816D01*
X124660447Y-87374624D01*
X130220000Y-92934178D01*
X130220000Y-93076823D01*
X130249975Y-93227518D01*
X130308773Y-93369469D01*
X130394135Y-93497221D01*
X130502779Y-93605865D01*
X130630531Y-93691227D01*
X130772482Y-93750025D01*
X130923177Y-93780000D01*
X131076823Y-93780000D01*
X131227518Y-93750025D01*
X131369469Y-93691227D01*
X131497221Y-93605865D01*
X131605865Y-93497221D01*
X131691227Y-93369469D01*
X131750025Y-93227518D01*
X131780000Y-93076823D01*
X131780000Y-92923177D01*
X131750025Y-92772482D01*
X131708892Y-92673177D01*
X134470000Y-92673177D01*
X134470000Y-92826823D01*
X134499975Y-92977518D01*
X134558773Y-93119469D01*
X134644135Y-93247221D01*
X134752779Y-93355865D01*
X134880531Y-93441227D01*
X135022482Y-93500025D01*
X135173177Y-93530000D01*
X135326823Y-93530000D01*
X135477518Y-93500025D01*
X135619469Y-93441227D01*
X135747221Y-93355865D01*
X135855865Y-93247221D01*
X135941227Y-93119469D01*
X136000025Y-92977518D01*
X136030000Y-92826823D01*
X136030000Y-92673177D01*
X136000025Y-92522482D01*
X135941227Y-92380531D01*
X135855865Y-92252779D01*
X135755000Y-92151914D01*
X135755000Y-66959177D01*
X141434177Y-61280000D01*
X141576823Y-61280000D01*
X141727518Y-61250025D01*
X141869469Y-61191227D01*
X141997221Y-61105865D01*
X142105865Y-60997221D01*
X142191227Y-60869469D01*
X142250025Y-60727518D01*
X142280000Y-60576823D01*
X142280000Y-60423177D01*
X142250025Y-60272482D01*
X142191227Y-60130531D01*
X142105865Y-60002779D01*
X141997221Y-59894135D01*
X141869469Y-59808773D01*
X141727518Y-59749975D01*
X141576823Y-59720000D01*
X141423177Y-59720000D01*
X141272482Y-59749975D01*
X141130531Y-59808773D01*
X141002779Y-59894135D01*
X140894135Y-60002779D01*
X140808773Y-60130531D01*
X140749975Y-60272482D01*
X140720000Y-60423177D01*
X140720000Y-60565823D01*
X134910447Y-66375376D01*
X134891185Y-66391184D01*
X134875377Y-66410446D01*
X134875372Y-66410451D01*
X134828077Y-66468080D01*
X134781184Y-66555811D01*
X134752308Y-66651003D01*
X134742558Y-66750000D01*
X134745001Y-66774805D01*
X134745000Y-92151914D01*
X134644135Y-92252779D01*
X134558773Y-92380531D01*
X134499975Y-92522482D01*
X134470000Y-92673177D01*
X131708892Y-92673177D01*
X131691227Y-92630531D01*
X131605865Y-92502779D01*
X131497221Y-92394135D01*
X131369469Y-92308773D01*
X131227518Y-92249975D01*
X131076823Y-92220000D01*
X130934178Y-92220000D01*
X125505000Y-86790823D01*
X125505000Y-75274794D01*
X125507442Y-75249999D01*
X125505000Y-75225204D01*
X125505000Y-75225195D01*
X125497693Y-75151003D01*
X125468816Y-75055810D01*
X125446987Y-75014972D01*
X125421923Y-74968079D01*
X125374628Y-74910450D01*
X125374624Y-74910446D01*
X125358816Y-74891184D01*
X125339554Y-74875376D01*
X120124628Y-69660451D01*
X120108816Y-69641184D01*
X120031920Y-69578077D01*
X119944190Y-69531184D01*
X119848997Y-69502307D01*
X119774805Y-69495000D01*
X119774795Y-69495000D01*
X119750000Y-69492558D01*
X119725205Y-69495000D01*
X119699030Y-69495000D01*
X119569561Y-69182433D01*
X119380671Y-68899739D01*
X119140261Y-68659329D01*
X118857567Y-68470439D01*
X118543456Y-68340330D01*
X118209996Y-68274000D01*
X117870004Y-68274000D01*
X117536544Y-68340330D01*
X117222433Y-68470439D01*
X117030679Y-68598565D01*
X116972422Y-68527578D01*
X116839034Y-68418109D01*
X116686852Y-68336766D01*
X116521726Y-68286676D01*
X116350000Y-68269762D01*
X114650000Y-68269762D01*
X114478274Y-68286676D01*
X114313148Y-68336766D01*
X114160966Y-68418109D01*
X114027578Y-68527578D01*
X113918109Y-68660966D01*
X113836766Y-68813148D01*
X113786676Y-68978274D01*
X113769762Y-69150000D01*
X73930000Y-69150000D01*
X73930000Y-51875000D01*
X172637932Y-51875000D01*
X172650173Y-51999286D01*
X172686426Y-52118795D01*
X172745297Y-52228936D01*
X172824525Y-52325475D01*
X172921064Y-52404703D01*
X173031205Y-52463574D01*
X173150714Y-52499827D01*
X173275000Y-52512068D01*
X173863500Y-52509000D01*
X174022000Y-52350500D01*
X174022000Y-51128000D01*
X172799500Y-51128000D01*
X172641000Y-51286500D01*
X172637932Y-51875000D01*
X73930000Y-51875000D01*
X73930000Y-50125000D01*
X172637932Y-50125000D01*
X172641000Y-50713500D01*
X172799500Y-50872000D01*
X174022000Y-50872000D01*
X174022000Y-49649500D01*
X174278000Y-49649500D01*
X174278000Y-50872000D01*
X174298000Y-50872000D01*
X174298000Y-51128000D01*
X174278000Y-51128000D01*
X174278000Y-52350500D01*
X174436500Y-52509000D01*
X175025000Y-52512068D01*
X175149286Y-52499827D01*
X175268795Y-52463574D01*
X175378936Y-52404703D01*
X175475475Y-52325475D01*
X175504194Y-52290481D01*
X175573803Y-52360090D01*
X175860591Y-52551716D01*
X176179252Y-52683710D01*
X176517542Y-52751000D01*
X176862458Y-52751000D01*
X177200748Y-52683710D01*
X177519409Y-52551716D01*
X177806197Y-52360090D01*
X177960000Y-52206287D01*
X178113803Y-52360090D01*
X178400591Y-52551716D01*
X178719252Y-52683710D01*
X179057542Y-52751000D01*
X179402458Y-52751000D01*
X179740748Y-52683710D01*
X180059409Y-52551716D01*
X180346197Y-52360090D01*
X180500000Y-52206287D01*
X180653803Y-52360090D01*
X180940591Y-52551716D01*
X181259252Y-52683710D01*
X181597542Y-52751000D01*
X181942458Y-52751000D01*
X182280748Y-52683710D01*
X182599409Y-52551716D01*
X182886197Y-52360090D01*
X183040000Y-52206287D01*
X183193803Y-52360090D01*
X183480591Y-52551716D01*
X183799252Y-52683710D01*
X184137542Y-52751000D01*
X184482458Y-52751000D01*
X184820748Y-52683710D01*
X185139409Y-52551716D01*
X185426197Y-52360090D01*
X185580000Y-52206287D01*
X185733803Y-52360090D01*
X186020591Y-52551716D01*
X186339252Y-52683710D01*
X186677542Y-52751000D01*
X187022458Y-52751000D01*
X187360748Y-52683710D01*
X187679409Y-52551716D01*
X187966197Y-52360090D01*
X188047991Y-52278296D01*
X195749000Y-52278296D01*
X195749000Y-52721704D01*
X195835504Y-53156593D01*
X196005189Y-53566249D01*
X196251534Y-53934929D01*
X196565071Y-54248466D01*
X196933751Y-54494811D01*
X197343407Y-54664496D01*
X197778296Y-54751000D01*
X198221704Y-54751000D01*
X198656593Y-54664496D01*
X199066249Y-54494811D01*
X199434929Y-54248466D01*
X199748466Y-53934929D01*
X199994811Y-53566249D01*
X200164496Y-53156593D01*
X200251000Y-52721704D01*
X200251000Y-52278296D01*
X200749000Y-52278296D01*
X200749000Y-52721704D01*
X200835504Y-53156593D01*
X201005189Y-53566249D01*
X201251534Y-53934929D01*
X201565071Y-54248466D01*
X201933751Y-54494811D01*
X202343407Y-54664496D01*
X202778296Y-54751000D01*
X203221704Y-54751000D01*
X203656593Y-54664496D01*
X204066249Y-54494811D01*
X204434929Y-54248466D01*
X204748466Y-53934929D01*
X204750000Y-53932633D01*
X204751534Y-53934929D01*
X205065071Y-54248466D01*
X205433751Y-54494811D01*
X205843407Y-54664496D01*
X206278296Y-54751000D01*
X206721704Y-54751000D01*
X207156593Y-54664496D01*
X207566249Y-54494811D01*
X207934929Y-54248466D01*
X208248466Y-53934929D01*
X208269956Y-53902767D01*
X208778252Y-53902767D01*
X208919367Y-54205130D01*
X209272785Y-54383187D01*
X209654150Y-54488875D01*
X210048805Y-54518132D01*
X210441585Y-54469833D01*
X210817396Y-54345834D01*
X211080633Y-54205130D01*
X211221748Y-53902767D01*
X210000000Y-52681019D01*
X208778252Y-53902767D01*
X208269956Y-53902767D01*
X208439956Y-53648346D01*
X208597233Y-53721748D01*
X209818981Y-52500000D01*
X210181019Y-52500000D01*
X211402767Y-53721748D01*
X211560044Y-53648346D01*
X211751534Y-53934929D01*
X212065071Y-54248466D01*
X212433751Y-54494811D01*
X212843407Y-54664496D01*
X213278296Y-54751000D01*
X213721704Y-54751000D01*
X214156593Y-54664496D01*
X214566249Y-54494811D01*
X214934929Y-54248466D01*
X215248466Y-53934929D01*
X215250000Y-53932633D01*
X215251534Y-53934929D01*
X215565071Y-54248466D01*
X215933751Y-54494811D01*
X216343407Y-54664496D01*
X216778296Y-54751000D01*
X217221704Y-54751000D01*
X217656593Y-54664496D01*
X218066249Y-54494811D01*
X218434929Y-54248466D01*
X218748466Y-53934929D01*
X218994811Y-53566249D01*
X219164496Y-53156593D01*
X219251000Y-52721704D01*
X219251000Y-52278296D01*
X219164496Y-51843407D01*
X218994811Y-51433751D01*
X218748466Y-51065071D01*
X218434929Y-50751534D01*
X218066249Y-50505189D01*
X217656593Y-50335504D01*
X217221704Y-50249000D01*
X216778296Y-50249000D01*
X216343407Y-50335504D01*
X215933751Y-50505189D01*
X215565071Y-50751534D01*
X215251534Y-51065071D01*
X215250000Y-51067367D01*
X215248466Y-51065071D01*
X214934929Y-50751534D01*
X214566249Y-50505189D01*
X214156593Y-50335504D01*
X213721704Y-50249000D01*
X213278296Y-50249000D01*
X212843407Y-50335504D01*
X212433751Y-50505189D01*
X212065071Y-50751534D01*
X211751534Y-51065071D01*
X211560044Y-51351654D01*
X211402767Y-51278252D01*
X210181019Y-52500000D01*
X209818981Y-52500000D01*
X208597233Y-51278252D01*
X208439956Y-51351654D01*
X208269957Y-51097233D01*
X208778252Y-51097233D01*
X210000000Y-52318981D01*
X211221748Y-51097233D01*
X211080633Y-50794870D01*
X210727215Y-50616813D01*
X210345850Y-50511125D01*
X209951195Y-50481868D01*
X209558415Y-50530167D01*
X209182604Y-50654166D01*
X208919367Y-50794870D01*
X208778252Y-51097233D01*
X208269957Y-51097233D01*
X208248466Y-51065071D01*
X207934929Y-50751534D01*
X207566249Y-50505189D01*
X207156593Y-50335504D01*
X206721704Y-50249000D01*
X206278296Y-50249000D01*
X205843407Y-50335504D01*
X205433751Y-50505189D01*
X205065071Y-50751534D01*
X204751534Y-51065071D01*
X204750000Y-51067367D01*
X204748466Y-51065071D01*
X204434929Y-50751534D01*
X204066249Y-50505189D01*
X203656593Y-50335504D01*
X203221704Y-50249000D01*
X202778296Y-50249000D01*
X202343407Y-50335504D01*
X201933751Y-50505189D01*
X201565071Y-50751534D01*
X201251534Y-51065071D01*
X201005189Y-51433751D01*
X200835504Y-51843407D01*
X200749000Y-52278296D01*
X200251000Y-52278296D01*
X200164496Y-51843407D01*
X199994811Y-51433751D01*
X199748466Y-51065071D01*
X199434929Y-50751534D01*
X199066249Y-50505189D01*
X198656593Y-50335504D01*
X198221704Y-50249000D01*
X197778296Y-50249000D01*
X197343407Y-50335504D01*
X196933751Y-50505189D01*
X196565071Y-50751534D01*
X196251534Y-51065071D01*
X196005189Y-51433751D01*
X195835504Y-51843407D01*
X195749000Y-52278296D01*
X188047991Y-52278296D01*
X188210090Y-52116197D01*
X188401716Y-51829409D01*
X188533710Y-51510748D01*
X188601000Y-51172458D01*
X188601000Y-50827542D01*
X188533710Y-50489252D01*
X188401716Y-50170591D01*
X188210090Y-49883803D01*
X187966197Y-49639910D01*
X187679409Y-49448284D01*
X187360748Y-49316290D01*
X187022458Y-49249000D01*
X186677542Y-49249000D01*
X186339252Y-49316290D01*
X186020591Y-49448284D01*
X185733803Y-49639910D01*
X185580000Y-49793713D01*
X185426197Y-49639910D01*
X185139409Y-49448284D01*
X184820748Y-49316290D01*
X184482458Y-49249000D01*
X184137542Y-49249000D01*
X183799252Y-49316290D01*
X183480591Y-49448284D01*
X183193803Y-49639910D01*
X183040000Y-49793713D01*
X182886197Y-49639910D01*
X182599409Y-49448284D01*
X182280748Y-49316290D01*
X181942458Y-49249000D01*
X181597542Y-49249000D01*
X181259252Y-49316290D01*
X180940591Y-49448284D01*
X180653803Y-49639910D01*
X180500000Y-49793713D01*
X180346197Y-49639910D01*
X180059409Y-49448284D01*
X179740748Y-49316290D01*
X179402458Y-49249000D01*
X179057542Y-49249000D01*
X178719252Y-49316290D01*
X178400591Y-49448284D01*
X178113803Y-49639910D01*
X177960000Y-49793713D01*
X177806197Y-49639910D01*
X177519409Y-49448284D01*
X177200748Y-49316290D01*
X176862458Y-49249000D01*
X176517542Y-49249000D01*
X176179252Y-49316290D01*
X175860591Y-49448284D01*
X175573803Y-49639910D01*
X175504194Y-49709519D01*
X175475475Y-49674525D01*
X175378936Y-49595297D01*
X175268795Y-49536426D01*
X175149286Y-49500173D01*
X175025000Y-49487932D01*
X174436500Y-49491000D01*
X174278000Y-49649500D01*
X174022000Y-49649500D01*
X173863500Y-49491000D01*
X173275000Y-49487932D01*
X173150714Y-49500173D01*
X173031205Y-49536426D01*
X172921064Y-49595297D01*
X172824525Y-49674525D01*
X172745297Y-49771064D01*
X172686426Y-49881205D01*
X172650173Y-50000714D01*
X172637932Y-50125000D01*
X73930000Y-50125000D01*
X73930000Y-47923177D01*
X170830000Y-47923177D01*
X170830000Y-48076823D01*
X170859975Y-48227518D01*
X170918773Y-48369469D01*
X171004135Y-48497221D01*
X171112779Y-48605865D01*
X171240531Y-48691227D01*
X171382482Y-48750025D01*
X171533177Y-48780000D01*
X171686823Y-48780000D01*
X171837518Y-48750025D01*
X171979469Y-48691227D01*
X172071101Y-48630000D01*
X181308899Y-48630000D01*
X181400531Y-48691227D01*
X181542482Y-48750025D01*
X181693177Y-48780000D01*
X181846823Y-48780000D01*
X181997518Y-48750025D01*
X182139469Y-48691227D01*
X182231101Y-48630000D01*
X197538899Y-48630000D01*
X197630531Y-48691227D01*
X197772482Y-48750025D01*
X197923177Y-48780000D01*
X198076823Y-48780000D01*
X198227518Y-48750025D01*
X198369469Y-48691227D01*
X198461101Y-48630000D01*
X207538899Y-48630000D01*
X207630531Y-48691227D01*
X207772482Y-48750025D01*
X207923177Y-48780000D01*
X208076823Y-48780000D01*
X208227518Y-48750025D01*
X208369469Y-48691227D01*
X208497221Y-48605865D01*
X208605865Y-48497221D01*
X208691227Y-48369469D01*
X208750025Y-48227518D01*
X208780000Y-48076823D01*
X208780000Y-47923177D01*
X208750025Y-47772482D01*
X208691227Y-47630531D01*
X208605865Y-47502779D01*
X208497221Y-47394135D01*
X208369469Y-47308773D01*
X208227518Y-47249975D01*
X208076823Y-47220000D01*
X207923177Y-47220000D01*
X207772482Y-47249975D01*
X207630531Y-47308773D01*
X207538899Y-47370000D01*
X198461101Y-47370000D01*
X198369469Y-47308773D01*
X198227518Y-47249975D01*
X198076823Y-47220000D01*
X197923177Y-47220000D01*
X197772482Y-47249975D01*
X197630531Y-47308773D01*
X197538899Y-47370000D01*
X182231101Y-47370000D01*
X182139469Y-47308773D01*
X181997518Y-47249975D01*
X181846823Y-47220000D01*
X181693177Y-47220000D01*
X181542482Y-47249975D01*
X181400531Y-47308773D01*
X181308899Y-47370000D01*
X172071101Y-47370000D01*
X171979469Y-47308773D01*
X171837518Y-47249975D01*
X171686823Y-47220000D01*
X171533177Y-47220000D01*
X171382482Y-47249975D01*
X171240531Y-47308773D01*
X171112779Y-47394135D01*
X171004135Y-47502779D01*
X170918773Y-47630531D01*
X170859975Y-47772482D01*
X170830000Y-47923177D01*
X73930000Y-47923177D01*
X73930000Y-40914307D01*
X86166713Y-40914307D01*
X86563052Y-41434300D01*
X87277954Y-41824227D01*
X88055191Y-42067191D01*
X88864894Y-42153855D01*
X89675945Y-42080889D01*
X90457177Y-41851097D01*
X91178568Y-41473309D01*
X91236948Y-41434300D01*
X91633287Y-40914307D01*
X209866713Y-40914307D01*
X210263052Y-41434300D01*
X210977954Y-41824227D01*
X211755191Y-42067191D01*
X212564894Y-42153855D01*
X213375945Y-42080889D01*
X214157177Y-41851097D01*
X214878568Y-41473309D01*
X214936948Y-41434300D01*
X215333287Y-40914307D01*
X212600000Y-38181019D01*
X209866713Y-40914307D01*
X91633287Y-40914307D01*
X88900000Y-38181019D01*
X86166713Y-40914307D01*
X73930000Y-40914307D01*
X73930000Y-37964894D01*
X84746145Y-37964894D01*
X84819111Y-38775945D01*
X85048903Y-39557177D01*
X85426691Y-40278568D01*
X85465700Y-40336948D01*
X85985693Y-40733287D01*
X88718981Y-38000000D01*
X89081019Y-38000000D01*
X91814307Y-40733287D01*
X92334300Y-40336948D01*
X92724227Y-39622046D01*
X92967191Y-38844809D01*
X93053855Y-38035106D01*
X93047539Y-37964894D01*
X208446145Y-37964894D01*
X208519111Y-38775945D01*
X208748903Y-39557177D01*
X209126691Y-40278568D01*
X209165700Y-40336948D01*
X209685693Y-40733287D01*
X212418981Y-38000000D01*
X212781019Y-38000000D01*
X215514307Y-40733287D01*
X216034300Y-40336948D01*
X216424227Y-39622046D01*
X216667191Y-38844809D01*
X216753855Y-38035106D01*
X216680889Y-37224055D01*
X216451097Y-36442823D01*
X216073309Y-35721432D01*
X216034300Y-35663052D01*
X215514307Y-35266713D01*
X212781019Y-38000000D01*
X212418981Y-38000000D01*
X209685693Y-35266713D01*
X209165700Y-35663052D01*
X208775773Y-36377954D01*
X208532809Y-37155191D01*
X208446145Y-37964894D01*
X93047539Y-37964894D01*
X92980889Y-37224055D01*
X92751097Y-36442823D01*
X92373309Y-35721432D01*
X92334300Y-35663052D01*
X91814307Y-35266713D01*
X89081019Y-38000000D01*
X88718981Y-38000000D01*
X85985693Y-35266713D01*
X85465700Y-35663052D01*
X85075773Y-36377954D01*
X84832809Y-37155191D01*
X84746145Y-37964894D01*
X73930000Y-37964894D01*
X73930000Y-34430000D01*
X86806065Y-34430000D01*
X86621432Y-34526691D01*
%TA.AperFunction,Conductor*%
D24*
G36*
X86621432Y-34526691D02*
G01*
X86563052Y-34565700D01*
X86166713Y-35085693D01*
X88900000Y-37818981D01*
X91633287Y-35085693D01*
X91236948Y-34565700D01*
X90988152Y-34430000D01*
X210506065Y-34430000D01*
X210321432Y-34526691D01*
X210263052Y-34565700D01*
X209866713Y-35085693D01*
X212600000Y-37818981D01*
X215333287Y-35085693D01*
X214936948Y-34565700D01*
X214688152Y-34430000D01*
X227570000Y-34430000D01*
X227570001Y-160570000D01*
X214693935Y-160570000D01*
X214878568Y-160473309D01*
X214936948Y-160434300D01*
X215333287Y-159914307D01*
X212600000Y-157181019D01*
X209866713Y-159914307D01*
X210263052Y-160434300D01*
X210511848Y-160570000D01*
X90993935Y-160570000D01*
X91178568Y-160473309D01*
X91236948Y-160434300D01*
X91633287Y-159914307D01*
X88900000Y-157181019D01*
X86166713Y-159914307D01*
X86563052Y-160434300D01*
X86811848Y-160570000D01*
X73930000Y-160570000D01*
X73930000Y-156964894D01*
X84746145Y-156964894D01*
X84819111Y-157775945D01*
X85048903Y-158557177D01*
X85426691Y-159278568D01*
X85465700Y-159336948D01*
X85985693Y-159733287D01*
X88718981Y-157000000D01*
X89081019Y-157000000D01*
X91814307Y-159733287D01*
X92334300Y-159336948D01*
X92724227Y-158622046D01*
X92967191Y-157844809D01*
X93053855Y-157035106D01*
X93047539Y-156964894D01*
X208446145Y-156964894D01*
X208519111Y-157775945D01*
X208748903Y-158557177D01*
X209126691Y-159278568D01*
X209165700Y-159336948D01*
X209685693Y-159733287D01*
X212418981Y-157000000D01*
X212781019Y-157000000D01*
X215514307Y-159733287D01*
X216034300Y-159336948D01*
X216424227Y-158622046D01*
X216667191Y-157844809D01*
X216753855Y-157035106D01*
X216680889Y-156224055D01*
X216451097Y-155442823D01*
X216073309Y-154721432D01*
X216034300Y-154663052D01*
X215514307Y-154266713D01*
X212781019Y-157000000D01*
X212418981Y-157000000D01*
X209685693Y-154266713D01*
X209165700Y-154663052D01*
X208775773Y-155377954D01*
X208532809Y-156155191D01*
X208446145Y-156964894D01*
X93047539Y-156964894D01*
X92980889Y-156224055D01*
X92751097Y-155442823D01*
X92373309Y-154721432D01*
X92334300Y-154663052D01*
X91814307Y-154266713D01*
X89081019Y-157000000D01*
X88718981Y-157000000D01*
X85985693Y-154266713D01*
X85465700Y-154663052D01*
X85075773Y-155377954D01*
X84832809Y-156155191D01*
X84746145Y-156964894D01*
X73930000Y-156964894D01*
X73930000Y-154085693D01*
X86166713Y-154085693D01*
X88900000Y-156818981D01*
X91633287Y-154085693D01*
X209866713Y-154085693D01*
X212600000Y-156818981D01*
X215333287Y-154085693D01*
X214936948Y-153565700D01*
X214222046Y-153175773D01*
X213444809Y-152932809D01*
X212635106Y-152846145D01*
X211824055Y-152919111D01*
X211042823Y-153148903D01*
X210321432Y-153526691D01*
X210263052Y-153565700D01*
X209866713Y-154085693D01*
X91633287Y-154085693D01*
X91236948Y-153565700D01*
X90522046Y-153175773D01*
X89744809Y-152932809D01*
X88935106Y-152846145D01*
X88124055Y-152919111D01*
X87342823Y-153148903D01*
X86621432Y-153526691D01*
X86563052Y-153565700D01*
X86166713Y-154085693D01*
X73930000Y-154085693D01*
X73930000Y-147050000D01*
X77420972Y-147050000D01*
X77420972Y-148950000D01*
X77433059Y-149072717D01*
X77468854Y-149190719D01*
X77526982Y-149299469D01*
X77605210Y-149394790D01*
X77700531Y-149473018D01*
X77809281Y-149531146D01*
X77927283Y-149566941D01*
X78050000Y-149579028D01*
X79950000Y-149579028D01*
X80072717Y-149566941D01*
X80190719Y-149531146D01*
X80299469Y-149473018D01*
X80394790Y-149394790D01*
X80473018Y-149299469D01*
X80508558Y-149232979D01*
X80753484Y-149396633D01*
X81040298Y-149515436D01*
X81344778Y-149576000D01*
X81655222Y-149576000D01*
X81959702Y-149515436D01*
X82246516Y-149396633D01*
X82504642Y-149224159D01*
X82724159Y-149004642D01*
X82750000Y-148965968D01*
X82775841Y-149004642D01*
X82995358Y-149224159D01*
X83253484Y-149396633D01*
X83540298Y-149515436D01*
X83844778Y-149576000D01*
X84155222Y-149576000D01*
X84459702Y-149515436D01*
X84746516Y-149396633D01*
X85004642Y-149224159D01*
X85224159Y-149004642D01*
X85250000Y-148965968D01*
X85275841Y-149004642D01*
X85495358Y-149224159D01*
X85753484Y-149396633D01*
X86040298Y-149515436D01*
X86344778Y-149576000D01*
X86655222Y-149576000D01*
X86959702Y-149515436D01*
X87246516Y-149396633D01*
X87504642Y-149224159D01*
X87724159Y-149004642D01*
X87750000Y-148965968D01*
X87775841Y-149004642D01*
X87995358Y-149224159D01*
X88253484Y-149396633D01*
X88540298Y-149515436D01*
X88844778Y-149576000D01*
X89155222Y-149576000D01*
X89459702Y-149515436D01*
X89746516Y-149396633D01*
X90004642Y-149224159D01*
X90224159Y-149004642D01*
X90250000Y-148965968D01*
X90275841Y-149004642D01*
X90495358Y-149224159D01*
X90753484Y-149396633D01*
X91040298Y-149515436D01*
X91344778Y-149576000D01*
X91655222Y-149576000D01*
X91959702Y-149515436D01*
X92246516Y-149396633D01*
X92504642Y-149224159D01*
X92724159Y-149004642D01*
X92750000Y-148965968D01*
X92775841Y-149004642D01*
X92995358Y-149224159D01*
X93253484Y-149396633D01*
X93540298Y-149515436D01*
X93844778Y-149576000D01*
X94155222Y-149576000D01*
X94459702Y-149515436D01*
X94746516Y-149396633D01*
X95004642Y-149224159D01*
X95224159Y-149004642D01*
X95250000Y-148965968D01*
X95275841Y-149004642D01*
X95495358Y-149224159D01*
X95753484Y-149396633D01*
X96040298Y-149515436D01*
X96344778Y-149576000D01*
X96655222Y-149576000D01*
X96959702Y-149515436D01*
X97076219Y-149467173D01*
X99032638Y-151423593D01*
X99052367Y-151447633D01*
X99148297Y-151526360D01*
X99257743Y-151584860D01*
X99376498Y-151620884D01*
X99469053Y-151630000D01*
X99469054Y-151630000D01*
X99500000Y-151633048D01*
X99530946Y-151630000D01*
X165969054Y-151630000D01*
X166000000Y-151633048D01*
X166030946Y-151630000D01*
X166030947Y-151630000D01*
X166123502Y-151620884D01*
X166242257Y-151584860D01*
X166351703Y-151526360D01*
X166447633Y-151447633D01*
X166467366Y-151423588D01*
X168423782Y-149467173D01*
X168540298Y-149515436D01*
X168844778Y-149576000D01*
X169155222Y-149576000D01*
X169459702Y-149515436D01*
X169746516Y-149396633D01*
X170004642Y-149224159D01*
X170224159Y-149004642D01*
X170250000Y-148965968D01*
X170275841Y-149004642D01*
X170495358Y-149224159D01*
X170753484Y-149396633D01*
X171040298Y-149515436D01*
X171344778Y-149576000D01*
X171655222Y-149576000D01*
X171959702Y-149515436D01*
X172246516Y-149396633D01*
X172504642Y-149224159D01*
X172724159Y-149004642D01*
X172750000Y-148965968D01*
X172775841Y-149004642D01*
X172995358Y-149224159D01*
X173253484Y-149396633D01*
X173540298Y-149515436D01*
X173844778Y-149576000D01*
X174155222Y-149576000D01*
X174459702Y-149515436D01*
X174746516Y-149396633D01*
X175004642Y-149224159D01*
X175128941Y-149099860D01*
X175581159Y-149099860D01*
X175671028Y-149358750D01*
X175952035Y-149494366D01*
X176254101Y-149572555D01*
X176565616Y-149590311D01*
X176874609Y-149546952D01*
X177169206Y-149444145D01*
X177328972Y-149358750D01*
X177418841Y-149099860D01*
X176500000Y-148181019D01*
X175581159Y-149099860D01*
X175128941Y-149099860D01*
X175224159Y-149004642D01*
X175303828Y-148885408D01*
X175400140Y-148918841D01*
X176318981Y-148000000D01*
X176681019Y-148000000D01*
X177599860Y-148918841D01*
X177858750Y-148828972D01*
X177994366Y-148547965D01*
X178072555Y-148245899D01*
X178090311Y-147934384D01*
X178046952Y-147625391D01*
X177944145Y-147330794D01*
X177858750Y-147171028D01*
X177599860Y-147081159D01*
X176681019Y-148000000D01*
X176318981Y-148000000D01*
X175400140Y-147081159D01*
X175303828Y-147114592D01*
X175224159Y-146995358D01*
X175128941Y-146900140D01*
X175581159Y-146900140D01*
X176500000Y-147818981D01*
X177418841Y-146900140D01*
X177328972Y-146641250D01*
X177047965Y-146505634D01*
X176745899Y-146427445D01*
X176434384Y-146409689D01*
X176125391Y-146453048D01*
X175830794Y-146555855D01*
X175671028Y-146641250D01*
X175581159Y-146900140D01*
X175128941Y-146900140D01*
X175004642Y-146775841D01*
X174746516Y-146603367D01*
X174459702Y-146484564D01*
X174155222Y-146424000D01*
X173844778Y-146424000D01*
X173540298Y-146484564D01*
X173253484Y-146603367D01*
X172995358Y-146775841D01*
X172775841Y-146995358D01*
X172750000Y-147034032D01*
X172724159Y-146995358D01*
X172504642Y-146775841D01*
X172246516Y-146603367D01*
X172130000Y-146555104D01*
X172130000Y-143923177D01*
X184260000Y-143923177D01*
X184260000Y-144076823D01*
X184289975Y-144227518D01*
X184348773Y-144369469D01*
X184434135Y-144497221D01*
X184542779Y-144605865D01*
X184670531Y-144691227D01*
X184812482Y-144750025D01*
X184963177Y-144780000D01*
X185116823Y-144780000D01*
X185267518Y-144750025D01*
X185409469Y-144691227D01*
X185501101Y-144630000D01*
X214578899Y-144630000D01*
X214670531Y-144691227D01*
X214812482Y-144750025D01*
X214963177Y-144780000D01*
X215116823Y-144780000D01*
X215267518Y-144750025D01*
X215409469Y-144691227D01*
X215537221Y-144605865D01*
X215645865Y-144497221D01*
X215731227Y-144369469D01*
X215790025Y-144227518D01*
X215820000Y-144076823D01*
X215820000Y-143923177D01*
X215790025Y-143772482D01*
X215731227Y-143630531D01*
X215645865Y-143502779D01*
X215537221Y-143394135D01*
X215409469Y-143308773D01*
X215267518Y-143249975D01*
X215116823Y-143220000D01*
X214963177Y-143220000D01*
X214812482Y-143249975D01*
X214670531Y-143308773D01*
X214578899Y-143370000D01*
X185501101Y-143370000D01*
X185409469Y-143308773D01*
X185267518Y-143249975D01*
X185116823Y-143220000D01*
X184963177Y-143220000D01*
X184812482Y-143249975D01*
X184670531Y-143308773D01*
X184542779Y-143394135D01*
X184434135Y-143502779D01*
X184348773Y-143630531D01*
X184289975Y-143772482D01*
X184260000Y-143923177D01*
X172130000Y-143923177D01*
X172130000Y-143030945D01*
X172133048Y-142999999D01*
X172120884Y-142876498D01*
X172084860Y-142757743D01*
X172026360Y-142648297D01*
X171947633Y-142552367D01*
X171923588Y-142532634D01*
X170814131Y-141423177D01*
X179180000Y-141423177D01*
X179180000Y-141576823D01*
X179209975Y-141727518D01*
X179268773Y-141869469D01*
X179354135Y-141997221D01*
X179462779Y-142105865D01*
X179590531Y-142191227D01*
X179732482Y-142250025D01*
X179883177Y-142280000D01*
X180036823Y-142280000D01*
X180187518Y-142250025D01*
X180329469Y-142191227D01*
X180421101Y-142130000D01*
X209498899Y-142130000D01*
X209590531Y-142191227D01*
X209732482Y-142250025D01*
X209883177Y-142280000D01*
X210036823Y-142280000D01*
X210187518Y-142250025D01*
X210329469Y-142191227D01*
X210457221Y-142105865D01*
X210565865Y-141997221D01*
X210651227Y-141869469D01*
X210710025Y-141727518D01*
X210740000Y-141576823D01*
X210740000Y-141423177D01*
X210710025Y-141272482D01*
X210651227Y-141130531D01*
X210565865Y-141002779D01*
X210457221Y-140894135D01*
X210329469Y-140808773D01*
X210187518Y-140749975D01*
X210036823Y-140720000D01*
X209883177Y-140720000D01*
X209732482Y-140749975D01*
X209590531Y-140808773D01*
X209498899Y-140870000D01*
X180421101Y-140870000D01*
X180329469Y-140808773D01*
X180187518Y-140749975D01*
X180036823Y-140720000D01*
X179883177Y-140720000D01*
X179732482Y-140749975D01*
X179590531Y-140808773D01*
X179462779Y-140894135D01*
X179354135Y-141002779D01*
X179268773Y-141130531D01*
X179209975Y-141272482D01*
X179180000Y-141423177D01*
X170814131Y-141423177D01*
X170467366Y-141076412D01*
X170447633Y-141052367D01*
X170351703Y-140973640D01*
X170242257Y-140915140D01*
X170123502Y-140879116D01*
X170030947Y-140870000D01*
X170030946Y-140870000D01*
X170000000Y-140866952D01*
X169969054Y-140870000D01*
X164260954Y-140870000D01*
X163130000Y-139739046D01*
X163130000Y-136530946D01*
X163133048Y-136500000D01*
X163120884Y-136376499D01*
X163084860Y-136257743D01*
X163080735Y-136250025D01*
X163026360Y-136148297D01*
X162947633Y-136052367D01*
X162923593Y-136032638D01*
X162540955Y-135650000D01*
X178229762Y-135650000D01*
X178229762Y-137350000D01*
X178246676Y-137521726D01*
X178296766Y-137686852D01*
X178378109Y-137839034D01*
X178487578Y-137972422D01*
X178620966Y-138081891D01*
X178773148Y-138163234D01*
X178938274Y-138213324D01*
X179110000Y-138230238D01*
X180810000Y-138230238D01*
X180981726Y-138213324D01*
X181146852Y-138163234D01*
X181299034Y-138081891D01*
X181432422Y-137972422D01*
X181490679Y-137901435D01*
X181682433Y-138029561D01*
X181996544Y-138159670D01*
X182330004Y-138226000D01*
X182669996Y-138226000D01*
X183003456Y-138159670D01*
X183317567Y-138029561D01*
X183600261Y-137840671D01*
X183770000Y-137670932D01*
X183939739Y-137840671D01*
X184222433Y-138029561D01*
X184536544Y-138159670D01*
X184870004Y-138226000D01*
X185209996Y-138226000D01*
X185543456Y-138159670D01*
X185857567Y-138029561D01*
X186140261Y-137840671D01*
X186380671Y-137600261D01*
X186569561Y-137317567D01*
X186699670Y-137003456D01*
X186766000Y-136669996D01*
X186766000Y-136330004D01*
X186699670Y-135996544D01*
X186569561Y-135682433D01*
X186547890Y-135650000D01*
X208229762Y-135650000D01*
X208229762Y-137350000D01*
X208246676Y-137521726D01*
X208296766Y-137686852D01*
X208378109Y-137839034D01*
X208487578Y-137972422D01*
X208620966Y-138081891D01*
X208773148Y-138163234D01*
X208938274Y-138213324D01*
X209110000Y-138230238D01*
X210810000Y-138230238D01*
X210981726Y-138213324D01*
X211146852Y-138163234D01*
X211299034Y-138081891D01*
X211432422Y-137972422D01*
X211490679Y-137901435D01*
X211682433Y-138029561D01*
X211996544Y-138159670D01*
X212330004Y-138226000D01*
X212669996Y-138226000D01*
X213003456Y-138159670D01*
X213317567Y-138029561D01*
X213600261Y-137840671D01*
X213770000Y-137670932D01*
X213939739Y-137840671D01*
X214222433Y-138029561D01*
X214536544Y-138159670D01*
X214870004Y-138226000D01*
X215209996Y-138226000D01*
X215543456Y-138159670D01*
X215857567Y-138029561D01*
X216140261Y-137840671D01*
X216380671Y-137600261D01*
X216569561Y-137317567D01*
X216699670Y-137003456D01*
X216766000Y-136669996D01*
X216766000Y-136330004D01*
X216699670Y-135996544D01*
X216569561Y-135682433D01*
X216380671Y-135399739D01*
X216140261Y-135159329D01*
X215857567Y-134970439D01*
X215543456Y-134840330D01*
X215209996Y-134774000D01*
X214870004Y-134774000D01*
X214536544Y-134840330D01*
X214222433Y-134970439D01*
X213939739Y-135159329D01*
X213770000Y-135329068D01*
X213600261Y-135159329D01*
X213317567Y-134970439D01*
X213003456Y-134840330D01*
X212669996Y-134774000D01*
X212330004Y-134774000D01*
X211996544Y-134840330D01*
X211682433Y-134970439D01*
X211490679Y-135098565D01*
X211432422Y-135027578D01*
X211299034Y-134918109D01*
X211146852Y-134836766D01*
X210981726Y-134786676D01*
X210810000Y-134769762D01*
X209110000Y-134769762D01*
X208938274Y-134786676D01*
X208773148Y-134836766D01*
X208620966Y-134918109D01*
X208487578Y-135027578D01*
X208378109Y-135160966D01*
X208296766Y-135313148D01*
X208246676Y-135478274D01*
X208229762Y-135650000D01*
X186547890Y-135650000D01*
X186380671Y-135399739D01*
X186140261Y-135159329D01*
X185857567Y-134970439D01*
X185543456Y-134840330D01*
X185209996Y-134774000D01*
X184870004Y-134774000D01*
X184536544Y-134840330D01*
X184222433Y-134970439D01*
X183939739Y-135159329D01*
X183770000Y-135329068D01*
X183600261Y-135159329D01*
X183317567Y-134970439D01*
X183003456Y-134840330D01*
X182669996Y-134774000D01*
X182330004Y-134774000D01*
X181996544Y-134840330D01*
X181682433Y-134970439D01*
X181490679Y-135098565D01*
X181432422Y-135027578D01*
X181299034Y-134918109D01*
X181146852Y-134836766D01*
X180981726Y-134786676D01*
X180810000Y-134769762D01*
X179110000Y-134769762D01*
X178938274Y-134786676D01*
X178773148Y-134836766D01*
X178620966Y-134918109D01*
X178487578Y-135027578D01*
X178378109Y-135160966D01*
X178296766Y-135313148D01*
X178246676Y-135478274D01*
X178229762Y-135650000D01*
X162540955Y-135650000D01*
X159967366Y-133076412D01*
X159947633Y-133052367D01*
X159851703Y-132973640D01*
X159742257Y-132915140D01*
X159623502Y-132879116D01*
X159530947Y-132870000D01*
X159530946Y-132870000D01*
X159500000Y-132866952D01*
X159469054Y-132870000D01*
X143211101Y-132870000D01*
X143119469Y-132808773D01*
X142977518Y-132749975D01*
X142826823Y-132720000D01*
X142673177Y-132720000D01*
X142522482Y-132749975D01*
X142380531Y-132808773D01*
X142252779Y-132894135D01*
X142144135Y-133002779D01*
X142058773Y-133130531D01*
X141999975Y-133272482D01*
X141970000Y-133423177D01*
X141970000Y-133576823D01*
X141999975Y-133727518D01*
X142058773Y-133869469D01*
X142144135Y-133997221D01*
X142252779Y-134105865D01*
X142380531Y-134191227D01*
X142522482Y-134250025D01*
X142673177Y-134280000D01*
X142826823Y-134280000D01*
X142977518Y-134250025D01*
X143119469Y-134191227D01*
X143211101Y-134130000D01*
X159239046Y-134130000D01*
X161870001Y-136760956D01*
X161870000Y-139969054D01*
X161866952Y-140000000D01*
X161870000Y-140030946D01*
X161879116Y-140123501D01*
X161915140Y-140242256D01*
X161973640Y-140351702D01*
X162052367Y-140447633D01*
X162076412Y-140467366D01*
X163532634Y-141923588D01*
X163552367Y-141947633D01*
X163648297Y-142026360D01*
X163757743Y-142084860D01*
X163876498Y-142120884D01*
X163999999Y-142133048D01*
X164030945Y-142130000D01*
X169739046Y-142130000D01*
X170870001Y-143260955D01*
X170870000Y-146555104D01*
X170753484Y-146603367D01*
X170495358Y-146775841D01*
X170275841Y-146995358D01*
X170250000Y-147034032D01*
X170224159Y-146995358D01*
X170004642Y-146775841D01*
X169746516Y-146603367D01*
X169459702Y-146484564D01*
X169155222Y-146424000D01*
X168844778Y-146424000D01*
X168540298Y-146484564D01*
X168253484Y-146603367D01*
X167995358Y-146775841D01*
X167775841Y-146995358D01*
X167750000Y-147034032D01*
X167724159Y-146995358D01*
X167504642Y-146775841D01*
X167246516Y-146603367D01*
X166959702Y-146484564D01*
X166655222Y-146424000D01*
X166344778Y-146424000D01*
X166040298Y-146484564D01*
X165753484Y-146603367D01*
X165508558Y-146767021D01*
X165473018Y-146700531D01*
X165394790Y-146605210D01*
X165299469Y-146526982D01*
X165190719Y-146468854D01*
X165072717Y-146433059D01*
X164950000Y-146420972D01*
X163050000Y-146420972D01*
X162927283Y-146433059D01*
X162809281Y-146468854D01*
X162700531Y-146526982D01*
X162605210Y-146605210D01*
X162526982Y-146700531D01*
X162468854Y-146809281D01*
X162433059Y-146927283D01*
X162420972Y-147050000D01*
X162420972Y-148688074D01*
X161639046Y-149470000D01*
X157069394Y-149470000D01*
X157246516Y-149396633D01*
X157504642Y-149224159D01*
X157724159Y-149004642D01*
X157896633Y-148746516D01*
X158015436Y-148459702D01*
X158076000Y-148155222D01*
X158076000Y-147844778D01*
X158015436Y-147540298D01*
X157896633Y-147253484D01*
X157724159Y-146995358D01*
X157504642Y-146775841D01*
X157246516Y-146603367D01*
X156959702Y-146484564D01*
X156655222Y-146424000D01*
X156344778Y-146424000D01*
X156040298Y-146484564D01*
X155753484Y-146603367D01*
X155495358Y-146775841D01*
X155275841Y-146995358D01*
X155250000Y-147034032D01*
X155224159Y-146995358D01*
X155004642Y-146775841D01*
X154746516Y-146603367D01*
X154459702Y-146484564D01*
X154155222Y-146424000D01*
X153844778Y-146424000D01*
X153540298Y-146484564D01*
X153253484Y-146603367D01*
X152995358Y-146775841D01*
X152775841Y-146995358D01*
X152750000Y-147034032D01*
X152724159Y-146995358D01*
X152504642Y-146775841D01*
X152246516Y-146603367D01*
X151959702Y-146484564D01*
X151655222Y-146424000D01*
X151344778Y-146424000D01*
X151040298Y-146484564D01*
X150753484Y-146603367D01*
X150495358Y-146775841D01*
X150275841Y-146995358D01*
X150250000Y-147034032D01*
X150224159Y-146995358D01*
X150004642Y-146775841D01*
X149746516Y-146603367D01*
X149459702Y-146484564D01*
X149155222Y-146424000D01*
X148844778Y-146424000D01*
X148540298Y-146484564D01*
X148253484Y-146603367D01*
X147995358Y-146775841D01*
X147775841Y-146995358D01*
X147750000Y-147034032D01*
X147724159Y-146995358D01*
X147504642Y-146775841D01*
X147246516Y-146603367D01*
X146959702Y-146484564D01*
X146655222Y-146424000D01*
X146344778Y-146424000D01*
X146040298Y-146484564D01*
X145753484Y-146603367D01*
X145495358Y-146775841D01*
X145275841Y-146995358D01*
X145250000Y-147034032D01*
X145224159Y-146995358D01*
X145004642Y-146775841D01*
X144746516Y-146603367D01*
X144505000Y-146503327D01*
X144505000Y-136098086D01*
X144605865Y-135997221D01*
X144691227Y-135869469D01*
X144750025Y-135727518D01*
X144780000Y-135576823D01*
X144780000Y-135423177D01*
X144750025Y-135272482D01*
X144691227Y-135130531D01*
X144605865Y-135002779D01*
X144497221Y-134894135D01*
X144369469Y-134808773D01*
X144227518Y-134749975D01*
X144076823Y-134720000D01*
X143923177Y-134720000D01*
X143772482Y-134749975D01*
X143630531Y-134808773D01*
X143502779Y-134894135D01*
X143394135Y-135002779D01*
X143308773Y-135130531D01*
X143249975Y-135272482D01*
X143220000Y-135423177D01*
X143220000Y-135576823D01*
X143249975Y-135727518D01*
X143308773Y-135869469D01*
X143394135Y-135997221D01*
X143495001Y-136098087D01*
X143495000Y-146503327D01*
X143253484Y-146603367D01*
X142995358Y-146775841D01*
X142775841Y-146995358D01*
X142750000Y-147034032D01*
X142724159Y-146995358D01*
X142504642Y-146775841D01*
X142246516Y-146603367D01*
X142005000Y-146503327D01*
X142005000Y-136098086D01*
X142105865Y-135997221D01*
X142191227Y-135869469D01*
X142250025Y-135727518D01*
X142280000Y-135576823D01*
X142280000Y-135423177D01*
X142250025Y-135272482D01*
X142191227Y-135130531D01*
X142105865Y-135002779D01*
X141997221Y-134894135D01*
X141869469Y-134808773D01*
X141727518Y-134749975D01*
X141576823Y-134720000D01*
X141423177Y-134720000D01*
X141272482Y-134749975D01*
X141130531Y-134808773D01*
X141002779Y-134894135D01*
X140894135Y-135002779D01*
X140808773Y-135130531D01*
X140749975Y-135272482D01*
X140720000Y-135423177D01*
X140720000Y-135576823D01*
X140749975Y-135727518D01*
X140808773Y-135869469D01*
X140894135Y-135997221D01*
X140995001Y-136098087D01*
X140995000Y-146503327D01*
X140753484Y-146603367D01*
X140495358Y-146775841D01*
X140275841Y-146995358D01*
X140250000Y-147034032D01*
X140224159Y-146995358D01*
X140004642Y-146775841D01*
X139746516Y-146603367D01*
X139505000Y-146503327D01*
X139505000Y-136098086D01*
X139605865Y-135997221D01*
X139691227Y-135869469D01*
X139750025Y-135727518D01*
X139780000Y-135576823D01*
X139780000Y-135423177D01*
X139750025Y-135272482D01*
X139691227Y-135130531D01*
X139605865Y-135002779D01*
X139497221Y-134894135D01*
X139369469Y-134808773D01*
X139227518Y-134749975D01*
X139076823Y-134720000D01*
X138923177Y-134720000D01*
X138772482Y-134749975D01*
X138630531Y-134808773D01*
X138502779Y-134894135D01*
X138394135Y-135002779D01*
X138308773Y-135130531D01*
X138249975Y-135272482D01*
X138220000Y-135423177D01*
X138220000Y-135576823D01*
X138249975Y-135727518D01*
X138308773Y-135869469D01*
X138394135Y-135997221D01*
X138495001Y-136098087D01*
X138495000Y-146503327D01*
X138253484Y-146603367D01*
X137995358Y-146775841D01*
X137775841Y-146995358D01*
X137750000Y-147034032D01*
X137724159Y-146995358D01*
X137504642Y-146775841D01*
X137246516Y-146603367D01*
X137005000Y-146503327D01*
X137005000Y-136098086D01*
X137105865Y-135997221D01*
X137191227Y-135869469D01*
X137250025Y-135727518D01*
X137280000Y-135576823D01*
X137280000Y-135423177D01*
X137250025Y-135272482D01*
X137191227Y-135130531D01*
X137105865Y-135002779D01*
X136997221Y-134894135D01*
X136869469Y-134808773D01*
X136727518Y-134749975D01*
X136576823Y-134720000D01*
X136423177Y-134720000D01*
X136272482Y-134749975D01*
X136130531Y-134808773D01*
X136002779Y-134894135D01*
X135894135Y-135002779D01*
X135808773Y-135130531D01*
X135749975Y-135272482D01*
X135720000Y-135423177D01*
X135720000Y-135576823D01*
X135749975Y-135727518D01*
X135808773Y-135869469D01*
X135894135Y-135997221D01*
X135995001Y-136098087D01*
X135995000Y-146503327D01*
X135753484Y-146603367D01*
X135495358Y-146775841D01*
X135275841Y-146995358D01*
X135250000Y-147034032D01*
X135224159Y-146995358D01*
X135004642Y-146775841D01*
X134746516Y-146603367D01*
X134505000Y-146503327D01*
X134505000Y-136098086D01*
X134605865Y-135997221D01*
X134691227Y-135869469D01*
X134750025Y-135727518D01*
X134780000Y-135576823D01*
X134780000Y-135423177D01*
X134750025Y-135272482D01*
X134691227Y-135130531D01*
X134605865Y-135002779D01*
X134497221Y-134894135D01*
X134369469Y-134808773D01*
X134227518Y-134749975D01*
X134076823Y-134720000D01*
X133923177Y-134720000D01*
X133772482Y-134749975D01*
X133630531Y-134808773D01*
X133502779Y-134894135D01*
X133394135Y-135002779D01*
X133308773Y-135130531D01*
X133249975Y-135272482D01*
X133220000Y-135423177D01*
X133220000Y-135576823D01*
X133249975Y-135727518D01*
X133308773Y-135869469D01*
X133394135Y-135997221D01*
X133495001Y-136098087D01*
X133495000Y-146503327D01*
X133253484Y-146603367D01*
X132995358Y-146775841D01*
X132775841Y-146995358D01*
X132750000Y-147034032D01*
X132724159Y-146995358D01*
X132504642Y-146775841D01*
X132246516Y-146603367D01*
X131959702Y-146484564D01*
X131655222Y-146424000D01*
X131344778Y-146424000D01*
X131040298Y-146484564D01*
X130753484Y-146603367D01*
X130495358Y-146775841D01*
X130275841Y-146995358D01*
X130250000Y-147034032D01*
X130224159Y-146995358D01*
X130004642Y-146775841D01*
X129746516Y-146603367D01*
X129459702Y-146484564D01*
X129155222Y-146424000D01*
X128844778Y-146424000D01*
X128540298Y-146484564D01*
X128253484Y-146603367D01*
X127995358Y-146775841D01*
X127775841Y-146995358D01*
X127750000Y-147034032D01*
X127724159Y-146995358D01*
X127504642Y-146775841D01*
X127246516Y-146603367D01*
X126959702Y-146484564D01*
X126655222Y-146424000D01*
X126344778Y-146424000D01*
X126040298Y-146484564D01*
X125753484Y-146603367D01*
X125508558Y-146767021D01*
X125473018Y-146700531D01*
X125394790Y-146605210D01*
X125299469Y-146526982D01*
X125190719Y-146468854D01*
X125072717Y-146433059D01*
X124950000Y-146420972D01*
X123050000Y-146420972D01*
X122927283Y-146433059D01*
X122809281Y-146468854D01*
X122700531Y-146526982D01*
X122605210Y-146605210D01*
X122526982Y-146700531D01*
X122468854Y-146809281D01*
X122433059Y-146927283D01*
X122420972Y-147050000D01*
X122420972Y-148950000D01*
X122433059Y-149072717D01*
X122468854Y-149190719D01*
X122526982Y-149299469D01*
X122605210Y-149394790D01*
X122696854Y-149470000D01*
X118860954Y-149470000D01*
X117967173Y-148576219D01*
X118015436Y-148459702D01*
X118076000Y-148155222D01*
X118076000Y-147844778D01*
X118015436Y-147540298D01*
X117896633Y-147253484D01*
X117724159Y-146995358D01*
X117504642Y-146775841D01*
X117246516Y-146603367D01*
X116959702Y-146484564D01*
X116655222Y-146424000D01*
X116344778Y-146424000D01*
X116040298Y-146484564D01*
X115753484Y-146603367D01*
X115495358Y-146775841D01*
X115275841Y-146995358D01*
X115250000Y-147034032D01*
X115224159Y-146995358D01*
X115004642Y-146775841D01*
X114746516Y-146603367D01*
X114459702Y-146484564D01*
X114155222Y-146424000D01*
X113844778Y-146424000D01*
X113540298Y-146484564D01*
X113253484Y-146603367D01*
X112995358Y-146775841D01*
X112775841Y-146995358D01*
X112750000Y-147034032D01*
X112724159Y-146995358D01*
X112504642Y-146775841D01*
X112246516Y-146603367D01*
X112005000Y-146503327D01*
X112005000Y-136098086D01*
X112105865Y-135997221D01*
X112191227Y-135869469D01*
X112250025Y-135727518D01*
X112280000Y-135576823D01*
X112280000Y-135423177D01*
X112250025Y-135272482D01*
X112191227Y-135130531D01*
X112105865Y-135002779D01*
X111997221Y-134894135D01*
X111869469Y-134808773D01*
X111727518Y-134749975D01*
X111576823Y-134720000D01*
X111423177Y-134720000D01*
X111272482Y-134749975D01*
X111130531Y-134808773D01*
X111002779Y-134894135D01*
X110894135Y-135002779D01*
X110808773Y-135130531D01*
X110749975Y-135272482D01*
X110720000Y-135423177D01*
X110720000Y-135576823D01*
X110749975Y-135727518D01*
X110808773Y-135869469D01*
X110894135Y-135997221D01*
X110995000Y-136098086D01*
X110995001Y-146503327D01*
X110753484Y-146603367D01*
X110495358Y-146775841D01*
X110275841Y-146995358D01*
X110250000Y-147034032D01*
X110224159Y-146995358D01*
X110004642Y-146775841D01*
X109746516Y-146603367D01*
X109505000Y-146503327D01*
X109505000Y-136098086D01*
X109605865Y-135997221D01*
X109691227Y-135869469D01*
X109750025Y-135727518D01*
X109780000Y-135576823D01*
X109780000Y-135423177D01*
X109750025Y-135272482D01*
X109691227Y-135130531D01*
X109605865Y-135002779D01*
X109497221Y-134894135D01*
X109369469Y-134808773D01*
X109227518Y-134749975D01*
X109076823Y-134720000D01*
X108923177Y-134720000D01*
X108772482Y-134749975D01*
X108630531Y-134808773D01*
X108502779Y-134894135D01*
X108394135Y-135002779D01*
X108308773Y-135130531D01*
X108249975Y-135272482D01*
X108220000Y-135423177D01*
X108220000Y-135576823D01*
X108249975Y-135727518D01*
X108308773Y-135869469D01*
X108394135Y-135997221D01*
X108495000Y-136098086D01*
X108495001Y-146503327D01*
X108253484Y-146603367D01*
X107995358Y-146775841D01*
X107775841Y-146995358D01*
X107750000Y-147034032D01*
X107724159Y-146995358D01*
X107504642Y-146775841D01*
X107246516Y-146603367D01*
X107005000Y-146503327D01*
X107005000Y-136098086D01*
X107105865Y-135997221D01*
X107191227Y-135869469D01*
X107250025Y-135727518D01*
X107280000Y-135576823D01*
X107280000Y-135423177D01*
X107250025Y-135272482D01*
X107191227Y-135130531D01*
X107105865Y-135002779D01*
X106997221Y-134894135D01*
X106869469Y-134808773D01*
X106727518Y-134749975D01*
X106576823Y-134720000D01*
X106423177Y-134720000D01*
X106272482Y-134749975D01*
X106130531Y-134808773D01*
X106002779Y-134894135D01*
X105894135Y-135002779D01*
X105808773Y-135130531D01*
X105749975Y-135272482D01*
X105720000Y-135423177D01*
X105720000Y-135576823D01*
X105749975Y-135727518D01*
X105808773Y-135869469D01*
X105894135Y-135997221D01*
X105995000Y-136098086D01*
X105995001Y-146503327D01*
X105753484Y-146603367D01*
X105495358Y-146775841D01*
X105275841Y-146995358D01*
X105250000Y-147034032D01*
X105224159Y-146995358D01*
X105004642Y-146775841D01*
X104746516Y-146603367D01*
X104505000Y-146503327D01*
X104505000Y-136098086D01*
X104605865Y-135997221D01*
X104691227Y-135869469D01*
X104750025Y-135727518D01*
X104780000Y-135576823D01*
X104780000Y-135423177D01*
X104750025Y-135272482D01*
X104691227Y-135130531D01*
X104605865Y-135002779D01*
X104497221Y-134894135D01*
X104369469Y-134808773D01*
X104227518Y-134749975D01*
X104076823Y-134720000D01*
X103923177Y-134720000D01*
X103772482Y-134749975D01*
X103630531Y-134808773D01*
X103502779Y-134894135D01*
X103394135Y-135002779D01*
X103308773Y-135130531D01*
X103249975Y-135272482D01*
X103220000Y-135423177D01*
X103220000Y-135576823D01*
X103249975Y-135727518D01*
X103308773Y-135869469D01*
X103394135Y-135997221D01*
X103495000Y-136098086D01*
X103495001Y-146503327D01*
X103253484Y-146603367D01*
X102995358Y-146775841D01*
X102775841Y-146995358D01*
X102750000Y-147034032D01*
X102724159Y-146995358D01*
X102504642Y-146775841D01*
X102246516Y-146603367D01*
X102005000Y-146503327D01*
X102005000Y-136098086D01*
X102105865Y-135997221D01*
X102191227Y-135869469D01*
X102250025Y-135727518D01*
X102280000Y-135576823D01*
X102280000Y-135423177D01*
X102250025Y-135272482D01*
X102191227Y-135130531D01*
X102105865Y-135002779D01*
X101997221Y-134894135D01*
X101869469Y-134808773D01*
X101727518Y-134749975D01*
X101576823Y-134720000D01*
X101423177Y-134720000D01*
X101272482Y-134749975D01*
X101130531Y-134808773D01*
X101002779Y-134894135D01*
X100894135Y-135002779D01*
X100808773Y-135130531D01*
X100749975Y-135272482D01*
X100720000Y-135423177D01*
X100720000Y-135576823D01*
X100749975Y-135727518D01*
X100808773Y-135869469D01*
X100894135Y-135997221D01*
X100995000Y-136098086D01*
X100995001Y-146503327D01*
X100753484Y-146603367D01*
X100495358Y-146775841D01*
X100275841Y-146995358D01*
X100250000Y-147034032D01*
X100224159Y-146995358D01*
X100004642Y-146775841D01*
X99746516Y-146603367D01*
X99505000Y-146503327D01*
X99505000Y-136098086D01*
X99605865Y-135997221D01*
X99691227Y-135869469D01*
X99750025Y-135727518D01*
X99780000Y-135576823D01*
X99780000Y-135423177D01*
X99750025Y-135272482D01*
X99691227Y-135130531D01*
X99605865Y-135002779D01*
X99497221Y-134894135D01*
X99369469Y-134808773D01*
X99227518Y-134749975D01*
X99076823Y-134720000D01*
X98923177Y-134720000D01*
X98772482Y-134749975D01*
X98630531Y-134808773D01*
X98502779Y-134894135D01*
X98394135Y-135002779D01*
X98308773Y-135130531D01*
X98249975Y-135272482D01*
X98220000Y-135423177D01*
X98220000Y-135576823D01*
X98249975Y-135727518D01*
X98308773Y-135869469D01*
X98394135Y-135997221D01*
X98495000Y-136098086D01*
X98495001Y-146503327D01*
X98253484Y-146603367D01*
X97995358Y-146775841D01*
X97775841Y-146995358D01*
X97750000Y-147034032D01*
X97724159Y-146995358D01*
X97504642Y-146775841D01*
X97246516Y-146603367D01*
X96959702Y-146484564D01*
X96655222Y-146424000D01*
X96344778Y-146424000D01*
X96040298Y-146484564D01*
X95753484Y-146603367D01*
X95495358Y-146775841D01*
X95275841Y-146995358D01*
X95250000Y-147034032D01*
X95224159Y-146995358D01*
X95004642Y-146775841D01*
X94746516Y-146603367D01*
X94505000Y-146503327D01*
X94505000Y-136098086D01*
X94605865Y-135997221D01*
X94691227Y-135869469D01*
X94750025Y-135727518D01*
X94780000Y-135576823D01*
X94780000Y-135423177D01*
X94750025Y-135272482D01*
X94691227Y-135130531D01*
X94605865Y-135002779D01*
X94497221Y-134894135D01*
X94369469Y-134808773D01*
X94227518Y-134749975D01*
X94076823Y-134720000D01*
X93923177Y-134720000D01*
X93772482Y-134749975D01*
X93630531Y-134808773D01*
X93502779Y-134894135D01*
X93394135Y-135002779D01*
X93308773Y-135130531D01*
X93249975Y-135272482D01*
X93220000Y-135423177D01*
X93220000Y-135576823D01*
X93249975Y-135727518D01*
X93308773Y-135869469D01*
X93394135Y-135997221D01*
X93495000Y-136098086D01*
X93495001Y-146503327D01*
X93253484Y-146603367D01*
X92995358Y-146775841D01*
X92775841Y-146995358D01*
X92750000Y-147034032D01*
X92724159Y-146995358D01*
X92504642Y-146775841D01*
X92246516Y-146603367D01*
X92005000Y-146503327D01*
X92005000Y-136098086D01*
X92105865Y-135997221D01*
X92191227Y-135869469D01*
X92250025Y-135727518D01*
X92280000Y-135576823D01*
X92280000Y-135423177D01*
X92250025Y-135272482D01*
X92191227Y-135130531D01*
X92105865Y-135002779D01*
X91997221Y-134894135D01*
X91869469Y-134808773D01*
X91727518Y-134749975D01*
X91576823Y-134720000D01*
X91423177Y-134720000D01*
X91272482Y-134749975D01*
X91130531Y-134808773D01*
X91002779Y-134894135D01*
X90894135Y-135002779D01*
X90808773Y-135130531D01*
X90749975Y-135272482D01*
X90720000Y-135423177D01*
X90720000Y-135576823D01*
X90749975Y-135727518D01*
X90808773Y-135869469D01*
X90894135Y-135997221D01*
X90995000Y-136098086D01*
X90995001Y-146503327D01*
X90753484Y-146603367D01*
X90495358Y-146775841D01*
X90275841Y-146995358D01*
X90250000Y-147034032D01*
X90224159Y-146995358D01*
X90004642Y-146775841D01*
X89746516Y-146603367D01*
X89505000Y-146503327D01*
X89505000Y-136098086D01*
X89605865Y-135997221D01*
X89691227Y-135869469D01*
X89750025Y-135727518D01*
X89780000Y-135576823D01*
X89780000Y-135423177D01*
X89750025Y-135272482D01*
X89691227Y-135130531D01*
X89605865Y-135002779D01*
X89497221Y-134894135D01*
X89369469Y-134808773D01*
X89227518Y-134749975D01*
X89076823Y-134720000D01*
X88923177Y-134720000D01*
X88772482Y-134749975D01*
X88630531Y-134808773D01*
X88502779Y-134894135D01*
X88394135Y-135002779D01*
X88308773Y-135130531D01*
X88249975Y-135272482D01*
X88220000Y-135423177D01*
X88220000Y-135576823D01*
X88249975Y-135727518D01*
X88308773Y-135869469D01*
X88394135Y-135997221D01*
X88495000Y-136098086D01*
X88495001Y-146503327D01*
X88253484Y-146603367D01*
X87995358Y-146775841D01*
X87775841Y-146995358D01*
X87750000Y-147034032D01*
X87724159Y-146995358D01*
X87504642Y-146775841D01*
X87246516Y-146603367D01*
X87005000Y-146503327D01*
X87005000Y-136098086D01*
X87105865Y-135997221D01*
X87191227Y-135869469D01*
X87250025Y-135727518D01*
X87280000Y-135576823D01*
X87280000Y-135423177D01*
X87250025Y-135272482D01*
X87191227Y-135130531D01*
X87105865Y-135002779D01*
X86997221Y-134894135D01*
X86869469Y-134808773D01*
X86727518Y-134749975D01*
X86576823Y-134720000D01*
X86423177Y-134720000D01*
X86272482Y-134749975D01*
X86130531Y-134808773D01*
X86002779Y-134894135D01*
X85894135Y-135002779D01*
X85808773Y-135130531D01*
X85749975Y-135272482D01*
X85720000Y-135423177D01*
X85720000Y-135576823D01*
X85749975Y-135727518D01*
X85808773Y-135869469D01*
X85894135Y-135997221D01*
X85995000Y-136098086D01*
X85995001Y-146503327D01*
X85753484Y-146603367D01*
X85495358Y-146775841D01*
X85275841Y-146995358D01*
X85250000Y-147034032D01*
X85224159Y-146995358D01*
X85004642Y-146775841D01*
X84746516Y-146603367D01*
X84505000Y-146503327D01*
X84505000Y-136098086D01*
X84605865Y-135997221D01*
X84691227Y-135869469D01*
X84750025Y-135727518D01*
X84780000Y-135576823D01*
X84780000Y-135423177D01*
X84750025Y-135272482D01*
X84691227Y-135130531D01*
X84605865Y-135002779D01*
X84497221Y-134894135D01*
X84369469Y-134808773D01*
X84227518Y-134749975D01*
X84076823Y-134720000D01*
X83923177Y-134720000D01*
X83772482Y-134749975D01*
X83630531Y-134808773D01*
X83502779Y-134894135D01*
X83394135Y-135002779D01*
X83308773Y-135130531D01*
X83249975Y-135272482D01*
X83220000Y-135423177D01*
X83220000Y-135576823D01*
X83249975Y-135727518D01*
X83308773Y-135869469D01*
X83394135Y-135997221D01*
X83495000Y-136098086D01*
X83495001Y-146503327D01*
X83253484Y-146603367D01*
X82995358Y-146775841D01*
X82775841Y-146995358D01*
X82750000Y-147034032D01*
X82724159Y-146995358D01*
X82504642Y-146775841D01*
X82246516Y-146603367D01*
X82005000Y-146503327D01*
X82005000Y-136098086D01*
X82105865Y-135997221D01*
X82191227Y-135869469D01*
X82250025Y-135727518D01*
X82280000Y-135576823D01*
X82280000Y-135423177D01*
X82250025Y-135272482D01*
X82191227Y-135130531D01*
X82105865Y-135002779D01*
X81997221Y-134894135D01*
X81869469Y-134808773D01*
X81727518Y-134749975D01*
X81576823Y-134720000D01*
X81423177Y-134720000D01*
X81272482Y-134749975D01*
X81130531Y-134808773D01*
X81002779Y-134894135D01*
X80894135Y-135002779D01*
X80808773Y-135130531D01*
X80749975Y-135272482D01*
X80720000Y-135423177D01*
X80720000Y-135576823D01*
X80749975Y-135727518D01*
X80808773Y-135869469D01*
X80894135Y-135997221D01*
X80995000Y-136098086D01*
X80995001Y-146503327D01*
X80753484Y-146603367D01*
X80508558Y-146767021D01*
X80473018Y-146700531D01*
X80394790Y-146605210D01*
X80299469Y-146526982D01*
X80190719Y-146468854D01*
X80072717Y-146433059D01*
X79950000Y-146420972D01*
X79505000Y-146420972D01*
X79505000Y-136098086D01*
X79605865Y-135997221D01*
X79691227Y-135869469D01*
X79750025Y-135727518D01*
X79780000Y-135576823D01*
X79780000Y-135423177D01*
X79750025Y-135272482D01*
X79691227Y-135130531D01*
X79605865Y-135002779D01*
X79497221Y-134894135D01*
X79369469Y-134808773D01*
X79227518Y-134749975D01*
X79076823Y-134720000D01*
X78923177Y-134720000D01*
X78772482Y-134749975D01*
X78630531Y-134808773D01*
X78502779Y-134894135D01*
X78394135Y-135002779D01*
X78308773Y-135130531D01*
X78249975Y-135272482D01*
X78220000Y-135423177D01*
X78220000Y-135576823D01*
X78249975Y-135727518D01*
X78308773Y-135869469D01*
X78394135Y-135997221D01*
X78495000Y-136098086D01*
X78495001Y-146420972D01*
X78050000Y-146420972D01*
X77927283Y-146433059D01*
X77809281Y-146468854D01*
X77700531Y-146526982D01*
X77605210Y-146605210D01*
X77526982Y-146700531D01*
X77468854Y-146809281D01*
X77433059Y-146927283D01*
X77420972Y-147050000D01*
X73930000Y-147050000D01*
X73930000Y-112923177D01*
X123220000Y-112923177D01*
X123220000Y-113076823D01*
X123249975Y-113227518D01*
X123308773Y-113369469D01*
X123394135Y-113497221D01*
X123495001Y-113598087D01*
X123495000Y-134901914D01*
X123394135Y-135002779D01*
X123308773Y-135130531D01*
X123249975Y-135272482D01*
X123220000Y-135423177D01*
X123220000Y-135576823D01*
X123249975Y-135727518D01*
X123308773Y-135869469D01*
X123394135Y-135997221D01*
X123502779Y-136105865D01*
X123630531Y-136191227D01*
X123772482Y-136250025D01*
X123923177Y-136280000D01*
X124076823Y-136280000D01*
X124227518Y-136250025D01*
X124369469Y-136191227D01*
X124497221Y-136105865D01*
X124605865Y-135997221D01*
X124691227Y-135869469D01*
X124750025Y-135727518D01*
X124780000Y-135576823D01*
X124780000Y-135423177D01*
X124750025Y-135272482D01*
X124691227Y-135130531D01*
X124605865Y-135002779D01*
X124505000Y-134901914D01*
X124505000Y-113598086D01*
X124605865Y-113497221D01*
X124691227Y-113369469D01*
X124750025Y-113227518D01*
X124780000Y-113076823D01*
X124780000Y-112923177D01*
X125720000Y-112923177D01*
X125720000Y-113076823D01*
X125749975Y-113227518D01*
X125808773Y-113369469D01*
X125894135Y-113497221D01*
X125995001Y-113598087D01*
X125995000Y-134901914D01*
X125894135Y-135002779D01*
X125808773Y-135130531D01*
X125749975Y-135272482D01*
X125720000Y-135423177D01*
X125720000Y-135576823D01*
X125749975Y-135727518D01*
X125808773Y-135869469D01*
X125894135Y-135997221D01*
X126002779Y-136105865D01*
X126130531Y-136191227D01*
X126272482Y-136250025D01*
X126423177Y-136280000D01*
X126576823Y-136280000D01*
X126727518Y-136250025D01*
X126869469Y-136191227D01*
X126997221Y-136105865D01*
X127105865Y-135997221D01*
X127191227Y-135869469D01*
X127250025Y-135727518D01*
X127280000Y-135576823D01*
X127280000Y-135423177D01*
X127250025Y-135272482D01*
X127191227Y-135130531D01*
X127105865Y-135002779D01*
X127005000Y-134901914D01*
X127005000Y-113598086D01*
X127105865Y-113497221D01*
X127191227Y-113369469D01*
X127250025Y-113227518D01*
X127280000Y-113076823D01*
X127280000Y-112923177D01*
X128220000Y-112923177D01*
X128220000Y-113076823D01*
X128249975Y-113227518D01*
X128308773Y-113369469D01*
X128394135Y-113497221D01*
X128495001Y-113598087D01*
X128495000Y-134901914D01*
X128394135Y-135002779D01*
X128308773Y-135130531D01*
X128249975Y-135272482D01*
X128220000Y-135423177D01*
X128220000Y-135576823D01*
X128249975Y-135727518D01*
X128308773Y-135869469D01*
X128394135Y-135997221D01*
X128502779Y-136105865D01*
X128630531Y-136191227D01*
X128772482Y-136250025D01*
X128923177Y-136280000D01*
X129076823Y-136280000D01*
X129227518Y-136250025D01*
X129369469Y-136191227D01*
X129497221Y-136105865D01*
X129605865Y-135997221D01*
X129691227Y-135869469D01*
X129750025Y-135727518D01*
X129780000Y-135576823D01*
X129780000Y-135423177D01*
X129750025Y-135272482D01*
X129691227Y-135130531D01*
X129605865Y-135002779D01*
X129505000Y-134901914D01*
X129505000Y-113598086D01*
X129605865Y-113497221D01*
X129691227Y-113369469D01*
X129750025Y-113227518D01*
X129780000Y-113076823D01*
X129780000Y-112923177D01*
X130720000Y-112923177D01*
X130720000Y-113076823D01*
X130749975Y-113227518D01*
X130808773Y-113369469D01*
X130894135Y-113497221D01*
X130995001Y-113598087D01*
X130995000Y-134901914D01*
X130894135Y-135002779D01*
X130808773Y-135130531D01*
X130749975Y-135272482D01*
X130720000Y-135423177D01*
X130720000Y-135576823D01*
X130749975Y-135727518D01*
X130808773Y-135869469D01*
X130894135Y-135997221D01*
X131002779Y-136105865D01*
X131130531Y-136191227D01*
X131272482Y-136250025D01*
X131423177Y-136280000D01*
X131576823Y-136280000D01*
X131727518Y-136250025D01*
X131869469Y-136191227D01*
X131997221Y-136105865D01*
X132105865Y-135997221D01*
X132191227Y-135869469D01*
X132250025Y-135727518D01*
X132280000Y-135576823D01*
X132280000Y-135423177D01*
X132250025Y-135272482D01*
X132191227Y-135130531D01*
X132105865Y-135002779D01*
X132005000Y-134901914D01*
X132005000Y-113598086D01*
X132105865Y-113497221D01*
X132191227Y-113369469D01*
X132250025Y-113227518D01*
X132280000Y-113076823D01*
X132280000Y-112923177D01*
X132250025Y-112772482D01*
X132191227Y-112630531D01*
X132105865Y-112502779D01*
X131997221Y-112394135D01*
X131869469Y-112308773D01*
X131727518Y-112249975D01*
X131576823Y-112220000D01*
X131423177Y-112220000D01*
X131272482Y-112249975D01*
X131130531Y-112308773D01*
X131002779Y-112394135D01*
X130894135Y-112502779D01*
X130808773Y-112630531D01*
X130749975Y-112772482D01*
X130720000Y-112923177D01*
X129780000Y-112923177D01*
X129750025Y-112772482D01*
X129691227Y-112630531D01*
X129605865Y-112502779D01*
X129497221Y-112394135D01*
X129369469Y-112308773D01*
X129227518Y-112249975D01*
X129076823Y-112220000D01*
X128923177Y-112220000D01*
X128772482Y-112249975D01*
X128630531Y-112308773D01*
X128502779Y-112394135D01*
X128394135Y-112502779D01*
X128308773Y-112630531D01*
X128249975Y-112772482D01*
X128220000Y-112923177D01*
X127280000Y-112923177D01*
X127250025Y-112772482D01*
X127191227Y-112630531D01*
X127105865Y-112502779D01*
X126997221Y-112394135D01*
X126869469Y-112308773D01*
X126727518Y-112249975D01*
X126576823Y-112220000D01*
X126423177Y-112220000D01*
X126272482Y-112249975D01*
X126130531Y-112308773D01*
X126002779Y-112394135D01*
X125894135Y-112502779D01*
X125808773Y-112630531D01*
X125749975Y-112772482D01*
X125720000Y-112923177D01*
X124780000Y-112923177D01*
X124750025Y-112772482D01*
X124691227Y-112630531D01*
X124605865Y-112502779D01*
X124497221Y-112394135D01*
X124369469Y-112308773D01*
X124227518Y-112249975D01*
X124076823Y-112220000D01*
X123923177Y-112220000D01*
X123772482Y-112249975D01*
X123630531Y-112308773D01*
X123502779Y-112394135D01*
X123394135Y-112502779D01*
X123308773Y-112630531D01*
X123249975Y-112772482D01*
X123220000Y-112923177D01*
X73930000Y-112923177D01*
X73930000Y-92125000D01*
X77244762Y-92125000D01*
X77244762Y-93875000D01*
X77261676Y-94046726D01*
X77311766Y-94211852D01*
X77393109Y-94364034D01*
X77502578Y-94497422D01*
X77635966Y-94606891D01*
X77788148Y-94688234D01*
X77953274Y-94738324D01*
X78125000Y-94755238D01*
X79875000Y-94755238D01*
X80046726Y-94738324D01*
X80211852Y-94688234D01*
X80364034Y-94606891D01*
X80497422Y-94497422D01*
X80529973Y-94457758D01*
X80670591Y-94551716D01*
X80989252Y-94683710D01*
X81327542Y-94751000D01*
X81672458Y-94751000D01*
X82010748Y-94683710D01*
X82329409Y-94551716D01*
X82616197Y-94360090D01*
X82750000Y-94226287D01*
X82883803Y-94360090D01*
X83170591Y-94551716D01*
X83489252Y-94683710D01*
X83827542Y-94751000D01*
X84172458Y-94751000D01*
X84510748Y-94683710D01*
X84829409Y-94551716D01*
X85116197Y-94360090D01*
X85250000Y-94226287D01*
X85383803Y-94360090D01*
X85670591Y-94551716D01*
X85989252Y-94683710D01*
X86327542Y-94751000D01*
X86672458Y-94751000D01*
X87010748Y-94683710D01*
X87329409Y-94551716D01*
X87616197Y-94360090D01*
X87750000Y-94226287D01*
X87883803Y-94360090D01*
X88170591Y-94551716D01*
X88489252Y-94683710D01*
X88827542Y-94751000D01*
X89172458Y-94751000D01*
X89510748Y-94683710D01*
X89829409Y-94551716D01*
X90116197Y-94360090D01*
X90250000Y-94226287D01*
X90383803Y-94360090D01*
X90670591Y-94551716D01*
X90989252Y-94683710D01*
X91327542Y-94751000D01*
X91672458Y-94751000D01*
X92010748Y-94683710D01*
X92329409Y-94551716D01*
X92616197Y-94360090D01*
X92750000Y-94226287D01*
X92883803Y-94360090D01*
X93170591Y-94551716D01*
X93489252Y-94683710D01*
X93827542Y-94751000D01*
X94172458Y-94751000D01*
X94510748Y-94683710D01*
X94829409Y-94551716D01*
X95116197Y-94360090D01*
X95360090Y-94116197D01*
X95551716Y-93829409D01*
X95683710Y-93510748D01*
X95751000Y-93172458D01*
X95751000Y-92827542D01*
X95683710Y-92489252D01*
X95656341Y-92423177D01*
X105870000Y-92423177D01*
X105870000Y-92576823D01*
X105899975Y-92727518D01*
X105958773Y-92869469D01*
X106020000Y-92961101D01*
X106020001Y-100869044D01*
X106016952Y-100900000D01*
X106029116Y-101023501D01*
X106065140Y-101142256D01*
X106065141Y-101142257D01*
X106123641Y-101251703D01*
X106202368Y-101347633D01*
X106226408Y-101367362D01*
X112782638Y-107923593D01*
X112802367Y-107947633D01*
X112898297Y-108026360D01*
X113007743Y-108084860D01*
X113126498Y-108120884D01*
X113138171Y-108122034D01*
X113250000Y-108133049D01*
X113280954Y-108130000D01*
X119620001Y-108130000D01*
X119620000Y-111538899D01*
X119558773Y-111630531D01*
X119499975Y-111772482D01*
X119470000Y-111923177D01*
X119470000Y-112076823D01*
X119499975Y-112227518D01*
X119558773Y-112369469D01*
X119644135Y-112497221D01*
X119752779Y-112605865D01*
X119880531Y-112691227D01*
X120022482Y-112750025D01*
X120173177Y-112780000D01*
X120326823Y-112780000D01*
X120477518Y-112750025D01*
X120619469Y-112691227D01*
X120747221Y-112605865D01*
X120855865Y-112497221D01*
X120941227Y-112369469D01*
X121000025Y-112227518D01*
X121030000Y-112076823D01*
X121030000Y-111923177D01*
X121000025Y-111772482D01*
X120941227Y-111630531D01*
X120880000Y-111538899D01*
X120880000Y-108130000D01*
X155870001Y-108130000D01*
X155870000Y-111538899D01*
X155808773Y-111630531D01*
X155749975Y-111772482D01*
X155720000Y-111923177D01*
X155720000Y-112076823D01*
X155749975Y-112227518D01*
X155808773Y-112369469D01*
X155894135Y-112497221D01*
X156002779Y-112605865D01*
X156130531Y-112691227D01*
X156272482Y-112750025D01*
X156423177Y-112780000D01*
X156576823Y-112780000D01*
X156727518Y-112750025D01*
X156869469Y-112691227D01*
X156997221Y-112605865D01*
X157105865Y-112497221D01*
X157191227Y-112369469D01*
X157250025Y-112227518D01*
X157280000Y-112076823D01*
X157280000Y-111923177D01*
X157250025Y-111772482D01*
X157191227Y-111630531D01*
X157130000Y-111538899D01*
X157130000Y-108130000D01*
X158892746Y-108130000D01*
X158970439Y-108317567D01*
X159159329Y-108600261D01*
X159329068Y-108770000D01*
X159159329Y-108939739D01*
X158970439Y-109222433D01*
X158840330Y-109536544D01*
X158774000Y-109870004D01*
X158774000Y-110209996D01*
X158840330Y-110543456D01*
X158970439Y-110857567D01*
X159159329Y-111140261D01*
X159399739Y-111380671D01*
X159682433Y-111569561D01*
X159996544Y-111699670D01*
X160330004Y-111766000D01*
X160669996Y-111766000D01*
X161003456Y-111699670D01*
X161317567Y-111569561D01*
X161600261Y-111380671D01*
X161840671Y-111140261D01*
X162029561Y-110857567D01*
X162159670Y-110543456D01*
X162226000Y-110209996D01*
X162226000Y-109870004D01*
X162159670Y-109536544D01*
X162029561Y-109222433D01*
X161840671Y-108939739D01*
X161670932Y-108770000D01*
X161840671Y-108600261D01*
X162029561Y-108317567D01*
X162159670Y-108003456D01*
X162226000Y-107669996D01*
X162226000Y-107330004D01*
X162159670Y-106996544D01*
X162029561Y-106682433D01*
X161901435Y-106490679D01*
X161972422Y-106432422D01*
X162081891Y-106299034D01*
X162163234Y-106146852D01*
X162213324Y-105981726D01*
X162230238Y-105810000D01*
X162230238Y-104110000D01*
X162213324Y-103938274D01*
X162163234Y-103773148D01*
X162081891Y-103620966D01*
X161972422Y-103487578D01*
X161839034Y-103378109D01*
X161686852Y-103296766D01*
X161521726Y-103246676D01*
X161350000Y-103229762D01*
X159650000Y-103229762D01*
X159478274Y-103246676D01*
X159313148Y-103296766D01*
X159160966Y-103378109D01*
X159027578Y-103487578D01*
X158918109Y-103620966D01*
X158836766Y-103773148D01*
X158786676Y-103938274D01*
X158769762Y-104110000D01*
X158769762Y-105810000D01*
X158786676Y-105981726D01*
X158836766Y-106146852D01*
X158918109Y-106299034D01*
X159027578Y-106432422D01*
X159098565Y-106490679D01*
X158970439Y-106682433D01*
X158892746Y-106870000D01*
X156530947Y-106870000D01*
X156500000Y-106866952D01*
X156469054Y-106870000D01*
X113510955Y-106870000D01*
X110064132Y-103423177D01*
X150220000Y-103423177D01*
X150220000Y-103576823D01*
X150249975Y-103727518D01*
X150308773Y-103869469D01*
X150394135Y-103997221D01*
X150502779Y-104105865D01*
X150630531Y-104191227D01*
X150772482Y-104250025D01*
X150923177Y-104280000D01*
X151076823Y-104280000D01*
X151227518Y-104250025D01*
X151369469Y-104191227D01*
X151497221Y-104105865D01*
X151598086Y-104005000D01*
X154975205Y-104005000D01*
X155000000Y-104007442D01*
X155024795Y-104005000D01*
X155024805Y-104005000D01*
X155098997Y-103997693D01*
X155194190Y-103968816D01*
X155281920Y-103921923D01*
X155358816Y-103858816D01*
X155374628Y-103839549D01*
X156709178Y-102505000D01*
X195790823Y-102505000D01*
X206495001Y-113209179D01*
X206495000Y-117290822D01*
X201660447Y-122125376D01*
X201641185Y-122141184D01*
X201625377Y-122160446D01*
X201625372Y-122160451D01*
X201578077Y-122218080D01*
X201531184Y-122305811D01*
X201502308Y-122401003D01*
X201492558Y-122500000D01*
X201495001Y-122524805D01*
X201495000Y-129475205D01*
X201492558Y-129500000D01*
X201495000Y-129524795D01*
X201495000Y-129524804D01*
X201502307Y-129598996D01*
X201531184Y-129694189D01*
X201578077Y-129781920D01*
X201641184Y-129858816D01*
X201660451Y-129874628D01*
X205125376Y-133339554D01*
X205141184Y-133358816D01*
X205160446Y-133374624D01*
X205160450Y-133374628D01*
X205218079Y-133421923D01*
X205264972Y-133446987D01*
X205305810Y-133468816D01*
X205401003Y-133497693D01*
X205475195Y-133505000D01*
X205475207Y-133505000D01*
X205499999Y-133507442D01*
X205524791Y-133505000D01*
X209401914Y-133505000D01*
X209502779Y-133605865D01*
X209630531Y-133691227D01*
X209772482Y-133750025D01*
X209923177Y-133780000D01*
X210076823Y-133780000D01*
X210227518Y-133750025D01*
X210369469Y-133691227D01*
X210497221Y-133605865D01*
X210605865Y-133497221D01*
X210691227Y-133369469D01*
X210750025Y-133227518D01*
X210780000Y-133076823D01*
X210780000Y-132923177D01*
X210750025Y-132772482D01*
X210691227Y-132630531D01*
X210605865Y-132502779D01*
X210497221Y-132394135D01*
X210369469Y-132308773D01*
X210227518Y-132249975D01*
X210076823Y-132220000D01*
X209923177Y-132220000D01*
X209772482Y-132249975D01*
X209630531Y-132308773D01*
X209502779Y-132394135D01*
X209401914Y-132495000D01*
X205709178Y-132495000D01*
X202505000Y-129290823D01*
X202505000Y-122709177D01*
X207339554Y-117874624D01*
X207358816Y-117858816D01*
X207374624Y-117839554D01*
X207374628Y-117839550D01*
X207421923Y-117781921D01*
X207468816Y-117694190D01*
X207468816Y-117694189D01*
X207497693Y-117598997D01*
X207505000Y-117524805D01*
X207505000Y-117524795D01*
X207507442Y-117500000D01*
X207505000Y-117475205D01*
X207505000Y-113024794D01*
X207507442Y-112999999D01*
X207505000Y-112975204D01*
X207505000Y-112975195D01*
X207497693Y-112901003D01*
X207468816Y-112805810D01*
X207438998Y-112750025D01*
X207421923Y-112718079D01*
X207374628Y-112660450D01*
X207374624Y-112660446D01*
X207358816Y-112641184D01*
X207339554Y-112625376D01*
X196374628Y-101660451D01*
X196358816Y-101641184D01*
X196281920Y-101578077D01*
X196194190Y-101531184D01*
X196098997Y-101502307D01*
X196024805Y-101495000D01*
X196024795Y-101495000D01*
X196000000Y-101492558D01*
X195975205Y-101495000D01*
X156524791Y-101495000D01*
X156499999Y-101492558D01*
X156475207Y-101495000D01*
X156475195Y-101495000D01*
X156401003Y-101502307D01*
X156305810Y-101531184D01*
X156264972Y-101553013D01*
X156218079Y-101578077D01*
X156160450Y-101625372D01*
X156160446Y-101625376D01*
X156141184Y-101641184D01*
X156125376Y-101660446D01*
X154790823Y-102995000D01*
X151598086Y-102995000D01*
X151497221Y-102894135D01*
X151369469Y-102808773D01*
X151227518Y-102749975D01*
X151076823Y-102720000D01*
X150923177Y-102720000D01*
X150772482Y-102749975D01*
X150630531Y-102808773D01*
X150502779Y-102894135D01*
X150394135Y-103002779D01*
X150308773Y-103130531D01*
X150249975Y-103272482D01*
X150220000Y-103423177D01*
X110064132Y-103423177D01*
X107280000Y-100639046D01*
X107280000Y-92961101D01*
X107341227Y-92869469D01*
X107400025Y-92727518D01*
X107430000Y-92576823D01*
X107430000Y-92423177D01*
X107400025Y-92272482D01*
X107341227Y-92130531D01*
X107255865Y-92002779D01*
X107147221Y-91894135D01*
X107019469Y-91808773D01*
X106877518Y-91749975D01*
X106726823Y-91720000D01*
X106573177Y-91720000D01*
X106422482Y-91749975D01*
X106280531Y-91808773D01*
X106152779Y-91894135D01*
X106044135Y-92002779D01*
X105958773Y-92130531D01*
X105899975Y-92272482D01*
X105870000Y-92423177D01*
X95656341Y-92423177D01*
X95551716Y-92170591D01*
X95360090Y-91883803D01*
X95116197Y-91639910D01*
X94829409Y-91448284D01*
X94510748Y-91316290D01*
X94172458Y-91249000D01*
X93827542Y-91249000D01*
X93489252Y-91316290D01*
X93170591Y-91448284D01*
X92883803Y-91639910D01*
X92750000Y-91773713D01*
X92616197Y-91639910D01*
X92329409Y-91448284D01*
X92010748Y-91316290D01*
X91672458Y-91249000D01*
X91327542Y-91249000D01*
X90989252Y-91316290D01*
X90670591Y-91448284D01*
X90383803Y-91639910D01*
X90250000Y-91773713D01*
X90116197Y-91639910D01*
X89829409Y-91448284D01*
X89510748Y-91316290D01*
X89172458Y-91249000D01*
X88827542Y-91249000D01*
X88489252Y-91316290D01*
X88170591Y-91448284D01*
X87883803Y-91639910D01*
X87750000Y-91773713D01*
X87616197Y-91639910D01*
X87329409Y-91448284D01*
X87010748Y-91316290D01*
X86672458Y-91249000D01*
X86327542Y-91249000D01*
X85989252Y-91316290D01*
X85670591Y-91448284D01*
X85383803Y-91639910D01*
X85250000Y-91773713D01*
X85116197Y-91639910D01*
X84829409Y-91448284D01*
X84510748Y-91316290D01*
X84172458Y-91249000D01*
X83827542Y-91249000D01*
X83489252Y-91316290D01*
X83170591Y-91448284D01*
X82883803Y-91639910D01*
X82750000Y-91773713D01*
X82616197Y-91639910D01*
X82329409Y-91448284D01*
X82010748Y-91316290D01*
X81672458Y-91249000D01*
X81327542Y-91249000D01*
X80989252Y-91316290D01*
X80670591Y-91448284D01*
X80529973Y-91542242D01*
X80497422Y-91502578D01*
X80364034Y-91393109D01*
X80211852Y-91311766D01*
X80046726Y-91261676D01*
X79875000Y-91244762D01*
X78125000Y-91244762D01*
X77953274Y-91261676D01*
X77788148Y-91311766D01*
X77635966Y-91393109D01*
X77502578Y-91502578D01*
X77393109Y-91635966D01*
X77311766Y-91788148D01*
X77261676Y-91953274D01*
X77244762Y-92125000D01*
X73930000Y-92125000D01*
X73930000Y-80517708D01*
X114059757Y-80517708D01*
X114103745Y-80662736D01*
X114228653Y-80925472D01*
X114402418Y-81158791D01*
X114618362Y-81353727D01*
X114868187Y-81502789D01*
X115142292Y-81600248D01*
X115372000Y-81479974D01*
X115372000Y-80288000D01*
X114180695Y-80288000D01*
X114059757Y-80517708D01*
X73930000Y-80517708D01*
X73930000Y-72897708D01*
X114059757Y-72897708D01*
X114103745Y-73042736D01*
X114228653Y-73305472D01*
X114402418Y-73538791D01*
X114618362Y-73733727D01*
X114746194Y-73810000D01*
X114618362Y-73886273D01*
X114402418Y-74081209D01*
X114228653Y-74314528D01*
X114103745Y-74577264D01*
X114059757Y-74722292D01*
X114180695Y-74952000D01*
X115372000Y-74952000D01*
X115372000Y-72668000D01*
X114180695Y-72668000D01*
X114059757Y-72897708D01*
X73930000Y-72897708D01*
X73930000Y-69150000D01*
X113769762Y-69150000D01*
X113769762Y-70850000D01*
X113786676Y-71021726D01*
X113836766Y-71186852D01*
X113918109Y-71339034D01*
X114027578Y-71472422D01*
X114160966Y-71581891D01*
X114311998Y-71662619D01*
X114228653Y-71774528D01*
X114103745Y-72037264D01*
X114059757Y-72182292D01*
X114180695Y-72412000D01*
X115372000Y-72412000D01*
X115372000Y-72392000D01*
X115628000Y-72392000D01*
X115628000Y-72412000D01*
X115648000Y-72412000D01*
X115648000Y-72668000D01*
X115628000Y-72668000D01*
X115628000Y-74952000D01*
X115648000Y-74952000D01*
X115648000Y-75208000D01*
X115628000Y-75208000D01*
X115628000Y-75228000D01*
X115372000Y-75228000D01*
X115372000Y-75208000D01*
X114180695Y-75208000D01*
X114059757Y-75437708D01*
X114103745Y-75582736D01*
X114228653Y-75845472D01*
X114402418Y-76078791D01*
X114528937Y-76193002D01*
X114399739Y-76279329D01*
X114159329Y-76519739D01*
X113970439Y-76802433D01*
X113840330Y-77116544D01*
X113774000Y-77450004D01*
X113774000Y-77789996D01*
X113840330Y-78123456D01*
X113970439Y-78437567D01*
X114159329Y-78720261D01*
X114399739Y-78960671D01*
X114528937Y-79046998D01*
X114402418Y-79161209D01*
X114228653Y-79394528D01*
X114103745Y-79657264D01*
X114059757Y-79802292D01*
X114180695Y-80032000D01*
X115372000Y-80032000D01*
X115372000Y-80012000D01*
X115628000Y-80012000D01*
X115628000Y-80032000D01*
X115648000Y-80032000D01*
X115648000Y-80288000D01*
X115628000Y-80288000D01*
X115628000Y-81479974D01*
X115857708Y-81600248D01*
X116131813Y-81502789D01*
X116381638Y-81353727D01*
X116597582Y-81158791D01*
X116615475Y-81134765D01*
X116699329Y-81260261D01*
X116939739Y-81500671D01*
X117222433Y-81689561D01*
X117536544Y-81819670D01*
X117870004Y-81886000D01*
X118209996Y-81886000D01*
X118543456Y-81819670D01*
X118857567Y-81689561D01*
X119140261Y-81500671D01*
X119380671Y-81260261D01*
X119569561Y-80977567D01*
X119626332Y-80840509D01*
X120745000Y-81959178D01*
X120745001Y-88725195D01*
X120742558Y-88750000D01*
X120752308Y-88848997D01*
X120781184Y-88944189D01*
X120828077Y-89031920D01*
X120875372Y-89089549D01*
X120875377Y-89089554D01*
X120891185Y-89108816D01*
X120910447Y-89124624D01*
X130125376Y-98339554D01*
X130141184Y-98358816D01*
X130160446Y-98374624D01*
X130160450Y-98374628D01*
X130218079Y-98421923D01*
X130264972Y-98446987D01*
X130305810Y-98468816D01*
X130401003Y-98497693D01*
X130475195Y-98505000D01*
X130475207Y-98505000D01*
X130499999Y-98507442D01*
X130524791Y-98505000D01*
X136975205Y-98505000D01*
X137000000Y-98507442D01*
X137024795Y-98505000D01*
X137024805Y-98505000D01*
X137098997Y-98497693D01*
X137194190Y-98468816D01*
X137281920Y-98421923D01*
X137358816Y-98358816D01*
X137374628Y-98339549D01*
X139839554Y-95874624D01*
X139858816Y-95858816D01*
X139874624Y-95839554D01*
X139874628Y-95839550D01*
X139921923Y-95781921D01*
X139968816Y-95694190D01*
X139975571Y-95671923D01*
X139997693Y-95598997D01*
X140005000Y-95524805D01*
X140005000Y-95524795D01*
X140007442Y-95500000D01*
X167368552Y-95500000D01*
X167368552Y-98500000D01*
X167390292Y-98720735D01*
X167454678Y-98932986D01*
X167559235Y-99128599D01*
X167699945Y-99300055D01*
X167871401Y-99440765D01*
X168067014Y-99545322D01*
X168279265Y-99609708D01*
X168500000Y-99631448D01*
X171500000Y-99631448D01*
X171720735Y-99609708D01*
X171932986Y-99545322D01*
X172128599Y-99440765D01*
X172300055Y-99300055D01*
X172440765Y-99128599D01*
X172545322Y-98932986D01*
X172609708Y-98720735D01*
X172631448Y-98500000D01*
X172631448Y-98491780D01*
X189179239Y-98491780D01*
X189335399Y-98806939D01*
X189710100Y-98997470D01*
X190114772Y-99111240D01*
X190533865Y-99143876D01*
X190951271Y-99094124D01*
X191350951Y-98963896D01*
X191644601Y-98806939D01*
X191800761Y-98491780D01*
X190490000Y-97181019D01*
X189179239Y-98491780D01*
X172631448Y-98491780D01*
X172631448Y-97043865D01*
X188346124Y-97043865D01*
X188395876Y-97461271D01*
X188526104Y-97860951D01*
X188683061Y-98154601D01*
X188998220Y-98310761D01*
X190308981Y-97000000D01*
X190671019Y-97000000D01*
X191981780Y-98310761D01*
X192296939Y-98154601D01*
X192487470Y-97779900D01*
X192601240Y-97375228D01*
X192633876Y-96956135D01*
X192584124Y-96538729D01*
X192453896Y-96139049D01*
X192296939Y-95845399D01*
X191981780Y-95689239D01*
X190671019Y-97000000D01*
X190308981Y-97000000D01*
X188998220Y-95689239D01*
X188683061Y-95845399D01*
X188492530Y-96220100D01*
X188378760Y-96624772D01*
X188346124Y-97043865D01*
X172631448Y-97043865D01*
X172631448Y-95508220D01*
X189179239Y-95508220D01*
X190490000Y-96818981D01*
X191800761Y-95508220D01*
X191644601Y-95193061D01*
X191269900Y-95002530D01*
X190865228Y-94888760D01*
X190446135Y-94856124D01*
X190028729Y-94905876D01*
X189629049Y-95036104D01*
X189335399Y-95193061D01*
X189179239Y-95508220D01*
X172631448Y-95508220D01*
X172631448Y-95500000D01*
X172609708Y-95279265D01*
X172545322Y-95067014D01*
X172440765Y-94871401D01*
X172300055Y-94699945D01*
X172128599Y-94559235D01*
X171932986Y-94454678D01*
X171720735Y-94390292D01*
X171500000Y-94368552D01*
X168500000Y-94368552D01*
X168279265Y-94390292D01*
X168067014Y-94454678D01*
X167871401Y-94559235D01*
X167699945Y-94699945D01*
X167559235Y-94871401D01*
X167454678Y-95067014D01*
X167390292Y-95279265D01*
X167368552Y-95500000D01*
X140007442Y-95500000D01*
X140005000Y-95475205D01*
X140005000Y-94173177D01*
X140970000Y-94173177D01*
X140970000Y-94326823D01*
X140999975Y-94477518D01*
X141058773Y-94619469D01*
X141144135Y-94747221D01*
X141252779Y-94855865D01*
X141380531Y-94941227D01*
X141522482Y-95000025D01*
X141673177Y-95030000D01*
X141826823Y-95030000D01*
X141977518Y-95000025D01*
X142119469Y-94941227D01*
X142247221Y-94855865D01*
X142355865Y-94747221D01*
X142441227Y-94619469D01*
X142500025Y-94477518D01*
X142530000Y-94326823D01*
X142530000Y-94173177D01*
X142500025Y-94022482D01*
X142441227Y-93880531D01*
X142355865Y-93752779D01*
X142247221Y-93644135D01*
X142119469Y-93558773D01*
X141977518Y-93499975D01*
X141826823Y-93470000D01*
X141673177Y-93470000D01*
X141522482Y-93499975D01*
X141380531Y-93558773D01*
X141252779Y-93644135D01*
X141144135Y-93752779D01*
X141058773Y-93880531D01*
X140999975Y-94022482D01*
X140970000Y-94173177D01*
X140005000Y-94173177D01*
X140005000Y-91709177D01*
X141959178Y-89755000D01*
X142401914Y-89755000D01*
X142502779Y-89855865D01*
X142630531Y-89941227D01*
X142772482Y-90000025D01*
X142923177Y-90030000D01*
X143076823Y-90030000D01*
X143227518Y-90000025D01*
X143369469Y-89941227D01*
X143497221Y-89855865D01*
X143605865Y-89747221D01*
X143691227Y-89619469D01*
X143750025Y-89477518D01*
X143780000Y-89326823D01*
X143780000Y-89173177D01*
X143750025Y-89022482D01*
X143691227Y-88880531D01*
X143605865Y-88752779D01*
X143497221Y-88644135D01*
X143369469Y-88558773D01*
X143227518Y-88499975D01*
X143076823Y-88470000D01*
X142923177Y-88470000D01*
X142772482Y-88499975D01*
X142630531Y-88558773D01*
X142502779Y-88644135D01*
X142401914Y-88745000D01*
X141774795Y-88745000D01*
X141750000Y-88742558D01*
X141725205Y-88745000D01*
X141725195Y-88745000D01*
X141651003Y-88752307D01*
X141555810Y-88781184D01*
X141468079Y-88828077D01*
X141410451Y-88875371D01*
X141410446Y-88875376D01*
X141391184Y-88891184D01*
X141375376Y-88910446D01*
X139160447Y-91125376D01*
X139141185Y-91141184D01*
X139125377Y-91160446D01*
X139125372Y-91160451D01*
X139078077Y-91218080D01*
X139031184Y-91305811D01*
X139002308Y-91401003D01*
X138992558Y-91500000D01*
X138995001Y-91524805D01*
X138995000Y-95290822D01*
X136790823Y-97495000D01*
X130709178Y-97495000D01*
X128387355Y-95173177D01*
X135970000Y-95173177D01*
X135970000Y-95326823D01*
X135999975Y-95477518D01*
X136058773Y-95619469D01*
X136144135Y-95747221D01*
X136252779Y-95855865D01*
X136380531Y-95941227D01*
X136522482Y-96000025D01*
X136673177Y-96030000D01*
X136826823Y-96030000D01*
X136977518Y-96000025D01*
X137119469Y-95941227D01*
X137247221Y-95855865D01*
X137355865Y-95747221D01*
X137441227Y-95619469D01*
X137500025Y-95477518D01*
X137530000Y-95326823D01*
X137530000Y-95173177D01*
X137500025Y-95022482D01*
X137441227Y-94880531D01*
X137355865Y-94752779D01*
X137255000Y-94651914D01*
X137255000Y-78423177D01*
X160220000Y-78423177D01*
X160220000Y-78576823D01*
X160249975Y-78727518D01*
X160308773Y-78869469D01*
X160394135Y-78997221D01*
X160502779Y-79105865D01*
X160630531Y-79191227D01*
X160772482Y-79250025D01*
X160923177Y-79280000D01*
X161076823Y-79280000D01*
X161227518Y-79250025D01*
X161369469Y-79191227D01*
X161461101Y-79130000D01*
X214969054Y-79130000D01*
X215000000Y-79133048D01*
X215030946Y-79130000D01*
X215030947Y-79130000D01*
X215123502Y-79120884D01*
X215242257Y-79084860D01*
X215351703Y-79026360D01*
X215447633Y-78947633D01*
X215467366Y-78923588D01*
X220619430Y-73771525D01*
X220727518Y-73750025D01*
X220869469Y-73691227D01*
X220997221Y-73605865D01*
X221105865Y-73497221D01*
X221191227Y-73369469D01*
X221250025Y-73227518D01*
X221280000Y-73076823D01*
X221280000Y-72923177D01*
X221250025Y-72772482D01*
X221191227Y-72630531D01*
X221105865Y-72502779D01*
X220997221Y-72394135D01*
X220869469Y-72308773D01*
X220727518Y-72249975D01*
X220576823Y-72220000D01*
X220423177Y-72220000D01*
X220272482Y-72249975D01*
X220130531Y-72308773D01*
X220002779Y-72394135D01*
X219894135Y-72502779D01*
X219808773Y-72630531D01*
X219749975Y-72772482D01*
X219728475Y-72880570D01*
X214739046Y-77870000D01*
X161461101Y-77870000D01*
X161369469Y-77808773D01*
X161227518Y-77749975D01*
X161076823Y-77720000D01*
X160923177Y-77720000D01*
X160772482Y-77749975D01*
X160630531Y-77808773D01*
X160502779Y-77894135D01*
X160394135Y-78002779D01*
X160308773Y-78130531D01*
X160249975Y-78272482D01*
X160220000Y-78423177D01*
X137255000Y-78423177D01*
X137255000Y-68459177D01*
X139167833Y-66546344D01*
X157094675Y-66546344D01*
X157175476Y-66797571D01*
X157443694Y-66925692D01*
X157731753Y-66999024D01*
X158028584Y-67014750D01*
X158322779Y-66972265D01*
X158603033Y-66873201D01*
X158744524Y-66797571D01*
X158825325Y-66546344D01*
X157960000Y-65681019D01*
X157094675Y-66546344D01*
X139167833Y-66546344D01*
X140145593Y-65568584D01*
X156445250Y-65568584D01*
X156487735Y-65862779D01*
X156586799Y-66143033D01*
X156662429Y-66284524D01*
X156913656Y-66365325D01*
X157778981Y-65500000D01*
X158141019Y-65500000D01*
X158932626Y-66291607D01*
X158948284Y-66329409D01*
X159139910Y-66616197D01*
X159383803Y-66860090D01*
X159670591Y-67051716D01*
X159989252Y-67183710D01*
X160327542Y-67251000D01*
X160672458Y-67251000D01*
X161010748Y-67183710D01*
X161329409Y-67051716D01*
X161616197Y-66860090D01*
X161770000Y-66706287D01*
X161923803Y-66860090D01*
X162210591Y-67051716D01*
X162529252Y-67183710D01*
X162867542Y-67251000D01*
X163212458Y-67251000D01*
X163550748Y-67183710D01*
X163869409Y-67051716D01*
X164156197Y-66860090D01*
X164400090Y-66616197D01*
X164591716Y-66329409D01*
X164723710Y-66010748D01*
X164791000Y-65672458D01*
X164791000Y-65327542D01*
X164723710Y-64989252D01*
X164591716Y-64670591D01*
X164400090Y-64383803D01*
X164156197Y-64139910D01*
X163869409Y-63948284D01*
X163550748Y-63816290D01*
X163212458Y-63749000D01*
X162867542Y-63749000D01*
X162529252Y-63816290D01*
X162210591Y-63948284D01*
X161923803Y-64139910D01*
X161770000Y-64293713D01*
X161616197Y-64139910D01*
X161329409Y-63948284D01*
X161010748Y-63816290D01*
X160672458Y-63749000D01*
X160327542Y-63749000D01*
X159989252Y-63816290D01*
X159670591Y-63948284D01*
X159383803Y-64139910D01*
X159139910Y-64383803D01*
X158948284Y-64670591D01*
X158932626Y-64708393D01*
X158141019Y-65500000D01*
X157778981Y-65500000D01*
X156913656Y-64634675D01*
X156662429Y-64715476D01*
X156534308Y-64983694D01*
X156460976Y-65271753D01*
X156445250Y-65568584D01*
X140145593Y-65568584D01*
X141260521Y-64453656D01*
X157094675Y-64453656D01*
X157960000Y-65318981D01*
X158825325Y-64453656D01*
X158744524Y-64202429D01*
X158476306Y-64074308D01*
X158188247Y-64000976D01*
X157891416Y-63985250D01*
X157597221Y-64027735D01*
X157316967Y-64126799D01*
X157175476Y-64202429D01*
X157094675Y-64453656D01*
X141260521Y-64453656D01*
X142064177Y-63650000D01*
X196229762Y-63650000D01*
X196229762Y-65350000D01*
X196246676Y-65521726D01*
X196296766Y-65686852D01*
X196378109Y-65839034D01*
X196487578Y-65972422D01*
X196620966Y-66081891D01*
X196773148Y-66163234D01*
X196938274Y-66213324D01*
X197110000Y-66230238D01*
X198810000Y-66230238D01*
X198981726Y-66213324D01*
X199146852Y-66163234D01*
X199299034Y-66081891D01*
X199432422Y-65972422D01*
X199490679Y-65901435D01*
X199682433Y-66029561D01*
X199996544Y-66159670D01*
X200330004Y-66226000D01*
X200669996Y-66226000D01*
X201003456Y-66159670D01*
X201317567Y-66029561D01*
X201600261Y-65840671D01*
X201770000Y-65670932D01*
X201939739Y-65840671D01*
X202222433Y-66029561D01*
X202536544Y-66159670D01*
X202870004Y-66226000D01*
X203209996Y-66226000D01*
X203543456Y-66159670D01*
X203857567Y-66029561D01*
X204140261Y-65840671D01*
X204380671Y-65600261D01*
X204569561Y-65317567D01*
X204699670Y-65003456D01*
X204766000Y-64669996D01*
X204766000Y-64330004D01*
X204699670Y-63996544D01*
X204569561Y-63682433D01*
X204380671Y-63399739D01*
X204140261Y-63159329D01*
X203857567Y-62970439D01*
X203543456Y-62840330D01*
X203209996Y-62774000D01*
X202870004Y-62774000D01*
X202536544Y-62840330D01*
X202222433Y-62970439D01*
X201939739Y-63159329D01*
X201770000Y-63329068D01*
X201600261Y-63159329D01*
X201317567Y-62970439D01*
X201003456Y-62840330D01*
X200669996Y-62774000D01*
X200330004Y-62774000D01*
X199996544Y-62840330D01*
X199682433Y-62970439D01*
X199490679Y-63098565D01*
X199432422Y-63027578D01*
X199299034Y-62918109D01*
X199146852Y-62836766D01*
X198981726Y-62786676D01*
X198810000Y-62769762D01*
X197110000Y-62769762D01*
X196938274Y-62786676D01*
X196773148Y-62836766D01*
X196620966Y-62918109D01*
X196487578Y-63027578D01*
X196378109Y-63160966D01*
X196296766Y-63313148D01*
X196246676Y-63478274D01*
X196229762Y-63650000D01*
X142064177Y-63650000D01*
X142934177Y-62780000D01*
X143076823Y-62780000D01*
X143227518Y-62750025D01*
X143369469Y-62691227D01*
X143497221Y-62605865D01*
X143605865Y-62497221D01*
X143691227Y-62369469D01*
X143750025Y-62227518D01*
X143780000Y-62076823D01*
X143780000Y-61923177D01*
X143750025Y-61772482D01*
X143691227Y-61630531D01*
X143605865Y-61502779D01*
X143497221Y-61394135D01*
X143369469Y-61308773D01*
X143227518Y-61249975D01*
X143076823Y-61220000D01*
X142923177Y-61220000D01*
X142772482Y-61249975D01*
X142630531Y-61308773D01*
X142502779Y-61394135D01*
X142394135Y-61502779D01*
X142308773Y-61630531D01*
X142249975Y-61772482D01*
X142220000Y-61923177D01*
X142220000Y-62065823D01*
X136410447Y-67875376D01*
X136391185Y-67891184D01*
X136375377Y-67910446D01*
X136375372Y-67910451D01*
X136328077Y-67968080D01*
X136281184Y-68055811D01*
X136252308Y-68151003D01*
X136242558Y-68250000D01*
X136245001Y-68274805D01*
X136245000Y-94651914D01*
X136144135Y-94752779D01*
X136058773Y-94880531D01*
X135999975Y-95022482D01*
X135970000Y-95173177D01*
X128387355Y-95173177D01*
X121755000Y-88540823D01*
X121755000Y-81774795D01*
X121757442Y-81750000D01*
X121755000Y-81725205D01*
X121755000Y-81725195D01*
X121747693Y-81651003D01*
X121718816Y-81555810D01*
X121671923Y-81468079D01*
X121624629Y-81410451D01*
X121624624Y-81410446D01*
X121608816Y-81391184D01*
X121589554Y-81375376D01*
X120034628Y-79820451D01*
X120018816Y-79801184D01*
X119941920Y-79738077D01*
X119854190Y-79691184D01*
X119758997Y-79662307D01*
X119699635Y-79656461D01*
X119569561Y-79342433D01*
X119380671Y-79059739D01*
X119210932Y-78890000D01*
X119380671Y-78720261D01*
X119569561Y-78437567D01*
X119699670Y-78123456D01*
X119766000Y-77789996D01*
X119766000Y-77450004D01*
X119699670Y-77116544D01*
X119569561Y-76802433D01*
X119380671Y-76519739D01*
X119210932Y-76350000D01*
X119380671Y-76180261D01*
X119569561Y-75897567D01*
X119699670Y-75583456D01*
X119766000Y-75249996D01*
X119766000Y-74910004D01*
X119699670Y-74576544D01*
X119569561Y-74262433D01*
X119380671Y-73979739D01*
X119210932Y-73810000D01*
X119380671Y-73640261D01*
X119569561Y-73357567D01*
X119664408Y-73128585D01*
X123245001Y-76709178D01*
X123245000Y-88225205D01*
X123242558Y-88250000D01*
X123245000Y-88274795D01*
X123245000Y-88274804D01*
X123252307Y-88348996D01*
X123281184Y-88444189D01*
X123328077Y-88531920D01*
X123391184Y-88608816D01*
X123410451Y-88624628D01*
X128220000Y-93434178D01*
X128220000Y-93576823D01*
X128249975Y-93727518D01*
X128308773Y-93869469D01*
X128394135Y-93997221D01*
X128502779Y-94105865D01*
X128630531Y-94191227D01*
X128772482Y-94250025D01*
X128923177Y-94280000D01*
X129076823Y-94280000D01*
X129227518Y-94250025D01*
X129369469Y-94191227D01*
X129497221Y-94105865D01*
X129605865Y-93997221D01*
X129691227Y-93869469D01*
X129750025Y-93727518D01*
X129780000Y-93576823D01*
X129780000Y-93423177D01*
X129750025Y-93272482D01*
X129691227Y-93130531D01*
X129605865Y-93002779D01*
X129497221Y-92894135D01*
X129369469Y-92808773D01*
X129227518Y-92749975D01*
X129076823Y-92720000D01*
X128934178Y-92720000D01*
X124255000Y-88040823D01*
X124255000Y-76524795D01*
X124257442Y-76500000D01*
X124255000Y-76475205D01*
X124255000Y-76475195D01*
X124247693Y-76401003D01*
X124218816Y-76305810D01*
X124201667Y-76273727D01*
X124171923Y-76218079D01*
X124124628Y-76160451D01*
X124108816Y-76141184D01*
X124089549Y-76125372D01*
X120164628Y-72200451D01*
X120148816Y-72181184D01*
X120071920Y-72118077D01*
X119984190Y-72071184D01*
X119888997Y-72042307D01*
X119814805Y-72035000D01*
X119814795Y-72035000D01*
X119790000Y-72032558D01*
X119765205Y-72035000D01*
X119699030Y-72035000D01*
X119569561Y-71722433D01*
X119380671Y-71439739D01*
X119210932Y-71270000D01*
X119380671Y-71100261D01*
X119569561Y-70817567D01*
X119652693Y-70616870D01*
X124495000Y-75459178D01*
X124495001Y-86975195D01*
X124492558Y-87000000D01*
X124502308Y-87098997D01*
X124531184Y-87194189D01*
X124578077Y-87281920D01*
X124625372Y-87339549D01*
X124625377Y-87339554D01*
X124641185Y-87358816D01*
X124660447Y-87374624D01*
X130220000Y-92934178D01*
X130220000Y-93076823D01*
X130249975Y-93227518D01*
X130308773Y-93369469D01*
X130394135Y-93497221D01*
X130502779Y-93605865D01*
X130630531Y-93691227D01*
X130772482Y-93750025D01*
X130923177Y-93780000D01*
X131076823Y-93780000D01*
X131227518Y-93750025D01*
X131369469Y-93691227D01*
X131497221Y-93605865D01*
X131605865Y-93497221D01*
X131691227Y-93369469D01*
X131750025Y-93227518D01*
X131780000Y-93076823D01*
X131780000Y-92923177D01*
X131750025Y-92772482D01*
X131708892Y-92673177D01*
X134470000Y-92673177D01*
X134470000Y-92826823D01*
X134499975Y-92977518D01*
X134558773Y-93119469D01*
X134644135Y-93247221D01*
X134752779Y-93355865D01*
X134880531Y-93441227D01*
X135022482Y-93500025D01*
X135173177Y-93530000D01*
X135326823Y-93530000D01*
X135477518Y-93500025D01*
X135619469Y-93441227D01*
X135747221Y-93355865D01*
X135855865Y-93247221D01*
X135941227Y-93119469D01*
X136000025Y-92977518D01*
X136030000Y-92826823D01*
X136030000Y-92673177D01*
X136000025Y-92522482D01*
X135941227Y-92380531D01*
X135855865Y-92252779D01*
X135755000Y-92151914D01*
X135755000Y-66959177D01*
X141434177Y-61280000D01*
X141576823Y-61280000D01*
X141727518Y-61250025D01*
X141869469Y-61191227D01*
X141997221Y-61105865D01*
X142105865Y-60997221D01*
X142191227Y-60869469D01*
X142250025Y-60727518D01*
X142280000Y-60576823D01*
X142280000Y-60423177D01*
X142250025Y-60272482D01*
X142191227Y-60130531D01*
X142105865Y-60002779D01*
X141997221Y-59894135D01*
X141869469Y-59808773D01*
X141727518Y-59749975D01*
X141576823Y-59720000D01*
X141423177Y-59720000D01*
X141272482Y-59749975D01*
X141130531Y-59808773D01*
X141002779Y-59894135D01*
X140894135Y-60002779D01*
X140808773Y-60130531D01*
X140749975Y-60272482D01*
X140720000Y-60423177D01*
X140720000Y-60565823D01*
X134910447Y-66375376D01*
X134891185Y-66391184D01*
X134875377Y-66410446D01*
X134875372Y-66410451D01*
X134828077Y-66468080D01*
X134781184Y-66555811D01*
X134752308Y-66651003D01*
X134742558Y-66750000D01*
X134745001Y-66774805D01*
X134745000Y-92151914D01*
X134644135Y-92252779D01*
X134558773Y-92380531D01*
X134499975Y-92522482D01*
X134470000Y-92673177D01*
X131708892Y-92673177D01*
X131691227Y-92630531D01*
X131605865Y-92502779D01*
X131497221Y-92394135D01*
X131369469Y-92308773D01*
X131227518Y-92249975D01*
X131076823Y-92220000D01*
X130934178Y-92220000D01*
X125505000Y-86790823D01*
X125505000Y-75274794D01*
X125507442Y-75249999D01*
X125505000Y-75225204D01*
X125505000Y-75225195D01*
X125497693Y-75151003D01*
X125468816Y-75055810D01*
X125446987Y-75014972D01*
X125421923Y-74968079D01*
X125374628Y-74910450D01*
X125374624Y-74910446D01*
X125358816Y-74891184D01*
X125339554Y-74875376D01*
X120124628Y-69660451D01*
X120108816Y-69641184D01*
X120031920Y-69578077D01*
X119944190Y-69531184D01*
X119848997Y-69502307D01*
X119774805Y-69495000D01*
X119774795Y-69495000D01*
X119750000Y-69492558D01*
X119725205Y-69495000D01*
X119699030Y-69495000D01*
X119569561Y-69182433D01*
X119380671Y-68899739D01*
X119140261Y-68659329D01*
X118857567Y-68470439D01*
X118543456Y-68340330D01*
X118209996Y-68274000D01*
X117870004Y-68274000D01*
X117536544Y-68340330D01*
X117222433Y-68470439D01*
X117030679Y-68598565D01*
X116972422Y-68527578D01*
X116839034Y-68418109D01*
X116686852Y-68336766D01*
X116521726Y-68286676D01*
X116350000Y-68269762D01*
X114650000Y-68269762D01*
X114478274Y-68286676D01*
X114313148Y-68336766D01*
X114160966Y-68418109D01*
X114027578Y-68527578D01*
X113918109Y-68660966D01*
X113836766Y-68813148D01*
X113786676Y-68978274D01*
X113769762Y-69150000D01*
X73930000Y-69150000D01*
X73930000Y-51875000D01*
X172637932Y-51875000D01*
X172650173Y-51999286D01*
X172686426Y-52118795D01*
X172745297Y-52228936D01*
X172824525Y-52325475D01*
X172921064Y-52404703D01*
X173031205Y-52463574D01*
X173150714Y-52499827D01*
X173275000Y-52512068D01*
X173863500Y-52509000D01*
X174022000Y-52350500D01*
X174022000Y-51128000D01*
X172799500Y-51128000D01*
X172641000Y-51286500D01*
X172637932Y-51875000D01*
X73930000Y-51875000D01*
X73930000Y-50125000D01*
X172637932Y-50125000D01*
X172641000Y-50713500D01*
X172799500Y-50872000D01*
X174022000Y-50872000D01*
X174022000Y-49649500D01*
X174278000Y-49649500D01*
X174278000Y-50872000D01*
X174298000Y-50872000D01*
X174298000Y-51128000D01*
X174278000Y-51128000D01*
X174278000Y-52350500D01*
X174436500Y-52509000D01*
X175025000Y-52512068D01*
X175149286Y-52499827D01*
X175268795Y-52463574D01*
X175378936Y-52404703D01*
X175475475Y-52325475D01*
X175504194Y-52290481D01*
X175573803Y-52360090D01*
X175860591Y-52551716D01*
X176179252Y-52683710D01*
X176517542Y-52751000D01*
X176862458Y-52751000D01*
X177200748Y-52683710D01*
X177519409Y-52551716D01*
X177806197Y-52360090D01*
X177960000Y-52206287D01*
X178113803Y-52360090D01*
X178400591Y-52551716D01*
X178719252Y-52683710D01*
X179057542Y-52751000D01*
X179402458Y-52751000D01*
X179740748Y-52683710D01*
X180059409Y-52551716D01*
X180346197Y-52360090D01*
X180500000Y-52206287D01*
X180653803Y-52360090D01*
X180940591Y-52551716D01*
X181259252Y-52683710D01*
X181597542Y-52751000D01*
X181942458Y-52751000D01*
X182280748Y-52683710D01*
X182599409Y-52551716D01*
X182886197Y-52360090D01*
X183040000Y-52206287D01*
X183193803Y-52360090D01*
X183480591Y-52551716D01*
X183799252Y-52683710D01*
X184137542Y-52751000D01*
X184482458Y-52751000D01*
X184820748Y-52683710D01*
X185139409Y-52551716D01*
X185426197Y-52360090D01*
X185580000Y-52206287D01*
X185733803Y-52360090D01*
X186020591Y-52551716D01*
X186339252Y-52683710D01*
X186677542Y-52751000D01*
X187022458Y-52751000D01*
X187360748Y-52683710D01*
X187679409Y-52551716D01*
X187966197Y-52360090D01*
X188047991Y-52278296D01*
X195749000Y-52278296D01*
X195749000Y-52721704D01*
X195835504Y-53156593D01*
X196005189Y-53566249D01*
X196251534Y-53934929D01*
X196565071Y-54248466D01*
X196933751Y-54494811D01*
X197343407Y-54664496D01*
X197778296Y-54751000D01*
X198221704Y-54751000D01*
X198656593Y-54664496D01*
X199066249Y-54494811D01*
X199434929Y-54248466D01*
X199748466Y-53934929D01*
X199994811Y-53566249D01*
X200164496Y-53156593D01*
X200251000Y-52721704D01*
X200251000Y-52278296D01*
X200749000Y-52278296D01*
X200749000Y-52721704D01*
X200835504Y-53156593D01*
X201005189Y-53566249D01*
X201251534Y-53934929D01*
X201565071Y-54248466D01*
X201933751Y-54494811D01*
X202343407Y-54664496D01*
X202778296Y-54751000D01*
X203221704Y-54751000D01*
X203656593Y-54664496D01*
X204066249Y-54494811D01*
X204434929Y-54248466D01*
X204748466Y-53934929D01*
X204750000Y-53932633D01*
X204751534Y-53934929D01*
X205065071Y-54248466D01*
X205433751Y-54494811D01*
X205843407Y-54664496D01*
X206278296Y-54751000D01*
X206721704Y-54751000D01*
X207156593Y-54664496D01*
X207566249Y-54494811D01*
X207934929Y-54248466D01*
X208248466Y-53934929D01*
X208269956Y-53902767D01*
X208778252Y-53902767D01*
X208919367Y-54205130D01*
X209272785Y-54383187D01*
X209654150Y-54488875D01*
X210048805Y-54518132D01*
X210441585Y-54469833D01*
X210817396Y-54345834D01*
X211080633Y-54205130D01*
X211221748Y-53902767D01*
X210000000Y-52681019D01*
X208778252Y-53902767D01*
X208269956Y-53902767D01*
X208439956Y-53648346D01*
X208597233Y-53721748D01*
X209818981Y-52500000D01*
X210181019Y-52500000D01*
X211402767Y-53721748D01*
X211560044Y-53648346D01*
X211751534Y-53934929D01*
X212065071Y-54248466D01*
X212433751Y-54494811D01*
X212843407Y-54664496D01*
X213278296Y-54751000D01*
X213721704Y-54751000D01*
X214156593Y-54664496D01*
X214566249Y-54494811D01*
X214934929Y-54248466D01*
X215248466Y-53934929D01*
X215250000Y-53932633D01*
X215251534Y-53934929D01*
X215565071Y-54248466D01*
X215933751Y-54494811D01*
X216343407Y-54664496D01*
X216778296Y-54751000D01*
X217221704Y-54751000D01*
X217656593Y-54664496D01*
X218066249Y-54494811D01*
X218434929Y-54248466D01*
X218748466Y-53934929D01*
X218994811Y-53566249D01*
X219164496Y-53156593D01*
X219251000Y-52721704D01*
X219251000Y-52278296D01*
X219164496Y-51843407D01*
X218994811Y-51433751D01*
X218748466Y-51065071D01*
X218434929Y-50751534D01*
X218066249Y-50505189D01*
X217656593Y-50335504D01*
X217221704Y-50249000D01*
X216778296Y-50249000D01*
X216343407Y-50335504D01*
X215933751Y-50505189D01*
X215565071Y-50751534D01*
X215251534Y-51065071D01*
X215250000Y-51067367D01*
X215248466Y-51065071D01*
X214934929Y-50751534D01*
X214566249Y-50505189D01*
X214156593Y-50335504D01*
X213721704Y-50249000D01*
X213278296Y-50249000D01*
X212843407Y-50335504D01*
X212433751Y-50505189D01*
X212065071Y-50751534D01*
X211751534Y-51065071D01*
X211560044Y-51351654D01*
X211402767Y-51278252D01*
X210181019Y-52500000D01*
X209818981Y-52500000D01*
X208597233Y-51278252D01*
X208439956Y-51351654D01*
X208269957Y-51097233D01*
X208778252Y-51097233D01*
X210000000Y-52318981D01*
X211221748Y-51097233D01*
X211080633Y-50794870D01*
X210727215Y-50616813D01*
X210345850Y-50511125D01*
X209951195Y-50481868D01*
X209558415Y-50530167D01*
X209182604Y-50654166D01*
X208919367Y-50794870D01*
X208778252Y-51097233D01*
X208269957Y-51097233D01*
X208248466Y-51065071D01*
X207934929Y-50751534D01*
X207566249Y-50505189D01*
X207156593Y-50335504D01*
X206721704Y-50249000D01*
X206278296Y-50249000D01*
X205843407Y-50335504D01*
X205433751Y-50505189D01*
X205065071Y-50751534D01*
X204751534Y-51065071D01*
X204750000Y-51067367D01*
X204748466Y-51065071D01*
X204434929Y-50751534D01*
X204066249Y-50505189D01*
X203656593Y-50335504D01*
X203221704Y-50249000D01*
X202778296Y-50249000D01*
X202343407Y-50335504D01*
X201933751Y-50505189D01*
X201565071Y-50751534D01*
X201251534Y-51065071D01*
X201005189Y-51433751D01*
X200835504Y-51843407D01*
X200749000Y-52278296D01*
X200251000Y-52278296D01*
X200164496Y-51843407D01*
X199994811Y-51433751D01*
X199748466Y-51065071D01*
X199434929Y-50751534D01*
X199066249Y-50505189D01*
X198656593Y-50335504D01*
X198221704Y-50249000D01*
X197778296Y-50249000D01*
X197343407Y-50335504D01*
X196933751Y-50505189D01*
X196565071Y-50751534D01*
X196251534Y-51065071D01*
X196005189Y-51433751D01*
X195835504Y-51843407D01*
X195749000Y-52278296D01*
X188047991Y-52278296D01*
X188210090Y-52116197D01*
X188401716Y-51829409D01*
X188533710Y-51510748D01*
X188601000Y-51172458D01*
X188601000Y-50827542D01*
X188533710Y-50489252D01*
X188401716Y-50170591D01*
X188210090Y-49883803D01*
X187966197Y-49639910D01*
X187679409Y-49448284D01*
X187360748Y-49316290D01*
X187022458Y-49249000D01*
X186677542Y-49249000D01*
X186339252Y-49316290D01*
X186020591Y-49448284D01*
X185733803Y-49639910D01*
X185580000Y-49793713D01*
X185426197Y-49639910D01*
X185139409Y-49448284D01*
X184820748Y-49316290D01*
X184482458Y-49249000D01*
X184137542Y-49249000D01*
X183799252Y-49316290D01*
X183480591Y-49448284D01*
X183193803Y-49639910D01*
X183040000Y-49793713D01*
X182886197Y-49639910D01*
X182599409Y-49448284D01*
X182280748Y-49316290D01*
X181942458Y-49249000D01*
X181597542Y-49249000D01*
X181259252Y-49316290D01*
X180940591Y-49448284D01*
X180653803Y-49639910D01*
X180500000Y-49793713D01*
X180346197Y-49639910D01*
X180059409Y-49448284D01*
X179740748Y-49316290D01*
X179402458Y-49249000D01*
X179057542Y-49249000D01*
X178719252Y-49316290D01*
X178400591Y-49448284D01*
X178113803Y-49639910D01*
X177960000Y-49793713D01*
X177806197Y-49639910D01*
X177519409Y-49448284D01*
X177200748Y-49316290D01*
X176862458Y-49249000D01*
X176517542Y-49249000D01*
X176179252Y-49316290D01*
X175860591Y-49448284D01*
X175573803Y-49639910D01*
X175504194Y-49709519D01*
X175475475Y-49674525D01*
X175378936Y-49595297D01*
X175268795Y-49536426D01*
X175149286Y-49500173D01*
X175025000Y-49487932D01*
X174436500Y-49491000D01*
X174278000Y-49649500D01*
X174022000Y-49649500D01*
X173863500Y-49491000D01*
X173275000Y-49487932D01*
X173150714Y-49500173D01*
X173031205Y-49536426D01*
X172921064Y-49595297D01*
X172824525Y-49674525D01*
X172745297Y-49771064D01*
X172686426Y-49881205D01*
X172650173Y-50000714D01*
X172637932Y-50125000D01*
X73930000Y-50125000D01*
X73930000Y-47923177D01*
X170830000Y-47923177D01*
X170830000Y-48076823D01*
X170859975Y-48227518D01*
X170918773Y-48369469D01*
X171004135Y-48497221D01*
X171112779Y-48605865D01*
X171240531Y-48691227D01*
X171382482Y-48750025D01*
X171533177Y-48780000D01*
X171686823Y-48780000D01*
X171837518Y-48750025D01*
X171979469Y-48691227D01*
X172071101Y-48630000D01*
X181308899Y-48630000D01*
X181400531Y-48691227D01*
X181542482Y-48750025D01*
X181693177Y-48780000D01*
X181846823Y-48780000D01*
X181997518Y-48750025D01*
X182139469Y-48691227D01*
X182231101Y-48630000D01*
X197538899Y-48630000D01*
X197630531Y-48691227D01*
X197772482Y-48750025D01*
X197923177Y-48780000D01*
X198076823Y-48780000D01*
X198227518Y-48750025D01*
X198369469Y-48691227D01*
X198461101Y-48630000D01*
X207538899Y-48630000D01*
X207630531Y-48691227D01*
X207772482Y-48750025D01*
X207923177Y-48780000D01*
X208076823Y-48780000D01*
X208227518Y-48750025D01*
X208369469Y-48691227D01*
X208497221Y-48605865D01*
X208605865Y-48497221D01*
X208691227Y-48369469D01*
X208750025Y-48227518D01*
X208780000Y-48076823D01*
X208780000Y-47923177D01*
X208750025Y-47772482D01*
X208691227Y-47630531D01*
X208605865Y-47502779D01*
X208497221Y-47394135D01*
X208369469Y-47308773D01*
X208227518Y-47249975D01*
X208076823Y-47220000D01*
X207923177Y-47220000D01*
X207772482Y-47249975D01*
X207630531Y-47308773D01*
X207538899Y-47370000D01*
X198461101Y-47370000D01*
X198369469Y-47308773D01*
X198227518Y-47249975D01*
X198076823Y-47220000D01*
X197923177Y-47220000D01*
X197772482Y-47249975D01*
X197630531Y-47308773D01*
X197538899Y-47370000D01*
X182231101Y-47370000D01*
X182139469Y-47308773D01*
X181997518Y-47249975D01*
X181846823Y-47220000D01*
X181693177Y-47220000D01*
X181542482Y-47249975D01*
X181400531Y-47308773D01*
X181308899Y-47370000D01*
X172071101Y-47370000D01*
X171979469Y-47308773D01*
X171837518Y-47249975D01*
X171686823Y-47220000D01*
X171533177Y-47220000D01*
X171382482Y-47249975D01*
X171240531Y-47308773D01*
X171112779Y-47394135D01*
X171004135Y-47502779D01*
X170918773Y-47630531D01*
X170859975Y-47772482D01*
X170830000Y-47923177D01*
X73930000Y-47923177D01*
X73930000Y-40914307D01*
X86166713Y-40914307D01*
X86563052Y-41434300D01*
X87277954Y-41824227D01*
X88055191Y-42067191D01*
X88864894Y-42153855D01*
X89675945Y-42080889D01*
X90457177Y-41851097D01*
X91178568Y-41473309D01*
X91236948Y-41434300D01*
X91633287Y-40914307D01*
X209866713Y-40914307D01*
X210263052Y-41434300D01*
X210977954Y-41824227D01*
X211755191Y-42067191D01*
X212564894Y-42153855D01*
X213375945Y-42080889D01*
X214157177Y-41851097D01*
X214878568Y-41473309D01*
X214936948Y-41434300D01*
X215333287Y-40914307D01*
X212600000Y-38181019D01*
X209866713Y-40914307D01*
X91633287Y-40914307D01*
X88900000Y-38181019D01*
X86166713Y-40914307D01*
X73930000Y-40914307D01*
X73930000Y-37964894D01*
X84746145Y-37964894D01*
X84819111Y-38775945D01*
X85048903Y-39557177D01*
X85426691Y-40278568D01*
X85465700Y-40336948D01*
X85985693Y-40733287D01*
X88718981Y-38000000D01*
X89081019Y-38000000D01*
X91814307Y-40733287D01*
X92334300Y-40336948D01*
X92724227Y-39622046D01*
X92967191Y-38844809D01*
X93053855Y-38035106D01*
X93047539Y-37964894D01*
X208446145Y-37964894D01*
X208519111Y-38775945D01*
X208748903Y-39557177D01*
X209126691Y-40278568D01*
X209165700Y-40336948D01*
X209685693Y-40733287D01*
X212418981Y-38000000D01*
X212781019Y-38000000D01*
X215514307Y-40733287D01*
X216034300Y-40336948D01*
X216424227Y-39622046D01*
X216667191Y-38844809D01*
X216753855Y-38035106D01*
X216680889Y-37224055D01*
X216451097Y-36442823D01*
X216073309Y-35721432D01*
X216034300Y-35663052D01*
X215514307Y-35266713D01*
X212781019Y-38000000D01*
X212418981Y-38000000D01*
X209685693Y-35266713D01*
X209165700Y-35663052D01*
X208775773Y-36377954D01*
X208532809Y-37155191D01*
X208446145Y-37964894D01*
X93047539Y-37964894D01*
X92980889Y-37224055D01*
X92751097Y-36442823D01*
X92373309Y-35721432D01*
X92334300Y-35663052D01*
X91814307Y-35266713D01*
X89081019Y-38000000D01*
X88718981Y-38000000D01*
X85985693Y-35266713D01*
X85465700Y-35663052D01*
X85075773Y-36377954D01*
X84832809Y-37155191D01*
X84746145Y-37964894D01*
X73930000Y-37964894D01*
X73930000Y-34430000D01*
X86806065Y-34430000D01*
X86621432Y-34526691D01*
G37*
%TD.AperFunction*%
M02*
