G04 #@! TF.GenerationSoftware,KiCad,Pcbnew,(5.1.7)-1*
G04 #@! TF.CreationDate,2021-11-13T12:09:10+01:00*
G04 #@! TF.ProjectId,psu-module-negative,7073752d-6d6f-4647-956c-652d6e656761,rev?*
G04 #@! TF.SameCoordinates,Original*
G04 #@! TF.FileFunction,Copper,L1,Top*
G04 #@! TF.FilePolarity,Positive*
%FSLAX46Y46*%
G04 Gerber Fmt 4.6, Leading zero omitted, Abs format (unit mm)*
G04 Created by KiCad (PCBNEW (5.1.7)-1) date 2021-11-13 12:09:10*
%MOMM*%
%LPD*%
G01*
G04 APERTURE LIST*
G04 #@! TA.AperFunction,ComponentPad*
%ADD10R,1.600000X1.600000*%
G04 #@! TD*
G04 #@! TA.AperFunction,ComponentPad*
%ADD11O,1.600000X1.600000*%
G04 #@! TD*
G04 #@! TA.AperFunction,ComponentPad*
%ADD12C,1.600000*%
G04 #@! TD*
G04 #@! TA.AperFunction,ComponentPad*
%ADD13O,1.300000X1.300000*%
G04 #@! TD*
G04 #@! TA.AperFunction,ComponentPad*
%ADD14C,1.300000*%
G04 #@! TD*
G04 #@! TA.AperFunction,ComponentPad*
%ADD15R,1.700000X1.700000*%
G04 #@! TD*
G04 #@! TA.AperFunction,ComponentPad*
%ADD16O,1.700000X1.700000*%
G04 #@! TD*
G04 #@! TA.AperFunction,Conductor*
%ADD17C,1.000000*%
G04 #@! TD*
G04 APERTURE END LIST*
D10*
X16960000Y-18000000D03*
D11*
X16960000Y-23080000D03*
D12*
X20500000Y-12500000D03*
X20500000Y-15000000D03*
X16960000Y-12500000D03*
X16960000Y-15000000D03*
D13*
X18730000Y-9520000D03*
D14*
X20000000Y-8250000D03*
G04 #@! TA.AperFunction,ComponentPad*
G36*
G01*
X17919619Y-7790381D02*
X17919619Y-7790381D01*
G75*
G02*
X17919619Y-8709619I-459619J-459619D01*
G01*
X17919619Y-8709619D01*
G75*
G02*
X17000381Y-8709619I-459619J459619D01*
G01*
X17000381Y-8709619D01*
G75*
G02*
X17000381Y-7790381I459619J459619D01*
G01*
X17000381Y-7790381D01*
G75*
G02*
X17919619Y-7790381I459619J-459619D01*
G01*
G37*
G04 #@! TD.AperFunction*
D10*
X23000000Y-21750000D03*
D12*
X23000000Y-19250000D03*
D10*
X31000000Y-15250000D03*
D11*
X23380000Y-7630000D03*
X31000000Y-12710000D03*
X23380000Y-10170000D03*
X31000000Y-10170000D03*
X23380000Y-12710000D03*
X31000000Y-7630000D03*
X23380000Y-15250000D03*
D10*
X29500000Y-21500000D03*
D12*
X29500000Y-19500000D03*
D15*
X26540000Y-25750000D03*
D16*
X24000000Y-25750000D03*
X21460000Y-25750000D03*
D17*
X24000000Y-22750000D02*
X23000000Y-21750000D01*
X24000000Y-25750000D02*
X24000000Y-22750000D01*
X20500000Y-15000000D02*
X16960000Y-15000000D01*
X23000000Y-21750000D02*
X23750000Y-21750000D01*
X23750000Y-21750000D02*
X26250000Y-19250000D01*
X26250000Y-19250000D02*
X26250000Y-13000000D01*
X29080000Y-10170000D02*
X31000000Y-10170000D01*
X26250000Y-13000000D02*
X29080000Y-10170000D01*
X23000000Y-21750000D02*
X20500000Y-21750000D01*
X20500000Y-21750000D02*
X20500000Y-15000000D01*
X19170000Y-23080000D02*
X20500000Y-21750000D01*
X16960000Y-23080000D02*
X19170000Y-23080000D01*
M02*
