G04 #@! TF.GenerationSoftware,KiCad,Pcbnew,(5.1.7)-1*
G04 #@! TF.CreationDate,2021-11-13T12:09:10+01:00*
G04 #@! TF.ProjectId,psu-module-negative,7073752d-6d6f-4647-956c-652d6e656761,rev?*
G04 #@! TF.SameCoordinates,Original*
G04 #@! TF.FileFunction,Legend,Top*
G04 #@! TF.FilePolarity,Positive*
%FSLAX46Y46*%
G04 Gerber Fmt 4.6, Leading zero omitted, Abs format (unit mm)*
G04 Created by KiCad (PCBNEW (5.1.7)-1) date 2021-11-13 12:09:10*
%MOMM*%
%LPD*%
G01*
G04 APERTURE LIST*
%ADD10C,0.120000*%
%ADD11R,1.600000X1.600000*%
%ADD12O,1.600000X1.600000*%
%ADD13C,1.600000*%
%ADD14O,1.300000X1.300000*%
%ADD15C,1.300000*%
%ADD16R,1.700000X1.700000*%
%ADD17O,1.700000X1.700000*%
G04 APERTURE END LIST*
D10*
X16960000Y-19266371D02*
X16960000Y-21980000D01*
X17760000Y-20006667D02*
X16160000Y-20006667D01*
X16960000Y-20006667D02*
X17760000Y-21073333D01*
X17760000Y-21073333D02*
X16160000Y-21073333D01*
X16160000Y-21073333D02*
X16960000Y-20006667D01*
X18226371Y-18000000D02*
G75*
G03*
X18226371Y-18000000I-1266371J0D01*
G01*
X21560000Y-12190000D02*
X21560000Y-15310000D01*
X19440000Y-12190000D02*
X19440000Y-15310000D01*
X21560000Y-12190000D02*
X21496000Y-12190000D01*
X19504000Y-12190000D02*
X19440000Y-12190000D01*
X21560000Y-15310000D02*
X21496000Y-15310000D01*
X19504000Y-15310000D02*
X19440000Y-15310000D01*
X18020000Y-12190000D02*
X18020000Y-15310000D01*
X15900000Y-12190000D02*
X15900000Y-15310000D01*
X18020000Y-12190000D02*
X17956000Y-12190000D01*
X15964000Y-12190000D02*
X15900000Y-12190000D01*
X18020000Y-15310000D02*
X17956000Y-15310000D01*
X15964000Y-15310000D02*
X15900000Y-15310000D01*
X20530000Y-6400000D02*
X16930000Y-6400000D01*
X20568478Y-6411522D02*
G75*
G02*
X18730000Y-10850000I-1838478J-1838478D01*
G01*
X16891522Y-6411522D02*
G75*
G03*
X18730000Y-10850000I1838478J-1838478D01*
G01*
X22350000Y-23350000D02*
X23650000Y-23350000D01*
X23000000Y-23950000D02*
X23000000Y-22750000D01*
X22532000Y-17299000D02*
X23468000Y-17299000D01*
X22324000Y-17339000D02*
X23676000Y-17339000D01*
X22166000Y-17379000D02*
X23834000Y-17379000D01*
X22034000Y-17419000D02*
X23966000Y-17419000D01*
X21919000Y-17459000D02*
X24081000Y-17459000D01*
X21816000Y-17499000D02*
X24184000Y-17499000D01*
X21722000Y-17539000D02*
X24278000Y-17539000D01*
X21636000Y-17579000D02*
X24364000Y-17579000D01*
X21555000Y-17619000D02*
X24445000Y-17619000D01*
X21480000Y-17659000D02*
X24520000Y-17659000D01*
X21409000Y-17699000D02*
X24591000Y-17699000D01*
X21342000Y-17739000D02*
X24658000Y-17739000D01*
X21279000Y-17779000D02*
X24721000Y-17779000D01*
X21219000Y-17819000D02*
X24781000Y-17819000D01*
X21161000Y-17859000D02*
X24839000Y-17859000D01*
X21106000Y-17899000D02*
X24894000Y-17899000D01*
X21054000Y-17939000D02*
X24946000Y-17939000D01*
X21003000Y-17979000D02*
X24997000Y-17979000D01*
X20955000Y-18019000D02*
X25045000Y-18019000D01*
X20908000Y-18059000D02*
X25092000Y-18059000D01*
X20863000Y-18099000D02*
X25137000Y-18099000D01*
X20820000Y-18139000D02*
X25180000Y-18139000D01*
X20778000Y-18179000D02*
X25222000Y-18179000D01*
X20738000Y-18219000D02*
X25262000Y-18219000D01*
X20699000Y-18259000D02*
X25301000Y-18259000D01*
X23980000Y-18299000D02*
X25339000Y-18299000D01*
X20661000Y-18299000D02*
X22020000Y-18299000D01*
X23980000Y-18339000D02*
X25375000Y-18339000D01*
X20625000Y-18339000D02*
X22020000Y-18339000D01*
X23980000Y-18379000D02*
X25411000Y-18379000D01*
X20589000Y-18379000D02*
X22020000Y-18379000D01*
X23980000Y-18419000D02*
X25445000Y-18419000D01*
X20555000Y-18419000D02*
X22020000Y-18419000D01*
X23980000Y-18459000D02*
X25478000Y-18459000D01*
X20522000Y-18459000D02*
X22020000Y-18459000D01*
X23980000Y-18499000D02*
X25510000Y-18499000D01*
X20490000Y-18499000D02*
X22020000Y-18499000D01*
X23980000Y-18539000D02*
X25540000Y-18539000D01*
X20460000Y-18539000D02*
X22020000Y-18539000D01*
X23980000Y-18579000D02*
X25570000Y-18579000D01*
X20430000Y-18579000D02*
X22020000Y-18579000D01*
X23980000Y-18619000D02*
X25599000Y-18619000D01*
X20401000Y-18619000D02*
X22020000Y-18619000D01*
X23980000Y-18659000D02*
X25627000Y-18659000D01*
X20373000Y-18659000D02*
X22020000Y-18659000D01*
X23980000Y-18699000D02*
X25654000Y-18699000D01*
X20346000Y-18699000D02*
X22020000Y-18699000D01*
X23980000Y-18739000D02*
X25681000Y-18739000D01*
X20319000Y-18739000D02*
X22020000Y-18739000D01*
X23980000Y-18779000D02*
X25706000Y-18779000D01*
X20294000Y-18779000D02*
X22020000Y-18779000D01*
X23980000Y-18819000D02*
X25731000Y-18819000D01*
X20269000Y-18819000D02*
X22020000Y-18819000D01*
X23980000Y-18859000D02*
X25755000Y-18859000D01*
X20245000Y-18859000D02*
X22020000Y-18859000D01*
X23980000Y-18899000D02*
X25778000Y-18899000D01*
X20222000Y-18899000D02*
X22020000Y-18899000D01*
X23980000Y-18939000D02*
X25800000Y-18939000D01*
X20200000Y-18939000D02*
X22020000Y-18939000D01*
X23980000Y-18979000D02*
X25822000Y-18979000D01*
X20178000Y-18979000D02*
X22020000Y-18979000D01*
X23980000Y-19019000D02*
X25843000Y-19019000D01*
X20157000Y-19019000D02*
X22020000Y-19019000D01*
X23980000Y-19059000D02*
X25863000Y-19059000D01*
X20137000Y-19059000D02*
X22020000Y-19059000D01*
X23980000Y-19099000D02*
X25882000Y-19099000D01*
X20118000Y-19099000D02*
X22020000Y-19099000D01*
X23980000Y-19139000D02*
X25901000Y-19139000D01*
X20099000Y-19139000D02*
X22020000Y-19139000D01*
X23980000Y-19179000D02*
X25919000Y-19179000D01*
X20081000Y-19179000D02*
X22020000Y-19179000D01*
X23980000Y-19219000D02*
X25937000Y-19219000D01*
X20063000Y-19219000D02*
X22020000Y-19219000D01*
X23980000Y-19259000D02*
X25954000Y-19259000D01*
X20046000Y-19259000D02*
X22020000Y-19259000D01*
X23980000Y-19299000D02*
X25970000Y-19299000D01*
X20030000Y-19299000D02*
X22020000Y-19299000D01*
X23980000Y-19339000D02*
X25986000Y-19339000D01*
X20014000Y-19339000D02*
X22020000Y-19339000D01*
X23980000Y-19379000D02*
X26001000Y-19379000D01*
X19999000Y-19379000D02*
X22020000Y-19379000D01*
X23980000Y-19419000D02*
X26015000Y-19419000D01*
X19985000Y-19419000D02*
X22020000Y-19419000D01*
X23980000Y-19459000D02*
X26029000Y-19459000D01*
X19971000Y-19459000D02*
X22020000Y-19459000D01*
X23980000Y-19499000D02*
X26042000Y-19499000D01*
X19958000Y-19499000D02*
X22020000Y-19499000D01*
X23980000Y-19539000D02*
X26055000Y-19539000D01*
X19945000Y-19539000D02*
X22020000Y-19539000D01*
X23980000Y-19579000D02*
X26067000Y-19579000D01*
X19933000Y-19579000D02*
X22020000Y-19579000D01*
X23980000Y-19619000D02*
X26079000Y-19619000D01*
X19921000Y-19619000D02*
X22020000Y-19619000D01*
X23980000Y-19659000D02*
X26090000Y-19659000D01*
X19910000Y-19659000D02*
X22020000Y-19659000D01*
X23980000Y-19699000D02*
X26100000Y-19699000D01*
X19900000Y-19699000D02*
X22020000Y-19699000D01*
X23980000Y-19739000D02*
X26110000Y-19739000D01*
X19890000Y-19739000D02*
X22020000Y-19739000D01*
X23980000Y-19779000D02*
X26119000Y-19779000D01*
X19881000Y-19779000D02*
X22020000Y-19779000D01*
X23980000Y-19820000D02*
X26128000Y-19820000D01*
X19872000Y-19820000D02*
X22020000Y-19820000D01*
X23980000Y-19860000D02*
X26137000Y-19860000D01*
X19863000Y-19860000D02*
X22020000Y-19860000D01*
X23980000Y-19900000D02*
X26144000Y-19900000D01*
X19856000Y-19900000D02*
X22020000Y-19900000D01*
X23980000Y-19940000D02*
X26152000Y-19940000D01*
X19848000Y-19940000D02*
X22020000Y-19940000D01*
X23980000Y-19980000D02*
X26158000Y-19980000D01*
X19842000Y-19980000D02*
X22020000Y-19980000D01*
X23980000Y-20020000D02*
X26165000Y-20020000D01*
X19835000Y-20020000D02*
X22020000Y-20020000D01*
X23980000Y-20060000D02*
X26170000Y-20060000D01*
X19830000Y-20060000D02*
X22020000Y-20060000D01*
X23980000Y-20100000D02*
X26176000Y-20100000D01*
X19824000Y-20100000D02*
X22020000Y-20100000D01*
X23980000Y-20140000D02*
X26180000Y-20140000D01*
X19820000Y-20140000D02*
X22020000Y-20140000D01*
X23980000Y-20180000D02*
X26185000Y-20180000D01*
X19815000Y-20180000D02*
X22020000Y-20180000D01*
X23980000Y-20220000D02*
X26188000Y-20220000D01*
X19812000Y-20220000D02*
X22020000Y-20220000D01*
X19808000Y-20260000D02*
X26192000Y-20260000D01*
X19806000Y-20300000D02*
X26194000Y-20300000D01*
X19803000Y-20340000D02*
X26197000Y-20340000D01*
X19802000Y-20380000D02*
X26198000Y-20380000D01*
X19800000Y-20420000D02*
X26200000Y-20420000D01*
X19800000Y-20460000D02*
X26200000Y-20460000D01*
X19800000Y-20500000D02*
X26200000Y-20500000D01*
X21820864Y-17482180D02*
G75*
G03*
X21820000Y-23517482I1179136J-3017820D01*
G01*
X24179136Y-17482180D02*
G75*
G02*
X24180000Y-23517482I-1179136J-3017820D01*
G01*
X24179136Y-17482180D02*
G75*
G03*
X21820000Y-17482518I-1179136J-3017820D01*
G01*
X24540000Y-16580000D02*
X26190000Y-16580000D01*
X24540000Y-6300000D02*
X24540000Y-16580000D01*
X29840000Y-6300000D02*
X24540000Y-6300000D01*
X29840000Y-16580000D02*
X29840000Y-6300000D01*
X28190000Y-16580000D02*
X29840000Y-16580000D01*
X26190000Y-16580000D02*
G75*
G02*
X28190000Y-16580000I1000000J0D01*
G01*
X28850000Y-23100000D02*
X30150000Y-23100000D01*
X29500000Y-23700000D02*
X29500000Y-22500000D01*
X29146000Y-17939000D02*
X29854000Y-17939000D01*
X28941000Y-17979000D02*
X30059000Y-17979000D01*
X28793000Y-18019000D02*
X30207000Y-18019000D01*
X28671000Y-18059000D02*
X30329000Y-18059000D01*
X28566000Y-18099000D02*
X30434000Y-18099000D01*
X28472000Y-18139000D02*
X30528000Y-18139000D01*
X28388000Y-18179000D02*
X30612000Y-18179000D01*
X28311000Y-18219000D02*
X30689000Y-18219000D01*
X28239000Y-18259000D02*
X30761000Y-18259000D01*
X28173000Y-18299000D02*
X30827000Y-18299000D01*
X28110000Y-18339000D02*
X30890000Y-18339000D01*
X28052000Y-18379000D02*
X30948000Y-18379000D01*
X27996000Y-18419000D02*
X31004000Y-18419000D01*
X27944000Y-18459000D02*
X31056000Y-18459000D01*
X27894000Y-18499000D02*
X31106000Y-18499000D01*
X30480000Y-18539000D02*
X31154000Y-18539000D01*
X27846000Y-18539000D02*
X28520000Y-18539000D01*
X30480000Y-18579000D02*
X31199000Y-18579000D01*
X27801000Y-18579000D02*
X28520000Y-18579000D01*
X30480000Y-18619000D02*
X31242000Y-18619000D01*
X27758000Y-18619000D02*
X28520000Y-18619000D01*
X30480000Y-18659000D02*
X31283000Y-18659000D01*
X27717000Y-18659000D02*
X28520000Y-18659000D01*
X30480000Y-18699000D02*
X31323000Y-18699000D01*
X27677000Y-18699000D02*
X28520000Y-18699000D01*
X30480000Y-18739000D02*
X31361000Y-18739000D01*
X27639000Y-18739000D02*
X28520000Y-18739000D01*
X30480000Y-18779000D02*
X31397000Y-18779000D01*
X27603000Y-18779000D02*
X28520000Y-18779000D01*
X30480000Y-18819000D02*
X31432000Y-18819000D01*
X27568000Y-18819000D02*
X28520000Y-18819000D01*
X30480000Y-18859000D02*
X31465000Y-18859000D01*
X27535000Y-18859000D02*
X28520000Y-18859000D01*
X30480000Y-18899000D02*
X31497000Y-18899000D01*
X27503000Y-18899000D02*
X28520000Y-18899000D01*
X30480000Y-18939000D02*
X31528000Y-18939000D01*
X27472000Y-18939000D02*
X28520000Y-18939000D01*
X30480000Y-18979000D02*
X31558000Y-18979000D01*
X27442000Y-18979000D02*
X28520000Y-18979000D01*
X30480000Y-19019000D02*
X31586000Y-19019000D01*
X27414000Y-19019000D02*
X28520000Y-19019000D01*
X30480000Y-19059000D02*
X31613000Y-19059000D01*
X27387000Y-19059000D02*
X28520000Y-19059000D01*
X30480000Y-19099000D02*
X31640000Y-19099000D01*
X27360000Y-19099000D02*
X28520000Y-19099000D01*
X30480000Y-19139000D02*
X31665000Y-19139000D01*
X27335000Y-19139000D02*
X28520000Y-19139000D01*
X30480000Y-19179000D02*
X31689000Y-19179000D01*
X27311000Y-19179000D02*
X28520000Y-19179000D01*
X30480000Y-19219000D02*
X31712000Y-19219000D01*
X27288000Y-19219000D02*
X28520000Y-19219000D01*
X30480000Y-19259000D02*
X31734000Y-19259000D01*
X27266000Y-19259000D02*
X28520000Y-19259000D01*
X30480000Y-19299000D02*
X31756000Y-19299000D01*
X27244000Y-19299000D02*
X28520000Y-19299000D01*
X30480000Y-19339000D02*
X31776000Y-19339000D01*
X27224000Y-19339000D02*
X28520000Y-19339000D01*
X30480000Y-19379000D02*
X31796000Y-19379000D01*
X27204000Y-19379000D02*
X28520000Y-19379000D01*
X30480000Y-19419000D02*
X31815000Y-19419000D01*
X27185000Y-19419000D02*
X28520000Y-19419000D01*
X30480000Y-19459000D02*
X31833000Y-19459000D01*
X27167000Y-19459000D02*
X28520000Y-19459000D01*
X30480000Y-19499000D02*
X31850000Y-19499000D01*
X27150000Y-19499000D02*
X28520000Y-19499000D01*
X30480000Y-19539000D02*
X31866000Y-19539000D01*
X27134000Y-19539000D02*
X28520000Y-19539000D01*
X30480000Y-19579000D02*
X31882000Y-19579000D01*
X27118000Y-19579000D02*
X28520000Y-19579000D01*
X30480000Y-19619000D02*
X31896000Y-19619000D01*
X27104000Y-19619000D02*
X28520000Y-19619000D01*
X30480000Y-19659000D02*
X31910000Y-19659000D01*
X27090000Y-19659000D02*
X28520000Y-19659000D01*
X30480000Y-19699000D02*
X31924000Y-19699000D01*
X27076000Y-19699000D02*
X28520000Y-19699000D01*
X30480000Y-19739000D02*
X31936000Y-19739000D01*
X27064000Y-19739000D02*
X28520000Y-19739000D01*
X30480000Y-19779000D02*
X31948000Y-19779000D01*
X27052000Y-19779000D02*
X28520000Y-19779000D01*
X30480000Y-19820000D02*
X31960000Y-19820000D01*
X27040000Y-19820000D02*
X28520000Y-19820000D01*
X30480000Y-19860000D02*
X31970000Y-19860000D01*
X27030000Y-19860000D02*
X28520000Y-19860000D01*
X30480000Y-19900000D02*
X31980000Y-19900000D01*
X27020000Y-19900000D02*
X28520000Y-19900000D01*
X30480000Y-19940000D02*
X31989000Y-19940000D01*
X27011000Y-19940000D02*
X28520000Y-19940000D01*
X30480000Y-19980000D02*
X31998000Y-19980000D01*
X27002000Y-19980000D02*
X28520000Y-19980000D01*
X30480000Y-20020000D02*
X32006000Y-20020000D01*
X26994000Y-20020000D02*
X28520000Y-20020000D01*
X30480000Y-20060000D02*
X32013000Y-20060000D01*
X26987000Y-20060000D02*
X28520000Y-20060000D01*
X30480000Y-20100000D02*
X32019000Y-20100000D01*
X26981000Y-20100000D02*
X28520000Y-20100000D01*
X30480000Y-20140000D02*
X32025000Y-20140000D01*
X26975000Y-20140000D02*
X28520000Y-20140000D01*
X30480000Y-20180000D02*
X32031000Y-20180000D01*
X26969000Y-20180000D02*
X28520000Y-20180000D01*
X30480000Y-20220000D02*
X32035000Y-20220000D01*
X26965000Y-20220000D02*
X28520000Y-20220000D01*
X30480000Y-20260000D02*
X32039000Y-20260000D01*
X26961000Y-20260000D02*
X28520000Y-20260000D01*
X30480000Y-20300000D02*
X32043000Y-20300000D01*
X26957000Y-20300000D02*
X28520000Y-20300000D01*
X30480000Y-20340000D02*
X32046000Y-20340000D01*
X26954000Y-20340000D02*
X28520000Y-20340000D01*
X30480000Y-20380000D02*
X32048000Y-20380000D01*
X26952000Y-20380000D02*
X28520000Y-20380000D01*
X30480000Y-20420000D02*
X32049000Y-20420000D01*
X26951000Y-20420000D02*
X28520000Y-20420000D01*
X30480000Y-20460000D02*
X32050000Y-20460000D01*
X26950000Y-20460000D02*
X28520000Y-20460000D01*
X26950000Y-20500000D02*
X32050000Y-20500000D01*
X28320277Y-18194278D02*
G75*
G03*
X28320000Y-22805580I1179723J-2305722D01*
G01*
X30679723Y-18194278D02*
G75*
G02*
X30680000Y-22805580I-1179723J-2305722D01*
G01*
X30679723Y-18194278D02*
G75*
G03*
X28320000Y-18194420I-1179723J-2305722D01*
G01*
X27810000Y-24480000D02*
X27810000Y-25750000D01*
X26540000Y-24480000D02*
X27810000Y-24480000D01*
X21080000Y-26792929D02*
X21080000Y-27190000D01*
X21840000Y-26792929D02*
X21840000Y-27190000D01*
X21080000Y-35850000D02*
X21080000Y-29850000D01*
X21840000Y-35850000D02*
X21080000Y-35850000D01*
X21840000Y-29850000D02*
X21840000Y-35850000D01*
X22730000Y-27190000D02*
X22730000Y-29850000D01*
X23620000Y-26792929D02*
X23620000Y-27190000D01*
X24380000Y-26792929D02*
X24380000Y-27190000D01*
X23620000Y-35850000D02*
X23620000Y-29850000D01*
X24380000Y-35850000D02*
X23620000Y-35850000D01*
X24380000Y-29850000D02*
X24380000Y-35850000D01*
X25270000Y-27190000D02*
X25270000Y-29850000D01*
X26160000Y-26860000D02*
X26160000Y-27190000D01*
X26920000Y-26860000D02*
X26920000Y-27190000D01*
X26260000Y-29850000D02*
X26260000Y-35850000D01*
X26380000Y-29850000D02*
X26380000Y-35850000D01*
X26500000Y-29850000D02*
X26500000Y-35850000D01*
X26620000Y-29850000D02*
X26620000Y-35850000D01*
X26740000Y-29850000D02*
X26740000Y-35850000D01*
X26860000Y-29850000D02*
X26860000Y-35850000D01*
X26160000Y-35850000D02*
X26160000Y-29850000D01*
X26920000Y-35850000D02*
X26160000Y-35850000D01*
X26920000Y-29850000D02*
X26920000Y-35850000D01*
X27870000Y-29850000D02*
X27870000Y-27190000D01*
X20130000Y-29850000D02*
X27870000Y-29850000D01*
X20130000Y-27190000D02*
X20130000Y-29850000D01*
X27870000Y-27190000D02*
X20130000Y-27190000D01*
%LPC*%
D11*
X16960000Y-18000000D03*
D12*
X16960000Y-23080000D03*
D13*
X20500000Y-12500000D03*
X20500000Y-15000000D03*
X16960000Y-12500000D03*
X16960000Y-15000000D03*
D14*
X18730000Y-9520000D03*
D15*
X20000000Y-8250000D03*
G36*
G01*
X17919619Y-7790381D02*
X17919619Y-7790381D01*
G75*
G02*
X17919619Y-8709619I-459619J-459619D01*
G01*
X17919619Y-8709619D01*
G75*
G02*
X17000381Y-8709619I-459619J459619D01*
G01*
X17000381Y-8709619D01*
G75*
G02*
X17000381Y-7790381I459619J459619D01*
G01*
X17000381Y-7790381D01*
G75*
G02*
X17919619Y-7790381I459619J-459619D01*
G01*
G37*
D11*
X23000000Y-21750000D03*
D13*
X23000000Y-19250000D03*
D11*
X31000000Y-15250000D03*
D12*
X23380000Y-7630000D03*
X31000000Y-12710000D03*
X23380000Y-10170000D03*
X31000000Y-10170000D03*
X23380000Y-12710000D03*
X31000000Y-7630000D03*
X23380000Y-15250000D03*
D11*
X29500000Y-21500000D03*
D13*
X29500000Y-19500000D03*
D16*
X26540000Y-25750000D03*
D17*
X24000000Y-25750000D03*
X21460000Y-25750000D03*
M02*
