M48
; DRILL file {KiCad (5.1.7)-1} date 01/04/22 17:04:26
; FORMAT={-:-/ absolute / metric / decimal}
; #@! TF.CreationDate,2022-01-04T17:04:26+01:00
; #@! TF.GenerationSoftware,Kicad,Pcbnew,(5.1.7)-1
; #@! TF.FileFunction,Plated,1,2,PTH
FMAT,2
METRIC
T1C0.800
T2C0.900
T3C1.000
%
G90
G05
T1
X16.96Y-18.0
X16.96Y-25.62
T2
X17.46Y-8.25
X18.73Y-9.52
X20.0Y-8.25
T3
X29.5Y-19.5
X29.5Y-21.5
X20.5Y-12.5
X20.5Y-15.0
X23.38Y-7.63
X23.38Y-10.17
X23.38Y-12.71
X23.38Y-15.25
X31.0Y-7.63
X31.0Y-10.17
X31.0Y-12.71
X31.0Y-15.25
X21.46Y-25.75
X24.0Y-25.75
X26.54Y-25.75
X16.96Y-12.5
X16.96Y-15.0
X23.0Y-19.25
X23.0Y-21.75
T0
M30
