M48
; DRILL file {KiCad (5.1.7)-1} date 11/13/21 14:15:30
; FORMAT={-:-/ absolute / metric / decimal}
; #@! TF.CreationDate,2021-11-13T14:15:30+01:00
; #@! TF.GenerationSoftware,Kicad,Pcbnew,(5.1.7)-1
; #@! TF.FileFunction,Plated,1,2,PTH
FMAT,2
METRIC
T1C0.400
T2C0.800
T3C1.100
T4C1.150
%
G90
G05
T1
X67.9Y-30.5
T2
X49.5Y-30.88
X49.5Y-41.04
X29.0Y-32.9
X29.0Y-35.44
X29.0Y-37.98
X60.0Y-30.88
X60.0Y-41.04
X46.0Y-30.88
X46.0Y-38.5
X24.0Y-45.0
X34.16Y-45.0
X39.0Y-30.88
X39.0Y-41.04
X34.0Y-32.9
X34.0Y-35.44
X34.0Y-37.98
X53.0Y-30.88
X53.0Y-38.5
X56.5Y-30.88
X56.5Y-41.04
X42.5Y-30.88
X42.5Y-38.5
X37.34Y-45.0
X47.5Y-45.0
X24.0Y-30.88
X24.0Y-41.04
X29.0Y-41.04
X34.0Y-41.04
T3
X24.0Y-51.4
X57.0Y-51.1
X67.5Y-42.5
X70.0Y-42.5
X72.5Y-42.5
X75.0Y-42.5
X77.5Y-42.5
X80.0Y-42.5
X82.5Y-42.5
X85.0Y-42.5
X87.5Y-42.5
X90.0Y-42.5
X92.5Y-42.5
X95.0Y-42.5
X97.5Y-42.5
X100.0Y-42.5
X102.5Y-42.5
X105.0Y-42.5
X106.0Y-51.4
X50.0Y-52.0
T4
X27.0Y-22.0
X31.0Y-22.0
X35.0Y-22.0
X39.0Y-22.0
X43.0Y-22.0
X47.0Y-22.0
X51.0Y-22.0
X55.0Y-22.0
X59.0Y-22.0
X63.0Y-22.0
X67.0Y-22.0
X71.0Y-22.0
X75.0Y-22.0
X79.0Y-22.0
X83.0Y-22.0
X87.0Y-22.0
X91.0Y-22.0
X95.0Y-22.0
X99.0Y-22.0
X103.0Y-22.0
T0
M30
