%TF.GenerationSoftware,KiCad,Pcbnew,(5.1.7)-1*%
%TF.CreationDate,2022-01-04T16:34:00+01:00*%
%TF.ProjectId,display-board,64697370-6c61-4792-9d62-6f6172642e6b,rev?*%
%TF.SameCoordinates,Original*%
%TF.FileFunction,Legend,Top*%
%TF.FilePolarity,Positive*%
%FSLAX46Y46*%
G04 Gerber Fmt 4.6, Leading zero omitted, Abs format (unit mm)*
G04 Created by KiCad (PCBNEW (5.1.7)-1) date 2022-01-04 16:34:00*
%MOMM*%
%LPD*%
G01*
G04 APERTURE LIST*
%ADD10C,0.150000*%
%ADD11C,0.120000*%
G04 APERTURE END LIST*
D10*
X84559523Y-38202380D02*
X84559523Y-37202380D01*
X84940476Y-37202380D01*
X85035714Y-37250000D01*
X85083333Y-37297619D01*
X85130952Y-37392857D01*
X85130952Y-37535714D01*
X85083333Y-37630952D01*
X85035714Y-37678571D01*
X84940476Y-37726190D01*
X84559523Y-37726190D01*
X85988095Y-37202380D02*
X85797619Y-37202380D01*
X85702380Y-37250000D01*
X85654761Y-37297619D01*
X85559523Y-37440476D01*
X85511904Y-37630952D01*
X85511904Y-38011904D01*
X85559523Y-38107142D01*
X85607142Y-38154761D01*
X85702380Y-38202380D01*
X85892857Y-38202380D01*
X85988095Y-38154761D01*
X86035714Y-38107142D01*
X86083333Y-38011904D01*
X86083333Y-37773809D01*
X86035714Y-37678571D01*
X85988095Y-37630952D01*
X85892857Y-37583333D01*
X85702380Y-37583333D01*
X85607142Y-37630952D01*
X85559523Y-37678571D01*
X85511904Y-37773809D01*
X86702380Y-37202380D02*
X86797619Y-37202380D01*
X86892857Y-37250000D01*
X86940476Y-37297619D01*
X86988095Y-37392857D01*
X87035714Y-37583333D01*
X87035714Y-37821428D01*
X86988095Y-38011904D01*
X86940476Y-38107142D01*
X86892857Y-38154761D01*
X86797619Y-38202380D01*
X86702380Y-38202380D01*
X86607142Y-38154761D01*
X86559523Y-38107142D01*
X86511904Y-38011904D01*
X86464285Y-37821428D01*
X86464285Y-37583333D01*
X86511904Y-37392857D01*
X86559523Y-37297619D01*
X86607142Y-37250000D01*
X86702380Y-37202380D01*
X87416666Y-37297619D02*
X87464285Y-37250000D01*
X87559523Y-37202380D01*
X87797619Y-37202380D01*
X87892857Y-37250000D01*
X87940476Y-37297619D01*
X87988095Y-37392857D01*
X87988095Y-37488095D01*
X87940476Y-37630952D01*
X87369047Y-38202380D01*
X87988095Y-38202380D01*
X105285714Y-46702380D02*
X104714285Y-46702380D01*
X105000000Y-46702380D02*
X105000000Y-45702380D01*
X104904761Y-45845238D01*
X104809523Y-45940476D01*
X104714285Y-45988095D01*
X102214285Y-45797619D02*
X102261904Y-45750000D01*
X102357142Y-45702380D01*
X102595238Y-45702380D01*
X102690476Y-45750000D01*
X102738095Y-45797619D01*
X102785714Y-45892857D01*
X102785714Y-45988095D01*
X102738095Y-46130952D01*
X102166666Y-46702380D01*
X102785714Y-46702380D01*
X99666666Y-45702380D02*
X100285714Y-45702380D01*
X99952380Y-46083333D01*
X100095238Y-46083333D01*
X100190476Y-46130952D01*
X100238095Y-46178571D01*
X100285714Y-46273809D01*
X100285714Y-46511904D01*
X100238095Y-46607142D01*
X100190476Y-46654761D01*
X100095238Y-46702380D01*
X99809523Y-46702380D01*
X99714285Y-46654761D01*
X99666666Y-46607142D01*
X97690476Y-46035714D02*
X97690476Y-46702380D01*
X97452380Y-45654761D02*
X97214285Y-46369047D01*
X97833333Y-46369047D01*
X95238095Y-45702380D02*
X94761904Y-45702380D01*
X94714285Y-46178571D01*
X94761904Y-46130952D01*
X94857142Y-46083333D01*
X95095238Y-46083333D01*
X95190476Y-46130952D01*
X95238095Y-46178571D01*
X95285714Y-46273809D01*
X95285714Y-46511904D01*
X95238095Y-46607142D01*
X95190476Y-46654761D01*
X95095238Y-46702380D01*
X94857142Y-46702380D01*
X94761904Y-46654761D01*
X94714285Y-46607142D01*
X92690476Y-45702380D02*
X92500000Y-45702380D01*
X92404761Y-45750000D01*
X92357142Y-45797619D01*
X92261904Y-45940476D01*
X92214285Y-46130952D01*
X92214285Y-46511904D01*
X92261904Y-46607142D01*
X92309523Y-46654761D01*
X92404761Y-46702380D01*
X92595238Y-46702380D01*
X92690476Y-46654761D01*
X92738095Y-46607142D01*
X92785714Y-46511904D01*
X92785714Y-46273809D01*
X92738095Y-46178571D01*
X92690476Y-46130952D01*
X92595238Y-46083333D01*
X92404761Y-46083333D01*
X92309523Y-46130952D01*
X92261904Y-46178571D01*
X92214285Y-46273809D01*
X89666666Y-45702380D02*
X90333333Y-45702380D01*
X89904761Y-46702380D01*
X87404761Y-46130952D02*
X87309523Y-46083333D01*
X87261904Y-46035714D01*
X87214285Y-45940476D01*
X87214285Y-45892857D01*
X87261904Y-45797619D01*
X87309523Y-45750000D01*
X87404761Y-45702380D01*
X87595238Y-45702380D01*
X87690476Y-45750000D01*
X87738095Y-45797619D01*
X87785714Y-45892857D01*
X87785714Y-45940476D01*
X87738095Y-46035714D01*
X87690476Y-46083333D01*
X87595238Y-46130952D01*
X87404761Y-46130952D01*
X87309523Y-46178571D01*
X87261904Y-46226190D01*
X87214285Y-46321428D01*
X87214285Y-46511904D01*
X87261904Y-46607142D01*
X87309523Y-46654761D01*
X87404761Y-46702380D01*
X87595238Y-46702380D01*
X87690476Y-46654761D01*
X87738095Y-46607142D01*
X87785714Y-46511904D01*
X87785714Y-46321428D01*
X87738095Y-46226190D01*
X87690476Y-46178571D01*
X87595238Y-46130952D01*
X82309523Y-46702380D02*
X81738095Y-46702380D01*
X82023809Y-46702380D02*
X82023809Y-45702380D01*
X81928571Y-45845238D01*
X81833333Y-45940476D01*
X81738095Y-45988095D01*
X82928571Y-45702380D02*
X83023809Y-45702380D01*
X83119047Y-45750000D01*
X83166666Y-45797619D01*
X83214285Y-45892857D01*
X83261904Y-46083333D01*
X83261904Y-46321428D01*
X83214285Y-46511904D01*
X83166666Y-46607142D01*
X83119047Y-46654761D01*
X83023809Y-46702380D01*
X82928571Y-46702380D01*
X82833333Y-46654761D01*
X82785714Y-46607142D01*
X82738095Y-46511904D01*
X82690476Y-46321428D01*
X82690476Y-46083333D01*
X82738095Y-45892857D01*
X82785714Y-45797619D01*
X82833333Y-45750000D01*
X82928571Y-45702380D01*
X84809523Y-46702380D02*
X85000000Y-46702380D01*
X85095238Y-46654761D01*
X85142857Y-46607142D01*
X85238095Y-46464285D01*
X85285714Y-46273809D01*
X85285714Y-45892857D01*
X85238095Y-45797619D01*
X85190476Y-45750000D01*
X85095238Y-45702380D01*
X84904761Y-45702380D01*
X84809523Y-45750000D01*
X84761904Y-45797619D01*
X84714285Y-45892857D01*
X84714285Y-46130952D01*
X84761904Y-46226190D01*
X84809523Y-46273809D01*
X84904761Y-46321428D01*
X85095238Y-46321428D01*
X85190476Y-46273809D01*
X85238095Y-46226190D01*
X85285714Y-46130952D01*
X79809523Y-46702380D02*
X79238095Y-46702380D01*
X79523809Y-46702380D02*
X79523809Y-45702380D01*
X79428571Y-45845238D01*
X79333333Y-45940476D01*
X79238095Y-45988095D01*
X80761904Y-46702380D02*
X80190476Y-46702380D01*
X80476190Y-46702380D02*
X80476190Y-45702380D01*
X80380952Y-45845238D01*
X80285714Y-45940476D01*
X80190476Y-45988095D01*
X77309523Y-46702380D02*
X76738095Y-46702380D01*
X77023809Y-46702380D02*
X77023809Y-45702380D01*
X76928571Y-45845238D01*
X76833333Y-45940476D01*
X76738095Y-45988095D01*
X77690476Y-45797619D02*
X77738095Y-45750000D01*
X77833333Y-45702380D01*
X78071428Y-45702380D01*
X78166666Y-45750000D01*
X78214285Y-45797619D01*
X78261904Y-45892857D01*
X78261904Y-45988095D01*
X78214285Y-46130952D01*
X77642857Y-46702380D01*
X78261904Y-46702380D01*
X74809523Y-46702380D02*
X74238095Y-46702380D01*
X74523809Y-46702380D02*
X74523809Y-45702380D01*
X74428571Y-45845238D01*
X74333333Y-45940476D01*
X74238095Y-45988095D01*
X75142857Y-45702380D02*
X75761904Y-45702380D01*
X75428571Y-46083333D01*
X75571428Y-46083333D01*
X75666666Y-46130952D01*
X75714285Y-46178571D01*
X75761904Y-46273809D01*
X75761904Y-46511904D01*
X75714285Y-46607142D01*
X75666666Y-46654761D01*
X75571428Y-46702380D01*
X75285714Y-46702380D01*
X75190476Y-46654761D01*
X75142857Y-46607142D01*
X72309523Y-46702380D02*
X71738095Y-46702380D01*
X72023809Y-46702380D02*
X72023809Y-45702380D01*
X71928571Y-45845238D01*
X71833333Y-45940476D01*
X71738095Y-45988095D01*
X73166666Y-46035714D02*
X73166666Y-46702380D01*
X72928571Y-45654761D02*
X72690476Y-46369047D01*
X73309523Y-46369047D01*
X69809523Y-46702380D02*
X69238095Y-46702380D01*
X69523809Y-46702380D02*
X69523809Y-45702380D01*
X69428571Y-45845238D01*
X69333333Y-45940476D01*
X69238095Y-45988095D01*
X70714285Y-45702380D02*
X70238095Y-45702380D01*
X70190476Y-46178571D01*
X70238095Y-46130952D01*
X70333333Y-46083333D01*
X70571428Y-46083333D01*
X70666666Y-46130952D01*
X70714285Y-46178571D01*
X70761904Y-46273809D01*
X70761904Y-46511904D01*
X70714285Y-46607142D01*
X70666666Y-46654761D01*
X70571428Y-46702380D01*
X70333333Y-46702380D01*
X70238095Y-46654761D01*
X70190476Y-46607142D01*
X67309523Y-46702380D02*
X66738095Y-46702380D01*
X67023809Y-46702380D02*
X67023809Y-45702380D01*
X66928571Y-45845238D01*
X66833333Y-45940476D01*
X66738095Y-45988095D01*
X68166666Y-45702380D02*
X67976190Y-45702380D01*
X67880952Y-45750000D01*
X67833333Y-45797619D01*
X67738095Y-45940476D01*
X67690476Y-46130952D01*
X67690476Y-46511904D01*
X67738095Y-46607142D01*
X67785714Y-46654761D01*
X67880952Y-46702380D01*
X68071428Y-46702380D01*
X68166666Y-46654761D01*
X68214285Y-46607142D01*
X68261904Y-46511904D01*
X68261904Y-46273809D01*
X68214285Y-46178571D01*
X68166666Y-46130952D01*
X68071428Y-46083333D01*
X67880952Y-46083333D01*
X67785714Y-46130952D01*
X67738095Y-46178571D01*
X67690476Y-46273809D01*
D11*
X66000000Y-45000000D02*
X66000000Y-39000000D01*
X106500000Y-45000000D02*
X106500000Y-39000000D01*
X66000000Y-45000000D02*
X106500000Y-45000000D01*
X106500000Y-44000000D02*
X66000000Y-44000000D01*
X106500000Y-39000000D02*
X66000000Y-39000000D01*
X36560000Y-42350000D02*
X26440000Y-42350000D01*
X36560000Y-39730000D02*
X26440000Y-39730000D01*
X36560000Y-42350000D02*
X36560000Y-39730000D01*
X26440000Y-42350000D02*
X26440000Y-39730000D01*
X32150000Y-33640000D02*
X32150000Y-37240000D01*
X32877205Y-33115816D02*
G75*
G03*
X32150000Y-33640000I1122795J-2324184D01*
G01*
X35098807Y-33083600D02*
G75*
G02*
X36600000Y-35440000I-1098807J-2356400D01*
G01*
X35098807Y-37796400D02*
G75*
G03*
X36600000Y-35440000I-1098807J2356400D01*
G01*
X32877205Y-37764184D02*
G75*
G02*
X32150000Y-37240000I1122795J2324184D01*
G01*
X27150000Y-33640000D02*
X27150000Y-37240000D01*
X27877205Y-33115816D02*
G75*
G03*
X27150000Y-33640000I1122795J-2324184D01*
G01*
X30098807Y-33083600D02*
G75*
G02*
X31600000Y-35440000I-1098807J-2356400D01*
G01*
X30098807Y-37796400D02*
G75*
G03*
X31600000Y-35440000I-1098807J2356400D01*
G01*
X27877205Y-37764184D02*
G75*
G02*
X27150000Y-37240000I1122795J2324184D01*
G01*
X55190000Y-39170000D02*
X57810000Y-39170000D01*
X57810000Y-39170000D02*
X57810000Y-32750000D01*
X57810000Y-32750000D02*
X55190000Y-32750000D01*
X55190000Y-32750000D02*
X55190000Y-39170000D01*
X56500000Y-40060000D02*
X56500000Y-39170000D01*
X56500000Y-31860000D02*
X56500000Y-32750000D01*
X58690000Y-39170000D02*
X61310000Y-39170000D01*
X61310000Y-39170000D02*
X61310000Y-32750000D01*
X61310000Y-32750000D02*
X58690000Y-32750000D01*
X58690000Y-32750000D02*
X58690000Y-39170000D01*
X60000000Y-40060000D02*
X60000000Y-39170000D01*
X60000000Y-31860000D02*
X60000000Y-32750000D01*
X45630000Y-46310000D02*
X45630000Y-43690000D01*
X45630000Y-43690000D02*
X39210000Y-43690000D01*
X39210000Y-43690000D02*
X39210000Y-46310000D01*
X39210000Y-46310000D02*
X45630000Y-46310000D01*
X46520000Y-45000000D02*
X45630000Y-45000000D01*
X38320000Y-45000000D02*
X39210000Y-45000000D01*
X32290000Y-46310000D02*
X32290000Y-43690000D01*
X32290000Y-43690000D02*
X25870000Y-43690000D01*
X25870000Y-43690000D02*
X25870000Y-46310000D01*
X25870000Y-46310000D02*
X32290000Y-46310000D01*
X33180000Y-45000000D02*
X32290000Y-45000000D01*
X24980000Y-45000000D02*
X25870000Y-45000000D01*
X22690000Y-39170000D02*
X25310000Y-39170000D01*
X25310000Y-39170000D02*
X25310000Y-32750000D01*
X25310000Y-32750000D02*
X22690000Y-32750000D01*
X22690000Y-32750000D02*
X22690000Y-39170000D01*
X24000000Y-40060000D02*
X24000000Y-39170000D01*
X24000000Y-31860000D02*
X24000000Y-32750000D01*
X37690000Y-39170000D02*
X40310000Y-39170000D01*
X40310000Y-39170000D02*
X40310000Y-32750000D01*
X40310000Y-32750000D02*
X37690000Y-32750000D01*
X37690000Y-32750000D02*
X37690000Y-39170000D01*
X39000000Y-40060000D02*
X39000000Y-39170000D01*
X39000000Y-31860000D02*
X39000000Y-32750000D01*
X50810000Y-32750000D02*
X48190000Y-32750000D01*
X48190000Y-32750000D02*
X48190000Y-39170000D01*
X48190000Y-39170000D02*
X50810000Y-39170000D01*
X50810000Y-39170000D02*
X50810000Y-32750000D01*
X49500000Y-31860000D02*
X49500000Y-32750000D01*
X49500000Y-40060000D02*
X49500000Y-39170000D01*
X54060000Y-32630000D02*
X51940000Y-32630000D01*
X51940000Y-32630000D02*
X51940000Y-36750000D01*
X51940000Y-36750000D02*
X54060000Y-36750000D01*
X54060000Y-36750000D02*
X54060000Y-32630000D01*
X53000000Y-31860000D02*
X53000000Y-32630000D01*
X53000000Y-37520000D02*
X53000000Y-36750000D01*
X54060000Y-33290000D02*
X51940000Y-33290000D01*
X41440000Y-36750000D02*
X43560000Y-36750000D01*
X43560000Y-36750000D02*
X43560000Y-32630000D01*
X43560000Y-32630000D02*
X41440000Y-32630000D01*
X41440000Y-32630000D02*
X41440000Y-36750000D01*
X42500000Y-37520000D02*
X42500000Y-36750000D01*
X42500000Y-31860000D02*
X42500000Y-32630000D01*
X41440000Y-36090000D02*
X43560000Y-36090000D01*
X44940000Y-36750000D02*
X47060000Y-36750000D01*
X47060000Y-36750000D02*
X47060000Y-32630000D01*
X47060000Y-32630000D02*
X44940000Y-32630000D01*
X44940000Y-32630000D02*
X44940000Y-36750000D01*
X46000000Y-37520000D02*
X46000000Y-36750000D01*
X46000000Y-31860000D02*
X46000000Y-32630000D01*
X44940000Y-36090000D02*
X47060000Y-36090000D01*
D10*
X31857142Y-30619047D02*
X31904761Y-30666666D01*
X31952380Y-30809523D01*
X31952380Y-30904761D01*
X31904761Y-31047619D01*
X31809523Y-31142857D01*
X31714285Y-31190476D01*
X31523809Y-31238095D01*
X31380952Y-31238095D01*
X31190476Y-31190476D01*
X31095238Y-31142857D01*
X31000000Y-31047619D01*
X30952380Y-30904761D01*
X30952380Y-30809523D01*
X31000000Y-30666666D01*
X31047619Y-30619047D01*
X30952380Y-30285714D02*
X30952380Y-29619047D01*
X31952380Y-30047619D01*
X30952380Y-29047619D02*
X30952380Y-28952380D01*
X31000000Y-28857142D01*
X31047619Y-28809523D01*
X31142857Y-28761904D01*
X31333333Y-28714285D01*
X31571428Y-28714285D01*
X31761904Y-28761904D01*
X31857142Y-28809523D01*
X31904761Y-28857142D01*
X31952380Y-28952380D01*
X31952380Y-29047619D01*
X31904761Y-29142857D01*
X31857142Y-29190476D01*
X31761904Y-29238095D01*
X31571428Y-29285714D01*
X31333333Y-29285714D01*
X31142857Y-29238095D01*
X31047619Y-29190476D01*
X31000000Y-29142857D01*
X30952380Y-29047619D01*
X31952380Y-27761904D02*
X31952380Y-28333333D01*
X31952380Y-28047619D02*
X30952380Y-28047619D01*
X31095238Y-28142857D01*
X31190476Y-28238095D01*
X31238095Y-28333333D01*
X33452380Y-31214285D02*
X33452380Y-30642857D01*
X34452380Y-30928571D02*
X33452380Y-30928571D01*
X33452380Y-30404761D02*
X33452380Y-29738095D01*
X34452380Y-30166666D01*
X33452380Y-29166666D02*
X33452380Y-29071428D01*
X33500000Y-28976190D01*
X33547619Y-28928571D01*
X33642857Y-28880952D01*
X33833333Y-28833333D01*
X34071428Y-28833333D01*
X34261904Y-28880952D01*
X34357142Y-28928571D01*
X34404761Y-28976190D01*
X34452380Y-29071428D01*
X34452380Y-29166666D01*
X34404761Y-29261904D01*
X34357142Y-29309523D01*
X34261904Y-29357142D01*
X34071428Y-29404761D01*
X33833333Y-29404761D01*
X33642857Y-29357142D01*
X33547619Y-29309523D01*
X33500000Y-29261904D01*
X33452380Y-29166666D01*
X33547619Y-28452380D02*
X33500000Y-28404761D01*
X33452380Y-28309523D01*
X33452380Y-28071428D01*
X33500000Y-27976190D01*
X33547619Y-27928571D01*
X33642857Y-27880952D01*
X33738095Y-27880952D01*
X33880952Y-27928571D01*
X34452380Y-28500000D01*
X34452380Y-27880952D01*
X28452380Y-31214285D02*
X28452380Y-30642857D01*
X29452380Y-30928571D02*
X28452380Y-30928571D01*
X28452380Y-30404761D02*
X28452380Y-29738095D01*
X29452380Y-30166666D01*
X28452380Y-29166666D02*
X28452380Y-29071428D01*
X28500000Y-28976190D01*
X28547619Y-28928571D01*
X28642857Y-28880952D01*
X28833333Y-28833333D01*
X29071428Y-28833333D01*
X29261904Y-28880952D01*
X29357142Y-28928571D01*
X29404761Y-28976190D01*
X29452380Y-29071428D01*
X29452380Y-29166666D01*
X29404761Y-29261904D01*
X29357142Y-29309523D01*
X29261904Y-29357142D01*
X29071428Y-29404761D01*
X28833333Y-29404761D01*
X28642857Y-29357142D01*
X28547619Y-29309523D01*
X28500000Y-29261904D01*
X28452380Y-29166666D01*
X29452380Y-27880952D02*
X29452380Y-28452380D01*
X29452380Y-28166666D02*
X28452380Y-28166666D01*
X28595238Y-28261904D01*
X28690476Y-28357142D01*
X28738095Y-28452380D01*
X56952380Y-28659047D02*
X56476190Y-28992380D01*
X56952380Y-29230476D02*
X55952380Y-29230476D01*
X55952380Y-28849523D01*
X56000000Y-28754285D01*
X56047619Y-28706666D01*
X56142857Y-28659047D01*
X56285714Y-28659047D01*
X56380952Y-28706666D01*
X56428571Y-28754285D01*
X56476190Y-28849523D01*
X56476190Y-29230476D01*
X55952380Y-28325714D02*
X55952380Y-27659047D01*
X56952380Y-28087619D01*
X55952380Y-27087619D02*
X55952380Y-26992380D01*
X56000000Y-26897142D01*
X56047619Y-26849523D01*
X56142857Y-26801904D01*
X56333333Y-26754285D01*
X56571428Y-26754285D01*
X56761904Y-26801904D01*
X56857142Y-26849523D01*
X56904761Y-26897142D01*
X56952380Y-26992380D01*
X56952380Y-27087619D01*
X56904761Y-27182857D01*
X56857142Y-27230476D01*
X56761904Y-27278095D01*
X56571428Y-27325714D01*
X56333333Y-27325714D01*
X56142857Y-27278095D01*
X56047619Y-27230476D01*
X56000000Y-27182857D01*
X55952380Y-27087619D01*
X55952380Y-26420952D02*
X55952380Y-25754285D01*
X56952380Y-26182857D01*
X60452380Y-28499047D02*
X59976190Y-28832380D01*
X60452380Y-29070476D02*
X59452380Y-29070476D01*
X59452380Y-28689523D01*
X59500000Y-28594285D01*
X59547619Y-28546666D01*
X59642857Y-28499047D01*
X59785714Y-28499047D01*
X59880952Y-28546666D01*
X59928571Y-28594285D01*
X59976190Y-28689523D01*
X59976190Y-29070476D01*
X59452380Y-28165714D02*
X59452380Y-27499047D01*
X60452380Y-27927619D01*
X59452380Y-26927619D02*
X59452380Y-26832380D01*
X59500000Y-26737142D01*
X59547619Y-26689523D01*
X59642857Y-26641904D01*
X59833333Y-26594285D01*
X60071428Y-26594285D01*
X60261904Y-26641904D01*
X60357142Y-26689523D01*
X60404761Y-26737142D01*
X60452380Y-26832380D01*
X60452380Y-26927619D01*
X60404761Y-27022857D01*
X60357142Y-27070476D01*
X60261904Y-27118095D01*
X60071428Y-27165714D01*
X59833333Y-27165714D01*
X59642857Y-27118095D01*
X59547619Y-27070476D01*
X59500000Y-27022857D01*
X59452380Y-26927619D01*
X59452380Y-25737142D02*
X59452380Y-25927619D01*
X59500000Y-26022857D01*
X59547619Y-26070476D01*
X59690476Y-26165714D01*
X59880952Y-26213333D01*
X60261904Y-26213333D01*
X60357142Y-26165714D01*
X60404761Y-26118095D01*
X60452380Y-26022857D01*
X60452380Y-25832380D01*
X60404761Y-25737142D01*
X60357142Y-25689523D01*
X60261904Y-25641904D01*
X60023809Y-25641904D01*
X59928571Y-25689523D01*
X59880952Y-25737142D01*
X59833333Y-25832380D01*
X59833333Y-26022857D01*
X59880952Y-26118095D01*
X59928571Y-26165714D01*
X60023809Y-26213333D01*
X41300952Y-47762380D02*
X40967619Y-47286190D01*
X40729523Y-47762380D02*
X40729523Y-46762380D01*
X41110476Y-46762380D01*
X41205714Y-46810000D01*
X41253333Y-46857619D01*
X41300952Y-46952857D01*
X41300952Y-47095714D01*
X41253333Y-47190952D01*
X41205714Y-47238571D01*
X41110476Y-47286190D01*
X40729523Y-47286190D01*
X41634285Y-46762380D02*
X42300952Y-46762380D01*
X41872380Y-47762380D01*
X42872380Y-46762380D02*
X42967619Y-46762380D01*
X43062857Y-46810000D01*
X43110476Y-46857619D01*
X43158095Y-46952857D01*
X43205714Y-47143333D01*
X43205714Y-47381428D01*
X43158095Y-47571904D01*
X43110476Y-47667142D01*
X43062857Y-47714761D01*
X42967619Y-47762380D01*
X42872380Y-47762380D01*
X42777142Y-47714761D01*
X42729523Y-47667142D01*
X42681904Y-47571904D01*
X42634285Y-47381428D01*
X42634285Y-47143333D01*
X42681904Y-46952857D01*
X42729523Y-46857619D01*
X42777142Y-46810000D01*
X42872380Y-46762380D01*
X44110476Y-46762380D02*
X43634285Y-46762380D01*
X43586666Y-47238571D01*
X43634285Y-47190952D01*
X43729523Y-47143333D01*
X43967619Y-47143333D01*
X44062857Y-47190952D01*
X44110476Y-47238571D01*
X44158095Y-47333809D01*
X44158095Y-47571904D01*
X44110476Y-47667142D01*
X44062857Y-47714761D01*
X43967619Y-47762380D01*
X43729523Y-47762380D01*
X43634285Y-47714761D01*
X43586666Y-47667142D01*
X27960952Y-47762380D02*
X27627619Y-47286190D01*
X27389523Y-47762380D02*
X27389523Y-46762380D01*
X27770476Y-46762380D01*
X27865714Y-46810000D01*
X27913333Y-46857619D01*
X27960952Y-46952857D01*
X27960952Y-47095714D01*
X27913333Y-47190952D01*
X27865714Y-47238571D01*
X27770476Y-47286190D01*
X27389523Y-47286190D01*
X28294285Y-46762380D02*
X28960952Y-46762380D01*
X28532380Y-47762380D01*
X29532380Y-46762380D02*
X29627619Y-46762380D01*
X29722857Y-46810000D01*
X29770476Y-46857619D01*
X29818095Y-46952857D01*
X29865714Y-47143333D01*
X29865714Y-47381428D01*
X29818095Y-47571904D01*
X29770476Y-47667142D01*
X29722857Y-47714761D01*
X29627619Y-47762380D01*
X29532380Y-47762380D01*
X29437142Y-47714761D01*
X29389523Y-47667142D01*
X29341904Y-47571904D01*
X29294285Y-47381428D01*
X29294285Y-47143333D01*
X29341904Y-46952857D01*
X29389523Y-46857619D01*
X29437142Y-46810000D01*
X29532380Y-46762380D01*
X30722857Y-47095714D02*
X30722857Y-47762380D01*
X30484761Y-46714761D02*
X30246666Y-47429047D01*
X30865714Y-47429047D01*
X24452380Y-28619047D02*
X23976190Y-28952380D01*
X24452380Y-29190476D02*
X23452380Y-29190476D01*
X23452380Y-28809523D01*
X23500000Y-28714285D01*
X23547619Y-28666666D01*
X23642857Y-28619047D01*
X23785714Y-28619047D01*
X23880952Y-28666666D01*
X23928571Y-28714285D01*
X23976190Y-28809523D01*
X23976190Y-29190476D01*
X23452380Y-28285714D02*
X23452380Y-27619047D01*
X24452380Y-28047619D01*
X23452380Y-27047619D02*
X23452380Y-26952380D01*
X23500000Y-26857142D01*
X23547619Y-26809523D01*
X23642857Y-26761904D01*
X23833333Y-26714285D01*
X24071428Y-26714285D01*
X24261904Y-26761904D01*
X24357142Y-26809523D01*
X24404761Y-26857142D01*
X24452380Y-26952380D01*
X24452380Y-27047619D01*
X24404761Y-27142857D01*
X24357142Y-27190476D01*
X24261904Y-27238095D01*
X24071428Y-27285714D01*
X23833333Y-27285714D01*
X23642857Y-27238095D01*
X23547619Y-27190476D01*
X23500000Y-27142857D01*
X23452380Y-27047619D01*
X23452380Y-26380952D02*
X23452380Y-25761904D01*
X23833333Y-26095238D01*
X23833333Y-25952380D01*
X23880952Y-25857142D01*
X23928571Y-25809523D01*
X24023809Y-25761904D01*
X24261904Y-25761904D01*
X24357142Y-25809523D01*
X24404761Y-25857142D01*
X24452380Y-25952380D01*
X24452380Y-26238095D01*
X24404761Y-26333333D01*
X24357142Y-26380952D01*
X39452380Y-28659047D02*
X38976190Y-28992380D01*
X39452380Y-29230476D02*
X38452380Y-29230476D01*
X38452380Y-28849523D01*
X38500000Y-28754285D01*
X38547619Y-28706666D01*
X38642857Y-28659047D01*
X38785714Y-28659047D01*
X38880952Y-28706666D01*
X38928571Y-28754285D01*
X38976190Y-28849523D01*
X38976190Y-29230476D01*
X38452380Y-28325714D02*
X38452380Y-27659047D01*
X39452380Y-28087619D01*
X38452380Y-27087619D02*
X38452380Y-26992380D01*
X38500000Y-26897142D01*
X38547619Y-26849523D01*
X38642857Y-26801904D01*
X38833333Y-26754285D01*
X39071428Y-26754285D01*
X39261904Y-26801904D01*
X39357142Y-26849523D01*
X39404761Y-26897142D01*
X39452380Y-26992380D01*
X39452380Y-27087619D01*
X39404761Y-27182857D01*
X39357142Y-27230476D01*
X39261904Y-27278095D01*
X39071428Y-27325714D01*
X38833333Y-27325714D01*
X38642857Y-27278095D01*
X38547619Y-27230476D01*
X38500000Y-27182857D01*
X38452380Y-27087619D01*
X38547619Y-26373333D02*
X38500000Y-26325714D01*
X38452380Y-26230476D01*
X38452380Y-25992380D01*
X38500000Y-25897142D01*
X38547619Y-25849523D01*
X38642857Y-25801904D01*
X38738095Y-25801904D01*
X38880952Y-25849523D01*
X39452380Y-26420952D01*
X39452380Y-25801904D01*
X49952380Y-28619047D02*
X49476190Y-28952380D01*
X49952380Y-29190476D02*
X48952380Y-29190476D01*
X48952380Y-28809523D01*
X49000000Y-28714285D01*
X49047619Y-28666666D01*
X49142857Y-28619047D01*
X49285714Y-28619047D01*
X49380952Y-28666666D01*
X49428571Y-28714285D01*
X49476190Y-28809523D01*
X49476190Y-29190476D01*
X48952380Y-28285714D02*
X48952380Y-27619047D01*
X49952380Y-28047619D01*
X48952380Y-27047619D02*
X48952380Y-26952380D01*
X49000000Y-26857142D01*
X49047619Y-26809523D01*
X49142857Y-26761904D01*
X49333333Y-26714285D01*
X49571428Y-26714285D01*
X49761904Y-26761904D01*
X49857142Y-26809523D01*
X49904761Y-26857142D01*
X49952380Y-26952380D01*
X49952380Y-27047619D01*
X49904761Y-27142857D01*
X49857142Y-27190476D01*
X49761904Y-27238095D01*
X49571428Y-27285714D01*
X49333333Y-27285714D01*
X49142857Y-27238095D01*
X49047619Y-27190476D01*
X49000000Y-27142857D01*
X48952380Y-27047619D01*
X49952380Y-25761904D02*
X49952380Y-26333333D01*
X49952380Y-26047619D02*
X48952380Y-26047619D01*
X49095238Y-26142857D01*
X49190476Y-26238095D01*
X49238095Y-26333333D01*
X53452380Y-29190476D02*
X52452380Y-29190476D01*
X52452380Y-28952380D01*
X52500000Y-28809523D01*
X52595238Y-28714285D01*
X52690476Y-28666666D01*
X52880952Y-28619047D01*
X53023809Y-28619047D01*
X53214285Y-28666666D01*
X53309523Y-28714285D01*
X53404761Y-28809523D01*
X53452380Y-28952380D01*
X53452380Y-29190476D01*
X52452380Y-28285714D02*
X52452380Y-27619047D01*
X53452380Y-28047619D01*
X52452380Y-27047619D02*
X52452380Y-26952380D01*
X52500000Y-26857142D01*
X52547619Y-26809523D01*
X52642857Y-26761904D01*
X52833333Y-26714285D01*
X53071428Y-26714285D01*
X53261904Y-26761904D01*
X53357142Y-26809523D01*
X53404761Y-26857142D01*
X53452380Y-26952380D01*
X53452380Y-27047619D01*
X53404761Y-27142857D01*
X53357142Y-27190476D01*
X53261904Y-27238095D01*
X53071428Y-27285714D01*
X52833333Y-27285714D01*
X52642857Y-27238095D01*
X52547619Y-27190476D01*
X52500000Y-27142857D01*
X52452380Y-27047619D01*
X52452380Y-26380952D02*
X52452380Y-25761904D01*
X52833333Y-26095238D01*
X52833333Y-25952380D01*
X52880952Y-25857142D01*
X52928571Y-25809523D01*
X53023809Y-25761904D01*
X53261904Y-25761904D01*
X53357142Y-25809523D01*
X53404761Y-25857142D01*
X53452380Y-25952380D01*
X53452380Y-26238095D01*
X53404761Y-26333333D01*
X53357142Y-26380952D01*
X42952380Y-29190476D02*
X41952380Y-29190476D01*
X41952380Y-28952380D01*
X42000000Y-28809523D01*
X42095238Y-28714285D01*
X42190476Y-28666666D01*
X42380952Y-28619047D01*
X42523809Y-28619047D01*
X42714285Y-28666666D01*
X42809523Y-28714285D01*
X42904761Y-28809523D01*
X42952380Y-28952380D01*
X42952380Y-29190476D01*
X41952380Y-28285714D02*
X41952380Y-27619047D01*
X42952380Y-28047619D01*
X41952380Y-27047619D02*
X41952380Y-26952380D01*
X42000000Y-26857142D01*
X42047619Y-26809523D01*
X42142857Y-26761904D01*
X42333333Y-26714285D01*
X42571428Y-26714285D01*
X42761904Y-26761904D01*
X42857142Y-26809523D01*
X42904761Y-26857142D01*
X42952380Y-26952380D01*
X42952380Y-27047619D01*
X42904761Y-27142857D01*
X42857142Y-27190476D01*
X42761904Y-27238095D01*
X42571428Y-27285714D01*
X42333333Y-27285714D01*
X42142857Y-27238095D01*
X42047619Y-27190476D01*
X42000000Y-27142857D01*
X41952380Y-27047619D01*
X42047619Y-26333333D02*
X42000000Y-26285714D01*
X41952380Y-26190476D01*
X41952380Y-25952380D01*
X42000000Y-25857142D01*
X42047619Y-25809523D01*
X42142857Y-25761904D01*
X42238095Y-25761904D01*
X42380952Y-25809523D01*
X42952380Y-26380952D01*
X42952380Y-25761904D01*
X46452380Y-29190476D02*
X45452380Y-29190476D01*
X45452380Y-28952380D01*
X45500000Y-28809523D01*
X45595238Y-28714285D01*
X45690476Y-28666666D01*
X45880952Y-28619047D01*
X46023809Y-28619047D01*
X46214285Y-28666666D01*
X46309523Y-28714285D01*
X46404761Y-28809523D01*
X46452380Y-28952380D01*
X46452380Y-29190476D01*
X45452380Y-28285714D02*
X45452380Y-27619047D01*
X46452380Y-28047619D01*
X45452380Y-27047619D02*
X45452380Y-26952380D01*
X45500000Y-26857142D01*
X45547619Y-26809523D01*
X45642857Y-26761904D01*
X45833333Y-26714285D01*
X46071428Y-26714285D01*
X46261904Y-26761904D01*
X46357142Y-26809523D01*
X46404761Y-26857142D01*
X46452380Y-26952380D01*
X46452380Y-27047619D01*
X46404761Y-27142857D01*
X46357142Y-27190476D01*
X46261904Y-27238095D01*
X46071428Y-27285714D01*
X45833333Y-27285714D01*
X45642857Y-27238095D01*
X45547619Y-27190476D01*
X45500000Y-27142857D01*
X45452380Y-27047619D01*
X46452380Y-25761904D02*
X46452380Y-26333333D01*
X46452380Y-26047619D02*
X45452380Y-26047619D01*
X45595238Y-26142857D01*
X45690476Y-26238095D01*
X45738095Y-26333333D01*
M02*
