%TF.GenerationSoftware,KiCad,Pcbnew,(5.1.7)-1*%
%TF.CreationDate,2022-01-04T16:34:00+01:00*%
%TF.ProjectId,display-board,64697370-6c61-4792-9d62-6f6172642e6b,rev?*%
%TF.SameCoordinates,Original*%
%TF.FileFunction,Copper,L2,Bot*%
%TF.FilePolarity,Positive*%
%FSLAX46Y46*%
G04 Gerber Fmt 4.6, Leading zero omitted, Abs format (unit mm)*
G04 Created by KiCad (PCBNEW (5.1.7)-1) date 2022-01-04 16:34:00*
%MOMM*%
%LPD*%
G01*
G04 APERTURE LIST*
%TA.AperFunction,ComponentPad*%
%ADD10R,2.000000X2.000000*%
%TD*%
%TA.AperFunction,ComponentPad*%
%ADD11C,2.000000*%
%TD*%
%TA.AperFunction,ComponentPad*%
%ADD12C,1.600000*%
%TD*%
%TA.AperFunction,ComponentPad*%
%ADD13C,1.520000*%
%TD*%
%TA.AperFunction,ComponentPad*%
%ADD14R,1.520000X1.520000*%
%TD*%
%TA.AperFunction,ComponentPad*%
%ADD15O,1.600000X1.600000*%
%TD*%
%TA.AperFunction,ComponentPad*%
%ADD16R,1.600000X1.600000*%
%TD*%
%TA.AperFunction,ViaPad*%
%ADD17C,0.800000*%
%TD*%
%TA.AperFunction,Conductor*%
%ADD18C,0.500000*%
%TD*%
G04 APERTURE END LIST*
D10*
X105000000Y-42500000D03*
D11*
X102500000Y-42500000D03*
X100000000Y-42500000D03*
X97500000Y-42500000D03*
X95000000Y-42500000D03*
X92500000Y-42500000D03*
X90000000Y-42500000D03*
X87500000Y-42500000D03*
X85000000Y-42500000D03*
X82500000Y-42500000D03*
X80000000Y-42500000D03*
X77500000Y-42500000D03*
X75000000Y-42500000D03*
X72500000Y-42500000D03*
X70000000Y-42500000D03*
X67500000Y-42500000D03*
X24000000Y-51400000D03*
X106000000Y-51400000D03*
X57000000Y-51100000D03*
X50000000Y-52000000D03*
D12*
X34000000Y-41040000D03*
X29000000Y-41040000D03*
D13*
X34000000Y-35440000D03*
X34000000Y-37980000D03*
D14*
X34000000Y-32900000D03*
D13*
X29000000Y-35440000D03*
X29000000Y-37980000D03*
D14*
X29000000Y-32900000D03*
D12*
X56500000Y-41040000D03*
D15*
X56500000Y-30880000D03*
D12*
X60000000Y-41040000D03*
D15*
X60000000Y-30880000D03*
D12*
X47500000Y-45000000D03*
D15*
X37340000Y-45000000D03*
D12*
X34160000Y-45000000D03*
D15*
X24000000Y-45000000D03*
D12*
X24000000Y-41040000D03*
D15*
X24000000Y-30880000D03*
D12*
X39000000Y-41040000D03*
D15*
X39000000Y-30880000D03*
D12*
X49500000Y-30880000D03*
D15*
X49500000Y-41040000D03*
D16*
X53000000Y-30880000D03*
D15*
X53000000Y-38500000D03*
D16*
X42500000Y-38500000D03*
D15*
X42500000Y-30880000D03*
D16*
X46000000Y-38500000D03*
D15*
X46000000Y-30880000D03*
D11*
X103000000Y-22000000D03*
X99000000Y-22000000D03*
X95000000Y-22000000D03*
X91000000Y-22000000D03*
X87000000Y-22000000D03*
X83000000Y-22000000D03*
X79000000Y-22000000D03*
X75000000Y-22000000D03*
X71000000Y-22000000D03*
X67000000Y-22000000D03*
X63000000Y-22000000D03*
X59000000Y-22000000D03*
X55000000Y-22000000D03*
X51000000Y-22000000D03*
X47000000Y-22000000D03*
X43000000Y-22000000D03*
X39000000Y-22000000D03*
X35000000Y-22000000D03*
X31000000Y-22000000D03*
X27000000Y-22000000D03*
D17*
X67900000Y-30500000D03*
D18*
X103000000Y-22000000D02*
X97700000Y-27300000D01*
X97700000Y-27300000D02*
X75900000Y-27300000D01*
X70000000Y-33200000D02*
X70000000Y-42500000D01*
X75900000Y-27300000D02*
X70000000Y-33200000D01*
X75610047Y-26599990D02*
X90400010Y-26599990D01*
X65500000Y-43500000D02*
X65500000Y-36710038D01*
X65500000Y-36710038D02*
X75610047Y-26599990D01*
X66500000Y-44500000D02*
X65500000Y-43500000D01*
X73000000Y-44500000D02*
X66500000Y-44500000D01*
X90400010Y-26599990D02*
X95000000Y-22000000D01*
X75000000Y-42500000D02*
X73000000Y-44500000D01*
X75320094Y-25899980D02*
X79100020Y-25899980D01*
X64799990Y-36420084D02*
X75320094Y-25899980D01*
X64799990Y-43789953D02*
X64799990Y-36420084D01*
X66210047Y-45200010D02*
X64799990Y-43789953D01*
X74799990Y-45200010D02*
X66210047Y-45200010D01*
X79100020Y-25899980D02*
X83000000Y-22000000D01*
X77500000Y-42500000D02*
X74799990Y-45200010D01*
X71000000Y-29230112D02*
X71000000Y-22000000D01*
X64099980Y-44079906D02*
X64099980Y-36130131D01*
X65400000Y-45379925D02*
X64099980Y-44079906D01*
X64099980Y-36130131D02*
X71000000Y-29230112D01*
X65920094Y-45900020D02*
X65400000Y-45379925D01*
X76599980Y-45900020D02*
X65920094Y-45900020D01*
X80000000Y-42500000D02*
X76599980Y-45900020D01*
X67900000Y-30500000D02*
X63500000Y-26100000D01*
X63000000Y-25600000D02*
X63500000Y-26100000D01*
X63000000Y-22000000D02*
X63000000Y-25600000D01*
X59000000Y-24000000D02*
X59000000Y-22000000D01*
X59000000Y-25500000D02*
X59000000Y-24000000D01*
X63399970Y-29899970D02*
X59000000Y-25500000D01*
X63399970Y-44369859D02*
X63399970Y-29899970D01*
X65630142Y-46600030D02*
X63399970Y-44369859D01*
X78399970Y-46600030D02*
X65630142Y-46600030D01*
X82500000Y-42500000D02*
X78399970Y-46600030D01*
X51000000Y-26000000D02*
X47000000Y-22000000D01*
X58510038Y-26000000D02*
X51000000Y-26000000D01*
X62699960Y-30189922D02*
X58510038Y-26000000D01*
X62699960Y-44659812D02*
X62699960Y-30189922D01*
X65340189Y-47300040D02*
X62699960Y-44659812D01*
X80199960Y-47300040D02*
X65340189Y-47300040D01*
X85000000Y-42500000D02*
X80199960Y-47300040D01*
X39000000Y-23880000D02*
X46000000Y-30880000D01*
X39000000Y-22000000D02*
X39000000Y-23880000D01*
X46000000Y-30880000D02*
X49500000Y-30880000D01*
X42500000Y-30880000D02*
X39000000Y-30880000D01*
X31000000Y-22880000D02*
X31000000Y-22000000D01*
X39000000Y-30880000D02*
X31000000Y-22880000D01*
X29000000Y-35440000D02*
X32000000Y-38440000D01*
X32000000Y-39040000D02*
X34000000Y-41040000D01*
X32000000Y-38440000D02*
X32000000Y-39040000D01*
X34000000Y-41040000D02*
X36000000Y-43040000D01*
X36000000Y-43660000D02*
X37340000Y-45000000D01*
X36000000Y-43040000D02*
X36000000Y-43660000D01*
X39000000Y-41040000D02*
X34000000Y-41040000D01*
X81999950Y-48000050D02*
X87500000Y-42500000D01*
X53000000Y-42000000D02*
X59000050Y-48000050D01*
X53000000Y-38500000D02*
X53000000Y-42000000D01*
X29000000Y-32900000D02*
X34000000Y-32900000D01*
X34000000Y-32900000D02*
X49900000Y-32900000D01*
X53000000Y-36000000D02*
X53000000Y-38500000D01*
X49900000Y-32900000D02*
X53000000Y-36000000D01*
X59000050Y-48000050D02*
X81999950Y-48000050D01*
M02*
