M48
; DRILL file {KiCad (5.1.7)-1} date 01/04/22 16:17:30
; FORMAT={-:-/ absolute / metric / decimal}
; #@! TF.CreationDate,2022-01-04T16:17:30+01:00
; #@! TF.GenerationSoftware,Kicad,Pcbnew,(5.1.7)-1
; #@! TF.FileFunction,Plated,1,2,PTH
FMAT,2
METRIC
T1C0.400
T2C0.800
T3C1.000
T4C1.050
T5C1.100
T6C1.200
T7C1.350
T8C1.500
T9C4.000
%
G90
G05
T1
X37.5Y-25.5
X37.5Y-99.5
X45.0Y-25.5
X45.0Y-99.5
X77.5Y-98.0
X82.0Y-34.5
X92.0Y-34.5
X93.5Y-57.0
X93.5Y-93.5
X111.0Y-22.5
X111.0Y-24.0
X190.3Y-73.3
X190.3Y-74.3
X190.3Y-75.3
X191.3Y-73.3
X191.3Y-74.3
X191.3Y-75.3
X192.3Y-73.3
X192.3Y-74.3
X192.3Y-75.3
X193.3Y-73.3
X193.3Y-74.3
X193.3Y-75.3
X193.72Y-81.1
X193.72Y-82.1
X193.72Y-83.1
X193.72Y-84.1
X193.72Y-85.1
X193.72Y-86.1
X194.3Y-73.3
X194.3Y-74.3
X194.3Y-75.3
X194.72Y-81.1
X194.72Y-82.1
X194.72Y-83.1
X194.72Y-84.1
X194.72Y-85.1
X194.72Y-86.1
X195.3Y-73.3
X195.3Y-74.3
X195.3Y-75.3
X195.72Y-79.1
X195.72Y-80.1
X195.72Y-81.1
X195.72Y-82.1
X195.72Y-83.1
X195.72Y-84.1
X195.72Y-85.1
X195.72Y-86.1
X196.3Y-73.3
X196.3Y-74.3
X196.3Y-75.3
X196.72Y-81.1
X196.72Y-82.1
X196.72Y-83.1
X196.72Y-84.1
X196.72Y-85.1
X196.72Y-86.1
X197.72Y-81.1
X197.72Y-82.1
X197.72Y-83.1
X197.72Y-84.1
X197.72Y-85.1
X197.72Y-86.1
X199.7Y-73.3
X199.7Y-74.3
X199.7Y-75.3
X200.7Y-73.3
X200.7Y-74.3
X200.7Y-75.3
X201.7Y-73.3
X201.7Y-74.3
X201.7Y-75.3
X202.7Y-73.3
X202.7Y-74.3
X202.7Y-75.3
X203.7Y-73.3
X203.7Y-74.3
X203.7Y-75.3
X204.7Y-73.3
X204.7Y-74.3
X204.7Y-75.3
X205.7Y-73.3
X205.7Y-74.3
X205.7Y-75.3
T2
X189.0Y-41.5
X189.0Y-51.66
X59.18Y-65.84
X59.18Y-76.0
X175.0Y-87.0
X180.0Y-87.0
X133.5Y-38.0
X136.04Y-38.0
X138.58Y-38.0
X51.72Y-81.0
X53.72Y-81.0
X68.22Y-34.5
X68.22Y-39.5
X154.84Y-90.5
X154.84Y-92.5
X59.18Y-29.34
X59.18Y-39.5
X37.0Y-87.16
X39.0Y-87.16
X63.84Y-91.0
X68.84Y-91.0
X24.38Y-71.84
X24.38Y-82.0
X63.84Y-49.5
X68.84Y-49.5
X72.38Y-91.0
X82.54Y-91.0
X182.5Y-96.5
X184.5Y-96.5
X103.5Y-43.0
X108.5Y-43.0
X159.92Y-90.5
X162.46Y-90.5
X165.0Y-90.5
X61.72Y-81.0
X64.26Y-81.0
X66.8Y-81.0
X69.34Y-81.0
X71.88Y-81.0
X74.42Y-81.0
X79.5Y-81.0
X135.0Y-78.5
X137.0Y-78.5
X72.38Y-54.5
X82.54Y-54.5
X42.0Y-63.34
X42.0Y-68.34
X61.72Y-44.5
X64.26Y-44.5
X66.8Y-44.5
X69.34Y-44.5
X71.88Y-44.5
X74.42Y-44.5
X79.5Y-44.5
X24.38Y-43.22
X24.38Y-53.38
X63.84Y-54.5
X68.84Y-54.5
X105.04Y-30.0
X107.04Y-30.0
X85.12Y-81.0
X87.12Y-81.0
X133.5Y-43.0
X138.5Y-43.0
X82.04Y-65.84
X82.04Y-76.0
X138.54Y-52.54
X138.54Y-62.7
X184.5Y-56.0
X184.5Y-66.16
X85.12Y-44.5
X87.12Y-44.5
X82.04Y-29.34
X82.04Y-39.5
X29.38Y-43.22
X29.38Y-53.38
X29.38Y-37.22
X29.38Y-39.22
X29.38Y-58.88
X29.38Y-61.42
X29.38Y-63.96
X29.38Y-66.5
X37.0Y-58.88
X37.0Y-61.42
X37.0Y-63.96
X37.0Y-66.5
X135.04Y-30.0
X137.04Y-30.0
X72.38Y-86.0
X77.38Y-86.0
X165.0Y-76.09
X165.0Y-86.25
X64.26Y-65.84
X64.26Y-76.0
X159.92Y-75.84
X159.92Y-86.0
X113.5Y-38.0
X116.04Y-38.0
X118.58Y-38.0
X92.0Y-44.5
X94.0Y-44.5
X72.38Y-49.5
X77.38Y-49.5
X64.26Y-29.34
X64.26Y-39.5
X27.38Y-87.16
X29.38Y-87.16
X42.0Y-58.88
X44.0Y-58.88
X58.0Y-86.0
X60.0Y-86.0
X37.0Y-72.0
X37.0Y-82.16
X154.84Y-75.84
X154.84Y-86.0
X58.68Y-96.0
X68.84Y-96.0
X170.0Y-96.5
X172.0Y-96.5
X125.04Y-30.0
X127.04Y-30.0
X123.5Y-38.0
X126.04Y-38.0
X128.58Y-38.0
X92.0Y-81.0
X94.0Y-81.0
X105.0Y-78.5
X107.0Y-78.5
X58.68Y-59.5
X68.84Y-59.5
X24.38Y-56.88
X24.38Y-61.88
X86.5Y-93.5
X88.5Y-93.5
X42.0Y-71.84
X42.0Y-82.0
X58.0Y-49.5
X60.0Y-49.5
X72.38Y-96.0
X82.54Y-96.0
X160.0Y-96.5
X165.0Y-96.5
X113.5Y-43.0
X118.5Y-43.0
X87.12Y-65.84
X87.12Y-76.0
X103.46Y-52.54
X103.46Y-62.7
X72.38Y-59.5
X82.54Y-59.5
X87.12Y-29.34
X87.12Y-39.5
X42.0Y-43.22
X42.0Y-53.38
X22.38Y-66.5
X24.38Y-66.5
X86.5Y-57.0
X88.5Y-57.0
X115.04Y-30.0
X117.04Y-30.0
X73.0Y-71.0
X73.0Y-76.0
X123.5Y-43.0
X128.5Y-43.0
X133.46Y-52.54
X133.46Y-62.7
X76.96Y-65.84
X76.96Y-76.0
X194.08Y-41.5
X194.08Y-51.66
X108.54Y-52.54
X108.54Y-62.7
X103.5Y-38.0
X106.04Y-38.0
X108.58Y-38.0
X51.72Y-44.5
X53.72Y-44.5
X73.0Y-34.5
X73.0Y-39.5
X76.96Y-29.34
X76.96Y-39.5
X37.0Y-43.22
X37.0Y-53.38
X37.0Y-37.22
X37.0Y-39.22
X63.84Y-86.0
X68.84Y-86.0
X29.38Y-72.0
X29.38Y-82.16
X68.22Y-71.0
X68.22Y-76.0
T3
X174.96Y-79.5
X177.5Y-79.5
X180.04Y-79.5
X196.9Y-93.0
X196.9Y-98.0
X52.5Y-105.0
X55.0Y-105.0
X57.5Y-105.0
X60.0Y-105.0
X52.5Y-20.0
X55.0Y-20.0
X57.5Y-20.0
X60.0Y-20.0
X189.0Y-36.0
X191.54Y-36.0
X194.08Y-36.0
X167.5Y-105.0
X170.0Y-105.0
X172.5Y-105.0
X70.0Y-105.0
X72.5Y-105.0
X75.0Y-105.0
X77.5Y-105.0
X103.46Y-67.0
X106.0Y-67.0
X108.54Y-67.0
X205.0Y-40.0
X205.0Y-42.5
X205.0Y-45.0
X70.0Y-20.0
X72.5Y-20.0
X75.0Y-20.0
X77.5Y-20.0
X133.46Y-67.0
X136.0Y-67.0
X138.54Y-67.0
T4
X40.0Y-20.0
X42.5Y-20.0
X182.5Y-105.0
X185.0Y-105.0
X40.0Y-105.0
X42.5Y-105.0
T5
X168.5Y-56.0
X168.5Y-66.16
X175.5Y-56.0
X175.5Y-66.16
X152.0Y-56.0
X152.0Y-66.16
X159.0Y-56.0
X159.0Y-66.16
X179.0Y-56.0
X179.0Y-66.16
X125.0Y-93.0
X125.0Y-103.16
X172.0Y-56.0
X172.0Y-66.16
X117.0Y-93.0
X117.0Y-103.16
X162.5Y-56.0
X162.5Y-66.16
X155.5Y-56.0
X155.5Y-66.16
T6
X125.0Y-50.0
X125.0Y-65.24
X103.5Y-93.0
X108.5Y-93.0
X125.0Y-72.16
X125.0Y-87.4
X117.0Y-72.16
X117.0Y-87.4
X198.0Y-60.0
X198.0Y-67.5
X191.5Y-27.5
X206.74Y-27.5
X117.0Y-50.0
X117.0Y-65.24
X133.5Y-93.0
X138.5Y-93.0
T7
X165.5Y-29.5
X165.5Y-34.5
X165.5Y-44.5
X165.5Y-49.5
X153.5Y-29.5
X153.5Y-34.5
X153.5Y-44.5
X153.5Y-49.5
X177.5Y-29.5
X177.5Y-34.5
X177.5Y-44.5
X177.5Y-49.5
T8
X162.5Y-19.0
X170.0Y-19.0
X177.5Y-19.0
X185.0Y-19.0
X192.5Y-19.0
T9
X22.5Y-106.0
T0
M30
