%TF.GenerationSoftware,KiCad,Pcbnew,(5.1.7)-1*%
%TF.CreationDate,2022-01-04T16:17:04+01:00*%
%TF.ProjectId,cr-17xx-psu-preamp-board,63722d31-3778-4782-9d70-73752d707265,rev?*%
%TF.SameCoordinates,Original*%
%TF.FileFunction,Soldermask,Top*%
%TF.FilePolarity,Negative*%
%FSLAX46Y46*%
G04 Gerber Fmt 4.6, Leading zero omitted, Abs format (unit mm)*
G04 Created by KiCad (PCBNEW (5.1.7)-1) date 2022-01-04 16:17:04*
%MOMM*%
%LPD*%
G01*
G04 APERTURE LIST*
%ADD10R,5.700000X1.700000*%
%ADD11C,1.600000*%
%ADD12O,1.600000X1.600000*%
%ADD13R,1.600000X1.600000*%
%ADD14R,1.800000X1.800000*%
%ADD15O,1.800000X1.800000*%
%ADD16R,1.750000X1.750000*%
%ADD17C,1.750000*%
%ADD18R,2.400000X1.600000*%
%ADD19O,2.400000X1.600000*%
%ADD20C,2.200000*%
%ADD21O,2.200000X2.200000*%
%ADD22O,2.400000X2.400000*%
%ADD23C,2.400000*%
%ADD24R,0.800000X2.200000*%
%ADD25R,5.800000X6.400000*%
%ADD26R,1.300000X1.500000*%
%ADD27R,2.500000X1.800000*%
%ADD28R,2.000000X2.000000*%
%ADD29C,2.000000*%
%ADD30R,1.250000X1.500000*%
%ADD31R,2.400000X2.400000*%
%ADD32C,1.520000*%
%ADD33R,1.520000X1.520000*%
%ADD34C,4.000000*%
%ADD35C,2.350000*%
%ADD36C,6.000000*%
G04 APERTURE END LIST*
D10*
X203500000Y-81250000D03*
X203500000Y-85750000D03*
D11*
X103460000Y-52540000D03*
D12*
X103460000Y-62700000D03*
D11*
X138540000Y-62700000D03*
D12*
X138540000Y-52540000D03*
D11*
X194080000Y-41500000D03*
D12*
X194080000Y-51660000D03*
D11*
X159920000Y-86000000D03*
D12*
X159920000Y-75840000D03*
D11*
X175000000Y-87000000D03*
X180000000Y-87000000D03*
D13*
X170000000Y-96500000D03*
D11*
X172000000Y-96500000D03*
D13*
X182500000Y-96500000D03*
D11*
X184500000Y-96500000D03*
X165000000Y-96500000D03*
X160000000Y-96500000D03*
D14*
X174960000Y-79500000D03*
D15*
X177500000Y-79500000D03*
X180040000Y-79500000D03*
D16*
X172500000Y-105000000D03*
D17*
X170000000Y-105000000D03*
X167500000Y-105000000D03*
D16*
X185000000Y-105000000D03*
D17*
X182500000Y-105000000D03*
D16*
X77500000Y-105000000D03*
D17*
X75000000Y-105000000D03*
X72500000Y-105000000D03*
X70000000Y-105000000D03*
D16*
X60000000Y-105000000D03*
D17*
X57500000Y-105000000D03*
X55000000Y-105000000D03*
X52500000Y-105000000D03*
D16*
X70000000Y-20000000D03*
D17*
X72500000Y-20000000D03*
X75000000Y-20000000D03*
X77500000Y-20000000D03*
D16*
X52500000Y-20000000D03*
D17*
X55000000Y-20000000D03*
X57500000Y-20000000D03*
X60000000Y-20000000D03*
D13*
X53720000Y-44500000D03*
D11*
X51720000Y-44500000D03*
D13*
X94000000Y-44500000D03*
D11*
X92000000Y-44500000D03*
D13*
X53720000Y-81000000D03*
D11*
X51720000Y-81000000D03*
D13*
X94000000Y-81000000D03*
D11*
X92000000Y-81000000D03*
D13*
X79500000Y-81000000D03*
D12*
X74420000Y-81000000D03*
X71880000Y-81000000D03*
X69340000Y-81000000D03*
X66800000Y-81000000D03*
X64260000Y-81000000D03*
X61720000Y-81000000D03*
D11*
X87120000Y-65840000D03*
D12*
X87120000Y-76000000D03*
D11*
X82040000Y-65840000D03*
D12*
X82040000Y-76000000D03*
D11*
X76960000Y-65840000D03*
D12*
X76960000Y-76000000D03*
D11*
X64260000Y-76000000D03*
D12*
X64260000Y-65840000D03*
D11*
X59180000Y-65840000D03*
D12*
X59180000Y-76000000D03*
D11*
X58680000Y-96000000D03*
D12*
X68840000Y-96000000D03*
D11*
X72380000Y-91000000D03*
D12*
X82540000Y-91000000D03*
D11*
X72380000Y-96000000D03*
D12*
X82540000Y-96000000D03*
D13*
X85120000Y-81000000D03*
D11*
X87120000Y-81000000D03*
X73000000Y-76000000D03*
X73000000Y-71000000D03*
X72380000Y-86000000D03*
X77380000Y-86000000D03*
X68220000Y-71000000D03*
X68220000Y-76000000D03*
X68840000Y-86000000D03*
X63840000Y-86000000D03*
D13*
X58000000Y-86000000D03*
D11*
X60000000Y-86000000D03*
X68840000Y-91000000D03*
X63840000Y-91000000D03*
D13*
X88500000Y-93500000D03*
D11*
X86500000Y-93500000D03*
D13*
X79500000Y-44500000D03*
D12*
X74420000Y-44500000D03*
X71880000Y-44500000D03*
X69340000Y-44500000D03*
X66800000Y-44500000D03*
X64260000Y-44500000D03*
X61720000Y-44500000D03*
D11*
X87120000Y-29340000D03*
D12*
X87120000Y-39500000D03*
D11*
X82040000Y-29340000D03*
D12*
X82040000Y-39500000D03*
D11*
X76960000Y-29340000D03*
D12*
X76960000Y-39500000D03*
D11*
X64260000Y-39500000D03*
D12*
X64260000Y-29340000D03*
D11*
X59180000Y-29340000D03*
D12*
X59180000Y-39500000D03*
D11*
X58680000Y-59500000D03*
D12*
X68840000Y-59500000D03*
D11*
X72380000Y-54500000D03*
D12*
X82540000Y-54500000D03*
D11*
X72380000Y-59500000D03*
D12*
X82540000Y-59500000D03*
D13*
X85120000Y-44500000D03*
D11*
X87120000Y-44500000D03*
X73000000Y-39500000D03*
X73000000Y-34500000D03*
X72380000Y-49500000D03*
X77380000Y-49500000D03*
X68220000Y-34500000D03*
X68220000Y-39500000D03*
X68840000Y-49500000D03*
X63840000Y-49500000D03*
D13*
X58000000Y-49500000D03*
D11*
X60000000Y-49500000D03*
X68840000Y-54500000D03*
X63840000Y-54500000D03*
D13*
X88500000Y-57000000D03*
D11*
X86500000Y-57000000D03*
D18*
X37000000Y-66500000D03*
D19*
X29380000Y-58880000D03*
X37000000Y-63960000D03*
X29380000Y-61420000D03*
X37000000Y-61420000D03*
X29380000Y-63960000D03*
X37000000Y-58880000D03*
X29380000Y-66500000D03*
D11*
X29380000Y-72000000D03*
D12*
X29380000Y-82160000D03*
D11*
X37000000Y-72000000D03*
D12*
X37000000Y-82160000D03*
D11*
X24380000Y-82000000D03*
D12*
X24380000Y-71840000D03*
D11*
X42000000Y-82000000D03*
D12*
X42000000Y-71840000D03*
D11*
X24380000Y-53380000D03*
D12*
X24380000Y-43220000D03*
D11*
X42000000Y-53380000D03*
D12*
X42000000Y-43220000D03*
D11*
X29380000Y-53380000D03*
D12*
X29380000Y-43220000D03*
D11*
X37000000Y-53380000D03*
D12*
X37000000Y-43220000D03*
D13*
X27380000Y-87160000D03*
D11*
X29380000Y-87160000D03*
D13*
X39000000Y-87160000D03*
D11*
X37000000Y-87160000D03*
X24380000Y-56880000D03*
X24380000Y-61880000D03*
X42000000Y-63340000D03*
X42000000Y-68340000D03*
D13*
X24380000Y-66500000D03*
D11*
X22380000Y-66500000D03*
D13*
X29380000Y-39220000D03*
D11*
X29380000Y-37220000D03*
D13*
X37000000Y-39220000D03*
D11*
X37000000Y-37220000D03*
D13*
X44000000Y-58880000D03*
D11*
X42000000Y-58880000D03*
D16*
X205000000Y-40000000D03*
D17*
X205000000Y-42500000D03*
X205000000Y-45000000D03*
D16*
X42500000Y-105000000D03*
D17*
X40000000Y-105000000D03*
D16*
X40000000Y-20000000D03*
D17*
X42500000Y-20000000D03*
D20*
X179000000Y-66160000D03*
D21*
X179000000Y-56000000D03*
D20*
X168500000Y-66160000D03*
D21*
X168500000Y-56000000D03*
D20*
X172000000Y-56000000D03*
D21*
X172000000Y-66160000D03*
D20*
X175500000Y-56000000D03*
D21*
X175500000Y-66160000D03*
D20*
X162500000Y-66160000D03*
D21*
X162500000Y-56000000D03*
D20*
X152000000Y-66160000D03*
D21*
X152000000Y-56000000D03*
D20*
X155500000Y-56000000D03*
D21*
X155500000Y-66160000D03*
D20*
X159000000Y-56000000D03*
D21*
X159000000Y-66160000D03*
D11*
X184500000Y-66160000D03*
D12*
X184500000Y-56000000D03*
D20*
X125000000Y-93000000D03*
D21*
X125000000Y-103160000D03*
D20*
X117000000Y-103160000D03*
D21*
X117000000Y-93000000D03*
D22*
X206740000Y-27500000D03*
D23*
X191500000Y-27500000D03*
D24*
X198000000Y-77300000D03*
X196860000Y-77300000D03*
X195720000Y-77300000D03*
X194580000Y-77300000D03*
X193440000Y-77300000D03*
D25*
X195720000Y-83600000D03*
D26*
X190720000Y-80350000D03*
X190720000Y-77650000D03*
X190720000Y-85850000D03*
X190720000Y-83150000D03*
D27*
X201220000Y-77500000D03*
X205220000Y-77500000D03*
D28*
X196900000Y-93000000D03*
D29*
X196900000Y-98000000D03*
D30*
X188220000Y-85750000D03*
X188220000Y-83250000D03*
D31*
X198000000Y-67500000D03*
D23*
X198000000Y-60000000D03*
D13*
X154840000Y-90500000D03*
D11*
X154840000Y-92500000D03*
D13*
X105000000Y-78500000D03*
D11*
X107000000Y-78500000D03*
D13*
X135000000Y-78500000D03*
D11*
X137000000Y-78500000D03*
D31*
X133500000Y-93000000D03*
D23*
X138500000Y-93000000D03*
X108500000Y-93000000D03*
D31*
X103500000Y-93000000D03*
D11*
X108540000Y-52540000D03*
D12*
X108540000Y-62700000D03*
D23*
X117000000Y-72160000D03*
D22*
X117000000Y-87400000D03*
D14*
X108540000Y-67000000D03*
D15*
X106000000Y-67000000D03*
X103460000Y-67000000D03*
D23*
X125000000Y-72160000D03*
D22*
X125000000Y-87400000D03*
D32*
X106040000Y-38000000D03*
X108580000Y-38000000D03*
D33*
X103500000Y-38000000D03*
D32*
X116040000Y-38000000D03*
X118580000Y-38000000D03*
D33*
X113500000Y-38000000D03*
D32*
X136040000Y-38000000D03*
X138580000Y-38000000D03*
D33*
X133500000Y-38000000D03*
D32*
X126040000Y-38000000D03*
X128580000Y-38000000D03*
D33*
X123500000Y-38000000D03*
D32*
X162460000Y-90500000D03*
X159920000Y-90500000D03*
D33*
X165000000Y-90500000D03*
D23*
X117000000Y-50000000D03*
D22*
X117000000Y-65240000D03*
D23*
X125000000Y-50000000D03*
D22*
X125000000Y-65240000D03*
D11*
X133460000Y-52540000D03*
D12*
X133460000Y-62700000D03*
D11*
X165000000Y-86250000D03*
D12*
X165000000Y-76090000D03*
D11*
X189000000Y-41500000D03*
D12*
X189000000Y-51660000D03*
D11*
X154840000Y-86000000D03*
D12*
X154840000Y-75840000D03*
D14*
X138540000Y-67000000D03*
D15*
X136000000Y-67000000D03*
X133460000Y-67000000D03*
D14*
X189000000Y-36000000D03*
D15*
X191540000Y-36000000D03*
X194080000Y-36000000D03*
D13*
X105040000Y-30000000D03*
D11*
X107040000Y-30000000D03*
D13*
X115040000Y-30000000D03*
D11*
X117040000Y-30000000D03*
D13*
X135040000Y-30000000D03*
D11*
X137040000Y-30000000D03*
D13*
X125040000Y-30000000D03*
D11*
X127040000Y-30000000D03*
X108500000Y-43000000D03*
X103500000Y-43000000D03*
X118500000Y-43000000D03*
X113500000Y-43000000D03*
X138500000Y-43000000D03*
X133500000Y-43000000D03*
X128500000Y-43000000D03*
X123500000Y-43000000D03*
D34*
X192500000Y-19000000D03*
X185000000Y-19000000D03*
X177500000Y-19000000D03*
X170000000Y-19000000D03*
X162500000Y-19000000D03*
D35*
X153500000Y-44500000D03*
X153500000Y-49500000D03*
X153500000Y-34500000D03*
X153500000Y-29500000D03*
X165500000Y-44500000D03*
X165500000Y-49500000D03*
X165500000Y-34500000D03*
X165500000Y-29500000D03*
X177500000Y-44500000D03*
X177500000Y-49500000D03*
X177500000Y-34500000D03*
X177500000Y-29500000D03*
D34*
X22500000Y-19000000D03*
X202500000Y-19000000D03*
X202500000Y-106000000D03*
D36*
X22500000Y-106000000D03*
M02*
