%TF.GenerationSoftware,KiCad,Pcbnew,(5.1.7)-1*%
%TF.CreationDate,2022-01-04T16:17:04+01:00*%
%TF.ProjectId,cr-17xx-psu-preamp-board,63722d31-3778-4782-9d70-73752d707265,rev?*%
%TF.SameCoordinates,Original*%
%TF.FileFunction,Profile,NP*%
%FSLAX46Y46*%
G04 Gerber Fmt 4.6, Leading zero omitted, Abs format (unit mm)*
G04 Created by KiCad (PCBNEW (5.1.7)-1) date 2022-01-04 16:17:04*
%MOMM*%
%LPD*%
G01*
G04 APERTURE LIST*
%TA.AperFunction,Profile*%
%ADD10C,0.050000*%
%TD*%
G04 APERTURE END LIST*
D10*
X184750000Y-84000000D02*
G75*
G03*
X184750000Y-84000000I-1500000J0D01*
G01*
X173250000Y-79500000D02*
G75*
G03*
X173250000Y-79500000I-1500000J0D01*
G01*
X184750000Y-79500000D02*
G75*
G03*
X184750000Y-79500000I-1500000J0D01*
G01*
X173250000Y-84000000D02*
G75*
G03*
X173250000Y-84000000I-1500000J0D01*
G01*
X187250000Y-40500000D02*
G75*
G03*
X187250000Y-40500000I-1500000J0D01*
G01*
X198750000Y-40500000D02*
G75*
G03*
X198750000Y-40500000I-1500000J0D01*
G01*
X198750000Y-36000000D02*
G75*
G03*
X198750000Y-36000000I-1500000J0D01*
G01*
X187250000Y-36000000D02*
G75*
G03*
X187250000Y-36000000I-1500000J0D01*
G01*
X113250000Y-62500000D02*
G75*
G03*
X113250000Y-62500000I-1500000J0D01*
G01*
X101750000Y-62500000D02*
G75*
G03*
X101750000Y-62500000I-1500000J0D01*
G01*
X101750000Y-67000000D02*
G75*
G03*
X101750000Y-67000000I-1500000J0D01*
G01*
X113250000Y-67000000D02*
G75*
G03*
X113250000Y-67000000I-1500000J0D01*
G01*
X131750000Y-62500000D02*
G75*
G03*
X131750000Y-62500000I-1500000J0D01*
G01*
X131750000Y-67000000D02*
G75*
G03*
X131750000Y-67000000I-1500000J0D01*
G01*
X143250000Y-67000000D02*
G75*
G03*
X143250000Y-67000000I-1500000J0D01*
G01*
X143250000Y-62500000D02*
G75*
G03*
X143250000Y-62500000I-1500000J0D01*
G01*
X203990000Y-27500000D02*
G75*
G03*
X203990000Y-27500000I-1750000J0D01*
G01*
X197750000Y-27500000D02*
G75*
G03*
X197750000Y-27500000I-1750000J0D01*
G01*
X118750000Y-60740000D02*
G75*
G03*
X118750000Y-60740000I-1750000J0D01*
G01*
X126750000Y-60740000D02*
G75*
G03*
X126750000Y-60740000I-1750000J0D01*
G01*
X126750000Y-54500000D02*
G75*
G03*
X126750000Y-54500000I-1750000J0D01*
G01*
X118750000Y-54500000D02*
G75*
G03*
X118750000Y-54500000I-1750000J0D01*
G01*
X126750000Y-76660000D02*
G75*
G03*
X126750000Y-76660000I-1750000J0D01*
G01*
X126750000Y-82900000D02*
G75*
G03*
X126750000Y-82900000I-1750000J0D01*
G01*
X118750000Y-82900000D02*
G75*
G03*
X118750000Y-82900000I-1750000J0D01*
G01*
X118750000Y-76660000D02*
G75*
G03*
X118750000Y-76660000I-1750000J0D01*
G01*
X15000000Y-110000000D02*
X15000000Y-15000000D01*
X210000000Y-110000000D02*
X15000000Y-110000000D01*
X210000000Y-15000000D02*
X210000000Y-110000000D01*
X15000000Y-15000000D02*
X210000000Y-15000000D01*
M02*
