G04 #@! TF.GenerationSoftware,KiCad,Pcbnew,(5.1.7)-1*
G04 #@! TF.CreationDate,2021-11-13T23:39:05+01:00*
G04 #@! TF.ProjectId,psu-module-positive,7073752d-6d6f-4647-956c-652d706f7369,rev?*
G04 #@! TF.SameCoordinates,Original*
G04 #@! TF.FileFunction,Copper,L2,Bot*
G04 #@! TF.FilePolarity,Positive*
%FSLAX46Y46*%
G04 Gerber Fmt 4.6, Leading zero omitted, Abs format (unit mm)*
G04 Created by KiCad (PCBNEW (5.1.7)-1) date 2021-11-13 23:39:05*
%MOMM*%
%LPD*%
G01*
G04 APERTURE LIST*
G04 #@! TA.AperFunction,ComponentPad*
%ADD10C,1.200000*%
G04 #@! TD*
G04 #@! TA.AperFunction,ComponentPad*
%ADD11R,1.700000X1.700000*%
G04 #@! TD*
G04 #@! TA.AperFunction,ComponentPad*
%ADD12O,1.700000X1.700000*%
G04 #@! TD*
G04 #@! TA.AperFunction,ViaPad*
%ADD13C,0.800000*%
G04 #@! TD*
G04 #@! TA.AperFunction,Conductor*
%ADD14C,0.250000*%
G04 #@! TD*
G04 #@! TA.AperFunction,Conductor*
%ADD15C,0.750000*%
G04 #@! TD*
G04 #@! TA.AperFunction,Conductor*
%ADD16C,0.254000*%
G04 #@! TD*
G04 #@! TA.AperFunction,Conductor*
%ADD17C,0.100000*%
G04 #@! TD*
G04 APERTURE END LIST*
D10*
X22000000Y-20500000D03*
X19000000Y-20500000D03*
X22000000Y-18500000D03*
X19000000Y-18500000D03*
D11*
X25040000Y-25750000D03*
D12*
X22500000Y-25750000D03*
X19960000Y-25750000D03*
D13*
X17500000Y-29000000D03*
X14500000Y-7000000D03*
X14500000Y-8000000D03*
X14500000Y-9000000D03*
X30500000Y-7000000D03*
X30500000Y-8000000D03*
X30500000Y-9000000D03*
X14500000Y-10000000D03*
X14500000Y-11000000D03*
X14500000Y-13000000D03*
X14500000Y-14000000D03*
X14500000Y-15000000D03*
X30500000Y-10000000D03*
X30500000Y-11000000D03*
X30500000Y-12000000D03*
X30500000Y-13000000D03*
X30500000Y-14000000D03*
X30500000Y-15000000D03*
X30500000Y-16000000D03*
X30500000Y-17000000D03*
X30500000Y-18000000D03*
X30500000Y-19000000D03*
X30500000Y-20000000D03*
X30500000Y-21000000D03*
X30500000Y-22000000D03*
X30500000Y-23000000D03*
X30500000Y-25000000D03*
X30500000Y-24000000D03*
X30500000Y-26000000D03*
X30500000Y-27000000D03*
X30500000Y-28000000D03*
X30500000Y-29000000D03*
X30500000Y-30000000D03*
X14500000Y-30000000D03*
X14500000Y-29000000D03*
X14500000Y-28000000D03*
X14500000Y-27000000D03*
X14500000Y-26000000D03*
X14500000Y-25000000D03*
X14500000Y-24000000D03*
X14500000Y-23000000D03*
X14500000Y-22000000D03*
X14500000Y-21000000D03*
X14500000Y-19000000D03*
X14500000Y-17000000D03*
X14500000Y-16000000D03*
X14500000Y-18000000D03*
X14500000Y-12000000D03*
X27500000Y-29000000D03*
X19500000Y-29000000D03*
X20500000Y-29000000D03*
X21500000Y-29000000D03*
X22500000Y-29000000D03*
X23500000Y-29000000D03*
X24500000Y-29000000D03*
X25500000Y-29000000D03*
X26500000Y-29000000D03*
X27500000Y-30000000D03*
X15500000Y-6000000D03*
X16500000Y-6000000D03*
X17500000Y-6000000D03*
X18500000Y-6000000D03*
X19500000Y-6000000D03*
X20500000Y-6000000D03*
X21500000Y-6000000D03*
X22500000Y-6000000D03*
X23500000Y-6000000D03*
X24500000Y-6000000D03*
X25500000Y-6000000D03*
X26500000Y-6000000D03*
X27500000Y-6000000D03*
X28500000Y-6000000D03*
X29500000Y-6000000D03*
X30500000Y-31000000D03*
X30500000Y-32000000D03*
X30500000Y-33000000D03*
X14500000Y-31000000D03*
X14500000Y-32000000D03*
X14500000Y-33000000D03*
X15500000Y-34000000D03*
X16500000Y-34000000D03*
X17500000Y-33000000D03*
X17500000Y-32000000D03*
X17500000Y-31000000D03*
X17500000Y-30000000D03*
X27500000Y-33000000D03*
X27500000Y-32000000D03*
X27500000Y-31000000D03*
X29500000Y-34000000D03*
X18500000Y-29000000D03*
X28500000Y-34000000D03*
X14500000Y-20000000D03*
X22000000Y-16750000D03*
X15750000Y-12450000D03*
X20250000Y-16750000D03*
D14*
X19950000Y-12450000D02*
X15750000Y-12450000D01*
X22000000Y-14500000D02*
X19950000Y-12450000D01*
X22000000Y-16750000D02*
X22000000Y-14500000D01*
D15*
X20500000Y-17700000D02*
X20250000Y-17450000D01*
X20500000Y-21600000D02*
X20500000Y-17700000D01*
X20250000Y-17450000D02*
X20250000Y-16750000D01*
X19960000Y-22140000D02*
X20500000Y-21600000D01*
X19960000Y-25750000D02*
X19960000Y-22140000D01*
D16*
X30840000Y-6273381D02*
X30840001Y-29967571D01*
X30836807Y-30000000D01*
X30849550Y-30129383D01*
X30887290Y-30253793D01*
X30948575Y-30368450D01*
X30953950Y-30375000D01*
X30948575Y-30381550D01*
X30887290Y-30496207D01*
X30849550Y-30620617D01*
X30836807Y-30750000D01*
X30840000Y-30782420D01*
X30840001Y-32217571D01*
X30836807Y-32250000D01*
X30849550Y-32379383D01*
X30887290Y-32503793D01*
X30948575Y-32618450D01*
X30953950Y-32625000D01*
X30948575Y-32631550D01*
X30887290Y-32746207D01*
X30849550Y-32870617D01*
X30836807Y-33000000D01*
X30840001Y-33032429D01*
X30840000Y-33726619D01*
X30226620Y-34340000D01*
X27773381Y-34340000D01*
X27160000Y-33726620D01*
X27160000Y-30032419D01*
X27163193Y-30000000D01*
X27150450Y-29870617D01*
X27112710Y-29746207D01*
X27051425Y-29631550D01*
X26968948Y-29531052D01*
X26868450Y-29448575D01*
X26753793Y-29387290D01*
X26629383Y-29349550D01*
X26532419Y-29340000D01*
X26500000Y-29336807D01*
X26467581Y-29340000D01*
X18532419Y-29340000D01*
X18500000Y-29336807D01*
X18467581Y-29340000D01*
X18370617Y-29349550D01*
X18246207Y-29387290D01*
X18131550Y-29448575D01*
X18031052Y-29531052D01*
X17948575Y-29631550D01*
X17887290Y-29746207D01*
X17849550Y-29870617D01*
X17836807Y-30000000D01*
X17840000Y-30032419D01*
X17840001Y-33726618D01*
X17226620Y-34340000D01*
X14773381Y-34340000D01*
X14160000Y-33726620D01*
X14160000Y-12348061D01*
X14715000Y-12348061D01*
X14715000Y-12551939D01*
X14754774Y-12751898D01*
X14832795Y-12940256D01*
X14946063Y-13109774D01*
X15090226Y-13253937D01*
X15259744Y-13367205D01*
X15448102Y-13445226D01*
X15648061Y-13485000D01*
X15851939Y-13485000D01*
X16051898Y-13445226D01*
X16240256Y-13367205D01*
X16409774Y-13253937D01*
X16453711Y-13210000D01*
X19635199Y-13210000D01*
X21240001Y-14814803D01*
X21240000Y-16046289D01*
X21196063Y-16090226D01*
X21125000Y-16196580D01*
X21053937Y-16090226D01*
X20909774Y-15946063D01*
X20740256Y-15832795D01*
X20551898Y-15754774D01*
X20351939Y-15715000D01*
X20148061Y-15715000D01*
X19948102Y-15754774D01*
X19759744Y-15832795D01*
X19590226Y-15946063D01*
X19446063Y-16090226D01*
X19332795Y-16259744D01*
X19254774Y-16448102D01*
X19215000Y-16648061D01*
X19215000Y-16851939D01*
X19240000Y-16977623D01*
X19240000Y-17288544D01*
X19121637Y-17265000D01*
X18878363Y-17265000D01*
X18639764Y-17312460D01*
X18415008Y-17405557D01*
X18212733Y-17540713D01*
X18040713Y-17712733D01*
X17905557Y-17915008D01*
X17812460Y-18139764D01*
X17765000Y-18378363D01*
X17765000Y-18621637D01*
X17812460Y-18860236D01*
X17905557Y-19084992D01*
X18040713Y-19287267D01*
X18212733Y-19459287D01*
X18273664Y-19500000D01*
X18212733Y-19540713D01*
X18040713Y-19712733D01*
X17905557Y-19915008D01*
X17812460Y-20139764D01*
X17765000Y-20378363D01*
X17765000Y-20621637D01*
X17812460Y-20860236D01*
X17905557Y-21084992D01*
X18040713Y-21287267D01*
X18212733Y-21459287D01*
X18415008Y-21594443D01*
X18639764Y-21687540D01*
X18878363Y-21735000D01*
X19031252Y-21735000D01*
X19022368Y-21751621D01*
X18964615Y-21942006D01*
X18945114Y-22140000D01*
X18950001Y-22189618D01*
X18950000Y-24659893D01*
X18806525Y-24803368D01*
X18644010Y-25046589D01*
X18532068Y-25316842D01*
X18475000Y-25603740D01*
X18475000Y-25896260D01*
X18532068Y-26183158D01*
X18644010Y-26453411D01*
X18806525Y-26696632D01*
X19013368Y-26903475D01*
X19256589Y-27065990D01*
X19526842Y-27177932D01*
X19813740Y-27235000D01*
X20106260Y-27235000D01*
X20393158Y-27177932D01*
X20663411Y-27065990D01*
X20906632Y-26903475D01*
X21113475Y-26696632D01*
X21235195Y-26514466D01*
X21304822Y-26631355D01*
X21499731Y-26847588D01*
X21733080Y-27021641D01*
X21995901Y-27146825D01*
X22143110Y-27191476D01*
X22373000Y-27070155D01*
X22373000Y-25877000D01*
X22353000Y-25877000D01*
X22353000Y-25623000D01*
X22373000Y-25623000D01*
X22373000Y-24429845D01*
X22627000Y-24429845D01*
X22627000Y-25623000D01*
X22647000Y-25623000D01*
X22647000Y-25877000D01*
X22627000Y-25877000D01*
X22627000Y-27070155D01*
X22856890Y-27191476D01*
X23004099Y-27146825D01*
X23266920Y-27021641D01*
X23500269Y-26847588D01*
X23576034Y-26763534D01*
X23600498Y-26844180D01*
X23659463Y-26954494D01*
X23738815Y-27051185D01*
X23835506Y-27130537D01*
X23945820Y-27189502D01*
X24065518Y-27225812D01*
X24190000Y-27238072D01*
X25890000Y-27238072D01*
X26014482Y-27225812D01*
X26134180Y-27189502D01*
X26244494Y-27130537D01*
X26341185Y-27051185D01*
X26420537Y-26954494D01*
X26479502Y-26844180D01*
X26515812Y-26724482D01*
X26528072Y-26600000D01*
X26528072Y-24900000D01*
X26515812Y-24775518D01*
X26479502Y-24655820D01*
X26420537Y-24545506D01*
X26341185Y-24448815D01*
X26244494Y-24369463D01*
X26134180Y-24310498D01*
X26014482Y-24274188D01*
X25890000Y-24261928D01*
X24190000Y-24261928D01*
X24065518Y-24274188D01*
X23945820Y-24310498D01*
X23835506Y-24369463D01*
X23738815Y-24448815D01*
X23659463Y-24545506D01*
X23600498Y-24655820D01*
X23576034Y-24736466D01*
X23500269Y-24652412D01*
X23266920Y-24478359D01*
X23004099Y-24353175D01*
X22856890Y-24308524D01*
X22627000Y-24429845D01*
X22373000Y-24429845D01*
X22143110Y-24308524D01*
X21995901Y-24353175D01*
X21733080Y-24478359D01*
X21499731Y-24652412D01*
X21304822Y-24868645D01*
X21235195Y-24985534D01*
X21113475Y-24803368D01*
X20970000Y-24659893D01*
X20970000Y-22558354D01*
X21179089Y-22349265D01*
X21217633Y-22317633D01*
X21343847Y-22163840D01*
X21437632Y-21988380D01*
X21495385Y-21797994D01*
X21510000Y-21649608D01*
X21510000Y-21649606D01*
X21511497Y-21634410D01*
X21639764Y-21687540D01*
X21878363Y-21735000D01*
X22121637Y-21735000D01*
X22360236Y-21687540D01*
X22584992Y-21594443D01*
X22787267Y-21459287D01*
X22959287Y-21287267D01*
X23094443Y-21084992D01*
X23187540Y-20860236D01*
X23235000Y-20621637D01*
X23235000Y-20378363D01*
X23187540Y-20139764D01*
X23094443Y-19915008D01*
X22959287Y-19712733D01*
X22787267Y-19540713D01*
X22726336Y-19500000D01*
X22787267Y-19459287D01*
X22959287Y-19287267D01*
X23094443Y-19084992D01*
X23187540Y-18860236D01*
X23235000Y-18621637D01*
X23235000Y-18378363D01*
X23187540Y-18139764D01*
X23094443Y-17915008D01*
X22959287Y-17712733D01*
X22787267Y-17540713D01*
X22718768Y-17494943D01*
X22803937Y-17409774D01*
X22917205Y-17240256D01*
X22995226Y-17051898D01*
X23035000Y-16851939D01*
X23035000Y-16648061D01*
X22995226Y-16448102D01*
X22917205Y-16259744D01*
X22803937Y-16090226D01*
X22760000Y-16046289D01*
X22760000Y-14537323D01*
X22763676Y-14500000D01*
X22760000Y-14462677D01*
X22760000Y-14462667D01*
X22749003Y-14351014D01*
X22705546Y-14207753D01*
X22634974Y-14075724D01*
X22540001Y-13959999D01*
X22511003Y-13936201D01*
X20513804Y-11939003D01*
X20490001Y-11909999D01*
X20374276Y-11815026D01*
X20242247Y-11744454D01*
X20098986Y-11700997D01*
X19987333Y-11690000D01*
X19987322Y-11690000D01*
X19950000Y-11686324D01*
X19912678Y-11690000D01*
X16453711Y-11690000D01*
X16409774Y-11646063D01*
X16240256Y-11532795D01*
X16051898Y-11454774D01*
X15851939Y-11415000D01*
X15648061Y-11415000D01*
X15448102Y-11454774D01*
X15259744Y-11532795D01*
X15090226Y-11646063D01*
X14946063Y-11790226D01*
X14832795Y-11959744D01*
X14754774Y-12148102D01*
X14715000Y-12348061D01*
X14160000Y-12348061D01*
X14160000Y-6273380D01*
X14773381Y-5660000D01*
X30226620Y-5660000D01*
X30840000Y-6273381D01*
G04 #@! TA.AperFunction,Conductor*
D17*
G36*
X30840000Y-6273381D02*
G01*
X30840001Y-29967571D01*
X30836807Y-30000000D01*
X30849550Y-30129383D01*
X30887290Y-30253793D01*
X30948575Y-30368450D01*
X30953950Y-30375000D01*
X30948575Y-30381550D01*
X30887290Y-30496207D01*
X30849550Y-30620617D01*
X30836807Y-30750000D01*
X30840000Y-30782420D01*
X30840001Y-32217571D01*
X30836807Y-32250000D01*
X30849550Y-32379383D01*
X30887290Y-32503793D01*
X30948575Y-32618450D01*
X30953950Y-32625000D01*
X30948575Y-32631550D01*
X30887290Y-32746207D01*
X30849550Y-32870617D01*
X30836807Y-33000000D01*
X30840001Y-33032429D01*
X30840000Y-33726619D01*
X30226620Y-34340000D01*
X27773381Y-34340000D01*
X27160000Y-33726620D01*
X27160000Y-30032419D01*
X27163193Y-30000000D01*
X27150450Y-29870617D01*
X27112710Y-29746207D01*
X27051425Y-29631550D01*
X26968948Y-29531052D01*
X26868450Y-29448575D01*
X26753793Y-29387290D01*
X26629383Y-29349550D01*
X26532419Y-29340000D01*
X26500000Y-29336807D01*
X26467581Y-29340000D01*
X18532419Y-29340000D01*
X18500000Y-29336807D01*
X18467581Y-29340000D01*
X18370617Y-29349550D01*
X18246207Y-29387290D01*
X18131550Y-29448575D01*
X18031052Y-29531052D01*
X17948575Y-29631550D01*
X17887290Y-29746207D01*
X17849550Y-29870617D01*
X17836807Y-30000000D01*
X17840000Y-30032419D01*
X17840001Y-33726618D01*
X17226620Y-34340000D01*
X14773381Y-34340000D01*
X14160000Y-33726620D01*
X14160000Y-12348061D01*
X14715000Y-12348061D01*
X14715000Y-12551939D01*
X14754774Y-12751898D01*
X14832795Y-12940256D01*
X14946063Y-13109774D01*
X15090226Y-13253937D01*
X15259744Y-13367205D01*
X15448102Y-13445226D01*
X15648061Y-13485000D01*
X15851939Y-13485000D01*
X16051898Y-13445226D01*
X16240256Y-13367205D01*
X16409774Y-13253937D01*
X16453711Y-13210000D01*
X19635199Y-13210000D01*
X21240001Y-14814803D01*
X21240000Y-16046289D01*
X21196063Y-16090226D01*
X21125000Y-16196580D01*
X21053937Y-16090226D01*
X20909774Y-15946063D01*
X20740256Y-15832795D01*
X20551898Y-15754774D01*
X20351939Y-15715000D01*
X20148061Y-15715000D01*
X19948102Y-15754774D01*
X19759744Y-15832795D01*
X19590226Y-15946063D01*
X19446063Y-16090226D01*
X19332795Y-16259744D01*
X19254774Y-16448102D01*
X19215000Y-16648061D01*
X19215000Y-16851939D01*
X19240000Y-16977623D01*
X19240000Y-17288544D01*
X19121637Y-17265000D01*
X18878363Y-17265000D01*
X18639764Y-17312460D01*
X18415008Y-17405557D01*
X18212733Y-17540713D01*
X18040713Y-17712733D01*
X17905557Y-17915008D01*
X17812460Y-18139764D01*
X17765000Y-18378363D01*
X17765000Y-18621637D01*
X17812460Y-18860236D01*
X17905557Y-19084992D01*
X18040713Y-19287267D01*
X18212733Y-19459287D01*
X18273664Y-19500000D01*
X18212733Y-19540713D01*
X18040713Y-19712733D01*
X17905557Y-19915008D01*
X17812460Y-20139764D01*
X17765000Y-20378363D01*
X17765000Y-20621637D01*
X17812460Y-20860236D01*
X17905557Y-21084992D01*
X18040713Y-21287267D01*
X18212733Y-21459287D01*
X18415008Y-21594443D01*
X18639764Y-21687540D01*
X18878363Y-21735000D01*
X19031252Y-21735000D01*
X19022368Y-21751621D01*
X18964615Y-21942006D01*
X18945114Y-22140000D01*
X18950001Y-22189618D01*
X18950000Y-24659893D01*
X18806525Y-24803368D01*
X18644010Y-25046589D01*
X18532068Y-25316842D01*
X18475000Y-25603740D01*
X18475000Y-25896260D01*
X18532068Y-26183158D01*
X18644010Y-26453411D01*
X18806525Y-26696632D01*
X19013368Y-26903475D01*
X19256589Y-27065990D01*
X19526842Y-27177932D01*
X19813740Y-27235000D01*
X20106260Y-27235000D01*
X20393158Y-27177932D01*
X20663411Y-27065990D01*
X20906632Y-26903475D01*
X21113475Y-26696632D01*
X21235195Y-26514466D01*
X21304822Y-26631355D01*
X21499731Y-26847588D01*
X21733080Y-27021641D01*
X21995901Y-27146825D01*
X22143110Y-27191476D01*
X22373000Y-27070155D01*
X22373000Y-25877000D01*
X22353000Y-25877000D01*
X22353000Y-25623000D01*
X22373000Y-25623000D01*
X22373000Y-24429845D01*
X22627000Y-24429845D01*
X22627000Y-25623000D01*
X22647000Y-25623000D01*
X22647000Y-25877000D01*
X22627000Y-25877000D01*
X22627000Y-27070155D01*
X22856890Y-27191476D01*
X23004099Y-27146825D01*
X23266920Y-27021641D01*
X23500269Y-26847588D01*
X23576034Y-26763534D01*
X23600498Y-26844180D01*
X23659463Y-26954494D01*
X23738815Y-27051185D01*
X23835506Y-27130537D01*
X23945820Y-27189502D01*
X24065518Y-27225812D01*
X24190000Y-27238072D01*
X25890000Y-27238072D01*
X26014482Y-27225812D01*
X26134180Y-27189502D01*
X26244494Y-27130537D01*
X26341185Y-27051185D01*
X26420537Y-26954494D01*
X26479502Y-26844180D01*
X26515812Y-26724482D01*
X26528072Y-26600000D01*
X26528072Y-24900000D01*
X26515812Y-24775518D01*
X26479502Y-24655820D01*
X26420537Y-24545506D01*
X26341185Y-24448815D01*
X26244494Y-24369463D01*
X26134180Y-24310498D01*
X26014482Y-24274188D01*
X25890000Y-24261928D01*
X24190000Y-24261928D01*
X24065518Y-24274188D01*
X23945820Y-24310498D01*
X23835506Y-24369463D01*
X23738815Y-24448815D01*
X23659463Y-24545506D01*
X23600498Y-24655820D01*
X23576034Y-24736466D01*
X23500269Y-24652412D01*
X23266920Y-24478359D01*
X23004099Y-24353175D01*
X22856890Y-24308524D01*
X22627000Y-24429845D01*
X22373000Y-24429845D01*
X22143110Y-24308524D01*
X21995901Y-24353175D01*
X21733080Y-24478359D01*
X21499731Y-24652412D01*
X21304822Y-24868645D01*
X21235195Y-24985534D01*
X21113475Y-24803368D01*
X20970000Y-24659893D01*
X20970000Y-22558354D01*
X21179089Y-22349265D01*
X21217633Y-22317633D01*
X21343847Y-22163840D01*
X21437632Y-21988380D01*
X21495385Y-21797994D01*
X21510000Y-21649608D01*
X21510000Y-21649606D01*
X21511497Y-21634410D01*
X21639764Y-21687540D01*
X21878363Y-21735000D01*
X22121637Y-21735000D01*
X22360236Y-21687540D01*
X22584992Y-21594443D01*
X22787267Y-21459287D01*
X22959287Y-21287267D01*
X23094443Y-21084992D01*
X23187540Y-20860236D01*
X23235000Y-20621637D01*
X23235000Y-20378363D01*
X23187540Y-20139764D01*
X23094443Y-19915008D01*
X22959287Y-19712733D01*
X22787267Y-19540713D01*
X22726336Y-19500000D01*
X22787267Y-19459287D01*
X22959287Y-19287267D01*
X23094443Y-19084992D01*
X23187540Y-18860236D01*
X23235000Y-18621637D01*
X23235000Y-18378363D01*
X23187540Y-18139764D01*
X23094443Y-17915008D01*
X22959287Y-17712733D01*
X22787267Y-17540713D01*
X22718768Y-17494943D01*
X22803937Y-17409774D01*
X22917205Y-17240256D01*
X22995226Y-17051898D01*
X23035000Y-16851939D01*
X23035000Y-16648061D01*
X22995226Y-16448102D01*
X22917205Y-16259744D01*
X22803937Y-16090226D01*
X22760000Y-16046289D01*
X22760000Y-14537323D01*
X22763676Y-14500000D01*
X22760000Y-14462677D01*
X22760000Y-14462667D01*
X22749003Y-14351014D01*
X22705546Y-14207753D01*
X22634974Y-14075724D01*
X22540001Y-13959999D01*
X22511003Y-13936201D01*
X20513804Y-11939003D01*
X20490001Y-11909999D01*
X20374276Y-11815026D01*
X20242247Y-11744454D01*
X20098986Y-11700997D01*
X19987333Y-11690000D01*
X19987322Y-11690000D01*
X19950000Y-11686324D01*
X19912678Y-11690000D01*
X16453711Y-11690000D01*
X16409774Y-11646063D01*
X16240256Y-11532795D01*
X16051898Y-11454774D01*
X15851939Y-11415000D01*
X15648061Y-11415000D01*
X15448102Y-11454774D01*
X15259744Y-11532795D01*
X15090226Y-11646063D01*
X14946063Y-11790226D01*
X14832795Y-11959744D01*
X14754774Y-12148102D01*
X14715000Y-12348061D01*
X14160000Y-12348061D01*
X14160000Y-6273380D01*
X14773381Y-5660000D01*
X30226620Y-5660000D01*
X30840000Y-6273381D01*
G37*
G04 #@! TD.AperFunction*
M02*
