%TF.GenerationSoftware,KiCad,Pcbnew,(5.1.7)-1*%
%TF.CreationDate,2022-01-04T16:45:12+01:00*%
%TF.ProjectId,psu-module-positive,7073752d-6d6f-4647-956c-652d706f7369,rev?*%
%TF.SameCoordinates,Original*%
%TF.FileFunction,Legend,Top*%
%TF.FilePolarity,Positive*%
%FSLAX46Y46*%
G04 Gerber Fmt 4.6, Leading zero omitted, Abs format (unit mm)*
G04 Created by KiCad (PCBNEW (5.1.7)-1) date 2022-01-04 16:45:12*
%MOMM*%
%LPD*%
G01*
G04 APERTURE LIST*
%ADD10C,0.150000*%
%ADD11C,0.120000*%
%ADD12R,0.700000X1.300000*%
%ADD13C,1.200000*%
%ADD14R,1.000000X1.250000*%
%ADD15R,1.700000X1.700000*%
%ADD16O,1.700000X1.700000*%
%ADD17R,2.500000X1.800000*%
%ADD18R,1.000000X1.600000*%
%ADD19R,1.560000X0.650000*%
%ADD20R,1.700000X5.700000*%
G04 APERTURE END LIST*
D10*
X19904761Y-18952380D02*
X20095238Y-18952380D01*
X20190476Y-19000000D01*
X20285714Y-19095238D01*
X20333333Y-19285714D01*
X20333333Y-19619047D01*
X20285714Y-19809523D01*
X20190476Y-19904761D01*
X20095238Y-19952380D01*
X19904761Y-19952380D01*
X19809523Y-19904761D01*
X19714285Y-19809523D01*
X19666666Y-19619047D01*
X19666666Y-19285714D01*
X19714285Y-19095238D01*
X19809523Y-19000000D01*
X19904761Y-18952380D01*
X21333333Y-19952380D02*
X21000000Y-19476190D01*
X20761904Y-19952380D02*
X20761904Y-18952380D01*
X21142857Y-18952380D01*
X21238095Y-19000000D01*
X21285714Y-19047619D01*
X21333333Y-19142857D01*
X21333333Y-19285714D01*
X21285714Y-19380952D01*
X21238095Y-19428571D01*
X21142857Y-19476190D01*
X20761904Y-19476190D01*
D11*
X19750000Y-20500000D02*
X21250000Y-20500000D01*
X19750000Y-18500000D02*
X21250000Y-18500000D01*
X17600000Y-14630000D02*
X16400000Y-14630000D01*
X16400000Y-12870000D02*
X17600000Y-12870000D01*
X21100000Y-14630000D02*
X19900000Y-14630000D01*
X19900000Y-12870000D02*
X21100000Y-12870000D01*
X24000000Y-21350000D02*
X25000000Y-21350000D01*
X25000000Y-19650000D02*
X24000000Y-19650000D01*
X23900000Y-17620000D02*
X25100000Y-17620000D01*
X25100000Y-19380000D02*
X23900000Y-19380000D01*
X15900000Y-17620000D02*
X17100000Y-17620000D01*
X17100000Y-19380000D02*
X15900000Y-19380000D01*
X15900000Y-19620000D02*
X17100000Y-19620000D01*
X17100000Y-21380000D02*
X15900000Y-21380000D01*
X28750000Y-21650000D02*
X27750000Y-21650000D01*
X27750000Y-23350000D02*
X28750000Y-23350000D01*
X28750000Y-19650000D02*
X27750000Y-19650000D01*
X27750000Y-21350000D02*
X28750000Y-21350000D01*
X26310000Y-24480000D02*
X26310000Y-25750000D01*
X25040000Y-24480000D02*
X26310000Y-24480000D01*
X19580000Y-26792929D02*
X19580000Y-27190000D01*
X20340000Y-26792929D02*
X20340000Y-27190000D01*
X19580000Y-35850000D02*
X19580000Y-29850000D01*
X20340000Y-35850000D02*
X19580000Y-35850000D01*
X20340000Y-29850000D02*
X20340000Y-35850000D01*
X21230000Y-27190000D02*
X21230000Y-29850000D01*
X22120000Y-26792929D02*
X22120000Y-27190000D01*
X22880000Y-26792929D02*
X22880000Y-27190000D01*
X22120000Y-35850000D02*
X22120000Y-29850000D01*
X22880000Y-35850000D02*
X22120000Y-35850000D01*
X22880000Y-29850000D02*
X22880000Y-35850000D01*
X23770000Y-27190000D02*
X23770000Y-29850000D01*
X24660000Y-26860000D02*
X24660000Y-27190000D01*
X25420000Y-26860000D02*
X25420000Y-27190000D01*
X24760000Y-29850000D02*
X24760000Y-35850000D01*
X24880000Y-29850000D02*
X24880000Y-35850000D01*
X25000000Y-29850000D02*
X25000000Y-35850000D01*
X25120000Y-29850000D02*
X25120000Y-35850000D01*
X25240000Y-29850000D02*
X25240000Y-35850000D01*
X25360000Y-29850000D02*
X25360000Y-35850000D01*
X24660000Y-35850000D02*
X24660000Y-29850000D01*
X25420000Y-35850000D02*
X24660000Y-35850000D01*
X25420000Y-29850000D02*
X25420000Y-35850000D01*
X26370000Y-29850000D02*
X26370000Y-27190000D01*
X18630000Y-29850000D02*
X26370000Y-29850000D01*
X18630000Y-27190000D02*
X18630000Y-29850000D01*
X26370000Y-27190000D02*
X18630000Y-27190000D01*
X22850000Y-6850000D02*
X28250000Y-6850000D01*
X22850000Y-10150000D02*
X28250000Y-10150000D01*
X22850000Y-6850000D02*
X22850000Y-10150000D01*
X28750000Y-17650000D02*
X27750000Y-17650000D01*
X27750000Y-19350000D02*
X28750000Y-19350000D01*
X18250000Y-8600000D02*
X19250000Y-8600000D01*
X19250000Y-6900000D02*
X18250000Y-6900000D01*
X18750000Y-15230000D02*
X16750000Y-15230000D01*
X16750000Y-17270000D02*
X18750000Y-17270000D01*
X17850000Y-12360000D02*
X19650000Y-12360000D01*
X19650000Y-9140000D02*
X16700000Y-9140000D01*
X25850000Y-16800000D02*
X26650000Y-16800000D01*
X25850000Y-11200000D02*
X26650000Y-11200000D01*
%LPC*%
D12*
X17950000Y-13750000D03*
X16050000Y-13750000D03*
X21450000Y-13750000D03*
X19550000Y-13750000D03*
D13*
X22000000Y-20500000D03*
X19000000Y-20500000D03*
X22000000Y-18500000D03*
X19000000Y-18500000D03*
D14*
X25500000Y-20500000D03*
X23500000Y-20500000D03*
D12*
X25450000Y-18500000D03*
X23550000Y-18500000D03*
X17450000Y-18500000D03*
X15550000Y-18500000D03*
X17450000Y-20500000D03*
X15550000Y-20500000D03*
D14*
X27250000Y-22500000D03*
X29250000Y-22500000D03*
X27250000Y-20500000D03*
X29250000Y-20500000D03*
D15*
X25040000Y-25750000D03*
D16*
X22500000Y-25750000D03*
X19960000Y-25750000D03*
D17*
X28250000Y-8500000D03*
X24250000Y-8500000D03*
D14*
X27250000Y-18500000D03*
X29250000Y-18500000D03*
X19750000Y-7750000D03*
X17750000Y-7750000D03*
D18*
X16250000Y-16250000D03*
X19250000Y-16250000D03*
D19*
X17400000Y-9800000D03*
X17400000Y-10750000D03*
X17400000Y-11700000D03*
X20100000Y-11700000D03*
X20100000Y-9800000D03*
X20100000Y-10750000D03*
D20*
X24000000Y-14000000D03*
X28500000Y-14000000D03*
M02*
