M48
; DRILL file {KiCad (5.1.7)-1} date 01/04/22 16:45:17
; FORMAT={-:-/ absolute / metric / decimal}
; #@! TF.CreationDate,2022-01-04T16:45:17+01:00
; #@! TF.GenerationSoftware,Kicad,Pcbnew,(5.1.7)-1
; #@! TF.FileFunction,Plated,1,2,PTH
FMAT,2
METRIC
T1C0.400
T2C0.800
T3C1.000
%
G90
G05
T1
X14.5Y-7.0
X14.5Y-8.0
X14.5Y-9.0
X14.5Y-10.0
X14.5Y-11.0
X14.5Y-12.0
X14.5Y-13.0
X14.5Y-14.0
X14.5Y-15.0
X14.5Y-16.0
X14.5Y-17.0
X14.5Y-18.0
X14.5Y-19.0
X14.5Y-20.0
X14.5Y-21.0
X14.5Y-22.0
X14.5Y-23.0
X14.5Y-24.0
X14.5Y-25.0
X14.5Y-26.0
X14.5Y-27.0
X14.5Y-28.0
X14.5Y-29.0
X14.5Y-30.0
X14.5Y-31.0
X14.5Y-32.0
X14.5Y-33.0
X15.5Y-6.0
X15.5Y-34.0
X15.75Y-11.7
X16.5Y-6.0
X16.5Y-34.0
X17.5Y-6.0
X17.5Y-29.0
X17.5Y-30.0
X17.5Y-31.0
X17.5Y-32.0
X17.5Y-33.0
X18.5Y-6.0
X18.5Y-29.0
X19.5Y-6.0
X19.5Y-29.0
X20.5Y-6.0
X20.5Y-16.25
X20.5Y-29.0
X21.5Y-6.0
X21.5Y-29.0
X22.0Y-16.75
X22.5Y-6.0
X22.5Y-29.0
X23.5Y-6.0
X23.5Y-29.0
X24.5Y-6.0
X24.5Y-29.0
X25.5Y-6.0
X25.5Y-29.0
X26.5Y-6.0
X26.5Y-29.0
X27.5Y-6.0
X27.5Y-29.0
X27.5Y-30.0
X27.5Y-31.0
X27.5Y-32.0
X27.5Y-33.0
X28.5Y-6.0
X28.5Y-34.0
X29.5Y-6.0
X29.5Y-34.0
X30.5Y-7.0
X30.5Y-8.0
X30.5Y-9.0
X30.5Y-10.0
X30.5Y-11.0
X30.5Y-12.0
X30.5Y-13.0
X30.5Y-14.0
X30.5Y-15.0
X30.5Y-16.0
X30.5Y-17.0
X30.5Y-18.0
X30.5Y-19.0
X30.5Y-20.0
X30.5Y-21.0
X30.5Y-22.0
X30.5Y-23.0
X30.5Y-24.0
X30.5Y-25.0
X30.5Y-26.0
X30.5Y-27.0
X30.5Y-28.0
X30.5Y-29.0
X30.5Y-30.0
X30.5Y-31.0
X30.5Y-32.0
X30.5Y-33.0
T2
X19.0Y-18.5
X22.0Y-18.5
X19.0Y-20.5
X22.0Y-20.5
T3
X19.96Y-25.75
X22.5Y-25.75
X25.04Y-25.75
T0
M30
