G04 #@! TF.GenerationSoftware,KiCad,Pcbnew,(5.1.7)-1*
G04 #@! TF.CreationDate,2021-11-13T23:39:05+01:00*
G04 #@! TF.ProjectId,psu-module-positive,7073752d-6d6f-4647-956c-652d706f7369,rev?*
G04 #@! TF.SameCoordinates,Original*
G04 #@! TF.FileFunction,Copper,L1,Top*
G04 #@! TF.FilePolarity,Positive*
%FSLAX46Y46*%
G04 Gerber Fmt 4.6, Leading zero omitted, Abs format (unit mm)*
G04 Created by KiCad (PCBNEW (5.1.7)-1) date 2021-11-13 23:39:05*
%MOMM*%
%LPD*%
G01*
G04 APERTURE LIST*
G04 #@! TA.AperFunction,ComponentPad*
%ADD10C,1.200000*%
G04 #@! TD*
G04 #@! TA.AperFunction,SMDPad,CuDef*
%ADD11R,1.000000X1.250000*%
G04 #@! TD*
G04 #@! TA.AperFunction,SMDPad,CuDef*
%ADD12R,0.700000X1.300000*%
G04 #@! TD*
G04 #@! TA.AperFunction,ComponentPad*
%ADD13R,1.700000X1.700000*%
G04 #@! TD*
G04 #@! TA.AperFunction,ComponentPad*
%ADD14O,1.700000X1.700000*%
G04 #@! TD*
G04 #@! TA.AperFunction,SMDPad,CuDef*
%ADD15R,2.500000X1.800000*%
G04 #@! TD*
G04 #@! TA.AperFunction,SMDPad,CuDef*
%ADD16R,1.000000X1.600000*%
G04 #@! TD*
G04 #@! TA.AperFunction,SMDPad,CuDef*
%ADD17R,1.560000X0.650000*%
G04 #@! TD*
G04 #@! TA.AperFunction,SMDPad,CuDef*
%ADD18R,1.700000X5.700000*%
G04 #@! TD*
G04 #@! TA.AperFunction,ViaPad*
%ADD19C,0.800000*%
G04 #@! TD*
G04 #@! TA.AperFunction,Conductor*
%ADD20C,0.400000*%
G04 #@! TD*
G04 #@! TA.AperFunction,Conductor*
%ADD21C,0.500000*%
G04 #@! TD*
G04 #@! TA.AperFunction,Conductor*
%ADD22C,0.750000*%
G04 #@! TD*
G04 #@! TA.AperFunction,Conductor*
%ADD23C,1.500000*%
G04 #@! TD*
G04 #@! TA.AperFunction,Conductor*
%ADD24C,0.250000*%
G04 #@! TD*
G04 #@! TA.AperFunction,Conductor*
%ADD25C,0.254000*%
G04 #@! TD*
G04 #@! TA.AperFunction,Conductor*
%ADD26C,0.100000*%
G04 #@! TD*
G04 APERTURE END LIST*
D10*
X22000000Y-20500000D03*
X19000000Y-20500000D03*
X22000000Y-18500000D03*
X19000000Y-18500000D03*
D11*
X25500000Y-20500000D03*
X23500000Y-20500000D03*
D12*
X25450000Y-18500000D03*
X23550000Y-18500000D03*
X17450000Y-18500000D03*
X15550000Y-18500000D03*
X17450000Y-20500000D03*
X15550000Y-20500000D03*
D11*
X27250000Y-22500000D03*
X29250000Y-22500000D03*
X27250000Y-20500000D03*
X29250000Y-20500000D03*
D13*
X25040000Y-25750000D03*
D14*
X22500000Y-25750000D03*
X19960000Y-25750000D03*
D15*
X28250000Y-8500000D03*
X24250000Y-8500000D03*
D11*
X27250000Y-18500000D03*
X29250000Y-18500000D03*
X19750000Y-8500000D03*
X17750000Y-8500000D03*
D16*
X17250000Y-15000000D03*
X20250000Y-15000000D03*
D17*
X17400000Y-10550000D03*
X17400000Y-11500000D03*
X17400000Y-12450000D03*
X20100000Y-12450000D03*
X20100000Y-10550000D03*
X20100000Y-11500000D03*
D18*
X24000000Y-14000000D03*
X28500000Y-14000000D03*
D19*
X17500000Y-29000000D03*
X14500000Y-7000000D03*
X14500000Y-8000000D03*
X14500000Y-9000000D03*
X30500000Y-7000000D03*
X30500000Y-8000000D03*
X30500000Y-9000000D03*
X14500000Y-10000000D03*
X14500000Y-11000000D03*
X14500000Y-13000000D03*
X14500000Y-14000000D03*
X14500000Y-15000000D03*
X30500000Y-10000000D03*
X30500000Y-11000000D03*
X30500000Y-12000000D03*
X30500000Y-13000000D03*
X30500000Y-14000000D03*
X30500000Y-15000000D03*
X30500000Y-16000000D03*
X30500000Y-17000000D03*
X30500000Y-18000000D03*
X30500000Y-19000000D03*
X30500000Y-20000000D03*
X30500000Y-21000000D03*
X30500000Y-22000000D03*
X30500000Y-23000000D03*
X30500000Y-25000000D03*
X30500000Y-24000000D03*
X30500000Y-26000000D03*
X30500000Y-27000000D03*
X30500000Y-28000000D03*
X30500000Y-29000000D03*
X30500000Y-30000000D03*
X14500000Y-30000000D03*
X14500000Y-29000000D03*
X14500000Y-28000000D03*
X14500000Y-27000000D03*
X14500000Y-26000000D03*
X14500000Y-25000000D03*
X14500000Y-24000000D03*
X14500000Y-23000000D03*
X14500000Y-22000000D03*
X14500000Y-21000000D03*
X14500000Y-19000000D03*
X14500000Y-17000000D03*
X14500000Y-16000000D03*
X14500000Y-18000000D03*
X14500000Y-12000000D03*
X27500000Y-29000000D03*
X19500000Y-29000000D03*
X20500000Y-29000000D03*
X21500000Y-29000000D03*
X22500000Y-29000000D03*
X23500000Y-29000000D03*
X24500000Y-29000000D03*
X25500000Y-29000000D03*
X26500000Y-29000000D03*
X27500000Y-30000000D03*
X15500000Y-6000000D03*
X16500000Y-6000000D03*
X17500000Y-6000000D03*
X18500000Y-6000000D03*
X19500000Y-6000000D03*
X20500000Y-6000000D03*
X21500000Y-6000000D03*
X22500000Y-6000000D03*
X23500000Y-6000000D03*
X24500000Y-6000000D03*
X25500000Y-6000000D03*
X26500000Y-6000000D03*
X27500000Y-6000000D03*
X28500000Y-6000000D03*
X29500000Y-6000000D03*
X30500000Y-31000000D03*
X30500000Y-32000000D03*
X30500000Y-33000000D03*
X14500000Y-31000000D03*
X14500000Y-32000000D03*
X14500000Y-33000000D03*
X15500000Y-34000000D03*
X16500000Y-34000000D03*
X17500000Y-33000000D03*
X17500000Y-32000000D03*
X17500000Y-31000000D03*
X17500000Y-30000000D03*
X27500000Y-33000000D03*
X27500000Y-32000000D03*
X27500000Y-31000000D03*
X29500000Y-34000000D03*
X18500000Y-29000000D03*
X28500000Y-34000000D03*
X14500000Y-20000000D03*
X22000000Y-16750000D03*
X15750000Y-12450000D03*
X20250000Y-16750000D03*
D20*
X17400000Y-11500000D02*
X16250000Y-11500000D01*
X15750000Y-11000000D02*
X14500000Y-11000000D01*
X16250000Y-11500000D02*
X15750000Y-11000000D01*
D21*
X17400000Y-8850000D02*
X17750000Y-8500000D01*
X17400000Y-10550000D02*
X17400000Y-8850000D01*
D22*
X20100000Y-8850000D02*
X19750000Y-8500000D01*
X20100000Y-10550000D02*
X20100000Y-8850000D01*
D23*
X19750000Y-8500000D02*
X24250000Y-8500000D01*
D22*
X22200000Y-10550000D02*
X24250000Y-8500000D01*
X20100000Y-10550000D02*
X22200000Y-10550000D01*
X24000000Y-12350000D02*
X22200000Y-10550000D01*
X24000000Y-14000000D02*
X24000000Y-12350000D01*
X24250000Y-13750000D02*
X24000000Y-14000000D01*
D23*
X24250000Y-9750000D02*
X24250000Y-8500000D01*
X24000000Y-10000000D02*
X24250000Y-9750000D01*
X19750000Y-10174990D02*
X20100000Y-10174990D01*
X19750000Y-8500000D02*
X19750000Y-10174990D01*
X22575010Y-10174990D02*
X24250000Y-8500000D01*
X19750000Y-10174990D02*
X22575010Y-10174990D01*
X19750000Y-8500000D02*
X20900020Y-8500000D01*
X20075010Y-10174990D02*
X21325010Y-8924990D01*
X19750000Y-10174990D02*
X20075010Y-10174990D01*
X21325010Y-8924990D02*
X22575010Y-10174990D01*
X20900020Y-8500000D02*
X21325010Y-8924990D01*
X21000000Y-8500000D02*
X24000000Y-11500000D01*
X19750000Y-8500000D02*
X21000000Y-8500000D01*
X24000000Y-11500000D02*
X24000000Y-10000000D01*
X24000000Y-14000000D02*
X24000000Y-11500000D01*
D24*
X17400000Y-12450000D02*
X15750000Y-12450000D01*
D22*
X23550000Y-20450000D02*
X23500000Y-20500000D01*
X23550000Y-18500000D02*
X23550000Y-20450000D01*
D24*
X23550000Y-18300000D02*
X22000000Y-16750000D01*
X23550000Y-18500000D02*
X23550000Y-18300000D01*
D21*
X22000000Y-18500000D02*
X23550000Y-18500000D01*
X22000000Y-20500000D02*
X23500000Y-20500000D01*
D22*
X20100000Y-11500000D02*
X21500000Y-11500000D01*
X21500000Y-11500000D02*
X22000000Y-12000000D01*
X21500000Y-15000000D02*
X22000000Y-14500000D01*
X20250000Y-15000000D02*
X21500000Y-15000000D01*
X22000000Y-12000000D02*
X22000000Y-14500000D01*
X20250000Y-15000000D02*
X20250000Y-16750000D01*
X25040000Y-25750000D02*
X25040000Y-23210000D01*
X25750000Y-22500000D02*
X27250000Y-22500000D01*
X25040000Y-23210000D02*
X25750000Y-22500000D01*
X27250000Y-22500000D02*
X27250000Y-18500000D01*
X27250000Y-18500000D02*
X27250000Y-18000000D01*
X28500000Y-16750000D02*
X28500000Y-14000000D01*
X27250000Y-18000000D02*
X28500000Y-16750000D01*
X25450000Y-18500000D02*
X27250000Y-18500000D01*
X25500000Y-20500000D02*
X27250000Y-20500000D01*
D21*
X17450000Y-18500000D02*
X19000000Y-18500000D01*
X17450000Y-20500000D02*
X19000000Y-20500000D01*
D25*
X30840000Y-6273381D02*
X30840001Y-29967571D01*
X30836807Y-30000000D01*
X30849550Y-30129383D01*
X30887290Y-30253793D01*
X30948575Y-30368450D01*
X30953950Y-30375000D01*
X30948575Y-30381550D01*
X30887290Y-30496207D01*
X30849550Y-30620617D01*
X30836807Y-30750000D01*
X30840000Y-30782420D01*
X30840001Y-32217571D01*
X30836807Y-32250000D01*
X30849550Y-32379383D01*
X30887290Y-32503793D01*
X30948575Y-32618450D01*
X30953950Y-32625000D01*
X30948575Y-32631550D01*
X30887290Y-32746207D01*
X30849550Y-32870617D01*
X30836807Y-33000000D01*
X30840001Y-33032429D01*
X30840000Y-33726619D01*
X30226620Y-34340000D01*
X27773381Y-34340000D01*
X27160000Y-33726620D01*
X27160000Y-30032419D01*
X27163193Y-30000000D01*
X27150450Y-29870617D01*
X27112710Y-29746207D01*
X27051425Y-29631550D01*
X26968948Y-29531052D01*
X26868450Y-29448575D01*
X26753793Y-29387290D01*
X26629383Y-29349550D01*
X26532419Y-29340000D01*
X26500000Y-29336807D01*
X26467581Y-29340000D01*
X18532419Y-29340000D01*
X18500000Y-29336807D01*
X18467581Y-29340000D01*
X18370617Y-29349550D01*
X18246207Y-29387290D01*
X18131550Y-29448575D01*
X18031052Y-29531052D01*
X17948575Y-29631550D01*
X17887290Y-29746207D01*
X17849550Y-29870617D01*
X17836807Y-30000000D01*
X17840000Y-30032419D01*
X17840001Y-33726618D01*
X17226620Y-34340000D01*
X14773381Y-34340000D01*
X14160000Y-33726620D01*
X14160000Y-25603740D01*
X18475000Y-25603740D01*
X18475000Y-25896260D01*
X18532068Y-26183158D01*
X18644010Y-26453411D01*
X18806525Y-26696632D01*
X19013368Y-26903475D01*
X19256589Y-27065990D01*
X19526842Y-27177932D01*
X19813740Y-27235000D01*
X20106260Y-27235000D01*
X20393158Y-27177932D01*
X20663411Y-27065990D01*
X20906632Y-26903475D01*
X21113475Y-26696632D01*
X21235195Y-26514466D01*
X21304822Y-26631355D01*
X21499731Y-26847588D01*
X21733080Y-27021641D01*
X21995901Y-27146825D01*
X22143110Y-27191476D01*
X22373000Y-27070155D01*
X22373000Y-25877000D01*
X22353000Y-25877000D01*
X22353000Y-25623000D01*
X22373000Y-25623000D01*
X22373000Y-24429845D01*
X22143110Y-24308524D01*
X21995901Y-24353175D01*
X21733080Y-24478359D01*
X21499731Y-24652412D01*
X21304822Y-24868645D01*
X21235195Y-24985534D01*
X21113475Y-24803368D01*
X20906632Y-24596525D01*
X20663411Y-24434010D01*
X20393158Y-24322068D01*
X20106260Y-24265000D01*
X19813740Y-24265000D01*
X19526842Y-24322068D01*
X19256589Y-24434010D01*
X19013368Y-24596525D01*
X18806525Y-24803368D01*
X18644010Y-25046589D01*
X18532068Y-25316842D01*
X18475000Y-25603740D01*
X14160000Y-25603740D01*
X14160000Y-21150000D01*
X14561928Y-21150000D01*
X14574188Y-21274482D01*
X14610498Y-21394180D01*
X14669463Y-21504494D01*
X14748815Y-21601185D01*
X14845506Y-21680537D01*
X14955820Y-21739502D01*
X15075518Y-21775812D01*
X15200000Y-21788072D01*
X15264250Y-21785000D01*
X15423000Y-21626250D01*
X15423000Y-20627000D01*
X14723750Y-20627000D01*
X14565000Y-20785750D01*
X14561928Y-21150000D01*
X14160000Y-21150000D01*
X14160000Y-19150000D01*
X14561928Y-19150000D01*
X14574188Y-19274482D01*
X14610498Y-19394180D01*
X14667061Y-19500000D01*
X14610498Y-19605820D01*
X14574188Y-19725518D01*
X14561928Y-19850000D01*
X14565000Y-20214250D01*
X14723750Y-20373000D01*
X15423000Y-20373000D01*
X15423000Y-18627000D01*
X14723750Y-18627000D01*
X14565000Y-18785750D01*
X14561928Y-19150000D01*
X14160000Y-19150000D01*
X14160000Y-17850000D01*
X14561928Y-17850000D01*
X14565000Y-18214250D01*
X14723750Y-18373000D01*
X15423000Y-18373000D01*
X15423000Y-17373750D01*
X15264250Y-17215000D01*
X15200000Y-17211928D01*
X15075518Y-17224188D01*
X14955820Y-17260498D01*
X14845506Y-17319463D01*
X14748815Y-17398815D01*
X14669463Y-17495506D01*
X14610498Y-17605820D01*
X14574188Y-17725518D01*
X14561928Y-17850000D01*
X14160000Y-17850000D01*
X14160000Y-15800000D01*
X16111928Y-15800000D01*
X16124188Y-15924482D01*
X16160498Y-16044180D01*
X16219463Y-16154494D01*
X16298815Y-16251185D01*
X16395506Y-16330537D01*
X16505820Y-16389502D01*
X16625518Y-16425812D01*
X16750000Y-16438072D01*
X16964250Y-16435000D01*
X17123000Y-16276250D01*
X17123000Y-15127000D01*
X17377000Y-15127000D01*
X17377000Y-16276250D01*
X17535750Y-16435000D01*
X17750000Y-16438072D01*
X17874482Y-16425812D01*
X17994180Y-16389502D01*
X18104494Y-16330537D01*
X18201185Y-16251185D01*
X18280537Y-16154494D01*
X18339502Y-16044180D01*
X18375812Y-15924482D01*
X18388072Y-15800000D01*
X18385000Y-15285750D01*
X18226250Y-15127000D01*
X17377000Y-15127000D01*
X17123000Y-15127000D01*
X16273750Y-15127000D01*
X16115000Y-15285750D01*
X16111928Y-15800000D01*
X14160000Y-15800000D01*
X14160000Y-14200000D01*
X16111928Y-14200000D01*
X16115000Y-14714250D01*
X16273750Y-14873000D01*
X17123000Y-14873000D01*
X17123000Y-13723750D01*
X17377000Y-13723750D01*
X17377000Y-14873000D01*
X18226250Y-14873000D01*
X18385000Y-14714250D01*
X18388072Y-14200000D01*
X18375812Y-14075518D01*
X18339502Y-13955820D01*
X18280537Y-13845506D01*
X18201185Y-13748815D01*
X18104494Y-13669463D01*
X17994180Y-13610498D01*
X17874482Y-13574188D01*
X17750000Y-13561928D01*
X17535750Y-13565000D01*
X17377000Y-13723750D01*
X17123000Y-13723750D01*
X16964250Y-13565000D01*
X16750000Y-13561928D01*
X16625518Y-13574188D01*
X16505820Y-13610498D01*
X16395506Y-13669463D01*
X16298815Y-13748815D01*
X16219463Y-13845506D01*
X16160498Y-13955820D01*
X16124188Y-14075518D01*
X16111928Y-14200000D01*
X14160000Y-14200000D01*
X14160000Y-12348061D01*
X14715000Y-12348061D01*
X14715000Y-12551939D01*
X14754774Y-12751898D01*
X14832795Y-12940256D01*
X14946063Y-13109774D01*
X15090226Y-13253937D01*
X15259744Y-13367205D01*
X15448102Y-13445226D01*
X15648061Y-13485000D01*
X15851939Y-13485000D01*
X16051898Y-13445226D01*
X16240256Y-13367205D01*
X16302753Y-13325446D01*
X16375820Y-13364502D01*
X16495518Y-13400812D01*
X16620000Y-13413072D01*
X18180000Y-13413072D01*
X18304482Y-13400812D01*
X18424180Y-13364502D01*
X18534494Y-13305537D01*
X18631185Y-13226185D01*
X18710537Y-13129494D01*
X18750000Y-13055665D01*
X18789463Y-13129494D01*
X18868815Y-13226185D01*
X18965506Y-13305537D01*
X19075820Y-13364502D01*
X19195518Y-13400812D01*
X19320000Y-13413072D01*
X20880000Y-13413072D01*
X20990001Y-13402238D01*
X20990001Y-13609230D01*
X20874482Y-13574188D01*
X20750000Y-13561928D01*
X19750000Y-13561928D01*
X19625518Y-13574188D01*
X19505820Y-13610498D01*
X19395506Y-13669463D01*
X19298815Y-13748815D01*
X19219463Y-13845506D01*
X19160498Y-13955820D01*
X19124188Y-14075518D01*
X19111928Y-14200000D01*
X19111928Y-15800000D01*
X19124188Y-15924482D01*
X19160498Y-16044180D01*
X19219463Y-16154494D01*
X19240001Y-16179519D01*
X19240001Y-16522372D01*
X19215000Y-16648061D01*
X19215000Y-16851939D01*
X19254774Y-17051898D01*
X19332795Y-17240256D01*
X19389001Y-17324375D01*
X19360236Y-17312460D01*
X19121637Y-17265000D01*
X18878363Y-17265000D01*
X18639764Y-17312460D01*
X18415008Y-17405557D01*
X18314073Y-17473000D01*
X18312067Y-17473000D01*
X18251185Y-17398815D01*
X18154494Y-17319463D01*
X18044180Y-17260498D01*
X17924482Y-17224188D01*
X17800000Y-17211928D01*
X17100000Y-17211928D01*
X16975518Y-17224188D01*
X16855820Y-17260498D01*
X16745506Y-17319463D01*
X16648815Y-17398815D01*
X16569463Y-17495506D01*
X16510498Y-17605820D01*
X16500000Y-17640427D01*
X16489502Y-17605820D01*
X16430537Y-17495506D01*
X16351185Y-17398815D01*
X16254494Y-17319463D01*
X16144180Y-17260498D01*
X16024482Y-17224188D01*
X15900000Y-17211928D01*
X15835750Y-17215000D01*
X15677000Y-17373750D01*
X15677000Y-18373000D01*
X15697000Y-18373000D01*
X15697000Y-18627000D01*
X15677000Y-18627000D01*
X15677000Y-20373000D01*
X15697000Y-20373000D01*
X15697000Y-20627000D01*
X15677000Y-20627000D01*
X15677000Y-21626250D01*
X15835750Y-21785000D01*
X15900000Y-21788072D01*
X16024482Y-21775812D01*
X16144180Y-21739502D01*
X16254494Y-21680537D01*
X16351185Y-21601185D01*
X16430537Y-21504494D01*
X16489502Y-21394180D01*
X16500000Y-21359573D01*
X16510498Y-21394180D01*
X16569463Y-21504494D01*
X16648815Y-21601185D01*
X16745506Y-21680537D01*
X16855820Y-21739502D01*
X16975518Y-21775812D01*
X17100000Y-21788072D01*
X17800000Y-21788072D01*
X17924482Y-21775812D01*
X18044180Y-21739502D01*
X18067569Y-21727000D01*
X18838144Y-21727000D01*
X18878363Y-21735000D01*
X19121637Y-21735000D01*
X19161856Y-21727000D01*
X21838144Y-21727000D01*
X21878363Y-21735000D01*
X22121637Y-21735000D01*
X22161856Y-21727000D01*
X22797020Y-21727000D01*
X22875518Y-21750812D01*
X23000000Y-21763072D01*
X24000000Y-21763072D01*
X24124482Y-21750812D01*
X24244180Y-21714502D01*
X24354494Y-21655537D01*
X24451185Y-21576185D01*
X24500000Y-21516704D01*
X24548815Y-21576185D01*
X24645506Y-21655537D01*
X24755820Y-21714502D01*
X24875518Y-21750812D01*
X25000000Y-21763072D01*
X25055878Y-21763072D01*
X25032367Y-21782367D01*
X25000743Y-21820901D01*
X24360901Y-22460744D01*
X24322368Y-22492367D01*
X24290745Y-22530900D01*
X24290744Y-22530901D01*
X24196154Y-22646160D01*
X24102368Y-22821621D01*
X24044615Y-23012006D01*
X24025114Y-23210000D01*
X24030001Y-23259617D01*
X24030001Y-24284962D01*
X23945820Y-24310498D01*
X23835506Y-24369463D01*
X23738815Y-24448815D01*
X23659463Y-24545506D01*
X23600498Y-24655820D01*
X23576034Y-24736466D01*
X23500269Y-24652412D01*
X23266920Y-24478359D01*
X23004099Y-24353175D01*
X22856890Y-24308524D01*
X22627000Y-24429845D01*
X22627000Y-25623000D01*
X22647000Y-25623000D01*
X22647000Y-25877000D01*
X22627000Y-25877000D01*
X22627000Y-27070155D01*
X22856890Y-27191476D01*
X23004099Y-27146825D01*
X23266920Y-27021641D01*
X23500269Y-26847588D01*
X23576034Y-26763534D01*
X23600498Y-26844180D01*
X23659463Y-26954494D01*
X23738815Y-27051185D01*
X23835506Y-27130537D01*
X23945820Y-27189502D01*
X24065518Y-27225812D01*
X24190000Y-27238072D01*
X25890000Y-27238072D01*
X26014482Y-27225812D01*
X26134180Y-27189502D01*
X26244494Y-27130537D01*
X26341185Y-27051185D01*
X26420537Y-26954494D01*
X26479502Y-26844180D01*
X26515812Y-26724482D01*
X26528072Y-26600000D01*
X26528072Y-24900000D01*
X26515812Y-24775518D01*
X26479502Y-24655820D01*
X26420537Y-24545506D01*
X26341185Y-24448815D01*
X26244494Y-24369463D01*
X26134180Y-24310498D01*
X26050000Y-24284962D01*
X26050000Y-23628355D01*
X26168356Y-23510000D01*
X26244499Y-23510000D01*
X26298815Y-23576185D01*
X26395506Y-23655537D01*
X26505820Y-23714502D01*
X26625518Y-23750812D01*
X26750000Y-23763072D01*
X27750000Y-23763072D01*
X27874482Y-23750812D01*
X27994180Y-23714502D01*
X28104494Y-23655537D01*
X28201185Y-23576185D01*
X28250000Y-23516704D01*
X28298815Y-23576185D01*
X28395506Y-23655537D01*
X28505820Y-23714502D01*
X28625518Y-23750812D01*
X28750000Y-23763072D01*
X28964250Y-23760000D01*
X29123000Y-23601250D01*
X29123000Y-22627000D01*
X29377000Y-22627000D01*
X29377000Y-23601250D01*
X29535750Y-23760000D01*
X29750000Y-23763072D01*
X29874482Y-23750812D01*
X29994180Y-23714502D01*
X30104494Y-23655537D01*
X30201185Y-23576185D01*
X30280537Y-23479494D01*
X30339502Y-23369180D01*
X30375812Y-23249482D01*
X30388072Y-23125000D01*
X30385000Y-22785750D01*
X30226250Y-22627000D01*
X29377000Y-22627000D01*
X29123000Y-22627000D01*
X29103000Y-22627000D01*
X29103000Y-22373000D01*
X29123000Y-22373000D01*
X29123000Y-20627000D01*
X29377000Y-20627000D01*
X29377000Y-22373000D01*
X30226250Y-22373000D01*
X30385000Y-22214250D01*
X30388072Y-21875000D01*
X30375812Y-21750518D01*
X30339502Y-21630820D01*
X30280537Y-21520506D01*
X30263708Y-21500000D01*
X30280537Y-21479494D01*
X30339502Y-21369180D01*
X30375812Y-21249482D01*
X30388072Y-21125000D01*
X30385000Y-20785750D01*
X30226250Y-20627000D01*
X29377000Y-20627000D01*
X29123000Y-20627000D01*
X29103000Y-20627000D01*
X29103000Y-20373000D01*
X29123000Y-20373000D01*
X29123000Y-18627000D01*
X29377000Y-18627000D01*
X29377000Y-20373000D01*
X30226250Y-20373000D01*
X30385000Y-20214250D01*
X30388072Y-19875000D01*
X30375812Y-19750518D01*
X30339502Y-19630820D01*
X30280537Y-19520506D01*
X30263708Y-19500000D01*
X30280537Y-19479494D01*
X30339502Y-19369180D01*
X30375812Y-19249482D01*
X30388072Y-19125000D01*
X30385000Y-18785750D01*
X30226250Y-18627000D01*
X29377000Y-18627000D01*
X29123000Y-18627000D01*
X29103000Y-18627000D01*
X29103000Y-18373000D01*
X29123000Y-18373000D01*
X29123000Y-18353000D01*
X29377000Y-18353000D01*
X29377000Y-18373000D01*
X30226250Y-18373000D01*
X30385000Y-18214250D01*
X30388072Y-17875000D01*
X30375812Y-17750518D01*
X30339502Y-17630820D01*
X30280537Y-17520506D01*
X30201185Y-17423815D01*
X30104494Y-17344463D01*
X29994180Y-17285498D01*
X29874482Y-17249188D01*
X29846148Y-17246397D01*
X29880537Y-17204494D01*
X29939502Y-17094180D01*
X29975812Y-16974482D01*
X29988072Y-16850000D01*
X29988072Y-11150000D01*
X29975812Y-11025518D01*
X29939502Y-10905820D01*
X29880537Y-10795506D01*
X29801185Y-10698815D01*
X29704494Y-10619463D01*
X29594180Y-10560498D01*
X29474482Y-10524188D01*
X29350000Y-10511928D01*
X27650000Y-10511928D01*
X27525518Y-10524188D01*
X27405820Y-10560498D01*
X27295506Y-10619463D01*
X27198815Y-10698815D01*
X27119463Y-10795506D01*
X27060498Y-10905820D01*
X27024188Y-11025518D01*
X27011928Y-11150000D01*
X27011928Y-16809717D01*
X26570901Y-17250744D01*
X26541883Y-17274558D01*
X26505820Y-17285498D01*
X26395506Y-17344463D01*
X26298815Y-17423815D01*
X26285258Y-17440334D01*
X26251185Y-17398815D01*
X26154494Y-17319463D01*
X26044180Y-17260498D01*
X25924482Y-17224188D01*
X25800000Y-17211928D01*
X25374436Y-17211928D01*
X25380537Y-17204494D01*
X25439502Y-17094180D01*
X25475812Y-16974482D01*
X25488072Y-16850000D01*
X25488072Y-11150000D01*
X25475812Y-11025518D01*
X25439502Y-10905820D01*
X25385000Y-10803856D01*
X25385000Y-10550186D01*
X25407157Y-10523188D01*
X25535764Y-10282581D01*
X25613321Y-10026911D01*
X25624482Y-10025812D01*
X25744180Y-9989502D01*
X25854494Y-9930537D01*
X25951185Y-9851185D01*
X26030537Y-9754494D01*
X26089502Y-9644180D01*
X26125812Y-9524482D01*
X26138072Y-9400000D01*
X26361928Y-9400000D01*
X26374188Y-9524482D01*
X26410498Y-9644180D01*
X26469463Y-9754494D01*
X26548815Y-9851185D01*
X26645506Y-9930537D01*
X26755820Y-9989502D01*
X26875518Y-10025812D01*
X27000000Y-10038072D01*
X27964250Y-10035000D01*
X28123000Y-9876250D01*
X28123000Y-8627000D01*
X28377000Y-8627000D01*
X28377000Y-9876250D01*
X28535750Y-10035000D01*
X29500000Y-10038072D01*
X29624482Y-10025812D01*
X29744180Y-9989502D01*
X29854494Y-9930537D01*
X29951185Y-9851185D01*
X30030537Y-9754494D01*
X30089502Y-9644180D01*
X30125812Y-9524482D01*
X30138072Y-9400000D01*
X30135000Y-8785750D01*
X29976250Y-8627000D01*
X28377000Y-8627000D01*
X28123000Y-8627000D01*
X26523750Y-8627000D01*
X26365000Y-8785750D01*
X26361928Y-9400000D01*
X26138072Y-9400000D01*
X26138072Y-7600000D01*
X26361928Y-7600000D01*
X26365000Y-8214250D01*
X26523750Y-8373000D01*
X28123000Y-8373000D01*
X28123000Y-7123750D01*
X28377000Y-7123750D01*
X28377000Y-8373000D01*
X29976250Y-8373000D01*
X30135000Y-8214250D01*
X30138072Y-7600000D01*
X30125812Y-7475518D01*
X30089502Y-7355820D01*
X30030537Y-7245506D01*
X29951185Y-7148815D01*
X29854494Y-7069463D01*
X29744180Y-7010498D01*
X29624482Y-6974188D01*
X29500000Y-6961928D01*
X28535750Y-6965000D01*
X28377000Y-7123750D01*
X28123000Y-7123750D01*
X27964250Y-6965000D01*
X27000000Y-6961928D01*
X26875518Y-6974188D01*
X26755820Y-7010498D01*
X26645506Y-7069463D01*
X26548815Y-7148815D01*
X26469463Y-7245506D01*
X26410498Y-7355820D01*
X26374188Y-7475518D01*
X26361928Y-7600000D01*
X26138072Y-7600000D01*
X26125812Y-7475518D01*
X26089502Y-7355820D01*
X26030537Y-7245506D01*
X25951185Y-7148815D01*
X25854494Y-7069463D01*
X25744180Y-7010498D01*
X25624482Y-6974188D01*
X25500000Y-6961928D01*
X23000000Y-6961928D01*
X22875518Y-6974188D01*
X22755820Y-7010498D01*
X22645506Y-7069463D01*
X22590019Y-7115000D01*
X21068029Y-7115000D01*
X21000000Y-7108300D01*
X20950010Y-7113223D01*
X20900020Y-7108300D01*
X20831991Y-7115000D01*
X19818036Y-7115000D01*
X19750000Y-7108299D01*
X19681963Y-7115000D01*
X19478493Y-7135040D01*
X19217419Y-7214236D01*
X19158016Y-7245987D01*
X19125518Y-7249188D01*
X19005820Y-7285498D01*
X18895506Y-7344463D01*
X18798815Y-7423815D01*
X18750000Y-7483296D01*
X18701185Y-7423815D01*
X18604494Y-7344463D01*
X18494180Y-7285498D01*
X18374482Y-7249188D01*
X18250000Y-7236928D01*
X17250000Y-7236928D01*
X17125518Y-7249188D01*
X17005820Y-7285498D01*
X16895506Y-7344463D01*
X16798815Y-7423815D01*
X16719463Y-7520506D01*
X16660498Y-7630820D01*
X16624188Y-7750518D01*
X16611928Y-7875000D01*
X16611928Y-8446982D01*
X16578412Y-8509687D01*
X16527805Y-8676510D01*
X16510719Y-8850000D01*
X16515001Y-8893479D01*
X16515001Y-9597269D01*
X16495518Y-9599188D01*
X16375820Y-9635498D01*
X16265506Y-9694463D01*
X16168815Y-9773815D01*
X16089463Y-9870506D01*
X16030498Y-9980820D01*
X15994188Y-10100518D01*
X15981928Y-10225000D01*
X15981928Y-10875000D01*
X15994188Y-10999482D01*
X16001929Y-11025000D01*
X15994188Y-11050518D01*
X15981928Y-11175000D01*
X15985000Y-11214250D01*
X16143748Y-11372998D01*
X15985000Y-11372998D01*
X15985000Y-11441467D01*
X15851939Y-11415000D01*
X15648061Y-11415000D01*
X15448102Y-11454774D01*
X15259744Y-11532795D01*
X15090226Y-11646063D01*
X14946063Y-11790226D01*
X14832795Y-11959744D01*
X14754774Y-12148102D01*
X14715000Y-12348061D01*
X14160000Y-12348061D01*
X14160000Y-6273380D01*
X14773381Y-5660000D01*
X30226620Y-5660000D01*
X30840000Y-6273381D01*
G04 #@! TA.AperFunction,Conductor*
D26*
G36*
X30840000Y-6273381D02*
G01*
X30840001Y-29967571D01*
X30836807Y-30000000D01*
X30849550Y-30129383D01*
X30887290Y-30253793D01*
X30948575Y-30368450D01*
X30953950Y-30375000D01*
X30948575Y-30381550D01*
X30887290Y-30496207D01*
X30849550Y-30620617D01*
X30836807Y-30750000D01*
X30840000Y-30782420D01*
X30840001Y-32217571D01*
X30836807Y-32250000D01*
X30849550Y-32379383D01*
X30887290Y-32503793D01*
X30948575Y-32618450D01*
X30953950Y-32625000D01*
X30948575Y-32631550D01*
X30887290Y-32746207D01*
X30849550Y-32870617D01*
X30836807Y-33000000D01*
X30840001Y-33032429D01*
X30840000Y-33726619D01*
X30226620Y-34340000D01*
X27773381Y-34340000D01*
X27160000Y-33726620D01*
X27160000Y-30032419D01*
X27163193Y-30000000D01*
X27150450Y-29870617D01*
X27112710Y-29746207D01*
X27051425Y-29631550D01*
X26968948Y-29531052D01*
X26868450Y-29448575D01*
X26753793Y-29387290D01*
X26629383Y-29349550D01*
X26532419Y-29340000D01*
X26500000Y-29336807D01*
X26467581Y-29340000D01*
X18532419Y-29340000D01*
X18500000Y-29336807D01*
X18467581Y-29340000D01*
X18370617Y-29349550D01*
X18246207Y-29387290D01*
X18131550Y-29448575D01*
X18031052Y-29531052D01*
X17948575Y-29631550D01*
X17887290Y-29746207D01*
X17849550Y-29870617D01*
X17836807Y-30000000D01*
X17840000Y-30032419D01*
X17840001Y-33726618D01*
X17226620Y-34340000D01*
X14773381Y-34340000D01*
X14160000Y-33726620D01*
X14160000Y-25603740D01*
X18475000Y-25603740D01*
X18475000Y-25896260D01*
X18532068Y-26183158D01*
X18644010Y-26453411D01*
X18806525Y-26696632D01*
X19013368Y-26903475D01*
X19256589Y-27065990D01*
X19526842Y-27177932D01*
X19813740Y-27235000D01*
X20106260Y-27235000D01*
X20393158Y-27177932D01*
X20663411Y-27065990D01*
X20906632Y-26903475D01*
X21113475Y-26696632D01*
X21235195Y-26514466D01*
X21304822Y-26631355D01*
X21499731Y-26847588D01*
X21733080Y-27021641D01*
X21995901Y-27146825D01*
X22143110Y-27191476D01*
X22373000Y-27070155D01*
X22373000Y-25877000D01*
X22353000Y-25877000D01*
X22353000Y-25623000D01*
X22373000Y-25623000D01*
X22373000Y-24429845D01*
X22143110Y-24308524D01*
X21995901Y-24353175D01*
X21733080Y-24478359D01*
X21499731Y-24652412D01*
X21304822Y-24868645D01*
X21235195Y-24985534D01*
X21113475Y-24803368D01*
X20906632Y-24596525D01*
X20663411Y-24434010D01*
X20393158Y-24322068D01*
X20106260Y-24265000D01*
X19813740Y-24265000D01*
X19526842Y-24322068D01*
X19256589Y-24434010D01*
X19013368Y-24596525D01*
X18806525Y-24803368D01*
X18644010Y-25046589D01*
X18532068Y-25316842D01*
X18475000Y-25603740D01*
X14160000Y-25603740D01*
X14160000Y-21150000D01*
X14561928Y-21150000D01*
X14574188Y-21274482D01*
X14610498Y-21394180D01*
X14669463Y-21504494D01*
X14748815Y-21601185D01*
X14845506Y-21680537D01*
X14955820Y-21739502D01*
X15075518Y-21775812D01*
X15200000Y-21788072D01*
X15264250Y-21785000D01*
X15423000Y-21626250D01*
X15423000Y-20627000D01*
X14723750Y-20627000D01*
X14565000Y-20785750D01*
X14561928Y-21150000D01*
X14160000Y-21150000D01*
X14160000Y-19150000D01*
X14561928Y-19150000D01*
X14574188Y-19274482D01*
X14610498Y-19394180D01*
X14667061Y-19500000D01*
X14610498Y-19605820D01*
X14574188Y-19725518D01*
X14561928Y-19850000D01*
X14565000Y-20214250D01*
X14723750Y-20373000D01*
X15423000Y-20373000D01*
X15423000Y-18627000D01*
X14723750Y-18627000D01*
X14565000Y-18785750D01*
X14561928Y-19150000D01*
X14160000Y-19150000D01*
X14160000Y-17850000D01*
X14561928Y-17850000D01*
X14565000Y-18214250D01*
X14723750Y-18373000D01*
X15423000Y-18373000D01*
X15423000Y-17373750D01*
X15264250Y-17215000D01*
X15200000Y-17211928D01*
X15075518Y-17224188D01*
X14955820Y-17260498D01*
X14845506Y-17319463D01*
X14748815Y-17398815D01*
X14669463Y-17495506D01*
X14610498Y-17605820D01*
X14574188Y-17725518D01*
X14561928Y-17850000D01*
X14160000Y-17850000D01*
X14160000Y-15800000D01*
X16111928Y-15800000D01*
X16124188Y-15924482D01*
X16160498Y-16044180D01*
X16219463Y-16154494D01*
X16298815Y-16251185D01*
X16395506Y-16330537D01*
X16505820Y-16389502D01*
X16625518Y-16425812D01*
X16750000Y-16438072D01*
X16964250Y-16435000D01*
X17123000Y-16276250D01*
X17123000Y-15127000D01*
X17377000Y-15127000D01*
X17377000Y-16276250D01*
X17535750Y-16435000D01*
X17750000Y-16438072D01*
X17874482Y-16425812D01*
X17994180Y-16389502D01*
X18104494Y-16330537D01*
X18201185Y-16251185D01*
X18280537Y-16154494D01*
X18339502Y-16044180D01*
X18375812Y-15924482D01*
X18388072Y-15800000D01*
X18385000Y-15285750D01*
X18226250Y-15127000D01*
X17377000Y-15127000D01*
X17123000Y-15127000D01*
X16273750Y-15127000D01*
X16115000Y-15285750D01*
X16111928Y-15800000D01*
X14160000Y-15800000D01*
X14160000Y-14200000D01*
X16111928Y-14200000D01*
X16115000Y-14714250D01*
X16273750Y-14873000D01*
X17123000Y-14873000D01*
X17123000Y-13723750D01*
X17377000Y-13723750D01*
X17377000Y-14873000D01*
X18226250Y-14873000D01*
X18385000Y-14714250D01*
X18388072Y-14200000D01*
X18375812Y-14075518D01*
X18339502Y-13955820D01*
X18280537Y-13845506D01*
X18201185Y-13748815D01*
X18104494Y-13669463D01*
X17994180Y-13610498D01*
X17874482Y-13574188D01*
X17750000Y-13561928D01*
X17535750Y-13565000D01*
X17377000Y-13723750D01*
X17123000Y-13723750D01*
X16964250Y-13565000D01*
X16750000Y-13561928D01*
X16625518Y-13574188D01*
X16505820Y-13610498D01*
X16395506Y-13669463D01*
X16298815Y-13748815D01*
X16219463Y-13845506D01*
X16160498Y-13955820D01*
X16124188Y-14075518D01*
X16111928Y-14200000D01*
X14160000Y-14200000D01*
X14160000Y-12348061D01*
X14715000Y-12348061D01*
X14715000Y-12551939D01*
X14754774Y-12751898D01*
X14832795Y-12940256D01*
X14946063Y-13109774D01*
X15090226Y-13253937D01*
X15259744Y-13367205D01*
X15448102Y-13445226D01*
X15648061Y-13485000D01*
X15851939Y-13485000D01*
X16051898Y-13445226D01*
X16240256Y-13367205D01*
X16302753Y-13325446D01*
X16375820Y-13364502D01*
X16495518Y-13400812D01*
X16620000Y-13413072D01*
X18180000Y-13413072D01*
X18304482Y-13400812D01*
X18424180Y-13364502D01*
X18534494Y-13305537D01*
X18631185Y-13226185D01*
X18710537Y-13129494D01*
X18750000Y-13055665D01*
X18789463Y-13129494D01*
X18868815Y-13226185D01*
X18965506Y-13305537D01*
X19075820Y-13364502D01*
X19195518Y-13400812D01*
X19320000Y-13413072D01*
X20880000Y-13413072D01*
X20990001Y-13402238D01*
X20990001Y-13609230D01*
X20874482Y-13574188D01*
X20750000Y-13561928D01*
X19750000Y-13561928D01*
X19625518Y-13574188D01*
X19505820Y-13610498D01*
X19395506Y-13669463D01*
X19298815Y-13748815D01*
X19219463Y-13845506D01*
X19160498Y-13955820D01*
X19124188Y-14075518D01*
X19111928Y-14200000D01*
X19111928Y-15800000D01*
X19124188Y-15924482D01*
X19160498Y-16044180D01*
X19219463Y-16154494D01*
X19240001Y-16179519D01*
X19240001Y-16522372D01*
X19215000Y-16648061D01*
X19215000Y-16851939D01*
X19254774Y-17051898D01*
X19332795Y-17240256D01*
X19389001Y-17324375D01*
X19360236Y-17312460D01*
X19121637Y-17265000D01*
X18878363Y-17265000D01*
X18639764Y-17312460D01*
X18415008Y-17405557D01*
X18314073Y-17473000D01*
X18312067Y-17473000D01*
X18251185Y-17398815D01*
X18154494Y-17319463D01*
X18044180Y-17260498D01*
X17924482Y-17224188D01*
X17800000Y-17211928D01*
X17100000Y-17211928D01*
X16975518Y-17224188D01*
X16855820Y-17260498D01*
X16745506Y-17319463D01*
X16648815Y-17398815D01*
X16569463Y-17495506D01*
X16510498Y-17605820D01*
X16500000Y-17640427D01*
X16489502Y-17605820D01*
X16430537Y-17495506D01*
X16351185Y-17398815D01*
X16254494Y-17319463D01*
X16144180Y-17260498D01*
X16024482Y-17224188D01*
X15900000Y-17211928D01*
X15835750Y-17215000D01*
X15677000Y-17373750D01*
X15677000Y-18373000D01*
X15697000Y-18373000D01*
X15697000Y-18627000D01*
X15677000Y-18627000D01*
X15677000Y-20373000D01*
X15697000Y-20373000D01*
X15697000Y-20627000D01*
X15677000Y-20627000D01*
X15677000Y-21626250D01*
X15835750Y-21785000D01*
X15900000Y-21788072D01*
X16024482Y-21775812D01*
X16144180Y-21739502D01*
X16254494Y-21680537D01*
X16351185Y-21601185D01*
X16430537Y-21504494D01*
X16489502Y-21394180D01*
X16500000Y-21359573D01*
X16510498Y-21394180D01*
X16569463Y-21504494D01*
X16648815Y-21601185D01*
X16745506Y-21680537D01*
X16855820Y-21739502D01*
X16975518Y-21775812D01*
X17100000Y-21788072D01*
X17800000Y-21788072D01*
X17924482Y-21775812D01*
X18044180Y-21739502D01*
X18067569Y-21727000D01*
X18838144Y-21727000D01*
X18878363Y-21735000D01*
X19121637Y-21735000D01*
X19161856Y-21727000D01*
X21838144Y-21727000D01*
X21878363Y-21735000D01*
X22121637Y-21735000D01*
X22161856Y-21727000D01*
X22797020Y-21727000D01*
X22875518Y-21750812D01*
X23000000Y-21763072D01*
X24000000Y-21763072D01*
X24124482Y-21750812D01*
X24244180Y-21714502D01*
X24354494Y-21655537D01*
X24451185Y-21576185D01*
X24500000Y-21516704D01*
X24548815Y-21576185D01*
X24645506Y-21655537D01*
X24755820Y-21714502D01*
X24875518Y-21750812D01*
X25000000Y-21763072D01*
X25055878Y-21763072D01*
X25032367Y-21782367D01*
X25000743Y-21820901D01*
X24360901Y-22460744D01*
X24322368Y-22492367D01*
X24290745Y-22530900D01*
X24290744Y-22530901D01*
X24196154Y-22646160D01*
X24102368Y-22821621D01*
X24044615Y-23012006D01*
X24025114Y-23210000D01*
X24030001Y-23259617D01*
X24030001Y-24284962D01*
X23945820Y-24310498D01*
X23835506Y-24369463D01*
X23738815Y-24448815D01*
X23659463Y-24545506D01*
X23600498Y-24655820D01*
X23576034Y-24736466D01*
X23500269Y-24652412D01*
X23266920Y-24478359D01*
X23004099Y-24353175D01*
X22856890Y-24308524D01*
X22627000Y-24429845D01*
X22627000Y-25623000D01*
X22647000Y-25623000D01*
X22647000Y-25877000D01*
X22627000Y-25877000D01*
X22627000Y-27070155D01*
X22856890Y-27191476D01*
X23004099Y-27146825D01*
X23266920Y-27021641D01*
X23500269Y-26847588D01*
X23576034Y-26763534D01*
X23600498Y-26844180D01*
X23659463Y-26954494D01*
X23738815Y-27051185D01*
X23835506Y-27130537D01*
X23945820Y-27189502D01*
X24065518Y-27225812D01*
X24190000Y-27238072D01*
X25890000Y-27238072D01*
X26014482Y-27225812D01*
X26134180Y-27189502D01*
X26244494Y-27130537D01*
X26341185Y-27051185D01*
X26420537Y-26954494D01*
X26479502Y-26844180D01*
X26515812Y-26724482D01*
X26528072Y-26600000D01*
X26528072Y-24900000D01*
X26515812Y-24775518D01*
X26479502Y-24655820D01*
X26420537Y-24545506D01*
X26341185Y-24448815D01*
X26244494Y-24369463D01*
X26134180Y-24310498D01*
X26050000Y-24284962D01*
X26050000Y-23628355D01*
X26168356Y-23510000D01*
X26244499Y-23510000D01*
X26298815Y-23576185D01*
X26395506Y-23655537D01*
X26505820Y-23714502D01*
X26625518Y-23750812D01*
X26750000Y-23763072D01*
X27750000Y-23763072D01*
X27874482Y-23750812D01*
X27994180Y-23714502D01*
X28104494Y-23655537D01*
X28201185Y-23576185D01*
X28250000Y-23516704D01*
X28298815Y-23576185D01*
X28395506Y-23655537D01*
X28505820Y-23714502D01*
X28625518Y-23750812D01*
X28750000Y-23763072D01*
X28964250Y-23760000D01*
X29123000Y-23601250D01*
X29123000Y-22627000D01*
X29377000Y-22627000D01*
X29377000Y-23601250D01*
X29535750Y-23760000D01*
X29750000Y-23763072D01*
X29874482Y-23750812D01*
X29994180Y-23714502D01*
X30104494Y-23655537D01*
X30201185Y-23576185D01*
X30280537Y-23479494D01*
X30339502Y-23369180D01*
X30375812Y-23249482D01*
X30388072Y-23125000D01*
X30385000Y-22785750D01*
X30226250Y-22627000D01*
X29377000Y-22627000D01*
X29123000Y-22627000D01*
X29103000Y-22627000D01*
X29103000Y-22373000D01*
X29123000Y-22373000D01*
X29123000Y-20627000D01*
X29377000Y-20627000D01*
X29377000Y-22373000D01*
X30226250Y-22373000D01*
X30385000Y-22214250D01*
X30388072Y-21875000D01*
X30375812Y-21750518D01*
X30339502Y-21630820D01*
X30280537Y-21520506D01*
X30263708Y-21500000D01*
X30280537Y-21479494D01*
X30339502Y-21369180D01*
X30375812Y-21249482D01*
X30388072Y-21125000D01*
X30385000Y-20785750D01*
X30226250Y-20627000D01*
X29377000Y-20627000D01*
X29123000Y-20627000D01*
X29103000Y-20627000D01*
X29103000Y-20373000D01*
X29123000Y-20373000D01*
X29123000Y-18627000D01*
X29377000Y-18627000D01*
X29377000Y-20373000D01*
X30226250Y-20373000D01*
X30385000Y-20214250D01*
X30388072Y-19875000D01*
X30375812Y-19750518D01*
X30339502Y-19630820D01*
X30280537Y-19520506D01*
X30263708Y-19500000D01*
X30280537Y-19479494D01*
X30339502Y-19369180D01*
X30375812Y-19249482D01*
X30388072Y-19125000D01*
X30385000Y-18785750D01*
X30226250Y-18627000D01*
X29377000Y-18627000D01*
X29123000Y-18627000D01*
X29103000Y-18627000D01*
X29103000Y-18373000D01*
X29123000Y-18373000D01*
X29123000Y-18353000D01*
X29377000Y-18353000D01*
X29377000Y-18373000D01*
X30226250Y-18373000D01*
X30385000Y-18214250D01*
X30388072Y-17875000D01*
X30375812Y-17750518D01*
X30339502Y-17630820D01*
X30280537Y-17520506D01*
X30201185Y-17423815D01*
X30104494Y-17344463D01*
X29994180Y-17285498D01*
X29874482Y-17249188D01*
X29846148Y-17246397D01*
X29880537Y-17204494D01*
X29939502Y-17094180D01*
X29975812Y-16974482D01*
X29988072Y-16850000D01*
X29988072Y-11150000D01*
X29975812Y-11025518D01*
X29939502Y-10905820D01*
X29880537Y-10795506D01*
X29801185Y-10698815D01*
X29704494Y-10619463D01*
X29594180Y-10560498D01*
X29474482Y-10524188D01*
X29350000Y-10511928D01*
X27650000Y-10511928D01*
X27525518Y-10524188D01*
X27405820Y-10560498D01*
X27295506Y-10619463D01*
X27198815Y-10698815D01*
X27119463Y-10795506D01*
X27060498Y-10905820D01*
X27024188Y-11025518D01*
X27011928Y-11150000D01*
X27011928Y-16809717D01*
X26570901Y-17250744D01*
X26541883Y-17274558D01*
X26505820Y-17285498D01*
X26395506Y-17344463D01*
X26298815Y-17423815D01*
X26285258Y-17440334D01*
X26251185Y-17398815D01*
X26154494Y-17319463D01*
X26044180Y-17260498D01*
X25924482Y-17224188D01*
X25800000Y-17211928D01*
X25374436Y-17211928D01*
X25380537Y-17204494D01*
X25439502Y-17094180D01*
X25475812Y-16974482D01*
X25488072Y-16850000D01*
X25488072Y-11150000D01*
X25475812Y-11025518D01*
X25439502Y-10905820D01*
X25385000Y-10803856D01*
X25385000Y-10550186D01*
X25407157Y-10523188D01*
X25535764Y-10282581D01*
X25613321Y-10026911D01*
X25624482Y-10025812D01*
X25744180Y-9989502D01*
X25854494Y-9930537D01*
X25951185Y-9851185D01*
X26030537Y-9754494D01*
X26089502Y-9644180D01*
X26125812Y-9524482D01*
X26138072Y-9400000D01*
X26361928Y-9400000D01*
X26374188Y-9524482D01*
X26410498Y-9644180D01*
X26469463Y-9754494D01*
X26548815Y-9851185D01*
X26645506Y-9930537D01*
X26755820Y-9989502D01*
X26875518Y-10025812D01*
X27000000Y-10038072D01*
X27964250Y-10035000D01*
X28123000Y-9876250D01*
X28123000Y-8627000D01*
X28377000Y-8627000D01*
X28377000Y-9876250D01*
X28535750Y-10035000D01*
X29500000Y-10038072D01*
X29624482Y-10025812D01*
X29744180Y-9989502D01*
X29854494Y-9930537D01*
X29951185Y-9851185D01*
X30030537Y-9754494D01*
X30089502Y-9644180D01*
X30125812Y-9524482D01*
X30138072Y-9400000D01*
X30135000Y-8785750D01*
X29976250Y-8627000D01*
X28377000Y-8627000D01*
X28123000Y-8627000D01*
X26523750Y-8627000D01*
X26365000Y-8785750D01*
X26361928Y-9400000D01*
X26138072Y-9400000D01*
X26138072Y-7600000D01*
X26361928Y-7600000D01*
X26365000Y-8214250D01*
X26523750Y-8373000D01*
X28123000Y-8373000D01*
X28123000Y-7123750D01*
X28377000Y-7123750D01*
X28377000Y-8373000D01*
X29976250Y-8373000D01*
X30135000Y-8214250D01*
X30138072Y-7600000D01*
X30125812Y-7475518D01*
X30089502Y-7355820D01*
X30030537Y-7245506D01*
X29951185Y-7148815D01*
X29854494Y-7069463D01*
X29744180Y-7010498D01*
X29624482Y-6974188D01*
X29500000Y-6961928D01*
X28535750Y-6965000D01*
X28377000Y-7123750D01*
X28123000Y-7123750D01*
X27964250Y-6965000D01*
X27000000Y-6961928D01*
X26875518Y-6974188D01*
X26755820Y-7010498D01*
X26645506Y-7069463D01*
X26548815Y-7148815D01*
X26469463Y-7245506D01*
X26410498Y-7355820D01*
X26374188Y-7475518D01*
X26361928Y-7600000D01*
X26138072Y-7600000D01*
X26125812Y-7475518D01*
X26089502Y-7355820D01*
X26030537Y-7245506D01*
X25951185Y-7148815D01*
X25854494Y-7069463D01*
X25744180Y-7010498D01*
X25624482Y-6974188D01*
X25500000Y-6961928D01*
X23000000Y-6961928D01*
X22875518Y-6974188D01*
X22755820Y-7010498D01*
X22645506Y-7069463D01*
X22590019Y-7115000D01*
X21068029Y-7115000D01*
X21000000Y-7108300D01*
X20950010Y-7113223D01*
X20900020Y-7108300D01*
X20831991Y-7115000D01*
X19818036Y-7115000D01*
X19750000Y-7108299D01*
X19681963Y-7115000D01*
X19478493Y-7135040D01*
X19217419Y-7214236D01*
X19158016Y-7245987D01*
X19125518Y-7249188D01*
X19005820Y-7285498D01*
X18895506Y-7344463D01*
X18798815Y-7423815D01*
X18750000Y-7483296D01*
X18701185Y-7423815D01*
X18604494Y-7344463D01*
X18494180Y-7285498D01*
X18374482Y-7249188D01*
X18250000Y-7236928D01*
X17250000Y-7236928D01*
X17125518Y-7249188D01*
X17005820Y-7285498D01*
X16895506Y-7344463D01*
X16798815Y-7423815D01*
X16719463Y-7520506D01*
X16660498Y-7630820D01*
X16624188Y-7750518D01*
X16611928Y-7875000D01*
X16611928Y-8446982D01*
X16578412Y-8509687D01*
X16527805Y-8676510D01*
X16510719Y-8850000D01*
X16515001Y-8893479D01*
X16515001Y-9597269D01*
X16495518Y-9599188D01*
X16375820Y-9635498D01*
X16265506Y-9694463D01*
X16168815Y-9773815D01*
X16089463Y-9870506D01*
X16030498Y-9980820D01*
X15994188Y-10100518D01*
X15981928Y-10225000D01*
X15981928Y-10875000D01*
X15994188Y-10999482D01*
X16001929Y-11025000D01*
X15994188Y-11050518D01*
X15981928Y-11175000D01*
X15985000Y-11214250D01*
X16143748Y-11372998D01*
X15985000Y-11372998D01*
X15985000Y-11441467D01*
X15851939Y-11415000D01*
X15648061Y-11415000D01*
X15448102Y-11454774D01*
X15259744Y-11532795D01*
X15090226Y-11646063D01*
X14946063Y-11790226D01*
X14832795Y-11959744D01*
X14754774Y-12148102D01*
X14715000Y-12348061D01*
X14160000Y-12348061D01*
X14160000Y-6273380D01*
X14773381Y-5660000D01*
X30226620Y-5660000D01*
X30840000Y-6273381D01*
G37*
G04 #@! TD.AperFunction*
M02*
