G04 #@! TF.GenerationSoftware,KiCad,Pcbnew,(5.1.7)-1*
G04 #@! TF.CreationDate,2021-11-27T23:37:44+01:00*
G04 #@! TF.ProjectId,psu-module-positive,7073752d-6d6f-4647-956c-652d706f7369,rev?*
G04 #@! TF.SameCoordinates,Original*
G04 #@! TF.FileFunction,Profile,NP*
%FSLAX46Y46*%
G04 Gerber Fmt 4.6, Leading zero omitted, Abs format (unit mm)*
G04 Created by KiCad (PCBNEW (5.1.7)-1) date 2021-11-27 23:37:44*
%MOMM*%
%LPD*%
G01*
G04 APERTURE LIST*
G04 #@! TA.AperFunction,Profile*
%ADD10C,0.050000*%
G04 #@! TD*
G04 APERTURE END LIST*
D10*
X32000000Y-30750000D02*
X31500000Y-30750000D01*
X32000000Y-32250000D02*
X32000000Y-30750000D01*
X31500000Y-32250000D02*
X32000000Y-32250000D01*
X31500000Y-30750000D02*
X31500000Y-32250000D01*
X33500000Y-30000000D02*
X31500000Y-30000000D01*
X33500000Y-33000000D02*
X33500000Y-30000000D01*
X31500000Y-33000000D02*
X33500000Y-33000000D01*
X31500000Y-34000000D02*
X31500000Y-33000000D01*
X17500000Y-35000000D02*
X18500000Y-34000000D01*
X26500000Y-34000000D02*
X27500000Y-35000000D01*
X26500000Y-30000000D02*
X26500000Y-34000000D01*
X18500000Y-30000000D02*
X18500000Y-34000000D01*
X30500000Y-35000000D02*
X27500000Y-35000000D01*
X14500000Y-35000000D02*
X17500000Y-35000000D01*
X13500000Y-34000000D02*
X14500000Y-35000000D01*
X30500000Y-35000000D02*
X31500000Y-34000000D01*
X30500000Y-5000000D02*
X31500000Y-6000000D01*
X13500000Y-6000000D02*
X14500000Y-5000000D01*
X18500000Y-30000000D02*
X26500000Y-30000000D01*
X14500000Y-5000000D02*
X30500000Y-5000000D01*
X31500000Y-6000000D02*
X31500000Y-30000000D01*
X13500000Y-6000000D02*
X13500000Y-34000000D01*
M02*
