G04 #@! TF.GenerationSoftware,KiCad,Pcbnew,(5.1.7)-1*
G04 #@! TF.CreationDate,2022-02-16T20:37:06+01:00*
G04 #@! TF.ProjectId,bluetooth-board,626c7565-746f-46f7-9468-2d626f617264,rev?*
G04 #@! TF.SameCoordinates,Original*
G04 #@! TF.FileFunction,Copper,L2,Bot*
G04 #@! TF.FilePolarity,Positive*
%FSLAX46Y46*%
G04 Gerber Fmt 4.6, Leading zero omitted, Abs format (unit mm)*
G04 Created by KiCad (PCBNEW (5.1.7)-1) date 2022-02-16 20:37:06*
%MOMM*%
%LPD*%
G01*
G04 APERTURE LIST*
G04 #@! TA.AperFunction,ComponentPad*
%ADD10R,1.700000X1.700000*%
G04 #@! TD*
G04 #@! TA.AperFunction,ComponentPad*
%ADD11O,1.700000X1.700000*%
G04 #@! TD*
G04 #@! TA.AperFunction,ComponentPad*
%ADD12C,1.700000*%
G04 #@! TD*
G04 #@! TA.AperFunction,ComponentPad*
%ADD13C,1.600000*%
G04 #@! TD*
G04 #@! TA.AperFunction,ComponentPad*
%ADD14O,1.600000X1.600000*%
G04 #@! TD*
G04 #@! TA.AperFunction,Conductor*
%ADD15C,0.500000*%
G04 #@! TD*
G04 #@! TA.AperFunction,Conductor*
%ADD16C,1.500000*%
G04 #@! TD*
G04 APERTURE END LIST*
D10*
X139500000Y-41750000D03*
D11*
X139500000Y-44290000D03*
X139500000Y-46830000D03*
D10*
X40500000Y-46830000D03*
D11*
X40500000Y-44290000D03*
X40500000Y-41750000D03*
D12*
X61650000Y-61750000D03*
D11*
X64190000Y-61750000D03*
X66730000Y-61750000D03*
X69270000Y-61750000D03*
X71810000Y-61750000D03*
X74350000Y-61750000D03*
D13*
X45000000Y-46830000D03*
D14*
X55160000Y-46830000D03*
D13*
X45000000Y-41750000D03*
D14*
X55160000Y-41750000D03*
D15*
X59000000Y-48000000D02*
X59000000Y-45590000D01*
X64190000Y-53190000D02*
X59000000Y-48000000D01*
X64190000Y-61750000D02*
X64190000Y-53190000D01*
X55160000Y-41750000D02*
X59000000Y-45590000D01*
X61650000Y-53320000D02*
X55160000Y-46830000D01*
X61650000Y-61750000D02*
X61650000Y-53320000D01*
D16*
X85475010Y-66524990D02*
X68024990Y-66524990D01*
X58524990Y-66524990D02*
X50000000Y-58000000D01*
X66730000Y-66279980D02*
X66975010Y-66524990D01*
X66730000Y-61750000D02*
X66730000Y-66279980D01*
X66975010Y-66524990D02*
X58524990Y-66524990D01*
X68024990Y-66524990D02*
X66975010Y-66524990D01*
X105170000Y-46830000D02*
X85475010Y-66524990D01*
X139500000Y-46830000D02*
X105170000Y-46830000D01*
X48290000Y-44290000D02*
X40500000Y-44290000D01*
X50000000Y-46000000D02*
X48290000Y-44290000D01*
X50000000Y-58000000D02*
X50000000Y-46000000D01*
D15*
X139500000Y-41750000D02*
X103750000Y-41750000D01*
X83750000Y-61750000D02*
X74350000Y-61750000D01*
X103750000Y-41750000D02*
X83750000Y-61750000D01*
X40500000Y-46830000D02*
X45000000Y-46830000D01*
X40500000Y-41750000D02*
X45000000Y-41750000D01*
D16*
X70000000Y-64500000D02*
X84000000Y-64500000D01*
X69270000Y-63770000D02*
X70000000Y-64500000D01*
X69270000Y-61750000D02*
X69270000Y-63770000D01*
X104210000Y-44290000D02*
X84000000Y-64500000D01*
X139500000Y-44290000D02*
X104210000Y-44290000D01*
M02*
