G04 #@! TF.GenerationSoftware,KiCad,Pcbnew,(5.1.7)-1*
G04 #@! TF.CreationDate,2022-02-16T20:37:06+01:00*
G04 #@! TF.ProjectId,bluetooth-board,626c7565-746f-46f7-9468-2d626f617264,rev?*
G04 #@! TF.SameCoordinates,Original*
G04 #@! TF.FileFunction,Legend,Top*
G04 #@! TF.FilePolarity,Positive*
%FSLAX46Y46*%
G04 Gerber Fmt 4.6, Leading zero omitted, Abs format (unit mm)*
G04 Created by KiCad (PCBNEW (5.1.7)-1) date 2022-02-16 20:37:06*
%MOMM*%
%LPD*%
G01*
G04 APERTURE LIST*
%ADD10C,0.150000*%
%ADD11C,0.120000*%
%ADD12R,1.700000X1.700000*%
%ADD13O,1.700000X1.700000*%
%ADD14C,1.700000*%
%ADD15C,1.600000*%
%ADD16O,1.600000X1.600000*%
%ADD17C,3.200000*%
G04 APERTURE END LIST*
D10*
X43109404Y-43790000D02*
X43014166Y-43742380D01*
X42871309Y-43742380D01*
X42728452Y-43790000D01*
X42633214Y-43885238D01*
X42585595Y-43980476D01*
X42537976Y-44170952D01*
X42537976Y-44313809D01*
X42585595Y-44504285D01*
X42633214Y-44599523D01*
X42728452Y-44694761D01*
X42871309Y-44742380D01*
X42966547Y-44742380D01*
X43109404Y-44694761D01*
X43157023Y-44647142D01*
X43157023Y-44313809D01*
X42966547Y-44313809D01*
X43585595Y-44742380D02*
X43585595Y-43742380D01*
X44157023Y-44742380D01*
X44157023Y-43742380D01*
X44633214Y-44742380D02*
X44633214Y-43742380D01*
X44871309Y-43742380D01*
X45014166Y-43790000D01*
X45109404Y-43885238D01*
X45157023Y-43980476D01*
X45204642Y-44170952D01*
X45204642Y-44313809D01*
X45157023Y-44504285D01*
X45109404Y-44599523D01*
X45014166Y-44694761D01*
X44871309Y-44742380D01*
X44633214Y-44742380D01*
X74802380Y-66121309D02*
X73802380Y-66121309D01*
X74802380Y-65549880D02*
X74230952Y-65978452D01*
X73802380Y-65549880D02*
X74373809Y-66121309D01*
X74278571Y-65121309D02*
X74278571Y-64787976D01*
X74802380Y-64645119D02*
X74802380Y-65121309D01*
X73802380Y-65121309D01*
X73802380Y-64645119D01*
X74326190Y-64026071D02*
X74802380Y-64026071D01*
X73802380Y-64359404D02*
X74326190Y-64026071D01*
X73802380Y-63692738D01*
X62102380Y-63787976D02*
X61626190Y-64121309D01*
X62102380Y-64359404D02*
X61102380Y-64359404D01*
X61102380Y-63978452D01*
X61150000Y-63883214D01*
X61197619Y-63835595D01*
X61292857Y-63787976D01*
X61435714Y-63787976D01*
X61530952Y-63835595D01*
X61578571Y-63883214D01*
X61626190Y-63978452D01*
X61626190Y-64359404D01*
X64642380Y-63692738D02*
X64642380Y-64168928D01*
X63642380Y-64168928D01*
X66230000Y-65883214D02*
X66182380Y-65978452D01*
X66182380Y-66121309D01*
X66230000Y-66264166D01*
X66325238Y-66359404D01*
X66420476Y-66407023D01*
X66610952Y-66454642D01*
X66753809Y-66454642D01*
X66944285Y-66407023D01*
X67039523Y-66359404D01*
X67134761Y-66264166D01*
X67182380Y-66121309D01*
X67182380Y-66026071D01*
X67134761Y-65883214D01*
X67087142Y-65835595D01*
X66753809Y-65835595D01*
X66753809Y-66026071D01*
X67182380Y-65407023D02*
X66182380Y-65407023D01*
X67182380Y-64835595D01*
X66182380Y-64835595D01*
X67182380Y-64359404D02*
X66182380Y-64359404D01*
X66182380Y-64121309D01*
X66230000Y-63978452D01*
X66325238Y-63883214D01*
X66420476Y-63835595D01*
X66610952Y-63787976D01*
X66753809Y-63787976D01*
X66944285Y-63835595D01*
X67039523Y-63883214D01*
X67134761Y-63978452D01*
X67182380Y-64121309D01*
X67182380Y-64359404D01*
X68722380Y-64692738D02*
X68722380Y-65168928D01*
X69198571Y-65216547D01*
X69150952Y-65168928D01*
X69103333Y-65073690D01*
X69103333Y-64835595D01*
X69150952Y-64740357D01*
X69198571Y-64692738D01*
X69293809Y-64645119D01*
X69531904Y-64645119D01*
X69627142Y-64692738D01*
X69674761Y-64740357D01*
X69722380Y-64835595D01*
X69722380Y-65073690D01*
X69674761Y-65168928D01*
X69627142Y-65216547D01*
X68722380Y-64359404D02*
X69722380Y-64026071D01*
X68722380Y-63692738D01*
D11*
X60000000Y-63000000D02*
X76000000Y-63000000D01*
D10*
X135366785Y-46330000D02*
X135271547Y-46282380D01*
X135128690Y-46282380D01*
X134985833Y-46330000D01*
X134890595Y-46425238D01*
X134842976Y-46520476D01*
X134795357Y-46710952D01*
X134795357Y-46853809D01*
X134842976Y-47044285D01*
X134890595Y-47139523D01*
X134985833Y-47234761D01*
X135128690Y-47282380D01*
X135223928Y-47282380D01*
X135366785Y-47234761D01*
X135414404Y-47187142D01*
X135414404Y-46853809D01*
X135223928Y-46853809D01*
X135842976Y-47282380D02*
X135842976Y-46282380D01*
X136414404Y-47282380D01*
X136414404Y-46282380D01*
X136890595Y-47282380D02*
X136890595Y-46282380D01*
X137128690Y-46282380D01*
X137271547Y-46330000D01*
X137366785Y-46425238D01*
X137414404Y-46520476D01*
X137462023Y-46710952D01*
X137462023Y-46853809D01*
X137414404Y-47044285D01*
X137366785Y-47139523D01*
X137271547Y-47234761D01*
X137128690Y-47282380D01*
X136890595Y-47282380D01*
X136557261Y-43742380D02*
X136081071Y-43742380D01*
X136033452Y-44218571D01*
X136081071Y-44170952D01*
X136176309Y-44123333D01*
X136414404Y-44123333D01*
X136509642Y-44170952D01*
X136557261Y-44218571D01*
X136604880Y-44313809D01*
X136604880Y-44551904D01*
X136557261Y-44647142D01*
X136509642Y-44694761D01*
X136414404Y-44742380D01*
X136176309Y-44742380D01*
X136081071Y-44694761D01*
X136033452Y-44647142D01*
X136890595Y-43742380D02*
X137223928Y-44742380D01*
X137557261Y-43742380D01*
X135128690Y-42202380D02*
X135128690Y-41202380D01*
X135700119Y-42202380D02*
X135271547Y-41630952D01*
X135700119Y-41202380D02*
X135128690Y-41773809D01*
X136128690Y-41678571D02*
X136462023Y-41678571D01*
X136604880Y-42202380D02*
X136128690Y-42202380D01*
X136128690Y-41202380D01*
X136604880Y-41202380D01*
X137223928Y-41726190D02*
X137223928Y-42202380D01*
X136890595Y-41202380D02*
X137223928Y-41726190D01*
X137557261Y-41202380D01*
X43157023Y-47202380D02*
X42823690Y-46726190D01*
X42585595Y-47202380D02*
X42585595Y-46202380D01*
X42966547Y-46202380D01*
X43061785Y-46250000D01*
X43109404Y-46297619D01*
X43157023Y-46392857D01*
X43157023Y-46535714D01*
X43109404Y-46630952D01*
X43061785Y-46678571D01*
X42966547Y-46726190D01*
X42585595Y-46726190D01*
X43061785Y-42202380D02*
X42585595Y-42202380D01*
X42585595Y-41202380D01*
X64357142Y-51603571D02*
X64500000Y-51651190D01*
X64547619Y-51698809D01*
X64595238Y-51794047D01*
X64595238Y-51936904D01*
X64547619Y-52032142D01*
X64500000Y-52079761D01*
X64404761Y-52127380D01*
X64023809Y-52127380D01*
X64023809Y-51127380D01*
X64357142Y-51127380D01*
X64452380Y-51175000D01*
X64500000Y-51222619D01*
X64547619Y-51317857D01*
X64547619Y-51413095D01*
X64500000Y-51508333D01*
X64452380Y-51555952D01*
X64357142Y-51603571D01*
X64023809Y-51603571D01*
X65500000Y-52127380D02*
X65023809Y-52127380D01*
X65023809Y-51127380D01*
X65833333Y-51127380D02*
X65833333Y-51936904D01*
X65880952Y-52032142D01*
X65928571Y-52079761D01*
X66023809Y-52127380D01*
X66214285Y-52127380D01*
X66309523Y-52079761D01*
X66357142Y-52032142D01*
X66404761Y-51936904D01*
X66404761Y-51127380D01*
X66880952Y-51603571D02*
X67214285Y-51603571D01*
X67357142Y-52127380D02*
X66880952Y-52127380D01*
X66880952Y-51127380D01*
X67357142Y-51127380D01*
X67642857Y-51127380D02*
X68214285Y-51127380D01*
X67928571Y-52127380D02*
X67928571Y-51127380D01*
X68738095Y-51127380D02*
X68928571Y-51127380D01*
X69023809Y-51175000D01*
X69119047Y-51270238D01*
X69166666Y-51460714D01*
X69166666Y-51794047D01*
X69119047Y-51984523D01*
X69023809Y-52079761D01*
X68928571Y-52127380D01*
X68738095Y-52127380D01*
X68642857Y-52079761D01*
X68547619Y-51984523D01*
X68500000Y-51794047D01*
X68500000Y-51460714D01*
X68547619Y-51270238D01*
X68642857Y-51175000D01*
X68738095Y-51127380D01*
X69785714Y-51127380D02*
X69976190Y-51127380D01*
X70071428Y-51175000D01*
X70166666Y-51270238D01*
X70214285Y-51460714D01*
X70214285Y-51794047D01*
X70166666Y-51984523D01*
X70071428Y-52079761D01*
X69976190Y-52127380D01*
X69785714Y-52127380D01*
X69690476Y-52079761D01*
X69595238Y-51984523D01*
X69547619Y-51794047D01*
X69547619Y-51460714D01*
X69595238Y-51270238D01*
X69690476Y-51175000D01*
X69785714Y-51127380D01*
X70500000Y-51127380D02*
X71071428Y-51127380D01*
X70785714Y-52127380D02*
X70785714Y-51127380D01*
X71404761Y-52127380D02*
X71404761Y-51127380D01*
X71404761Y-51603571D02*
X71976190Y-51603571D01*
X71976190Y-52127380D02*
X71976190Y-51127380D01*
X66714285Y-53777380D02*
X66714285Y-52777380D01*
X67047619Y-53491666D01*
X67380952Y-52777380D01*
X67380952Y-53777380D01*
X68380952Y-53777380D02*
X67809523Y-53777380D01*
X68095238Y-53777380D02*
X68095238Y-52777380D01*
X68000000Y-52920238D01*
X67904761Y-53015476D01*
X67809523Y-53063095D01*
X68952380Y-53205952D02*
X68857142Y-53158333D01*
X68809523Y-53110714D01*
X68761904Y-53015476D01*
X68761904Y-52967857D01*
X68809523Y-52872619D01*
X68857142Y-52825000D01*
X68952380Y-52777380D01*
X69142857Y-52777380D01*
X69238095Y-52825000D01*
X69285714Y-52872619D01*
X69333333Y-52967857D01*
X69333333Y-53015476D01*
X69285714Y-53110714D01*
X69238095Y-53158333D01*
X69142857Y-53205952D01*
X68952380Y-53205952D01*
X68857142Y-53253571D01*
X68809523Y-53301190D01*
X68761904Y-53396428D01*
X68761904Y-53586904D01*
X68809523Y-53682142D01*
X68857142Y-53729761D01*
X68952380Y-53777380D01*
X69142857Y-53777380D01*
X69238095Y-53729761D01*
X69285714Y-53682142D01*
X69333333Y-53586904D01*
X69333333Y-53396428D01*
X69285714Y-53301190D01*
X69238095Y-53253571D01*
X69142857Y-53205952D01*
D11*
X60000000Y-46500000D02*
X60000000Y-63000000D01*
X76000000Y-46500000D02*
X76000000Y-63000000D01*
X138230000Y-40480000D02*
X139500000Y-40480000D01*
X138230000Y-41750000D02*
X138230000Y-40480000D01*
X140542929Y-47210000D02*
X140940000Y-47210000D01*
X140542929Y-46450000D02*
X140940000Y-46450000D01*
X149600000Y-47210000D02*
X143600000Y-47210000D01*
X149600000Y-46450000D02*
X149600000Y-47210000D01*
X143600000Y-46450000D02*
X149600000Y-46450000D01*
X140940000Y-45560000D02*
X143600000Y-45560000D01*
X140542929Y-44670000D02*
X140940000Y-44670000D01*
X140542929Y-43910000D02*
X140940000Y-43910000D01*
X149600000Y-44670000D02*
X143600000Y-44670000D01*
X149600000Y-43910000D02*
X149600000Y-44670000D01*
X143600000Y-43910000D02*
X149600000Y-43910000D01*
X140940000Y-43020000D02*
X143600000Y-43020000D01*
X140610000Y-42130000D02*
X140940000Y-42130000D01*
X140610000Y-41370000D02*
X140940000Y-41370000D01*
X143600000Y-42030000D02*
X149600000Y-42030000D01*
X143600000Y-41910000D02*
X149600000Y-41910000D01*
X143600000Y-41790000D02*
X149600000Y-41790000D01*
X143600000Y-41670000D02*
X149600000Y-41670000D01*
X143600000Y-41550000D02*
X149600000Y-41550000D01*
X143600000Y-41430000D02*
X149600000Y-41430000D01*
X149600000Y-42130000D02*
X143600000Y-42130000D01*
X149600000Y-41370000D02*
X149600000Y-42130000D01*
X143600000Y-41370000D02*
X149600000Y-41370000D01*
X143600000Y-40420000D02*
X140940000Y-40420000D01*
X143600000Y-48160000D02*
X143600000Y-40420000D01*
X140940000Y-48160000D02*
X143600000Y-48160000D01*
X140940000Y-40420000D02*
X140940000Y-48160000D01*
X39060000Y-48160000D02*
X39060000Y-40420000D01*
X39060000Y-40420000D02*
X36400000Y-40420000D01*
X36400000Y-40420000D02*
X36400000Y-48160000D01*
X36400000Y-48160000D02*
X39060000Y-48160000D01*
X36400000Y-47210000D02*
X30400000Y-47210000D01*
X30400000Y-47210000D02*
X30400000Y-46450000D01*
X30400000Y-46450000D02*
X36400000Y-46450000D01*
X36400000Y-47150000D02*
X30400000Y-47150000D01*
X36400000Y-47030000D02*
X30400000Y-47030000D01*
X36400000Y-46910000D02*
X30400000Y-46910000D01*
X36400000Y-46790000D02*
X30400000Y-46790000D01*
X36400000Y-46670000D02*
X30400000Y-46670000D01*
X36400000Y-46550000D02*
X30400000Y-46550000D01*
X39390000Y-47210000D02*
X39060000Y-47210000D01*
X39390000Y-46450000D02*
X39060000Y-46450000D01*
X39060000Y-45560000D02*
X36400000Y-45560000D01*
X36400000Y-44670000D02*
X30400000Y-44670000D01*
X30400000Y-44670000D02*
X30400000Y-43910000D01*
X30400000Y-43910000D02*
X36400000Y-43910000D01*
X39457071Y-44670000D02*
X39060000Y-44670000D01*
X39457071Y-43910000D02*
X39060000Y-43910000D01*
X39060000Y-43020000D02*
X36400000Y-43020000D01*
X36400000Y-42130000D02*
X30400000Y-42130000D01*
X30400000Y-42130000D02*
X30400000Y-41370000D01*
X30400000Y-41370000D02*
X36400000Y-41370000D01*
X39457071Y-42130000D02*
X39060000Y-42130000D01*
X39457071Y-41370000D02*
X39060000Y-41370000D01*
X41770000Y-46830000D02*
X41770000Y-48100000D01*
X41770000Y-48100000D02*
X40500000Y-48100000D01*
X46870000Y-45520000D02*
X46870000Y-48140000D01*
X46870000Y-48140000D02*
X53290000Y-48140000D01*
X53290000Y-48140000D02*
X53290000Y-45520000D01*
X53290000Y-45520000D02*
X46870000Y-45520000D01*
X45980000Y-46830000D02*
X46870000Y-46830000D01*
X54180000Y-46830000D02*
X53290000Y-46830000D01*
X46870000Y-40440000D02*
X46870000Y-43060000D01*
X46870000Y-43060000D02*
X53290000Y-43060000D01*
X53290000Y-43060000D02*
X53290000Y-40440000D01*
X53290000Y-40440000D02*
X46870000Y-40440000D01*
X45980000Y-41750000D02*
X46870000Y-41750000D01*
X54180000Y-41750000D02*
X53290000Y-41750000D01*
%LPC*%
D12*
X139500000Y-41750000D03*
D13*
X139500000Y-44290000D03*
X139500000Y-46830000D03*
D12*
X40500000Y-46830000D03*
D13*
X40500000Y-44290000D03*
X40500000Y-41750000D03*
D14*
X61650000Y-61750000D03*
D13*
X64190000Y-61750000D03*
X66730000Y-61750000D03*
X69270000Y-61750000D03*
X71810000Y-61750000D03*
X74350000Y-61750000D03*
D15*
X45000000Y-46830000D03*
D16*
X55160000Y-46830000D03*
D15*
X45000000Y-41750000D03*
D16*
X55160000Y-41750000D03*
D17*
X142500000Y-57500000D03*
X37500000Y-57500000D03*
M02*
