G04 #@! TF.GenerationSoftware,KiCad,Pcbnew,(5.1.7)-1*
G04 #@! TF.CreationDate,2021-12-21T19:24:07+01:00*
G04 #@! TF.ProjectId,ct-1740-psu-board,63742d31-3734-4302-9d70-73752d626f61,rev?*
G04 #@! TF.SameCoordinates,Original*
G04 #@! TF.FileFunction,Legend,Top*
G04 #@! TF.FilePolarity,Positive*
%FSLAX46Y46*%
G04 Gerber Fmt 4.6, Leading zero omitted, Abs format (unit mm)*
G04 Created by KiCad (PCBNEW (5.1.7)-1) date 2021-12-21 19:24:07*
%MOMM*%
%LPD*%
G01*
G04 APERTURE LIST*
%ADD10C,0.150000*%
%ADD11C,0.120000*%
G04 APERTURE END LIST*
D10*
X26702380Y-92809523D02*
X26702380Y-93000000D01*
X26750000Y-93095238D01*
X26797619Y-93142857D01*
X26940476Y-93238095D01*
X27130952Y-93285714D01*
X27511904Y-93285714D01*
X27607142Y-93238095D01*
X27654761Y-93190476D01*
X27702380Y-93095238D01*
X27702380Y-92904761D01*
X27654761Y-92809523D01*
X27607142Y-92761904D01*
X27511904Y-92714285D01*
X27273809Y-92714285D01*
X27178571Y-92761904D01*
X27130952Y-92809523D01*
X27083333Y-92904761D01*
X27083333Y-93095238D01*
X27130952Y-93190476D01*
X27178571Y-93238095D01*
X27273809Y-93285714D01*
X26702380Y-90261904D02*
X26702380Y-90738095D01*
X27178571Y-90785714D01*
X27130952Y-90738095D01*
X27083333Y-90642857D01*
X27083333Y-90404761D01*
X27130952Y-90309523D01*
X27178571Y-90261904D01*
X27273809Y-90214285D01*
X27511904Y-90214285D01*
X27607142Y-90261904D01*
X27654761Y-90309523D01*
X27702380Y-90404761D01*
X27702380Y-90642857D01*
X27654761Y-90738095D01*
X27607142Y-90785714D01*
X27035714Y-87809523D02*
X27702380Y-87809523D01*
X26654761Y-88047619D02*
X27369047Y-88285714D01*
X27369047Y-87666666D01*
X26702380Y-85833333D02*
X26702380Y-85214285D01*
X27083333Y-85547619D01*
X27083333Y-85404761D01*
X27130952Y-85309523D01*
X27178571Y-85261904D01*
X27273809Y-85214285D01*
X27511904Y-85214285D01*
X27607142Y-85261904D01*
X27654761Y-85309523D01*
X27702380Y-85404761D01*
X27702380Y-85690476D01*
X27654761Y-85785714D01*
X27607142Y-85833333D01*
X26797619Y-83285714D02*
X26750000Y-83238095D01*
X26702380Y-83142857D01*
X26702380Y-82904761D01*
X26750000Y-82809523D01*
X26797619Y-82761904D01*
X26892857Y-82714285D01*
X26988095Y-82714285D01*
X27130952Y-82761904D01*
X27702380Y-83333333D01*
X27702380Y-82714285D01*
X27702380Y-80214285D02*
X27702380Y-80785714D01*
X27702380Y-80500000D02*
X26702380Y-80500000D01*
X26845238Y-80595238D01*
X26940476Y-80690476D01*
X26988095Y-80785714D01*
X173738095Y-37071428D02*
X174500000Y-37071428D01*
X174119047Y-37452380D02*
X174119047Y-36690476D01*
X175500000Y-37452380D02*
X174928571Y-37452380D01*
X175214285Y-37452380D02*
X175214285Y-36452380D01*
X175119047Y-36595238D01*
X175023809Y-36690476D01*
X174928571Y-36738095D01*
X176357142Y-36785714D02*
X176357142Y-37452380D01*
X176119047Y-36404761D02*
X175880952Y-37119047D01*
X176500000Y-37119047D01*
X176738095Y-36452380D02*
X177071428Y-37452380D01*
X177404761Y-36452380D01*
X173738095Y-52311428D02*
X174500000Y-52311428D01*
X174119047Y-52692380D02*
X174119047Y-51930476D01*
X175500000Y-52692380D02*
X174928571Y-52692380D01*
X175214285Y-52692380D02*
X175214285Y-51692380D01*
X175119047Y-51835238D01*
X175023809Y-51930476D01*
X174928571Y-51978095D01*
X175833333Y-51692380D02*
X176452380Y-51692380D01*
X176119047Y-52073333D01*
X176261904Y-52073333D01*
X176357142Y-52120952D01*
X176404761Y-52168571D01*
X176452380Y-52263809D01*
X176452380Y-52501904D01*
X176404761Y-52597142D01*
X176357142Y-52644761D01*
X176261904Y-52692380D01*
X175976190Y-52692380D01*
X175880952Y-52644761D01*
X175833333Y-52597142D01*
X176738095Y-51692380D02*
X177071428Y-52692380D01*
X177404761Y-51692380D01*
X173738095Y-57391428D02*
X174500000Y-57391428D01*
X174119047Y-57772380D02*
X174119047Y-57010476D01*
X174928571Y-56867619D02*
X174976190Y-56820000D01*
X175071428Y-56772380D01*
X175309523Y-56772380D01*
X175404761Y-56820000D01*
X175452380Y-56867619D01*
X175500000Y-56962857D01*
X175500000Y-57058095D01*
X175452380Y-57200952D01*
X174880952Y-57772380D01*
X175500000Y-57772380D01*
X176357142Y-57105714D02*
X176357142Y-57772380D01*
X176119047Y-56724761D02*
X175880952Y-57439047D01*
X176500000Y-57439047D01*
X176738095Y-56772380D02*
X177071428Y-57772380D01*
X177404761Y-56772380D01*
X82188095Y-99071428D02*
X82950000Y-99071428D01*
X83950000Y-99452380D02*
X83378571Y-99452380D01*
X83664285Y-99452380D02*
X83664285Y-98452380D01*
X83569047Y-98595238D01*
X83473809Y-98690476D01*
X83378571Y-98738095D01*
X84521428Y-98880952D02*
X84426190Y-98833333D01*
X84378571Y-98785714D01*
X84330952Y-98690476D01*
X84330952Y-98642857D01*
X84378571Y-98547619D01*
X84426190Y-98500000D01*
X84521428Y-98452380D01*
X84711904Y-98452380D01*
X84807142Y-98500000D01*
X84854761Y-98547619D01*
X84902380Y-98642857D01*
X84902380Y-98690476D01*
X84854761Y-98785714D01*
X84807142Y-98833333D01*
X84711904Y-98880952D01*
X84521428Y-98880952D01*
X84426190Y-98928571D01*
X84378571Y-98976190D01*
X84330952Y-99071428D01*
X84330952Y-99261904D01*
X84378571Y-99357142D01*
X84426190Y-99404761D01*
X84521428Y-99452380D01*
X84711904Y-99452380D01*
X84807142Y-99404761D01*
X84854761Y-99357142D01*
X84902380Y-99261904D01*
X84902380Y-99071428D01*
X84854761Y-98976190D01*
X84807142Y-98928571D01*
X84711904Y-98880952D01*
X85188095Y-98452380D02*
X85521428Y-99452380D01*
X85854761Y-98452380D01*
X67664285Y-99071428D02*
X68426190Y-99071428D01*
X68045238Y-99452380D02*
X68045238Y-98690476D01*
X69378571Y-98452380D02*
X68902380Y-98452380D01*
X68854761Y-98928571D01*
X68902380Y-98880952D01*
X68997619Y-98833333D01*
X69235714Y-98833333D01*
X69330952Y-98880952D01*
X69378571Y-98928571D01*
X69426190Y-99023809D01*
X69426190Y-99261904D01*
X69378571Y-99357142D01*
X69330952Y-99404761D01*
X69235714Y-99452380D01*
X68997619Y-99452380D01*
X68902380Y-99404761D01*
X68854761Y-99357142D01*
X69711904Y-98452380D02*
X70045238Y-99452380D01*
X70378571Y-98452380D01*
X52188095Y-99071428D02*
X52950000Y-99071428D01*
X52569047Y-99452380D02*
X52569047Y-98690476D01*
X53950000Y-99452380D02*
X53378571Y-99452380D01*
X53664285Y-99452380D02*
X53664285Y-98452380D01*
X53569047Y-98595238D01*
X53473809Y-98690476D01*
X53378571Y-98738095D01*
X54854761Y-98452380D02*
X54378571Y-98452380D01*
X54330952Y-98928571D01*
X54378571Y-98880952D01*
X54473809Y-98833333D01*
X54711904Y-98833333D01*
X54807142Y-98880952D01*
X54854761Y-98928571D01*
X54902380Y-99023809D01*
X54902380Y-99261904D01*
X54854761Y-99357142D01*
X54807142Y-99404761D01*
X54711904Y-99452380D01*
X54473809Y-99452380D01*
X54378571Y-99404761D01*
X54330952Y-99357142D01*
X55188095Y-98452380D02*
X55521428Y-99452380D01*
X55854761Y-98452380D01*
X50166666Y-64452380D02*
X50738095Y-64452380D01*
X50452380Y-65452380D02*
X50452380Y-64452380D01*
X51500000Y-64452380D02*
X51309523Y-64452380D01*
X51214285Y-64500000D01*
X51166666Y-64547619D01*
X51071428Y-64690476D01*
X51023809Y-64880952D01*
X51023809Y-65261904D01*
X51071428Y-65357142D01*
X51119047Y-65404761D01*
X51214285Y-65452380D01*
X51404761Y-65452380D01*
X51500000Y-65404761D01*
X51547619Y-65357142D01*
X51595238Y-65261904D01*
X51595238Y-65023809D01*
X51547619Y-64928571D01*
X51500000Y-64880952D01*
X51404761Y-64833333D01*
X51214285Y-64833333D01*
X51119047Y-64880952D01*
X51071428Y-64928571D01*
X51023809Y-65023809D01*
X51928571Y-64452380D02*
X52547619Y-64452380D01*
X52214285Y-64833333D01*
X52357142Y-64833333D01*
X52452380Y-64880952D01*
X52500000Y-64928571D01*
X52547619Y-65023809D01*
X52547619Y-65261904D01*
X52500000Y-65357142D01*
X52452380Y-65404761D01*
X52357142Y-65452380D01*
X52071428Y-65452380D01*
X51976190Y-65404761D01*
X51928571Y-65357142D01*
X52976190Y-65452380D02*
X52976190Y-64785714D01*
X52976190Y-64880952D02*
X53023809Y-64833333D01*
X53119047Y-64785714D01*
X53261904Y-64785714D01*
X53357142Y-64833333D01*
X53404761Y-64928571D01*
X53404761Y-65452380D01*
X53404761Y-64928571D02*
X53452380Y-64833333D01*
X53547619Y-64785714D01*
X53690476Y-64785714D01*
X53785714Y-64833333D01*
X53833333Y-64928571D01*
X53833333Y-65452380D01*
X54261904Y-65166666D02*
X54738095Y-65166666D01*
X54166666Y-65452380D02*
X54500000Y-64452380D01*
X54833333Y-65452380D01*
X49690476Y-51952380D02*
X50261904Y-51952380D01*
X49976190Y-52952380D02*
X49976190Y-51952380D01*
X51119047Y-52952380D02*
X50547619Y-52952380D01*
X50833333Y-52952380D02*
X50833333Y-51952380D01*
X50738095Y-52095238D01*
X50642857Y-52190476D01*
X50547619Y-52238095D01*
X51976190Y-51952380D02*
X51785714Y-51952380D01*
X51690476Y-52000000D01*
X51642857Y-52047619D01*
X51547619Y-52190476D01*
X51500000Y-52380952D01*
X51500000Y-52761904D01*
X51547619Y-52857142D01*
X51595238Y-52904761D01*
X51690476Y-52952380D01*
X51880952Y-52952380D01*
X51976190Y-52904761D01*
X52023809Y-52857142D01*
X52071428Y-52761904D01*
X52071428Y-52523809D01*
X52023809Y-52428571D01*
X51976190Y-52380952D01*
X51880952Y-52333333D01*
X51690476Y-52333333D01*
X51595238Y-52380952D01*
X51547619Y-52428571D01*
X51500000Y-52523809D01*
X52690476Y-51952380D02*
X52785714Y-51952380D01*
X52880952Y-52000000D01*
X52928571Y-52047619D01*
X52976190Y-52142857D01*
X53023809Y-52333333D01*
X53023809Y-52571428D01*
X52976190Y-52761904D01*
X52928571Y-52857142D01*
X52880952Y-52904761D01*
X52785714Y-52952380D01*
X52690476Y-52952380D01*
X52595238Y-52904761D01*
X52547619Y-52857142D01*
X52500000Y-52761904D01*
X52452380Y-52571428D01*
X52452380Y-52333333D01*
X52500000Y-52142857D01*
X52547619Y-52047619D01*
X52595238Y-52000000D01*
X52690476Y-51952380D01*
X53452380Y-52952380D02*
X53452380Y-52285714D01*
X53452380Y-52380952D02*
X53500000Y-52333333D01*
X53595238Y-52285714D01*
X53738095Y-52285714D01*
X53833333Y-52333333D01*
X53880952Y-52428571D01*
X53880952Y-52952380D01*
X53880952Y-52428571D02*
X53928571Y-52333333D01*
X54023809Y-52285714D01*
X54166666Y-52285714D01*
X54261904Y-52333333D01*
X54309523Y-52428571D01*
X54309523Y-52952380D01*
X54738095Y-52666666D02*
X55214285Y-52666666D01*
X54642857Y-52952380D02*
X54976190Y-51952380D01*
X55309523Y-52952380D01*
X49690476Y-39452380D02*
X50261904Y-39452380D01*
X49976190Y-40452380D02*
X49976190Y-39452380D01*
X50500000Y-39452380D02*
X51119047Y-39452380D01*
X50785714Y-39833333D01*
X50928571Y-39833333D01*
X51023809Y-39880952D01*
X51071428Y-39928571D01*
X51119047Y-40023809D01*
X51119047Y-40261904D01*
X51071428Y-40357142D01*
X51023809Y-40404761D01*
X50928571Y-40452380D01*
X50642857Y-40452380D01*
X50547619Y-40404761D01*
X50500000Y-40357142D01*
X52071428Y-40452380D02*
X51500000Y-40452380D01*
X51785714Y-40452380D02*
X51785714Y-39452380D01*
X51690476Y-39595238D01*
X51595238Y-39690476D01*
X51500000Y-39738095D01*
X52976190Y-39452380D02*
X52500000Y-39452380D01*
X52452380Y-39928571D01*
X52500000Y-39880952D01*
X52595238Y-39833333D01*
X52833333Y-39833333D01*
X52928571Y-39880952D01*
X52976190Y-39928571D01*
X53023809Y-40023809D01*
X53023809Y-40261904D01*
X52976190Y-40357142D01*
X52928571Y-40404761D01*
X52833333Y-40452380D01*
X52595238Y-40452380D01*
X52500000Y-40404761D01*
X52452380Y-40357142D01*
X53452380Y-40452380D02*
X53452380Y-39785714D01*
X53452380Y-39880952D02*
X53500000Y-39833333D01*
X53595238Y-39785714D01*
X53738095Y-39785714D01*
X53833333Y-39833333D01*
X53880952Y-39928571D01*
X53880952Y-40452380D01*
X53880952Y-39928571D02*
X53928571Y-39833333D01*
X54023809Y-39785714D01*
X54166666Y-39785714D01*
X54261904Y-39833333D01*
X54309523Y-39928571D01*
X54309523Y-40452380D01*
X54738095Y-40166666D02*
X55214285Y-40166666D01*
X54642857Y-40452380D02*
X54976190Y-39452380D01*
X55309523Y-40452380D01*
D11*
X181020000Y-67500000D02*
X180130000Y-67500000D01*
X172820000Y-67500000D02*
X173710000Y-67500000D01*
X180130000Y-66190000D02*
X173710000Y-66190000D01*
X180130000Y-68810000D02*
X180130000Y-66190000D01*
X173710000Y-68810000D02*
X180130000Y-68810000D01*
X173710000Y-66190000D02*
X173710000Y-68810000D01*
X106090000Y-64750000D02*
G75*
G03*
X106090000Y-64750000I-8090000J0D01*
G01*
X106051000Y-64750000D02*
X89949000Y-64750000D01*
X106050000Y-64790000D02*
X89950000Y-64790000D01*
X106050000Y-64830000D02*
X89950000Y-64830000D01*
X106050000Y-64870000D02*
X89950000Y-64870000D01*
X106049000Y-64910000D02*
X89951000Y-64910000D01*
X106048000Y-64950000D02*
X89952000Y-64950000D01*
X106047000Y-64990000D02*
X89953000Y-64990000D01*
X106046000Y-65030000D02*
X89954000Y-65030000D01*
X106044000Y-65070000D02*
X89956000Y-65070000D01*
X106042000Y-65110000D02*
X89958000Y-65110000D01*
X106041000Y-65150000D02*
X89959000Y-65150000D01*
X106039000Y-65190000D02*
X89961000Y-65190000D01*
X106036000Y-65230000D02*
X89964000Y-65230000D01*
X106034000Y-65270000D02*
X89966000Y-65270000D01*
X106031000Y-65310000D02*
X89969000Y-65310000D01*
X106028000Y-65350000D02*
X89972000Y-65350000D01*
X106025000Y-65390000D02*
X89975000Y-65390000D01*
X106022000Y-65430000D02*
X89978000Y-65430000D01*
X106018000Y-65471000D02*
X89982000Y-65471000D01*
X106015000Y-65511000D02*
X89985000Y-65511000D01*
X106011000Y-65551000D02*
X89989000Y-65551000D01*
X106007000Y-65591000D02*
X89993000Y-65591000D01*
X106002000Y-65631000D02*
X89998000Y-65631000D01*
X105998000Y-65671000D02*
X90002000Y-65671000D01*
X105993000Y-65711000D02*
X90007000Y-65711000D01*
X105988000Y-65751000D02*
X90012000Y-65751000D01*
X105983000Y-65791000D02*
X90017000Y-65791000D01*
X105978000Y-65831000D02*
X90022000Y-65831000D01*
X105973000Y-65871000D02*
X90027000Y-65871000D01*
X105967000Y-65911000D02*
X90033000Y-65911000D01*
X105961000Y-65951000D02*
X90039000Y-65951000D01*
X105955000Y-65991000D02*
X90045000Y-65991000D01*
X105949000Y-66031000D02*
X90051000Y-66031000D01*
X105942000Y-66071000D02*
X90058000Y-66071000D01*
X105935000Y-66111000D02*
X90065000Y-66111000D01*
X105928000Y-66151000D02*
X90072000Y-66151000D01*
X105921000Y-66191000D02*
X90079000Y-66191000D01*
X105914000Y-66231000D02*
X90086000Y-66231000D01*
X105906000Y-66271000D02*
X90094000Y-66271000D01*
X105899000Y-66311000D02*
X90101000Y-66311000D01*
X105891000Y-66351000D02*
X90109000Y-66351000D01*
X105883000Y-66391000D02*
X90117000Y-66391000D01*
X105874000Y-66431000D02*
X90126000Y-66431000D01*
X105866000Y-66471000D02*
X90134000Y-66471000D01*
X105857000Y-66511000D02*
X90143000Y-66511000D01*
X105848000Y-66551000D02*
X90152000Y-66551000D01*
X105838000Y-66591000D02*
X90162000Y-66591000D01*
X105829000Y-66631000D02*
X90171000Y-66631000D01*
X105819000Y-66671000D02*
X90181000Y-66671000D01*
X105809000Y-66711000D02*
X90191000Y-66711000D01*
X105799000Y-66751000D02*
X90201000Y-66751000D01*
X105789000Y-66791000D02*
X90211000Y-66791000D01*
X105779000Y-66831000D02*
X90221000Y-66831000D01*
X105768000Y-66871000D02*
X90232000Y-66871000D01*
X105757000Y-66911000D02*
X90243000Y-66911000D01*
X105746000Y-66951000D02*
X90254000Y-66951000D01*
X105734000Y-66991000D02*
X90266000Y-66991000D01*
X105723000Y-67031000D02*
X90277000Y-67031000D01*
X105711000Y-67071000D02*
X90289000Y-67071000D01*
X105699000Y-67111000D02*
X90301000Y-67111000D01*
X105686000Y-67151000D02*
X99380000Y-67151000D01*
X96620000Y-67151000D02*
X90314000Y-67151000D01*
X105674000Y-67191000D02*
X99380000Y-67191000D01*
X96620000Y-67191000D02*
X90326000Y-67191000D01*
X105661000Y-67231000D02*
X99380000Y-67231000D01*
X96620000Y-67231000D02*
X90339000Y-67231000D01*
X105648000Y-67271000D02*
X99380000Y-67271000D01*
X96620000Y-67271000D02*
X90352000Y-67271000D01*
X105635000Y-67311000D02*
X99380000Y-67311000D01*
X96620000Y-67311000D02*
X90365000Y-67311000D01*
X105621000Y-67351000D02*
X99380000Y-67351000D01*
X96620000Y-67351000D02*
X90379000Y-67351000D01*
X105608000Y-67391000D02*
X99380000Y-67391000D01*
X96620000Y-67391000D02*
X90392000Y-67391000D01*
X105594000Y-67431000D02*
X99380000Y-67431000D01*
X96620000Y-67431000D02*
X90406000Y-67431000D01*
X105580000Y-67471000D02*
X99380000Y-67471000D01*
X96620000Y-67471000D02*
X90420000Y-67471000D01*
X105565000Y-67511000D02*
X99380000Y-67511000D01*
X96620000Y-67511000D02*
X90435000Y-67511000D01*
X105550000Y-67551000D02*
X99380000Y-67551000D01*
X96620000Y-67551000D02*
X90450000Y-67551000D01*
X105536000Y-67591000D02*
X99380000Y-67591000D01*
X96620000Y-67591000D02*
X90464000Y-67591000D01*
X105521000Y-67631000D02*
X99380000Y-67631000D01*
X96620000Y-67631000D02*
X90479000Y-67631000D01*
X105505000Y-67671000D02*
X99380000Y-67671000D01*
X96620000Y-67671000D02*
X90495000Y-67671000D01*
X105490000Y-67711000D02*
X99380000Y-67711000D01*
X96620000Y-67711000D02*
X90510000Y-67711000D01*
X105474000Y-67751000D02*
X99380000Y-67751000D01*
X96620000Y-67751000D02*
X90526000Y-67751000D01*
X105458000Y-67791000D02*
X99380000Y-67791000D01*
X96620000Y-67791000D02*
X90542000Y-67791000D01*
X105441000Y-67831000D02*
X99380000Y-67831000D01*
X96620000Y-67831000D02*
X90559000Y-67831000D01*
X105425000Y-67871000D02*
X99380000Y-67871000D01*
X96620000Y-67871000D02*
X90575000Y-67871000D01*
X105408000Y-67911000D02*
X99380000Y-67911000D01*
X96620000Y-67911000D02*
X90592000Y-67911000D01*
X105391000Y-67951000D02*
X99380000Y-67951000D01*
X96620000Y-67951000D02*
X90609000Y-67951000D01*
X105373000Y-67991000D02*
X99380000Y-67991000D01*
X96620000Y-67991000D02*
X90627000Y-67991000D01*
X105356000Y-68031000D02*
X99380000Y-68031000D01*
X96620000Y-68031000D02*
X90644000Y-68031000D01*
X105338000Y-68071000D02*
X99380000Y-68071000D01*
X96620000Y-68071000D02*
X90662000Y-68071000D01*
X105320000Y-68111000D02*
X99380000Y-68111000D01*
X96620000Y-68111000D02*
X90680000Y-68111000D01*
X105301000Y-68151000D02*
X99380000Y-68151000D01*
X96620000Y-68151000D02*
X90699000Y-68151000D01*
X105283000Y-68191000D02*
X99380000Y-68191000D01*
X96620000Y-68191000D02*
X90717000Y-68191000D01*
X105264000Y-68231000D02*
X99380000Y-68231000D01*
X96620000Y-68231000D02*
X90736000Y-68231000D01*
X105245000Y-68271000D02*
X99380000Y-68271000D01*
X96620000Y-68271000D02*
X90755000Y-68271000D01*
X105225000Y-68311000D02*
X99380000Y-68311000D01*
X96620000Y-68311000D02*
X90775000Y-68311000D01*
X105205000Y-68351000D02*
X99380000Y-68351000D01*
X96620000Y-68351000D02*
X90795000Y-68351000D01*
X105185000Y-68391000D02*
X99380000Y-68391000D01*
X96620000Y-68391000D02*
X90815000Y-68391000D01*
X105165000Y-68431000D02*
X99380000Y-68431000D01*
X96620000Y-68431000D02*
X90835000Y-68431000D01*
X105144000Y-68471000D02*
X99380000Y-68471000D01*
X96620000Y-68471000D02*
X90856000Y-68471000D01*
X105124000Y-68511000D02*
X99380000Y-68511000D01*
X96620000Y-68511000D02*
X90876000Y-68511000D01*
X105102000Y-68551000D02*
X99380000Y-68551000D01*
X96620000Y-68551000D02*
X90898000Y-68551000D01*
X105081000Y-68591000D02*
X99380000Y-68591000D01*
X96620000Y-68591000D02*
X90919000Y-68591000D01*
X105059000Y-68631000D02*
X99380000Y-68631000D01*
X96620000Y-68631000D02*
X90941000Y-68631000D01*
X105037000Y-68671000D02*
X99380000Y-68671000D01*
X96620000Y-68671000D02*
X90963000Y-68671000D01*
X105015000Y-68711000D02*
X99380000Y-68711000D01*
X96620000Y-68711000D02*
X90985000Y-68711000D01*
X104992000Y-68751000D02*
X99380000Y-68751000D01*
X96620000Y-68751000D02*
X91008000Y-68751000D01*
X104970000Y-68791000D02*
X99380000Y-68791000D01*
X96620000Y-68791000D02*
X91030000Y-68791000D01*
X104946000Y-68831000D02*
X99380000Y-68831000D01*
X96620000Y-68831000D02*
X91054000Y-68831000D01*
X104923000Y-68871000D02*
X99380000Y-68871000D01*
X96620000Y-68871000D02*
X91077000Y-68871000D01*
X104899000Y-68911000D02*
X99380000Y-68911000D01*
X96620000Y-68911000D02*
X91101000Y-68911000D01*
X104875000Y-68951000D02*
X99380000Y-68951000D01*
X96620000Y-68951000D02*
X91125000Y-68951000D01*
X104850000Y-68991000D02*
X99380000Y-68991000D01*
X96620000Y-68991000D02*
X91150000Y-68991000D01*
X104826000Y-69031000D02*
X99380000Y-69031000D01*
X96620000Y-69031000D02*
X91174000Y-69031000D01*
X104801000Y-69071000D02*
X99380000Y-69071000D01*
X96620000Y-69071000D02*
X91199000Y-69071000D01*
X104775000Y-69111000D02*
X99380000Y-69111000D01*
X96620000Y-69111000D02*
X91225000Y-69111000D01*
X104749000Y-69151000D02*
X99380000Y-69151000D01*
X96620000Y-69151000D02*
X91251000Y-69151000D01*
X104723000Y-69191000D02*
X99380000Y-69191000D01*
X96620000Y-69191000D02*
X91277000Y-69191000D01*
X104697000Y-69231000D02*
X99380000Y-69231000D01*
X96620000Y-69231000D02*
X91303000Y-69231000D01*
X104670000Y-69271000D02*
X99380000Y-69271000D01*
X96620000Y-69271000D02*
X91330000Y-69271000D01*
X104643000Y-69311000D02*
X99380000Y-69311000D01*
X96620000Y-69311000D02*
X91357000Y-69311000D01*
X104615000Y-69351000D02*
X99380000Y-69351000D01*
X96620000Y-69351000D02*
X91385000Y-69351000D01*
X104588000Y-69391000D02*
X99380000Y-69391000D01*
X96620000Y-69391000D02*
X91412000Y-69391000D01*
X104559000Y-69431000D02*
X99380000Y-69431000D01*
X96620000Y-69431000D02*
X91441000Y-69431000D01*
X104531000Y-69471000D02*
X99380000Y-69471000D01*
X96620000Y-69471000D02*
X91469000Y-69471000D01*
X104502000Y-69511000D02*
X99380000Y-69511000D01*
X96620000Y-69511000D02*
X91498000Y-69511000D01*
X104473000Y-69551000D02*
X99380000Y-69551000D01*
X96620000Y-69551000D02*
X91527000Y-69551000D01*
X104443000Y-69591000D02*
X99380000Y-69591000D01*
X96620000Y-69591000D02*
X91557000Y-69591000D01*
X104413000Y-69631000D02*
X99380000Y-69631000D01*
X96620000Y-69631000D02*
X91587000Y-69631000D01*
X104382000Y-69671000D02*
X99380000Y-69671000D01*
X96620000Y-69671000D02*
X91618000Y-69671000D01*
X104352000Y-69711000D02*
X99380000Y-69711000D01*
X96620000Y-69711000D02*
X91648000Y-69711000D01*
X104320000Y-69751000D02*
X99380000Y-69751000D01*
X96620000Y-69751000D02*
X91680000Y-69751000D01*
X104289000Y-69791000D02*
X99380000Y-69791000D01*
X96620000Y-69791000D02*
X91711000Y-69791000D01*
X104257000Y-69831000D02*
X99380000Y-69831000D01*
X96620000Y-69831000D02*
X91743000Y-69831000D01*
X104224000Y-69871000D02*
X99380000Y-69871000D01*
X96620000Y-69871000D02*
X91776000Y-69871000D01*
X104191000Y-69911000D02*
X91809000Y-69911000D01*
X104158000Y-69951000D02*
X91842000Y-69951000D01*
X104124000Y-69991000D02*
X91876000Y-69991000D01*
X104090000Y-70031000D02*
X91910000Y-70031000D01*
X104055000Y-70071000D02*
X91945000Y-70071000D01*
X104020000Y-70111000D02*
X91980000Y-70111000D01*
X103984000Y-70151000D02*
X92016000Y-70151000D01*
X103948000Y-70191000D02*
X92052000Y-70191000D01*
X103912000Y-70231000D02*
X92088000Y-70231000D01*
X103875000Y-70271000D02*
X92125000Y-70271000D01*
X103837000Y-70311000D02*
X92163000Y-70311000D01*
X103799000Y-70351000D02*
X92201000Y-70351000D01*
X103760000Y-70391000D02*
X92240000Y-70391000D01*
X103721000Y-70431000D02*
X92279000Y-70431000D01*
X103681000Y-70471000D02*
X92319000Y-70471000D01*
X103641000Y-70511000D02*
X92359000Y-70511000D01*
X103600000Y-70551000D02*
X92400000Y-70551000D01*
X103559000Y-70591000D02*
X92441000Y-70591000D01*
X103517000Y-70631000D02*
X92483000Y-70631000D01*
X103474000Y-70671000D02*
X92526000Y-70671000D01*
X103431000Y-70711000D02*
X92569000Y-70711000D01*
X103387000Y-70751000D02*
X92613000Y-70751000D01*
X103343000Y-70791000D02*
X92657000Y-70791000D01*
X103297000Y-70831000D02*
X92703000Y-70831000D01*
X103251000Y-70871000D02*
X92749000Y-70871000D01*
X103205000Y-70911000D02*
X92795000Y-70911000D01*
X103157000Y-70951000D02*
X92843000Y-70951000D01*
X103109000Y-70991000D02*
X92891000Y-70991000D01*
X103060000Y-71031000D02*
X92940000Y-71031000D01*
X103011000Y-71071000D02*
X92989000Y-71071000D01*
X102960000Y-71111000D02*
X93040000Y-71111000D01*
X102909000Y-71151000D02*
X93091000Y-71151000D01*
X102857000Y-71191000D02*
X93143000Y-71191000D01*
X102804000Y-71231000D02*
X93196000Y-71231000D01*
X102750000Y-71271000D02*
X93250000Y-71271000D01*
X102695000Y-71311000D02*
X93305000Y-71311000D01*
X102639000Y-71351000D02*
X93361000Y-71351000D01*
X102582000Y-71391000D02*
X93418000Y-71391000D01*
X102524000Y-71431000D02*
X93476000Y-71431000D01*
X102465000Y-71471000D02*
X93535000Y-71471000D01*
X102405000Y-71511000D02*
X93595000Y-71511000D01*
X102343000Y-71551000D02*
X93657000Y-71551000D01*
X102281000Y-71591000D02*
X93719000Y-71591000D01*
X102217000Y-71631000D02*
X93783000Y-71631000D01*
X102151000Y-71671000D02*
X93849000Y-71671000D01*
X102084000Y-71711000D02*
X93916000Y-71711000D01*
X102016000Y-71751000D02*
X93984000Y-71751000D01*
X101946000Y-71791000D02*
X94054000Y-71791000D01*
X101875000Y-71831000D02*
X94125000Y-71831000D01*
X101802000Y-71871000D02*
X94198000Y-71871000D01*
X101726000Y-71911000D02*
X94274000Y-71911000D01*
X101649000Y-71951000D02*
X94351000Y-71951000D01*
X101570000Y-71991000D02*
X94430000Y-71991000D01*
X101489000Y-72031000D02*
X94511000Y-72031000D01*
X101405000Y-72071000D02*
X94595000Y-72071000D01*
X101319000Y-72111000D02*
X94681000Y-72111000D01*
X101230000Y-72151000D02*
X94770000Y-72151000D01*
X101138000Y-72191000D02*
X94862000Y-72191000D01*
X101042000Y-72231000D02*
X94958000Y-72231000D01*
X100943000Y-72271000D02*
X95057000Y-72271000D01*
X100841000Y-72311000D02*
X95159000Y-72311000D01*
X100733000Y-72351000D02*
X95267000Y-72351000D01*
X100621000Y-72391000D02*
X95379000Y-72391000D01*
X100503000Y-72431000D02*
X95497000Y-72431000D01*
X100379000Y-72471000D02*
X95621000Y-72471000D01*
X100248000Y-72511000D02*
X95752000Y-72511000D01*
X100107000Y-72551000D02*
X95893000Y-72551000D01*
X99956000Y-72591000D02*
X96044000Y-72591000D01*
X99792000Y-72631000D02*
X96208000Y-72631000D01*
X99610000Y-72671000D02*
X96390000Y-72671000D01*
X99405000Y-72711000D02*
X96595000Y-72711000D01*
X99164000Y-72751000D02*
X96836000Y-72751000D01*
X98859000Y-72791000D02*
X97141000Y-72791000D01*
X98363000Y-72831000D02*
X97637000Y-72831000D01*
X98000000Y-57800000D02*
X98000000Y-59600000D01*
X98900000Y-58700000D02*
X97100000Y-58700000D01*
X171930000Y-75290000D02*
X171930000Y-79710000D01*
X169910000Y-75290000D02*
X169910000Y-79710000D01*
X171930000Y-75290000D02*
X171916000Y-75290000D01*
X169924000Y-75290000D02*
X169910000Y-75290000D01*
X171930000Y-79710000D02*
X171916000Y-79710000D01*
X169924000Y-79710000D02*
X169910000Y-79710000D01*
X97100000Y-42300000D02*
X98900000Y-42300000D01*
X98000000Y-43200000D02*
X98000000Y-41400000D01*
X97637000Y-28169000D02*
X98363000Y-28169000D01*
X97141000Y-28209000D02*
X98859000Y-28209000D01*
X96836000Y-28249000D02*
X99164000Y-28249000D01*
X96595000Y-28289000D02*
X99405000Y-28289000D01*
X96390000Y-28329000D02*
X99610000Y-28329000D01*
X96208000Y-28369000D02*
X99792000Y-28369000D01*
X96044000Y-28409000D02*
X99956000Y-28409000D01*
X95893000Y-28449000D02*
X100107000Y-28449000D01*
X95752000Y-28489000D02*
X100248000Y-28489000D01*
X95621000Y-28529000D02*
X100379000Y-28529000D01*
X95497000Y-28569000D02*
X100503000Y-28569000D01*
X95379000Y-28609000D02*
X100621000Y-28609000D01*
X95267000Y-28649000D02*
X100733000Y-28649000D01*
X95159000Y-28689000D02*
X100841000Y-28689000D01*
X95057000Y-28729000D02*
X100943000Y-28729000D01*
X94958000Y-28769000D02*
X101042000Y-28769000D01*
X94862000Y-28809000D02*
X101138000Y-28809000D01*
X94770000Y-28849000D02*
X101230000Y-28849000D01*
X94681000Y-28889000D02*
X101319000Y-28889000D01*
X94595000Y-28929000D02*
X101405000Y-28929000D01*
X94511000Y-28969000D02*
X101489000Y-28969000D01*
X94430000Y-29009000D02*
X101570000Y-29009000D01*
X94351000Y-29049000D02*
X101649000Y-29049000D01*
X94274000Y-29089000D02*
X101726000Y-29089000D01*
X94198000Y-29129000D02*
X101802000Y-29129000D01*
X94125000Y-29169000D02*
X101875000Y-29169000D01*
X94054000Y-29209000D02*
X101946000Y-29209000D01*
X93984000Y-29249000D02*
X102016000Y-29249000D01*
X93916000Y-29289000D02*
X102084000Y-29289000D01*
X93849000Y-29329000D02*
X102151000Y-29329000D01*
X93783000Y-29369000D02*
X102217000Y-29369000D01*
X93719000Y-29409000D02*
X102281000Y-29409000D01*
X93657000Y-29449000D02*
X102343000Y-29449000D01*
X93595000Y-29489000D02*
X102405000Y-29489000D01*
X93535000Y-29529000D02*
X102465000Y-29529000D01*
X93476000Y-29569000D02*
X102524000Y-29569000D01*
X93418000Y-29609000D02*
X102582000Y-29609000D01*
X93361000Y-29649000D02*
X102639000Y-29649000D01*
X93305000Y-29689000D02*
X102695000Y-29689000D01*
X93250000Y-29729000D02*
X102750000Y-29729000D01*
X93196000Y-29769000D02*
X102804000Y-29769000D01*
X93143000Y-29809000D02*
X102857000Y-29809000D01*
X93091000Y-29849000D02*
X102909000Y-29849000D01*
X93040000Y-29889000D02*
X102960000Y-29889000D01*
X92989000Y-29929000D02*
X103011000Y-29929000D01*
X92940000Y-29969000D02*
X103060000Y-29969000D01*
X92891000Y-30009000D02*
X103109000Y-30009000D01*
X92843000Y-30049000D02*
X103157000Y-30049000D01*
X92795000Y-30089000D02*
X103205000Y-30089000D01*
X92749000Y-30129000D02*
X103251000Y-30129000D01*
X92703000Y-30169000D02*
X103297000Y-30169000D01*
X92657000Y-30209000D02*
X103343000Y-30209000D01*
X92613000Y-30249000D02*
X103387000Y-30249000D01*
X92569000Y-30289000D02*
X103431000Y-30289000D01*
X92526000Y-30329000D02*
X103474000Y-30329000D01*
X92483000Y-30369000D02*
X103517000Y-30369000D01*
X92441000Y-30409000D02*
X103559000Y-30409000D01*
X92400000Y-30449000D02*
X103600000Y-30449000D01*
X92359000Y-30489000D02*
X103641000Y-30489000D01*
X92319000Y-30529000D02*
X103681000Y-30529000D01*
X92279000Y-30569000D02*
X103721000Y-30569000D01*
X92240000Y-30609000D02*
X103760000Y-30609000D01*
X92201000Y-30649000D02*
X103799000Y-30649000D01*
X92163000Y-30689000D02*
X103837000Y-30689000D01*
X92125000Y-30729000D02*
X103875000Y-30729000D01*
X92088000Y-30769000D02*
X103912000Y-30769000D01*
X92052000Y-30809000D02*
X103948000Y-30809000D01*
X92016000Y-30849000D02*
X103984000Y-30849000D01*
X91980000Y-30889000D02*
X104020000Y-30889000D01*
X91945000Y-30929000D02*
X104055000Y-30929000D01*
X91910000Y-30969000D02*
X104090000Y-30969000D01*
X91876000Y-31009000D02*
X104124000Y-31009000D01*
X91842000Y-31049000D02*
X104158000Y-31049000D01*
X91809000Y-31089000D02*
X104191000Y-31089000D01*
X99380000Y-31129000D02*
X104224000Y-31129000D01*
X91776000Y-31129000D02*
X96620000Y-31129000D01*
X99380000Y-31169000D02*
X104257000Y-31169000D01*
X91743000Y-31169000D02*
X96620000Y-31169000D01*
X99380000Y-31209000D02*
X104289000Y-31209000D01*
X91711000Y-31209000D02*
X96620000Y-31209000D01*
X99380000Y-31249000D02*
X104320000Y-31249000D01*
X91680000Y-31249000D02*
X96620000Y-31249000D01*
X99380000Y-31289000D02*
X104352000Y-31289000D01*
X91648000Y-31289000D02*
X96620000Y-31289000D01*
X99380000Y-31329000D02*
X104382000Y-31329000D01*
X91618000Y-31329000D02*
X96620000Y-31329000D01*
X99380000Y-31369000D02*
X104413000Y-31369000D01*
X91587000Y-31369000D02*
X96620000Y-31369000D01*
X99380000Y-31409000D02*
X104443000Y-31409000D01*
X91557000Y-31409000D02*
X96620000Y-31409000D01*
X99380000Y-31449000D02*
X104473000Y-31449000D01*
X91527000Y-31449000D02*
X96620000Y-31449000D01*
X99380000Y-31489000D02*
X104502000Y-31489000D01*
X91498000Y-31489000D02*
X96620000Y-31489000D01*
X99380000Y-31529000D02*
X104531000Y-31529000D01*
X91469000Y-31529000D02*
X96620000Y-31529000D01*
X99380000Y-31569000D02*
X104559000Y-31569000D01*
X91441000Y-31569000D02*
X96620000Y-31569000D01*
X99380000Y-31609000D02*
X104588000Y-31609000D01*
X91412000Y-31609000D02*
X96620000Y-31609000D01*
X99380000Y-31649000D02*
X104615000Y-31649000D01*
X91385000Y-31649000D02*
X96620000Y-31649000D01*
X99380000Y-31689000D02*
X104643000Y-31689000D01*
X91357000Y-31689000D02*
X96620000Y-31689000D01*
X99380000Y-31729000D02*
X104670000Y-31729000D01*
X91330000Y-31729000D02*
X96620000Y-31729000D01*
X99380000Y-31769000D02*
X104697000Y-31769000D01*
X91303000Y-31769000D02*
X96620000Y-31769000D01*
X99380000Y-31809000D02*
X104723000Y-31809000D01*
X91277000Y-31809000D02*
X96620000Y-31809000D01*
X99380000Y-31849000D02*
X104749000Y-31849000D01*
X91251000Y-31849000D02*
X96620000Y-31849000D01*
X99380000Y-31889000D02*
X104775000Y-31889000D01*
X91225000Y-31889000D02*
X96620000Y-31889000D01*
X99380000Y-31929000D02*
X104801000Y-31929000D01*
X91199000Y-31929000D02*
X96620000Y-31929000D01*
X99380000Y-31969000D02*
X104826000Y-31969000D01*
X91174000Y-31969000D02*
X96620000Y-31969000D01*
X99380000Y-32009000D02*
X104850000Y-32009000D01*
X91150000Y-32009000D02*
X96620000Y-32009000D01*
X99380000Y-32049000D02*
X104875000Y-32049000D01*
X91125000Y-32049000D02*
X96620000Y-32049000D01*
X99380000Y-32089000D02*
X104899000Y-32089000D01*
X91101000Y-32089000D02*
X96620000Y-32089000D01*
X99380000Y-32129000D02*
X104923000Y-32129000D01*
X91077000Y-32129000D02*
X96620000Y-32129000D01*
X99380000Y-32169000D02*
X104946000Y-32169000D01*
X91054000Y-32169000D02*
X96620000Y-32169000D01*
X99380000Y-32209000D02*
X104970000Y-32209000D01*
X91030000Y-32209000D02*
X96620000Y-32209000D01*
X99380000Y-32249000D02*
X104992000Y-32249000D01*
X91008000Y-32249000D02*
X96620000Y-32249000D01*
X99380000Y-32289000D02*
X105015000Y-32289000D01*
X90985000Y-32289000D02*
X96620000Y-32289000D01*
X99380000Y-32329000D02*
X105037000Y-32329000D01*
X90963000Y-32329000D02*
X96620000Y-32329000D01*
X99380000Y-32369000D02*
X105059000Y-32369000D01*
X90941000Y-32369000D02*
X96620000Y-32369000D01*
X99380000Y-32409000D02*
X105081000Y-32409000D01*
X90919000Y-32409000D02*
X96620000Y-32409000D01*
X99380000Y-32449000D02*
X105102000Y-32449000D01*
X90898000Y-32449000D02*
X96620000Y-32449000D01*
X99380000Y-32489000D02*
X105124000Y-32489000D01*
X90876000Y-32489000D02*
X96620000Y-32489000D01*
X99380000Y-32529000D02*
X105144000Y-32529000D01*
X90856000Y-32529000D02*
X96620000Y-32529000D01*
X99380000Y-32569000D02*
X105165000Y-32569000D01*
X90835000Y-32569000D02*
X96620000Y-32569000D01*
X99380000Y-32609000D02*
X105185000Y-32609000D01*
X90815000Y-32609000D02*
X96620000Y-32609000D01*
X99380000Y-32649000D02*
X105205000Y-32649000D01*
X90795000Y-32649000D02*
X96620000Y-32649000D01*
X99380000Y-32689000D02*
X105225000Y-32689000D01*
X90775000Y-32689000D02*
X96620000Y-32689000D01*
X99380000Y-32729000D02*
X105245000Y-32729000D01*
X90755000Y-32729000D02*
X96620000Y-32729000D01*
X99380000Y-32769000D02*
X105264000Y-32769000D01*
X90736000Y-32769000D02*
X96620000Y-32769000D01*
X99380000Y-32809000D02*
X105283000Y-32809000D01*
X90717000Y-32809000D02*
X96620000Y-32809000D01*
X99380000Y-32849000D02*
X105301000Y-32849000D01*
X90699000Y-32849000D02*
X96620000Y-32849000D01*
X99380000Y-32889000D02*
X105320000Y-32889000D01*
X90680000Y-32889000D02*
X96620000Y-32889000D01*
X99380000Y-32929000D02*
X105338000Y-32929000D01*
X90662000Y-32929000D02*
X96620000Y-32929000D01*
X99380000Y-32969000D02*
X105356000Y-32969000D01*
X90644000Y-32969000D02*
X96620000Y-32969000D01*
X99380000Y-33009000D02*
X105373000Y-33009000D01*
X90627000Y-33009000D02*
X96620000Y-33009000D01*
X99380000Y-33049000D02*
X105391000Y-33049000D01*
X90609000Y-33049000D02*
X96620000Y-33049000D01*
X99380000Y-33089000D02*
X105408000Y-33089000D01*
X90592000Y-33089000D02*
X96620000Y-33089000D01*
X99380000Y-33129000D02*
X105425000Y-33129000D01*
X90575000Y-33129000D02*
X96620000Y-33129000D01*
X99380000Y-33169000D02*
X105441000Y-33169000D01*
X90559000Y-33169000D02*
X96620000Y-33169000D01*
X99380000Y-33209000D02*
X105458000Y-33209000D01*
X90542000Y-33209000D02*
X96620000Y-33209000D01*
X99380000Y-33249000D02*
X105474000Y-33249000D01*
X90526000Y-33249000D02*
X96620000Y-33249000D01*
X99380000Y-33289000D02*
X105490000Y-33289000D01*
X90510000Y-33289000D02*
X96620000Y-33289000D01*
X99380000Y-33329000D02*
X105505000Y-33329000D01*
X90495000Y-33329000D02*
X96620000Y-33329000D01*
X99380000Y-33369000D02*
X105521000Y-33369000D01*
X90479000Y-33369000D02*
X96620000Y-33369000D01*
X99380000Y-33409000D02*
X105536000Y-33409000D01*
X90464000Y-33409000D02*
X96620000Y-33409000D01*
X99380000Y-33449000D02*
X105550000Y-33449000D01*
X90450000Y-33449000D02*
X96620000Y-33449000D01*
X99380000Y-33489000D02*
X105565000Y-33489000D01*
X90435000Y-33489000D02*
X96620000Y-33489000D01*
X99380000Y-33529000D02*
X105580000Y-33529000D01*
X90420000Y-33529000D02*
X96620000Y-33529000D01*
X99380000Y-33569000D02*
X105594000Y-33569000D01*
X90406000Y-33569000D02*
X96620000Y-33569000D01*
X99380000Y-33609000D02*
X105608000Y-33609000D01*
X90392000Y-33609000D02*
X96620000Y-33609000D01*
X99380000Y-33649000D02*
X105621000Y-33649000D01*
X90379000Y-33649000D02*
X96620000Y-33649000D01*
X99380000Y-33689000D02*
X105635000Y-33689000D01*
X90365000Y-33689000D02*
X96620000Y-33689000D01*
X99380000Y-33729000D02*
X105648000Y-33729000D01*
X90352000Y-33729000D02*
X96620000Y-33729000D01*
X99380000Y-33769000D02*
X105661000Y-33769000D01*
X90339000Y-33769000D02*
X96620000Y-33769000D01*
X99380000Y-33809000D02*
X105674000Y-33809000D01*
X90326000Y-33809000D02*
X96620000Y-33809000D01*
X99380000Y-33849000D02*
X105686000Y-33849000D01*
X90314000Y-33849000D02*
X96620000Y-33849000D01*
X90301000Y-33889000D02*
X105699000Y-33889000D01*
X90289000Y-33929000D02*
X105711000Y-33929000D01*
X90277000Y-33969000D02*
X105723000Y-33969000D01*
X90266000Y-34009000D02*
X105734000Y-34009000D01*
X90254000Y-34049000D02*
X105746000Y-34049000D01*
X90243000Y-34089000D02*
X105757000Y-34089000D01*
X90232000Y-34129000D02*
X105768000Y-34129000D01*
X90221000Y-34169000D02*
X105779000Y-34169000D01*
X90211000Y-34209000D02*
X105789000Y-34209000D01*
X90201000Y-34249000D02*
X105799000Y-34249000D01*
X90191000Y-34289000D02*
X105809000Y-34289000D01*
X90181000Y-34329000D02*
X105819000Y-34329000D01*
X90171000Y-34369000D02*
X105829000Y-34369000D01*
X90162000Y-34409000D02*
X105838000Y-34409000D01*
X90152000Y-34449000D02*
X105848000Y-34449000D01*
X90143000Y-34489000D02*
X105857000Y-34489000D01*
X90134000Y-34529000D02*
X105866000Y-34529000D01*
X90126000Y-34569000D02*
X105874000Y-34569000D01*
X90117000Y-34609000D02*
X105883000Y-34609000D01*
X90109000Y-34649000D02*
X105891000Y-34649000D01*
X90101000Y-34689000D02*
X105899000Y-34689000D01*
X90094000Y-34729000D02*
X105906000Y-34729000D01*
X90086000Y-34769000D02*
X105914000Y-34769000D01*
X90079000Y-34809000D02*
X105921000Y-34809000D01*
X90072000Y-34849000D02*
X105928000Y-34849000D01*
X90065000Y-34889000D02*
X105935000Y-34889000D01*
X90058000Y-34929000D02*
X105942000Y-34929000D01*
X90051000Y-34969000D02*
X105949000Y-34969000D01*
X90045000Y-35009000D02*
X105955000Y-35009000D01*
X90039000Y-35049000D02*
X105961000Y-35049000D01*
X90033000Y-35089000D02*
X105967000Y-35089000D01*
X90027000Y-35129000D02*
X105973000Y-35129000D01*
X90022000Y-35169000D02*
X105978000Y-35169000D01*
X90017000Y-35209000D02*
X105983000Y-35209000D01*
X90012000Y-35249000D02*
X105988000Y-35249000D01*
X90007000Y-35289000D02*
X105993000Y-35289000D01*
X90002000Y-35329000D02*
X105998000Y-35329000D01*
X89998000Y-35369000D02*
X106002000Y-35369000D01*
X89993000Y-35409000D02*
X106007000Y-35409000D01*
X89989000Y-35449000D02*
X106011000Y-35449000D01*
X89985000Y-35489000D02*
X106015000Y-35489000D01*
X89982000Y-35529000D02*
X106018000Y-35529000D01*
X89978000Y-35570000D02*
X106022000Y-35570000D01*
X89975000Y-35610000D02*
X106025000Y-35610000D01*
X89972000Y-35650000D02*
X106028000Y-35650000D01*
X89969000Y-35690000D02*
X106031000Y-35690000D01*
X89966000Y-35730000D02*
X106034000Y-35730000D01*
X89964000Y-35770000D02*
X106036000Y-35770000D01*
X89961000Y-35810000D02*
X106039000Y-35810000D01*
X89959000Y-35850000D02*
X106041000Y-35850000D01*
X89958000Y-35890000D02*
X106042000Y-35890000D01*
X89956000Y-35930000D02*
X106044000Y-35930000D01*
X89954000Y-35970000D02*
X106046000Y-35970000D01*
X89953000Y-36010000D02*
X106047000Y-36010000D01*
X89952000Y-36050000D02*
X106048000Y-36050000D01*
X89951000Y-36090000D02*
X106049000Y-36090000D01*
X89950000Y-36130000D02*
X106050000Y-36130000D01*
X89950000Y-36170000D02*
X106050000Y-36170000D01*
X89950000Y-36210000D02*
X106050000Y-36210000D01*
X89949000Y-36250000D02*
X106051000Y-36250000D01*
X106090000Y-36250000D02*
G75*
G03*
X106090000Y-36250000I-8090000J0D01*
G01*
X160000000Y-63230000D02*
X160000000Y-65900000D01*
X161310000Y-61920000D02*
G75*
G03*
X161310000Y-61920000I-1310000J0D01*
G01*
X156310000Y-61920000D02*
G75*
G03*
X156310000Y-61920000I-1310000J0D01*
G01*
X155000000Y-63230000D02*
X155000000Y-65900000D01*
X160000000Y-43230000D02*
X160000000Y-45900000D01*
X161310000Y-41920000D02*
G75*
G03*
X161310000Y-41920000I-1310000J0D01*
G01*
X155000000Y-43230000D02*
X155000000Y-45900000D01*
X156310000Y-41920000D02*
G75*
G03*
X156310000Y-41920000I-1310000J0D01*
G01*
X82380000Y-86149000D02*
X83890000Y-86149000D01*
X82380000Y-89850000D02*
X83890000Y-89850000D01*
X83890000Y-93120000D02*
X83890000Y-82880000D01*
X82380000Y-82880000D02*
X87021000Y-82880000D01*
X82380000Y-93120000D02*
X87021000Y-93120000D01*
X87021000Y-93120000D02*
X87021000Y-82880000D01*
X82380000Y-93120000D02*
X82380000Y-82880000D01*
X75420000Y-62900000D02*
X77190000Y-62900000D01*
X75420000Y-54300000D02*
X75420000Y-62900000D01*
X80960000Y-54300000D02*
X75420000Y-54300000D01*
X80960000Y-62900000D02*
X80960000Y-54300000D01*
X79190000Y-62900000D02*
X80960000Y-62900000D01*
X77190000Y-62900000D02*
G75*
G02*
X79190000Y-62900000I1000000J0D01*
G01*
X67380000Y-86149000D02*
X68890000Y-86149000D01*
X67380000Y-89850000D02*
X68890000Y-89850000D01*
X68890000Y-93120000D02*
X68890000Y-82880000D01*
X67380000Y-82880000D02*
X72021000Y-82880000D01*
X67380000Y-93120000D02*
X72021000Y-93120000D01*
X72021000Y-93120000D02*
X72021000Y-82880000D01*
X67380000Y-93120000D02*
X67380000Y-82880000D01*
X52380000Y-86149000D02*
X53890000Y-86149000D01*
X52380000Y-89850000D02*
X53890000Y-89850000D01*
X53890000Y-93120000D02*
X53890000Y-82880000D01*
X52380000Y-82880000D02*
X57021000Y-82880000D01*
X52380000Y-93120000D02*
X57021000Y-93120000D01*
X57021000Y-93120000D02*
X57021000Y-82880000D01*
X52380000Y-93120000D02*
X52380000Y-82880000D01*
X79190000Y-50330000D02*
X80840000Y-50330000D01*
X80840000Y-50330000D02*
X80840000Y-45130000D01*
X80840000Y-45130000D02*
X75540000Y-45130000D01*
X75540000Y-45130000D02*
X75540000Y-50330000D01*
X75540000Y-50330000D02*
X77190000Y-50330000D01*
X77190000Y-50330000D02*
G75*
G02*
X79190000Y-50330000I1000000J0D01*
G01*
X97020000Y-49000000D02*
X96130000Y-49000000D01*
X88820000Y-49000000D02*
X89710000Y-49000000D01*
X96130000Y-47690000D02*
X89710000Y-47690000D01*
X96130000Y-50310000D02*
X96130000Y-47690000D01*
X89710000Y-50310000D02*
X96130000Y-50310000D01*
X89710000Y-47690000D02*
X89710000Y-50310000D01*
X75420000Y-41900000D02*
X77190000Y-41900000D01*
X75420000Y-33300000D02*
X75420000Y-41900000D01*
X80960000Y-33300000D02*
X75420000Y-33300000D01*
X80960000Y-41900000D02*
X80960000Y-33300000D01*
X79190000Y-41900000D02*
X80960000Y-41900000D01*
X77190000Y-41900000D02*
G75*
G02*
X79190000Y-41900000I1000000J0D01*
G01*
X166650000Y-55400000D02*
X165350000Y-55400000D01*
X166000000Y-54800000D02*
X166000000Y-56000000D01*
X166354000Y-60561000D02*
X165646000Y-60561000D01*
X166559000Y-60521000D02*
X165441000Y-60521000D01*
X166707000Y-60481000D02*
X165293000Y-60481000D01*
X166829000Y-60441000D02*
X165171000Y-60441000D01*
X166934000Y-60401000D02*
X165066000Y-60401000D01*
X167028000Y-60361000D02*
X164972000Y-60361000D01*
X167112000Y-60321000D02*
X164888000Y-60321000D01*
X167189000Y-60281000D02*
X164811000Y-60281000D01*
X167261000Y-60241000D02*
X164739000Y-60241000D01*
X167327000Y-60201000D02*
X164673000Y-60201000D01*
X167390000Y-60161000D02*
X164610000Y-60161000D01*
X167448000Y-60121000D02*
X164552000Y-60121000D01*
X167504000Y-60081000D02*
X164496000Y-60081000D01*
X167556000Y-60041000D02*
X164444000Y-60041000D01*
X167606000Y-60001000D02*
X164394000Y-60001000D01*
X165020000Y-59961000D02*
X164346000Y-59961000D01*
X167654000Y-59961000D02*
X166980000Y-59961000D01*
X165020000Y-59921000D02*
X164301000Y-59921000D01*
X167699000Y-59921000D02*
X166980000Y-59921000D01*
X165020000Y-59881000D02*
X164258000Y-59881000D01*
X167742000Y-59881000D02*
X166980000Y-59881000D01*
X165020000Y-59841000D02*
X164217000Y-59841000D01*
X167783000Y-59841000D02*
X166980000Y-59841000D01*
X165020000Y-59801000D02*
X164177000Y-59801000D01*
X167823000Y-59801000D02*
X166980000Y-59801000D01*
X165020000Y-59761000D02*
X164139000Y-59761000D01*
X167861000Y-59761000D02*
X166980000Y-59761000D01*
X165020000Y-59721000D02*
X164103000Y-59721000D01*
X167897000Y-59721000D02*
X166980000Y-59721000D01*
X165020000Y-59681000D02*
X164068000Y-59681000D01*
X167932000Y-59681000D02*
X166980000Y-59681000D01*
X165020000Y-59641000D02*
X164035000Y-59641000D01*
X167965000Y-59641000D02*
X166980000Y-59641000D01*
X165020000Y-59601000D02*
X164003000Y-59601000D01*
X167997000Y-59601000D02*
X166980000Y-59601000D01*
X165020000Y-59561000D02*
X163972000Y-59561000D01*
X168028000Y-59561000D02*
X166980000Y-59561000D01*
X165020000Y-59521000D02*
X163942000Y-59521000D01*
X168058000Y-59521000D02*
X166980000Y-59521000D01*
X165020000Y-59481000D02*
X163914000Y-59481000D01*
X168086000Y-59481000D02*
X166980000Y-59481000D01*
X165020000Y-59441000D02*
X163887000Y-59441000D01*
X168113000Y-59441000D02*
X166980000Y-59441000D01*
X165020000Y-59401000D02*
X163860000Y-59401000D01*
X168140000Y-59401000D02*
X166980000Y-59401000D01*
X165020000Y-59361000D02*
X163835000Y-59361000D01*
X168165000Y-59361000D02*
X166980000Y-59361000D01*
X165020000Y-59321000D02*
X163811000Y-59321000D01*
X168189000Y-59321000D02*
X166980000Y-59321000D01*
X165020000Y-59281000D02*
X163788000Y-59281000D01*
X168212000Y-59281000D02*
X166980000Y-59281000D01*
X165020000Y-59241000D02*
X163766000Y-59241000D01*
X168234000Y-59241000D02*
X166980000Y-59241000D01*
X165020000Y-59201000D02*
X163744000Y-59201000D01*
X168256000Y-59201000D02*
X166980000Y-59201000D01*
X165020000Y-59161000D02*
X163724000Y-59161000D01*
X168276000Y-59161000D02*
X166980000Y-59161000D01*
X165020000Y-59121000D02*
X163704000Y-59121000D01*
X168296000Y-59121000D02*
X166980000Y-59121000D01*
X165020000Y-59081000D02*
X163685000Y-59081000D01*
X168315000Y-59081000D02*
X166980000Y-59081000D01*
X165020000Y-59041000D02*
X163667000Y-59041000D01*
X168333000Y-59041000D02*
X166980000Y-59041000D01*
X165020000Y-59001000D02*
X163650000Y-59001000D01*
X168350000Y-59001000D02*
X166980000Y-59001000D01*
X165020000Y-58961000D02*
X163634000Y-58961000D01*
X168366000Y-58961000D02*
X166980000Y-58961000D01*
X165020000Y-58921000D02*
X163618000Y-58921000D01*
X168382000Y-58921000D02*
X166980000Y-58921000D01*
X165020000Y-58881000D02*
X163604000Y-58881000D01*
X168396000Y-58881000D02*
X166980000Y-58881000D01*
X165020000Y-58841000D02*
X163590000Y-58841000D01*
X168410000Y-58841000D02*
X166980000Y-58841000D01*
X165020000Y-58801000D02*
X163576000Y-58801000D01*
X168424000Y-58801000D02*
X166980000Y-58801000D01*
X165020000Y-58761000D02*
X163564000Y-58761000D01*
X168436000Y-58761000D02*
X166980000Y-58761000D01*
X165020000Y-58721000D02*
X163552000Y-58721000D01*
X168448000Y-58721000D02*
X166980000Y-58721000D01*
X165020000Y-58680000D02*
X163540000Y-58680000D01*
X168460000Y-58680000D02*
X166980000Y-58680000D01*
X165020000Y-58640000D02*
X163530000Y-58640000D01*
X168470000Y-58640000D02*
X166980000Y-58640000D01*
X165020000Y-58600000D02*
X163520000Y-58600000D01*
X168480000Y-58600000D02*
X166980000Y-58600000D01*
X165020000Y-58560000D02*
X163511000Y-58560000D01*
X168489000Y-58560000D02*
X166980000Y-58560000D01*
X165020000Y-58520000D02*
X163502000Y-58520000D01*
X168498000Y-58520000D02*
X166980000Y-58520000D01*
X165020000Y-58480000D02*
X163494000Y-58480000D01*
X168506000Y-58480000D02*
X166980000Y-58480000D01*
X165020000Y-58440000D02*
X163487000Y-58440000D01*
X168513000Y-58440000D02*
X166980000Y-58440000D01*
X165020000Y-58400000D02*
X163481000Y-58400000D01*
X168519000Y-58400000D02*
X166980000Y-58400000D01*
X165020000Y-58360000D02*
X163475000Y-58360000D01*
X168525000Y-58360000D02*
X166980000Y-58360000D01*
X165020000Y-58320000D02*
X163469000Y-58320000D01*
X168531000Y-58320000D02*
X166980000Y-58320000D01*
X165020000Y-58280000D02*
X163465000Y-58280000D01*
X168535000Y-58280000D02*
X166980000Y-58280000D01*
X165020000Y-58240000D02*
X163461000Y-58240000D01*
X168539000Y-58240000D02*
X166980000Y-58240000D01*
X165020000Y-58200000D02*
X163457000Y-58200000D01*
X168543000Y-58200000D02*
X166980000Y-58200000D01*
X165020000Y-58160000D02*
X163454000Y-58160000D01*
X168546000Y-58160000D02*
X166980000Y-58160000D01*
X165020000Y-58120000D02*
X163452000Y-58120000D01*
X168548000Y-58120000D02*
X166980000Y-58120000D01*
X165020000Y-58080000D02*
X163451000Y-58080000D01*
X168549000Y-58080000D02*
X166980000Y-58080000D01*
X165020000Y-58040000D02*
X163450000Y-58040000D01*
X168550000Y-58040000D02*
X166980000Y-58040000D01*
X168550000Y-58000000D02*
X163450000Y-58000000D01*
X167179723Y-60305722D02*
G75*
G03*
X167180000Y-55694420I-1179723J2305722D01*
G01*
X164820277Y-60305722D02*
G75*
G02*
X164820000Y-55694420I1179723J2305722D01*
G01*
X164820277Y-60305722D02*
G75*
G03*
X167180000Y-60305580I1179723J2305722D01*
G01*
X139004000Y-66670000D02*
X138990000Y-66670000D01*
X141010000Y-66670000D02*
X140996000Y-66670000D01*
X139004000Y-62250000D02*
X138990000Y-62250000D01*
X141010000Y-62250000D02*
X140996000Y-62250000D01*
X138990000Y-62250000D02*
X138990000Y-66670000D01*
X141010000Y-62250000D02*
X141010000Y-66670000D01*
X166650000Y-35400000D02*
X165350000Y-35400000D01*
X166000000Y-34800000D02*
X166000000Y-36000000D01*
X166354000Y-40561000D02*
X165646000Y-40561000D01*
X166559000Y-40521000D02*
X165441000Y-40521000D01*
X166707000Y-40481000D02*
X165293000Y-40481000D01*
X166829000Y-40441000D02*
X165171000Y-40441000D01*
X166934000Y-40401000D02*
X165066000Y-40401000D01*
X167028000Y-40361000D02*
X164972000Y-40361000D01*
X167112000Y-40321000D02*
X164888000Y-40321000D01*
X167189000Y-40281000D02*
X164811000Y-40281000D01*
X167261000Y-40241000D02*
X164739000Y-40241000D01*
X167327000Y-40201000D02*
X164673000Y-40201000D01*
X167390000Y-40161000D02*
X164610000Y-40161000D01*
X167448000Y-40121000D02*
X164552000Y-40121000D01*
X167504000Y-40081000D02*
X164496000Y-40081000D01*
X167556000Y-40041000D02*
X164444000Y-40041000D01*
X167606000Y-40001000D02*
X164394000Y-40001000D01*
X165020000Y-39961000D02*
X164346000Y-39961000D01*
X167654000Y-39961000D02*
X166980000Y-39961000D01*
X165020000Y-39921000D02*
X164301000Y-39921000D01*
X167699000Y-39921000D02*
X166980000Y-39921000D01*
X165020000Y-39881000D02*
X164258000Y-39881000D01*
X167742000Y-39881000D02*
X166980000Y-39881000D01*
X165020000Y-39841000D02*
X164217000Y-39841000D01*
X167783000Y-39841000D02*
X166980000Y-39841000D01*
X165020000Y-39801000D02*
X164177000Y-39801000D01*
X167823000Y-39801000D02*
X166980000Y-39801000D01*
X165020000Y-39761000D02*
X164139000Y-39761000D01*
X167861000Y-39761000D02*
X166980000Y-39761000D01*
X165020000Y-39721000D02*
X164103000Y-39721000D01*
X167897000Y-39721000D02*
X166980000Y-39721000D01*
X165020000Y-39681000D02*
X164068000Y-39681000D01*
X167932000Y-39681000D02*
X166980000Y-39681000D01*
X165020000Y-39641000D02*
X164035000Y-39641000D01*
X167965000Y-39641000D02*
X166980000Y-39641000D01*
X165020000Y-39601000D02*
X164003000Y-39601000D01*
X167997000Y-39601000D02*
X166980000Y-39601000D01*
X165020000Y-39561000D02*
X163972000Y-39561000D01*
X168028000Y-39561000D02*
X166980000Y-39561000D01*
X165020000Y-39521000D02*
X163942000Y-39521000D01*
X168058000Y-39521000D02*
X166980000Y-39521000D01*
X165020000Y-39481000D02*
X163914000Y-39481000D01*
X168086000Y-39481000D02*
X166980000Y-39481000D01*
X165020000Y-39441000D02*
X163887000Y-39441000D01*
X168113000Y-39441000D02*
X166980000Y-39441000D01*
X165020000Y-39401000D02*
X163860000Y-39401000D01*
X168140000Y-39401000D02*
X166980000Y-39401000D01*
X165020000Y-39361000D02*
X163835000Y-39361000D01*
X168165000Y-39361000D02*
X166980000Y-39361000D01*
X165020000Y-39321000D02*
X163811000Y-39321000D01*
X168189000Y-39321000D02*
X166980000Y-39321000D01*
X165020000Y-39281000D02*
X163788000Y-39281000D01*
X168212000Y-39281000D02*
X166980000Y-39281000D01*
X165020000Y-39241000D02*
X163766000Y-39241000D01*
X168234000Y-39241000D02*
X166980000Y-39241000D01*
X165020000Y-39201000D02*
X163744000Y-39201000D01*
X168256000Y-39201000D02*
X166980000Y-39201000D01*
X165020000Y-39161000D02*
X163724000Y-39161000D01*
X168276000Y-39161000D02*
X166980000Y-39161000D01*
X165020000Y-39121000D02*
X163704000Y-39121000D01*
X168296000Y-39121000D02*
X166980000Y-39121000D01*
X165020000Y-39081000D02*
X163685000Y-39081000D01*
X168315000Y-39081000D02*
X166980000Y-39081000D01*
X165020000Y-39041000D02*
X163667000Y-39041000D01*
X168333000Y-39041000D02*
X166980000Y-39041000D01*
X165020000Y-39001000D02*
X163650000Y-39001000D01*
X168350000Y-39001000D02*
X166980000Y-39001000D01*
X165020000Y-38961000D02*
X163634000Y-38961000D01*
X168366000Y-38961000D02*
X166980000Y-38961000D01*
X165020000Y-38921000D02*
X163618000Y-38921000D01*
X168382000Y-38921000D02*
X166980000Y-38921000D01*
X165020000Y-38881000D02*
X163604000Y-38881000D01*
X168396000Y-38881000D02*
X166980000Y-38881000D01*
X165020000Y-38841000D02*
X163590000Y-38841000D01*
X168410000Y-38841000D02*
X166980000Y-38841000D01*
X165020000Y-38801000D02*
X163576000Y-38801000D01*
X168424000Y-38801000D02*
X166980000Y-38801000D01*
X165020000Y-38761000D02*
X163564000Y-38761000D01*
X168436000Y-38761000D02*
X166980000Y-38761000D01*
X165020000Y-38721000D02*
X163552000Y-38721000D01*
X168448000Y-38721000D02*
X166980000Y-38721000D01*
X165020000Y-38680000D02*
X163540000Y-38680000D01*
X168460000Y-38680000D02*
X166980000Y-38680000D01*
X165020000Y-38640000D02*
X163530000Y-38640000D01*
X168470000Y-38640000D02*
X166980000Y-38640000D01*
X165020000Y-38600000D02*
X163520000Y-38600000D01*
X168480000Y-38600000D02*
X166980000Y-38600000D01*
X165020000Y-38560000D02*
X163511000Y-38560000D01*
X168489000Y-38560000D02*
X166980000Y-38560000D01*
X165020000Y-38520000D02*
X163502000Y-38520000D01*
X168498000Y-38520000D02*
X166980000Y-38520000D01*
X165020000Y-38480000D02*
X163494000Y-38480000D01*
X168506000Y-38480000D02*
X166980000Y-38480000D01*
X165020000Y-38440000D02*
X163487000Y-38440000D01*
X168513000Y-38440000D02*
X166980000Y-38440000D01*
X165020000Y-38400000D02*
X163481000Y-38400000D01*
X168519000Y-38400000D02*
X166980000Y-38400000D01*
X165020000Y-38360000D02*
X163475000Y-38360000D01*
X168525000Y-38360000D02*
X166980000Y-38360000D01*
X165020000Y-38320000D02*
X163469000Y-38320000D01*
X168531000Y-38320000D02*
X166980000Y-38320000D01*
X165020000Y-38280000D02*
X163465000Y-38280000D01*
X168535000Y-38280000D02*
X166980000Y-38280000D01*
X165020000Y-38240000D02*
X163461000Y-38240000D01*
X168539000Y-38240000D02*
X166980000Y-38240000D01*
X165020000Y-38200000D02*
X163457000Y-38200000D01*
X168543000Y-38200000D02*
X166980000Y-38200000D01*
X165020000Y-38160000D02*
X163454000Y-38160000D01*
X168546000Y-38160000D02*
X166980000Y-38160000D01*
X165020000Y-38120000D02*
X163452000Y-38120000D01*
X168548000Y-38120000D02*
X166980000Y-38120000D01*
X165020000Y-38080000D02*
X163451000Y-38080000D01*
X168549000Y-38080000D02*
X166980000Y-38080000D01*
X165020000Y-38040000D02*
X163450000Y-38040000D01*
X168550000Y-38040000D02*
X166980000Y-38040000D01*
X168550000Y-38000000D02*
X163450000Y-38000000D01*
X167179723Y-40305722D02*
G75*
G03*
X167180000Y-35694420I-1179723J2305722D01*
G01*
X164820277Y-40305722D02*
G75*
G02*
X164820000Y-35694420I1179723J2305722D01*
G01*
X164820277Y-40305722D02*
G75*
G03*
X167180000Y-40305580I1179723J2305722D01*
G01*
X139004000Y-46670000D02*
X138990000Y-46670000D01*
X141010000Y-46670000D02*
X140996000Y-46670000D01*
X139004000Y-42250000D02*
X138990000Y-42250000D01*
X141010000Y-42250000D02*
X140996000Y-42250000D01*
X138990000Y-42250000D02*
X138990000Y-46670000D01*
X141010000Y-42250000D02*
X141010000Y-46670000D01*
X145380000Y-69580000D02*
X145380000Y-59340000D01*
X150021000Y-69580000D02*
X150021000Y-59340000D01*
X145380000Y-69580000D02*
X150021000Y-69580000D01*
X145380000Y-59340000D02*
X150021000Y-59340000D01*
X146890000Y-69580000D02*
X146890000Y-59340000D01*
X145380000Y-66310000D02*
X146890000Y-66310000D01*
X145380000Y-62609000D02*
X146890000Y-62609000D01*
X145380000Y-49580000D02*
X145380000Y-39340000D01*
X150021000Y-49580000D02*
X150021000Y-39340000D01*
X145380000Y-49580000D02*
X150021000Y-49580000D01*
X145380000Y-39340000D02*
X150021000Y-39340000D01*
X146890000Y-49580000D02*
X146890000Y-39340000D01*
X145380000Y-46310000D02*
X146890000Y-46310000D01*
X145380000Y-42609000D02*
X146890000Y-42609000D01*
X181004000Y-79710000D02*
X180990000Y-79710000D01*
X183010000Y-79710000D02*
X182996000Y-79710000D01*
X181004000Y-75290000D02*
X180990000Y-75290000D01*
X183010000Y-75290000D02*
X182996000Y-75290000D01*
X180990000Y-75290000D02*
X180990000Y-79710000D01*
X183010000Y-75290000D02*
X183010000Y-79710000D01*
X178260000Y-73150000D02*
X174660000Y-73150000D01*
X178784184Y-73877205D02*
G75*
G03*
X178260000Y-73150000I-2324184J-1122795D01*
G01*
X178816400Y-76098807D02*
G75*
G02*
X176460000Y-77600000I-2356400J1098807D01*
G01*
X174103600Y-76098807D02*
G75*
G03*
X176460000Y-77600000I2356400J1098807D01*
G01*
X174135816Y-73877205D02*
G75*
G02*
X174660000Y-73150000I2324184J-1122795D01*
G01*
D10*
X179500000Y-59820000D02*
X179500000Y-34500000D01*
X179500000Y-59820000D02*
X184500000Y-59820000D01*
X184500000Y-59820000D02*
X184500000Y-34500000D01*
X179500000Y-34500000D02*
X184500000Y-34500000D01*
D11*
X28500000Y-79000000D02*
X28500000Y-94500000D01*
X33500000Y-79000000D02*
X33500000Y-94500000D01*
X34500000Y-94500000D02*
X34500000Y-79000000D01*
X34500000Y-79000000D02*
X28500000Y-79000000D01*
X34500000Y-94500000D02*
X28500000Y-94500000D01*
D10*
X25500000Y-29500000D02*
X30500000Y-29500000D01*
X30500000Y-64980000D02*
X30500000Y-29500000D01*
X25500000Y-64980000D02*
X30500000Y-64980000D01*
X25500000Y-64980000D02*
X25500000Y-29500000D01*
D11*
X49250000Y-31500000D02*
X49250000Y-38500000D01*
X49250000Y-38500000D02*
X39500000Y-38500000D01*
X39500000Y-31500000D02*
X39500000Y-38500000D01*
X49250000Y-31500000D02*
X39500000Y-31500000D01*
X40500000Y-32500000D02*
X40500000Y-37500000D01*
X65500000Y-38500000D02*
X64500000Y-38500000D01*
X65500000Y-31500000D02*
X65500000Y-38500000D01*
X65500000Y-31500000D02*
X64500000Y-31500000D01*
X64500000Y-32500000D02*
X64500000Y-37500000D01*
X64500000Y-32500000D02*
X53750000Y-32500000D01*
X64500000Y-37500000D02*
X54000000Y-37500000D01*
X53750000Y-32500000D02*
X42000000Y-32500000D01*
X54000000Y-37500000D02*
X41750000Y-37500000D01*
X42000000Y-32500000D02*
X40500000Y-32500000D01*
X41750000Y-37500000D02*
X40500000Y-37500000D01*
X64500000Y-31500000D02*
X55750000Y-31500000D01*
X64500000Y-38500000D02*
X55750000Y-38500000D01*
X55750000Y-31500000D02*
X55750000Y-38500000D01*
X55750000Y-35000000D02*
X49250000Y-35000000D01*
X49250000Y-44000000D02*
X49250000Y-51000000D01*
X49250000Y-51000000D02*
X39500000Y-51000000D01*
X39500000Y-44000000D02*
X39500000Y-51000000D01*
X49250000Y-44000000D02*
X39500000Y-44000000D01*
X40500000Y-45000000D02*
X40500000Y-50000000D01*
X65500000Y-51000000D02*
X64500000Y-51000000D01*
X65500000Y-44000000D02*
X65500000Y-51000000D01*
X65500000Y-44000000D02*
X64500000Y-44000000D01*
X64500000Y-45000000D02*
X64500000Y-50000000D01*
X64500000Y-45000000D02*
X53750000Y-45000000D01*
X64500000Y-50000000D02*
X54000000Y-50000000D01*
X53750000Y-45000000D02*
X42000000Y-45000000D01*
X54000000Y-50000000D02*
X41750000Y-50000000D01*
X42000000Y-45000000D02*
X40500000Y-45000000D01*
X41750000Y-50000000D02*
X40500000Y-50000000D01*
X64500000Y-44000000D02*
X55750000Y-44000000D01*
X64500000Y-51000000D02*
X55750000Y-51000000D01*
X55750000Y-44000000D02*
X55750000Y-51000000D01*
X55750000Y-47500000D02*
X49250000Y-47500000D01*
X49250000Y-56500000D02*
X49250000Y-63500000D01*
X49250000Y-63500000D02*
X39500000Y-63500000D01*
X39500000Y-56500000D02*
X39500000Y-63500000D01*
X49250000Y-56500000D02*
X39500000Y-56500000D01*
X40500000Y-57500000D02*
X40500000Y-62500000D01*
X65500000Y-63500000D02*
X64500000Y-63500000D01*
X65500000Y-56500000D02*
X65500000Y-63500000D01*
X65500000Y-56500000D02*
X64500000Y-56500000D01*
X64500000Y-57500000D02*
X64500000Y-62500000D01*
X64500000Y-57500000D02*
X53750000Y-57500000D01*
X64500000Y-62500000D02*
X54000000Y-62500000D01*
X53750000Y-57500000D02*
X42000000Y-57500000D01*
X54000000Y-62500000D02*
X41750000Y-62500000D01*
X42000000Y-57500000D02*
X40500000Y-57500000D01*
X41750000Y-62500000D02*
X40500000Y-62500000D01*
X64500000Y-56500000D02*
X55750000Y-56500000D01*
X64500000Y-63500000D02*
X55750000Y-63500000D01*
X55750000Y-56500000D02*
X55750000Y-63500000D01*
X55750000Y-60000000D02*
X49250000Y-60000000D01*
D10*
X176277142Y-65642380D02*
X175943809Y-65166190D01*
X175705714Y-65642380D02*
X175705714Y-64642380D01*
X176086666Y-64642380D01*
X176181904Y-64690000D01*
X176229523Y-64737619D01*
X176277142Y-64832857D01*
X176277142Y-64975714D01*
X176229523Y-65070952D01*
X176181904Y-65118571D01*
X176086666Y-65166190D01*
X175705714Y-65166190D01*
X177181904Y-64642380D02*
X176705714Y-64642380D01*
X176658095Y-65118571D01*
X176705714Y-65070952D01*
X176800952Y-65023333D01*
X177039047Y-65023333D01*
X177134285Y-65070952D01*
X177181904Y-65118571D01*
X177229523Y-65213809D01*
X177229523Y-65451904D01*
X177181904Y-65547142D01*
X177134285Y-65594761D01*
X177039047Y-65642380D01*
X176800952Y-65642380D01*
X176705714Y-65594761D01*
X176658095Y-65547142D01*
X178181904Y-65642380D02*
X177610476Y-65642380D01*
X177896190Y-65642380D02*
X177896190Y-64642380D01*
X177800952Y-64785238D01*
X177705714Y-64880476D01*
X177610476Y-64928095D01*
X97357142Y-55357142D02*
X97309523Y-55404761D01*
X97166666Y-55452380D01*
X97071428Y-55452380D01*
X96928571Y-55404761D01*
X96833333Y-55309523D01*
X96785714Y-55214285D01*
X96738095Y-55023809D01*
X96738095Y-54880952D01*
X96785714Y-54690476D01*
X96833333Y-54595238D01*
X96928571Y-54500000D01*
X97071428Y-54452380D01*
X97166666Y-54452380D01*
X97309523Y-54500000D01*
X97357142Y-54547619D01*
X98309523Y-55452380D02*
X97738095Y-55452380D01*
X98023809Y-55452380D02*
X98023809Y-54452380D01*
X97928571Y-54595238D01*
X97833333Y-54690476D01*
X97738095Y-54738095D01*
X99261904Y-55452380D02*
X98690476Y-55452380D01*
X98976190Y-55452380D02*
X98976190Y-54452380D01*
X98880952Y-54595238D01*
X98785714Y-54690476D01*
X98690476Y-54738095D01*
X169017142Y-78142857D02*
X169064761Y-78190476D01*
X169112380Y-78333333D01*
X169112380Y-78428571D01*
X169064761Y-78571428D01*
X168969523Y-78666666D01*
X168874285Y-78714285D01*
X168683809Y-78761904D01*
X168540952Y-78761904D01*
X168350476Y-78714285D01*
X168255238Y-78666666D01*
X168160000Y-78571428D01*
X168112380Y-78428571D01*
X168112380Y-78333333D01*
X168160000Y-78190476D01*
X168207619Y-78142857D01*
X168112380Y-77238095D02*
X168112380Y-77714285D01*
X168588571Y-77761904D01*
X168540952Y-77714285D01*
X168493333Y-77619047D01*
X168493333Y-77380952D01*
X168540952Y-77285714D01*
X168588571Y-77238095D01*
X168683809Y-77190476D01*
X168921904Y-77190476D01*
X169017142Y-77238095D01*
X169064761Y-77285714D01*
X169112380Y-77380952D01*
X169112380Y-77619047D01*
X169064761Y-77714285D01*
X169017142Y-77761904D01*
X169112380Y-76238095D02*
X169112380Y-76809523D01*
X169112380Y-76523809D02*
X168112380Y-76523809D01*
X168255238Y-76619047D01*
X168350476Y-76714285D01*
X168398095Y-76809523D01*
X97357142Y-26857142D02*
X97309523Y-26904761D01*
X97166666Y-26952380D01*
X97071428Y-26952380D01*
X96928571Y-26904761D01*
X96833333Y-26809523D01*
X96785714Y-26714285D01*
X96738095Y-26523809D01*
X96738095Y-26380952D01*
X96785714Y-26190476D01*
X96833333Y-26095238D01*
X96928571Y-26000000D01*
X97071428Y-25952380D01*
X97166666Y-25952380D01*
X97309523Y-26000000D01*
X97357142Y-26047619D01*
X97738095Y-26047619D02*
X97785714Y-26000000D01*
X97880952Y-25952380D01*
X98119047Y-25952380D01*
X98214285Y-26000000D01*
X98261904Y-26047619D01*
X98309523Y-26142857D01*
X98309523Y-26238095D01*
X98261904Y-26380952D01*
X97690476Y-26952380D01*
X98309523Y-26952380D01*
X99261904Y-26952380D02*
X98690476Y-26952380D01*
X98976190Y-26952380D02*
X98976190Y-25952380D01*
X98880952Y-26095238D01*
X98785714Y-26190476D01*
X98690476Y-26238095D01*
X162762380Y-65102857D02*
X162286190Y-65436190D01*
X162762380Y-65674285D02*
X161762380Y-65674285D01*
X161762380Y-65293333D01*
X161810000Y-65198095D01*
X161857619Y-65150476D01*
X161952857Y-65102857D01*
X162095714Y-65102857D01*
X162190952Y-65150476D01*
X162238571Y-65198095D01*
X162286190Y-65293333D01*
X162286190Y-65674285D01*
X162095714Y-64245714D02*
X162762380Y-64245714D01*
X161714761Y-64483809D02*
X162429047Y-64721904D01*
X162429047Y-64102857D01*
X161857619Y-63769523D02*
X161810000Y-63721904D01*
X161762380Y-63626666D01*
X161762380Y-63388571D01*
X161810000Y-63293333D01*
X161857619Y-63245714D01*
X161952857Y-63198095D01*
X162048095Y-63198095D01*
X162190952Y-63245714D01*
X162762380Y-63817142D01*
X162762380Y-63198095D01*
X157762380Y-65102857D02*
X157286190Y-65436190D01*
X157762380Y-65674285D02*
X156762380Y-65674285D01*
X156762380Y-65293333D01*
X156810000Y-65198095D01*
X156857619Y-65150476D01*
X156952857Y-65102857D01*
X157095714Y-65102857D01*
X157190952Y-65150476D01*
X157238571Y-65198095D01*
X157286190Y-65293333D01*
X157286190Y-65674285D01*
X157095714Y-64245714D02*
X157762380Y-64245714D01*
X156714761Y-64483809D02*
X157429047Y-64721904D01*
X157429047Y-64102857D01*
X157762380Y-63198095D02*
X157762380Y-63769523D01*
X157762380Y-63483809D02*
X156762380Y-63483809D01*
X156905238Y-63579047D01*
X157000476Y-63674285D01*
X157048095Y-63769523D01*
X162762380Y-45102857D02*
X162286190Y-45436190D01*
X162762380Y-45674285D02*
X161762380Y-45674285D01*
X161762380Y-45293333D01*
X161810000Y-45198095D01*
X161857619Y-45150476D01*
X161952857Y-45102857D01*
X162095714Y-45102857D01*
X162190952Y-45150476D01*
X162238571Y-45198095D01*
X162286190Y-45293333D01*
X162286190Y-45674285D01*
X161762380Y-44769523D02*
X161762380Y-44150476D01*
X162143333Y-44483809D01*
X162143333Y-44340952D01*
X162190952Y-44245714D01*
X162238571Y-44198095D01*
X162333809Y-44150476D01*
X162571904Y-44150476D01*
X162667142Y-44198095D01*
X162714761Y-44245714D01*
X162762380Y-44340952D01*
X162762380Y-44626666D01*
X162714761Y-44721904D01*
X162667142Y-44769523D01*
X161857619Y-43769523D02*
X161810000Y-43721904D01*
X161762380Y-43626666D01*
X161762380Y-43388571D01*
X161810000Y-43293333D01*
X161857619Y-43245714D01*
X161952857Y-43198095D01*
X162048095Y-43198095D01*
X162190952Y-43245714D01*
X162762380Y-43817142D01*
X162762380Y-43198095D01*
X157762380Y-45102857D02*
X157286190Y-45436190D01*
X157762380Y-45674285D02*
X156762380Y-45674285D01*
X156762380Y-45293333D01*
X156810000Y-45198095D01*
X156857619Y-45150476D01*
X156952857Y-45102857D01*
X157095714Y-45102857D01*
X157190952Y-45150476D01*
X157238571Y-45198095D01*
X157286190Y-45293333D01*
X157286190Y-45674285D01*
X156762380Y-44769523D02*
X156762380Y-44150476D01*
X157143333Y-44483809D01*
X157143333Y-44340952D01*
X157190952Y-44245714D01*
X157238571Y-44198095D01*
X157333809Y-44150476D01*
X157571904Y-44150476D01*
X157667142Y-44198095D01*
X157714761Y-44245714D01*
X157762380Y-44340952D01*
X157762380Y-44626666D01*
X157714761Y-44721904D01*
X157667142Y-44769523D01*
X157762380Y-43198095D02*
X157762380Y-43769523D01*
X157762380Y-43483809D02*
X156762380Y-43483809D01*
X156905238Y-43579047D01*
X157000476Y-43674285D01*
X157048095Y-43769523D01*
X79452380Y-89238095D02*
X80261904Y-89238095D01*
X80357142Y-89190476D01*
X80404761Y-89142857D01*
X80452380Y-89047619D01*
X80452380Y-88857142D01*
X80404761Y-88761904D01*
X80357142Y-88714285D01*
X80261904Y-88666666D01*
X79452380Y-88666666D01*
X80452380Y-87666666D02*
X80452380Y-88238095D01*
X80452380Y-87952380D02*
X79452380Y-87952380D01*
X79595238Y-88047619D01*
X79690476Y-88142857D01*
X79738095Y-88238095D01*
X79452380Y-87333333D02*
X79452380Y-86714285D01*
X79833333Y-87047619D01*
X79833333Y-86904761D01*
X79880952Y-86809523D01*
X79928571Y-86761904D01*
X80023809Y-86714285D01*
X80261904Y-86714285D01*
X80357142Y-86761904D01*
X80404761Y-86809523D01*
X80452380Y-86904761D01*
X80452380Y-87190476D01*
X80404761Y-87285714D01*
X80357142Y-87333333D01*
X76985714Y-53632380D02*
X76985714Y-52632380D01*
X77223809Y-52632380D01*
X77366666Y-52680000D01*
X77461904Y-52775238D01*
X77509523Y-52870476D01*
X77557142Y-53060952D01*
X77557142Y-53203809D01*
X77509523Y-53394285D01*
X77461904Y-53489523D01*
X77366666Y-53584761D01*
X77223809Y-53632380D01*
X76985714Y-53632380D01*
X78509523Y-53632380D02*
X77938095Y-53632380D01*
X78223809Y-53632380D02*
X78223809Y-52632380D01*
X78128571Y-52775238D01*
X78033333Y-52870476D01*
X77938095Y-52918095D01*
X79461904Y-53632380D02*
X78890476Y-53632380D01*
X79176190Y-53632380D02*
X79176190Y-52632380D01*
X79080952Y-52775238D01*
X78985714Y-52870476D01*
X78890476Y-52918095D01*
X64452380Y-89238095D02*
X65261904Y-89238095D01*
X65357142Y-89190476D01*
X65404761Y-89142857D01*
X65452380Y-89047619D01*
X65452380Y-88857142D01*
X65404761Y-88761904D01*
X65357142Y-88714285D01*
X65261904Y-88666666D01*
X64452380Y-88666666D01*
X65452380Y-87666666D02*
X65452380Y-88238095D01*
X65452380Y-87952380D02*
X64452380Y-87952380D01*
X64595238Y-88047619D01*
X64690476Y-88142857D01*
X64738095Y-88238095D01*
X64547619Y-87285714D02*
X64500000Y-87238095D01*
X64452380Y-87142857D01*
X64452380Y-86904761D01*
X64500000Y-86809523D01*
X64547619Y-86761904D01*
X64642857Y-86714285D01*
X64738095Y-86714285D01*
X64880952Y-86761904D01*
X65452380Y-87333333D01*
X65452380Y-86714285D01*
X49452380Y-89238095D02*
X50261904Y-89238095D01*
X50357142Y-89190476D01*
X50404761Y-89142857D01*
X50452380Y-89047619D01*
X50452380Y-88857142D01*
X50404761Y-88761904D01*
X50357142Y-88714285D01*
X50261904Y-88666666D01*
X49452380Y-88666666D01*
X50452380Y-87666666D02*
X50452380Y-88238095D01*
X50452380Y-87952380D02*
X49452380Y-87952380D01*
X49595238Y-88047619D01*
X49690476Y-88142857D01*
X49738095Y-88238095D01*
X50452380Y-86714285D02*
X50452380Y-87285714D01*
X50452380Y-87000000D02*
X49452380Y-87000000D01*
X49595238Y-87095238D01*
X49690476Y-87190476D01*
X49738095Y-87285714D01*
X77428095Y-43372380D02*
X77428095Y-44181904D01*
X77475714Y-44277142D01*
X77523333Y-44324761D01*
X77618571Y-44372380D01*
X77809047Y-44372380D01*
X77904285Y-44324761D01*
X77951904Y-44277142D01*
X77999523Y-44181904D01*
X77999523Y-43372380D01*
X78999523Y-44372380D02*
X78428095Y-44372380D01*
X78713809Y-44372380D02*
X78713809Y-43372380D01*
X78618571Y-43515238D01*
X78523333Y-43610476D01*
X78428095Y-43658095D01*
X92753333Y-47142380D02*
X92420000Y-46666190D01*
X92181904Y-47142380D02*
X92181904Y-46142380D01*
X92562857Y-46142380D01*
X92658095Y-46190000D01*
X92705714Y-46237619D01*
X92753333Y-46332857D01*
X92753333Y-46475714D01*
X92705714Y-46570952D01*
X92658095Y-46618571D01*
X92562857Y-46666190D01*
X92181904Y-46666190D01*
X93705714Y-47142380D02*
X93134285Y-47142380D01*
X93420000Y-47142380D02*
X93420000Y-46142380D01*
X93324761Y-46285238D01*
X93229523Y-46380476D01*
X93134285Y-46428095D01*
X76985714Y-32632380D02*
X76985714Y-31632380D01*
X77223809Y-31632380D01*
X77366666Y-31680000D01*
X77461904Y-31775238D01*
X77509523Y-31870476D01*
X77557142Y-32060952D01*
X77557142Y-32203809D01*
X77509523Y-32394285D01*
X77461904Y-32489523D01*
X77366666Y-32584761D01*
X77223809Y-32632380D01*
X76985714Y-32632380D01*
X77938095Y-31727619D02*
X77985714Y-31680000D01*
X78080952Y-31632380D01*
X78319047Y-31632380D01*
X78414285Y-31680000D01*
X78461904Y-31727619D01*
X78509523Y-31822857D01*
X78509523Y-31918095D01*
X78461904Y-32060952D01*
X77890476Y-32632380D01*
X78509523Y-32632380D01*
X79461904Y-32632380D02*
X78890476Y-32632380D01*
X79176190Y-32632380D02*
X79176190Y-31632380D01*
X79080952Y-31775238D01*
X78985714Y-31870476D01*
X78890476Y-31918095D01*
X165357142Y-54357142D02*
X165309523Y-54404761D01*
X165166666Y-54452380D01*
X165071428Y-54452380D01*
X164928571Y-54404761D01*
X164833333Y-54309523D01*
X164785714Y-54214285D01*
X164738095Y-54023809D01*
X164738095Y-53880952D01*
X164785714Y-53690476D01*
X164833333Y-53595238D01*
X164928571Y-53500000D01*
X165071428Y-53452380D01*
X165166666Y-53452380D01*
X165309523Y-53500000D01*
X165357142Y-53547619D01*
X166214285Y-53785714D02*
X166214285Y-54452380D01*
X165976190Y-53404761D02*
X165738095Y-54119047D01*
X166357142Y-54119047D01*
X166690476Y-53547619D02*
X166738095Y-53500000D01*
X166833333Y-53452380D01*
X167071428Y-53452380D01*
X167166666Y-53500000D01*
X167214285Y-53547619D01*
X167261904Y-53642857D01*
X167261904Y-53738095D01*
X167214285Y-53880952D01*
X166642857Y-54452380D01*
X167261904Y-54452380D01*
X137857142Y-65102857D02*
X137904761Y-65150476D01*
X137952380Y-65293333D01*
X137952380Y-65388571D01*
X137904761Y-65531428D01*
X137809523Y-65626666D01*
X137714285Y-65674285D01*
X137523809Y-65721904D01*
X137380952Y-65721904D01*
X137190476Y-65674285D01*
X137095238Y-65626666D01*
X137000000Y-65531428D01*
X136952380Y-65388571D01*
X136952380Y-65293333D01*
X137000000Y-65150476D01*
X137047619Y-65102857D01*
X137285714Y-64245714D02*
X137952380Y-64245714D01*
X136904761Y-64483809D02*
X137619047Y-64721904D01*
X137619047Y-64102857D01*
X137952380Y-63198095D02*
X137952380Y-63769523D01*
X137952380Y-63483809D02*
X136952380Y-63483809D01*
X137095238Y-63579047D01*
X137190476Y-63674285D01*
X137238095Y-63769523D01*
X165357142Y-34357142D02*
X165309523Y-34404761D01*
X165166666Y-34452380D01*
X165071428Y-34452380D01*
X164928571Y-34404761D01*
X164833333Y-34309523D01*
X164785714Y-34214285D01*
X164738095Y-34023809D01*
X164738095Y-33880952D01*
X164785714Y-33690476D01*
X164833333Y-33595238D01*
X164928571Y-33500000D01*
X165071428Y-33452380D01*
X165166666Y-33452380D01*
X165309523Y-33500000D01*
X165357142Y-33547619D01*
X165690476Y-33452380D02*
X166309523Y-33452380D01*
X165976190Y-33833333D01*
X166119047Y-33833333D01*
X166214285Y-33880952D01*
X166261904Y-33928571D01*
X166309523Y-34023809D01*
X166309523Y-34261904D01*
X166261904Y-34357142D01*
X166214285Y-34404761D01*
X166119047Y-34452380D01*
X165833333Y-34452380D01*
X165738095Y-34404761D01*
X165690476Y-34357142D01*
X166690476Y-33547619D02*
X166738095Y-33500000D01*
X166833333Y-33452380D01*
X167071428Y-33452380D01*
X167166666Y-33500000D01*
X167214285Y-33547619D01*
X167261904Y-33642857D01*
X167261904Y-33738095D01*
X167214285Y-33880952D01*
X166642857Y-34452380D01*
X167261904Y-34452380D01*
X137857142Y-45102857D02*
X137904761Y-45150476D01*
X137952380Y-45293333D01*
X137952380Y-45388571D01*
X137904761Y-45531428D01*
X137809523Y-45626666D01*
X137714285Y-45674285D01*
X137523809Y-45721904D01*
X137380952Y-45721904D01*
X137190476Y-45674285D01*
X137095238Y-45626666D01*
X137000000Y-45531428D01*
X136952380Y-45388571D01*
X136952380Y-45293333D01*
X137000000Y-45150476D01*
X137047619Y-45102857D01*
X136952380Y-44769523D02*
X136952380Y-44150476D01*
X137333333Y-44483809D01*
X137333333Y-44340952D01*
X137380952Y-44245714D01*
X137428571Y-44198095D01*
X137523809Y-44150476D01*
X137761904Y-44150476D01*
X137857142Y-44198095D01*
X137904761Y-44245714D01*
X137952380Y-44340952D01*
X137952380Y-44626666D01*
X137904761Y-44721904D01*
X137857142Y-44769523D01*
X137952380Y-43198095D02*
X137952380Y-43769523D01*
X137952380Y-43483809D02*
X136952380Y-43483809D01*
X137095238Y-43579047D01*
X137190476Y-43674285D01*
X137238095Y-43769523D01*
X142452380Y-65698095D02*
X143261904Y-65698095D01*
X143357142Y-65650476D01*
X143404761Y-65602857D01*
X143452380Y-65507619D01*
X143452380Y-65317142D01*
X143404761Y-65221904D01*
X143357142Y-65174285D01*
X143261904Y-65126666D01*
X142452380Y-65126666D01*
X142785714Y-64221904D02*
X143452380Y-64221904D01*
X142404761Y-64460000D02*
X143119047Y-64698095D01*
X143119047Y-64079047D01*
X143452380Y-63174285D02*
X143452380Y-63745714D01*
X143452380Y-63460000D02*
X142452380Y-63460000D01*
X142595238Y-63555238D01*
X142690476Y-63650476D01*
X142738095Y-63745714D01*
X142452380Y-45698095D02*
X143261904Y-45698095D01*
X143357142Y-45650476D01*
X143404761Y-45602857D01*
X143452380Y-45507619D01*
X143452380Y-45317142D01*
X143404761Y-45221904D01*
X143357142Y-45174285D01*
X143261904Y-45126666D01*
X142452380Y-45126666D01*
X142452380Y-44745714D02*
X142452380Y-44126666D01*
X142833333Y-44460000D01*
X142833333Y-44317142D01*
X142880952Y-44221904D01*
X142928571Y-44174285D01*
X143023809Y-44126666D01*
X143261904Y-44126666D01*
X143357142Y-44174285D01*
X143404761Y-44221904D01*
X143452380Y-44317142D01*
X143452380Y-44602857D01*
X143404761Y-44698095D01*
X143357142Y-44745714D01*
X143452380Y-43174285D02*
X143452380Y-43745714D01*
X143452380Y-43460000D02*
X142452380Y-43460000D01*
X142595238Y-43555238D01*
X142690476Y-43650476D01*
X142738095Y-43745714D01*
X184617142Y-78142857D02*
X184664761Y-78190476D01*
X184712380Y-78333333D01*
X184712380Y-78428571D01*
X184664761Y-78571428D01*
X184569523Y-78666666D01*
X184474285Y-78714285D01*
X184283809Y-78761904D01*
X184140952Y-78761904D01*
X183950476Y-78714285D01*
X183855238Y-78666666D01*
X183760000Y-78571428D01*
X183712380Y-78428571D01*
X183712380Y-78333333D01*
X183760000Y-78190476D01*
X183807619Y-78142857D01*
X183712380Y-77238095D02*
X183712380Y-77714285D01*
X184188571Y-77761904D01*
X184140952Y-77714285D01*
X184093333Y-77619047D01*
X184093333Y-77380952D01*
X184140952Y-77285714D01*
X184188571Y-77238095D01*
X184283809Y-77190476D01*
X184521904Y-77190476D01*
X184617142Y-77238095D01*
X184664761Y-77285714D01*
X184712380Y-77380952D01*
X184712380Y-77619047D01*
X184664761Y-77714285D01*
X184617142Y-77761904D01*
X183807619Y-76809523D02*
X183760000Y-76761904D01*
X183712380Y-76666666D01*
X183712380Y-76428571D01*
X183760000Y-76333333D01*
X183807619Y-76285714D01*
X183902857Y-76238095D01*
X183998095Y-76238095D01*
X184140952Y-76285714D01*
X184712380Y-76857142D01*
X184712380Y-76238095D01*
X175221904Y-70832380D02*
X175221904Y-71641904D01*
X175269523Y-71737142D01*
X175317142Y-71784761D01*
X175412380Y-71832380D01*
X175602857Y-71832380D01*
X175698095Y-71784761D01*
X175745714Y-71737142D01*
X175793333Y-71641904D01*
X175793333Y-70832380D01*
X176745714Y-70832380D02*
X176269523Y-70832380D01*
X176221904Y-71308571D01*
X176269523Y-71260952D01*
X176364761Y-71213333D01*
X176602857Y-71213333D01*
X176698095Y-71260952D01*
X176745714Y-71308571D01*
X176793333Y-71403809D01*
X176793333Y-71641904D01*
X176745714Y-71737142D01*
X176698095Y-71784761D01*
X176602857Y-71832380D01*
X176364761Y-71832380D01*
X176269523Y-71784761D01*
X176221904Y-71737142D01*
X177745714Y-71832380D02*
X177174285Y-71832380D01*
X177460000Y-71832380D02*
X177460000Y-70832380D01*
X177364761Y-70975238D01*
X177269523Y-71070476D01*
X177174285Y-71118095D01*
X36202380Y-88440476D02*
X35202380Y-88440476D01*
X35202380Y-88059523D01*
X35250000Y-87964285D01*
X35297619Y-87916666D01*
X35392857Y-87869047D01*
X35535714Y-87869047D01*
X35630952Y-87916666D01*
X35678571Y-87964285D01*
X35726190Y-88059523D01*
X35726190Y-88440476D01*
X35297619Y-87488095D02*
X35250000Y-87440476D01*
X35202380Y-87345238D01*
X35202380Y-87107142D01*
X35250000Y-87011904D01*
X35297619Y-86964285D01*
X35392857Y-86916666D01*
X35488095Y-86916666D01*
X35630952Y-86964285D01*
X36202380Y-87535714D01*
X36202380Y-86916666D01*
X35202380Y-86297619D02*
X35202380Y-86202380D01*
X35250000Y-86107142D01*
X35297619Y-86059523D01*
X35392857Y-86011904D01*
X35583333Y-85964285D01*
X35821428Y-85964285D01*
X36011904Y-86011904D01*
X36107142Y-86059523D01*
X36154761Y-86107142D01*
X36202380Y-86202380D01*
X36202380Y-86297619D01*
X36154761Y-86392857D01*
X36107142Y-86440476D01*
X36011904Y-86488095D01*
X35821428Y-86535714D01*
X35583333Y-86535714D01*
X35392857Y-86488095D01*
X35297619Y-86440476D01*
X35250000Y-86392857D01*
X35202380Y-86297619D01*
X36202380Y-85011904D02*
X36202380Y-85583333D01*
X36202380Y-85297619D02*
X35202380Y-85297619D01*
X35345238Y-85392857D01*
X35440476Y-85488095D01*
X35488095Y-85583333D01*
X51214285Y-29928571D02*
X50880952Y-29928571D01*
X50880952Y-30452380D02*
X50880952Y-29452380D01*
X51357142Y-29452380D01*
X51690476Y-29547619D02*
X51738095Y-29500000D01*
X51833333Y-29452380D01*
X52071428Y-29452380D01*
X52166666Y-29500000D01*
X52214285Y-29547619D01*
X52261904Y-29642857D01*
X52261904Y-29738095D01*
X52214285Y-29880952D01*
X51642857Y-30452380D01*
X52261904Y-30452380D01*
X52880952Y-29452380D02*
X52976190Y-29452380D01*
X53071428Y-29500000D01*
X53119047Y-29547619D01*
X53166666Y-29642857D01*
X53214285Y-29833333D01*
X53214285Y-30071428D01*
X53166666Y-30261904D01*
X53119047Y-30357142D01*
X53071428Y-30404761D01*
X52976190Y-30452380D01*
X52880952Y-30452380D01*
X52785714Y-30404761D01*
X52738095Y-30357142D01*
X52690476Y-30261904D01*
X52642857Y-30071428D01*
X52642857Y-29833333D01*
X52690476Y-29642857D01*
X52738095Y-29547619D01*
X52785714Y-29500000D01*
X52880952Y-29452380D01*
X53547619Y-29452380D02*
X54166666Y-29452380D01*
X53833333Y-29833333D01*
X53976190Y-29833333D01*
X54071428Y-29880952D01*
X54119047Y-29928571D01*
X54166666Y-30023809D01*
X54166666Y-30261904D01*
X54119047Y-30357142D01*
X54071428Y-30404761D01*
X53976190Y-30452380D01*
X53690476Y-30452380D01*
X53595238Y-30404761D01*
X53547619Y-30357142D01*
X51214285Y-42428571D02*
X50880952Y-42428571D01*
X50880952Y-42952380D02*
X50880952Y-41952380D01*
X51357142Y-41952380D01*
X51690476Y-42047619D02*
X51738095Y-42000000D01*
X51833333Y-41952380D01*
X52071428Y-41952380D01*
X52166666Y-42000000D01*
X52214285Y-42047619D01*
X52261904Y-42142857D01*
X52261904Y-42238095D01*
X52214285Y-42380952D01*
X51642857Y-42952380D01*
X52261904Y-42952380D01*
X52880952Y-41952380D02*
X52976190Y-41952380D01*
X53071428Y-42000000D01*
X53119047Y-42047619D01*
X53166666Y-42142857D01*
X53214285Y-42333333D01*
X53214285Y-42571428D01*
X53166666Y-42761904D01*
X53119047Y-42857142D01*
X53071428Y-42904761D01*
X52976190Y-42952380D01*
X52880952Y-42952380D01*
X52785714Y-42904761D01*
X52738095Y-42857142D01*
X52690476Y-42761904D01*
X52642857Y-42571428D01*
X52642857Y-42333333D01*
X52690476Y-42142857D01*
X52738095Y-42047619D01*
X52785714Y-42000000D01*
X52880952Y-41952380D01*
X54166666Y-42952380D02*
X53595238Y-42952380D01*
X53880952Y-42952380D02*
X53880952Y-41952380D01*
X53785714Y-42095238D01*
X53690476Y-42190476D01*
X53595238Y-42238095D01*
X51214285Y-54928571D02*
X50880952Y-54928571D01*
X50880952Y-55452380D02*
X50880952Y-54452380D01*
X51357142Y-54452380D01*
X51690476Y-54547619D02*
X51738095Y-54500000D01*
X51833333Y-54452380D01*
X52071428Y-54452380D01*
X52166666Y-54500000D01*
X52214285Y-54547619D01*
X52261904Y-54642857D01*
X52261904Y-54738095D01*
X52214285Y-54880952D01*
X51642857Y-55452380D01*
X52261904Y-55452380D01*
X52880952Y-54452380D02*
X52976190Y-54452380D01*
X53071428Y-54500000D01*
X53119047Y-54547619D01*
X53166666Y-54642857D01*
X53214285Y-54833333D01*
X53214285Y-55071428D01*
X53166666Y-55261904D01*
X53119047Y-55357142D01*
X53071428Y-55404761D01*
X52976190Y-55452380D01*
X52880952Y-55452380D01*
X52785714Y-55404761D01*
X52738095Y-55357142D01*
X52690476Y-55261904D01*
X52642857Y-55071428D01*
X52642857Y-54833333D01*
X52690476Y-54642857D01*
X52738095Y-54547619D01*
X52785714Y-54500000D01*
X52880952Y-54452380D01*
X53595238Y-54547619D02*
X53642857Y-54500000D01*
X53738095Y-54452380D01*
X53976190Y-54452380D01*
X54071428Y-54500000D01*
X54119047Y-54547619D01*
X54166666Y-54642857D01*
X54166666Y-54738095D01*
X54119047Y-54880952D01*
X53547619Y-55452380D01*
X54166666Y-55452380D01*
M02*
