M48
; DRILL file {KiCad (5.1.7)-1} date 11/13/21 12:18:01
; FORMAT={-:-/ absolute / metric / decimal}
; #@! TF.CreationDate,2021-11-13T12:18:01+01:00
; #@! TF.GenerationSoftware,Kicad,Pcbnew,(5.1.7)-1
; #@! TF.FileFunction,Plated,1,2,PTH
FMAT,2
METRIC
T1C0.800
T2C0.900
T3C1.000
T4C1.100
T5C1.200
T6C1.350
T7C1.400
T8C1.500
T9C4.000
%
G90
G05
T1
X170.92Y-80.0
T2
X166.0Y-57.0
X166.0Y-59.0
X166.0Y-37.0
X166.0Y-39.0
T3
X173.92Y-75.0
X176.46Y-75.0
X179.0Y-75.0
X155.0Y-61.92
X155.0Y-67.0
X182.0Y-75.0
X182.0Y-80.0
X155.0Y-41.92
X155.0Y-47.0
X74.38Y-34.92
X74.38Y-40.0
X82.0Y-34.92
X82.0Y-40.0
X74.38Y-46.46
X74.38Y-49.0
X82.0Y-46.46
X82.0Y-49.0
X74.38Y-55.92
X74.38Y-61.0
X82.0Y-55.92
X82.0Y-61.0
X140.0Y-61.96
X140.0Y-66.96
X170.92Y-75.0
X140.0Y-41.96
X140.0Y-46.96
X160.0Y-61.92
X160.0Y-67.0
X160.0Y-41.92
X160.0Y-47.0
X87.84Y-49.0
X98.0Y-49.0
T4
X32.0Y-80.5
X32.0Y-83.0
X32.0Y-85.5
X32.0Y-88.0
X32.0Y-90.5
X32.0Y-93.0
T5
X148.0Y-41.92
X148.0Y-44.46
X148.0Y-47.0
X55.0Y-85.46
X55.0Y-88.0
X55.0Y-90.54
X85.0Y-85.46
X85.0Y-88.0
X85.0Y-90.54
X148.0Y-61.92
X148.0Y-64.46
X148.0Y-67.0
X70.0Y-85.46
X70.0Y-88.0
X70.0Y-90.54
T6
X42.5Y-35.0
X47.5Y-35.0
X57.5Y-35.0
X62.5Y-35.0
X42.5Y-60.0
X47.5Y-60.0
X57.5Y-60.0
X62.5Y-60.0
X42.5Y-47.5
X47.5Y-47.5
X57.5Y-47.5
X62.5Y-47.5
T7
X98.0Y-61.0
X98.0Y-68.5
X98.0Y-32.5
X98.0Y-40.0
T8
X182.0Y-37.0
X182.0Y-42.08
X182.0Y-47.16
X182.0Y-52.24
X182.0Y-57.32
X28.0Y-32.0
X28.0Y-37.08
X28.0Y-42.16
X28.0Y-47.24
X28.0Y-52.32
X28.0Y-57.4
X28.0Y-62.48
T9
X40.0Y-106.0
X40.0Y-24.0
X170.0Y-106.0
X170.0Y-24.0
T0
M30
