G04 #@! TF.GenerationSoftware,KiCad,Pcbnew,(5.1.7)-1*
G04 #@! TF.CreationDate,2022-03-16T13:26:47+01:00*
G04 #@! TF.ProjectId,bluetooth-board,626c7565-746f-46f7-9468-2d626f617264,rev?*
G04 #@! TF.SameCoordinates,Original*
G04 #@! TF.FileFunction,Legend,Bot*
G04 #@! TF.FilePolarity,Positive*
%FSLAX46Y46*%
G04 Gerber Fmt 4.6, Leading zero omitted, Abs format (unit mm)*
G04 Created by KiCad (PCBNEW (5.1.7)-1) date 2022-03-16 13:26:47*
%MOMM*%
%LPD*%
G01*
G04 APERTURE LIST*
%ADD10C,0.120000*%
%ADD11C,0.150000*%
%ADD12C,2.000000*%
%ADD13O,1.700000X1.700000*%
G04 APERTURE END LIST*
D10*
X18770000Y-21080000D02*
X31530000Y-21080000D01*
X31530000Y-21080000D02*
X31530000Y-15880000D01*
X31530000Y-15880000D02*
X16170000Y-15880000D01*
X16170000Y-15880000D02*
X16170000Y-18480000D01*
X16170000Y-18480000D02*
X18770000Y-18480000D01*
X18770000Y-18480000D02*
X18770000Y-21080000D01*
X17500000Y-21080000D02*
X16170000Y-21080000D01*
X16170000Y-21080000D02*
X16170000Y-19810000D01*
D11*
X29952380Y-31238095D02*
X30761904Y-31238095D01*
X30857142Y-31285714D01*
X30904761Y-31333333D01*
X30952380Y-31428571D01*
X30952380Y-31619047D01*
X30904761Y-31714285D01*
X30857142Y-31761904D01*
X30761904Y-31809523D01*
X29952380Y-31809523D01*
X30952380Y-32809523D02*
X30952380Y-32238095D01*
X30952380Y-32523809D02*
X29952380Y-32523809D01*
X30095238Y-32428571D01*
X30190476Y-32333333D01*
X30238095Y-32238095D01*
X21761904Y-23452380D02*
X21761904Y-24261904D01*
X21714285Y-24357142D01*
X21666666Y-24404761D01*
X21571428Y-24452380D01*
X21380952Y-24452380D01*
X21285714Y-24404761D01*
X21238095Y-24357142D01*
X21190476Y-24261904D01*
X21190476Y-23452380D01*
X20761904Y-23547619D02*
X20714285Y-23500000D01*
X20619047Y-23452380D01*
X20380952Y-23452380D01*
X20285714Y-23500000D01*
X20238095Y-23547619D01*
X20190476Y-23642857D01*
X20190476Y-23738095D01*
X20238095Y-23880952D01*
X20809523Y-24452380D01*
X20190476Y-24452380D01*
X27166666Y-25722380D02*
X27500000Y-25246190D01*
X27738095Y-25722380D02*
X27738095Y-24722380D01*
X27357142Y-24722380D01*
X27261904Y-24770000D01*
X27214285Y-24817619D01*
X27166666Y-24912857D01*
X27166666Y-25055714D01*
X27214285Y-25150952D01*
X27261904Y-25198571D01*
X27357142Y-25246190D01*
X27738095Y-25246190D01*
X26690476Y-25722380D02*
X26500000Y-25722380D01*
X26404761Y-25674761D01*
X26357142Y-25627142D01*
X26261904Y-25484285D01*
X26214285Y-25293809D01*
X26214285Y-24912857D01*
X26261904Y-24817619D01*
X26309523Y-24770000D01*
X26404761Y-24722380D01*
X26595238Y-24722380D01*
X26690476Y-24770000D01*
X26738095Y-24817619D01*
X26785714Y-24912857D01*
X26785714Y-25150952D01*
X26738095Y-25246190D01*
X26690476Y-25293809D01*
X26595238Y-25341428D01*
X26404761Y-25341428D01*
X26309523Y-25293809D01*
X26261904Y-25246190D01*
X26214285Y-25150952D01*
X30312380Y-38193333D02*
X29836190Y-37860000D01*
X30312380Y-37621904D02*
X29312380Y-37621904D01*
X29312380Y-38002857D01*
X29360000Y-38098095D01*
X29407619Y-38145714D01*
X29502857Y-38193333D01*
X29645714Y-38193333D01*
X29740952Y-38145714D01*
X29788571Y-38098095D01*
X29836190Y-38002857D01*
X29836190Y-37621904D01*
X29740952Y-38764761D02*
X29693333Y-38669523D01*
X29645714Y-38621904D01*
X29550476Y-38574285D01*
X29502857Y-38574285D01*
X29407619Y-38621904D01*
X29360000Y-38669523D01*
X29312380Y-38764761D01*
X29312380Y-38955238D01*
X29360000Y-39050476D01*
X29407619Y-39098095D01*
X29502857Y-39145714D01*
X29550476Y-39145714D01*
X29645714Y-39098095D01*
X29693333Y-39050476D01*
X29740952Y-38955238D01*
X29740952Y-38764761D01*
X29788571Y-38669523D01*
X29836190Y-38621904D01*
X29931428Y-38574285D01*
X30121904Y-38574285D01*
X30217142Y-38621904D01*
X30264761Y-38669523D01*
X30312380Y-38764761D01*
X30312380Y-38955238D01*
X30264761Y-39050476D01*
X30217142Y-39098095D01*
X30121904Y-39145714D01*
X29931428Y-39145714D01*
X29836190Y-39098095D01*
X29788571Y-39050476D01*
X29740952Y-38955238D01*
X31592380Y-25473333D02*
X31116190Y-25140000D01*
X31592380Y-24901904D02*
X30592380Y-24901904D01*
X30592380Y-25282857D01*
X30640000Y-25378095D01*
X30687619Y-25425714D01*
X30782857Y-25473333D01*
X30925714Y-25473333D01*
X31020952Y-25425714D01*
X31068571Y-25378095D01*
X31116190Y-25282857D01*
X31116190Y-24901904D01*
X30592380Y-25806666D02*
X30592380Y-26473333D01*
X31592380Y-26044761D01*
X27642857Y-23182380D02*
X27976190Y-22706190D01*
X28214285Y-23182380D02*
X28214285Y-22182380D01*
X27833333Y-22182380D01*
X27738095Y-22230000D01*
X27690476Y-22277619D01*
X27642857Y-22372857D01*
X27642857Y-22515714D01*
X27690476Y-22610952D01*
X27738095Y-22658571D01*
X27833333Y-22706190D01*
X28214285Y-22706190D01*
X26690476Y-23182380D02*
X27261904Y-23182380D01*
X26976190Y-23182380D02*
X26976190Y-22182380D01*
X27071428Y-22325238D01*
X27166666Y-22420476D01*
X27261904Y-22468095D01*
X26071428Y-22182380D02*
X25976190Y-22182380D01*
X25880952Y-22230000D01*
X25833333Y-22277619D01*
X25785714Y-22372857D01*
X25738095Y-22563333D01*
X25738095Y-22801428D01*
X25785714Y-22991904D01*
X25833333Y-23087142D01*
X25880952Y-23134761D01*
X25976190Y-23182380D01*
X26071428Y-23182380D01*
X26166666Y-23134761D01*
X26214285Y-23087142D01*
X26261904Y-22991904D01*
X26309523Y-22801428D01*
X26309523Y-22563333D01*
X26261904Y-22372857D01*
X26214285Y-22277619D01*
X26166666Y-22230000D01*
X26071428Y-22182380D01*
X27402380Y-30583333D02*
X26926190Y-30250000D01*
X27402380Y-30011904D02*
X26402380Y-30011904D01*
X26402380Y-30392857D01*
X26450000Y-30488095D01*
X26497619Y-30535714D01*
X26592857Y-30583333D01*
X26735714Y-30583333D01*
X26830952Y-30535714D01*
X26878571Y-30488095D01*
X26926190Y-30392857D01*
X26926190Y-30011904D01*
X26402380Y-31440476D02*
X26402380Y-31250000D01*
X26450000Y-31154761D01*
X26497619Y-31107142D01*
X26640476Y-31011904D01*
X26830952Y-30964285D01*
X27211904Y-30964285D01*
X27307142Y-31011904D01*
X27354761Y-31059523D01*
X27402380Y-31154761D01*
X27402380Y-31345238D01*
X27354761Y-31440476D01*
X27307142Y-31488095D01*
X27211904Y-31535714D01*
X26973809Y-31535714D01*
X26878571Y-31488095D01*
X26830952Y-31440476D01*
X26783333Y-31345238D01*
X26783333Y-31154761D01*
X26830952Y-31059523D01*
X26878571Y-31011904D01*
X26973809Y-30964285D01*
X25402380Y-29583333D02*
X24926190Y-29250000D01*
X25402380Y-29011904D02*
X24402380Y-29011904D01*
X24402380Y-29392857D01*
X24450000Y-29488095D01*
X24497619Y-29535714D01*
X24592857Y-29583333D01*
X24735714Y-29583333D01*
X24830952Y-29535714D01*
X24878571Y-29488095D01*
X24926190Y-29392857D01*
X24926190Y-29011904D01*
X24402380Y-30488095D02*
X24402380Y-30011904D01*
X24878571Y-29964285D01*
X24830952Y-30011904D01*
X24783333Y-30107142D01*
X24783333Y-30345238D01*
X24830952Y-30440476D01*
X24878571Y-30488095D01*
X24973809Y-30535714D01*
X25211904Y-30535714D01*
X25307142Y-30488095D01*
X25354761Y-30440476D01*
X25402380Y-30345238D01*
X25402380Y-30107142D01*
X25354761Y-30011904D01*
X25307142Y-29964285D01*
X23152380Y-30583333D02*
X22676190Y-30250000D01*
X23152380Y-30011904D02*
X22152380Y-30011904D01*
X22152380Y-30392857D01*
X22200000Y-30488095D01*
X22247619Y-30535714D01*
X22342857Y-30583333D01*
X22485714Y-30583333D01*
X22580952Y-30535714D01*
X22628571Y-30488095D01*
X22676190Y-30392857D01*
X22676190Y-30011904D01*
X22485714Y-31440476D02*
X23152380Y-31440476D01*
X22104761Y-31202380D02*
X22819047Y-30964285D01*
X22819047Y-31583333D01*
X21152380Y-29583333D02*
X20676190Y-29250000D01*
X21152380Y-29011904D02*
X20152380Y-29011904D01*
X20152380Y-29392857D01*
X20200000Y-29488095D01*
X20247619Y-29535714D01*
X20342857Y-29583333D01*
X20485714Y-29583333D01*
X20580952Y-29535714D01*
X20628571Y-29488095D01*
X20676190Y-29392857D01*
X20676190Y-29011904D01*
X20152380Y-29916666D02*
X20152380Y-30535714D01*
X20533333Y-30202380D01*
X20533333Y-30345238D01*
X20580952Y-30440476D01*
X20628571Y-30488095D01*
X20723809Y-30535714D01*
X20961904Y-30535714D01*
X21057142Y-30488095D01*
X21104761Y-30440476D01*
X21152380Y-30345238D01*
X21152380Y-30059523D01*
X21104761Y-29964285D01*
X21057142Y-29916666D01*
X18902380Y-30583333D02*
X18426190Y-30250000D01*
X18902380Y-30011904D02*
X17902380Y-30011904D01*
X17902380Y-30392857D01*
X17950000Y-30488095D01*
X17997619Y-30535714D01*
X18092857Y-30583333D01*
X18235714Y-30583333D01*
X18330952Y-30535714D01*
X18378571Y-30488095D01*
X18426190Y-30392857D01*
X18426190Y-30011904D01*
X17997619Y-30964285D02*
X17950000Y-31011904D01*
X17902380Y-31107142D01*
X17902380Y-31345238D01*
X17950000Y-31440476D01*
X17997619Y-31488095D01*
X18092857Y-31535714D01*
X18188095Y-31535714D01*
X18330952Y-31488095D01*
X18902380Y-30916666D01*
X18902380Y-31535714D01*
X16902380Y-29583333D02*
X16426190Y-29250000D01*
X16902380Y-29011904D02*
X15902380Y-29011904D01*
X15902380Y-29392857D01*
X15950000Y-29488095D01*
X15997619Y-29535714D01*
X16092857Y-29583333D01*
X16235714Y-29583333D01*
X16330952Y-29535714D01*
X16378571Y-29488095D01*
X16426190Y-29392857D01*
X16426190Y-29011904D01*
X16902380Y-30535714D02*
X16902380Y-29964285D01*
X16902380Y-30250000D02*
X15902380Y-30250000D01*
X16045238Y-30154761D01*
X16140476Y-30059523D01*
X16188095Y-29964285D01*
X26045238Y-34797619D02*
X26140476Y-34750000D01*
X26235714Y-34654761D01*
X26378571Y-34511904D01*
X26473809Y-34464285D01*
X26569047Y-34464285D01*
X26521428Y-34702380D02*
X26616666Y-34654761D01*
X26711904Y-34559523D01*
X26759523Y-34369047D01*
X26759523Y-34035714D01*
X26711904Y-33845238D01*
X26616666Y-33750000D01*
X26521428Y-33702380D01*
X26330952Y-33702380D01*
X26235714Y-33750000D01*
X26140476Y-33845238D01*
X26092857Y-34035714D01*
X26092857Y-34369047D01*
X26140476Y-34559523D01*
X26235714Y-34654761D01*
X26330952Y-34702380D01*
X26521428Y-34702380D01*
X25759523Y-33702380D02*
X25140476Y-33702380D01*
X25473809Y-34083333D01*
X25330952Y-34083333D01*
X25235714Y-34130952D01*
X25188095Y-34178571D01*
X25140476Y-34273809D01*
X25140476Y-34511904D01*
X25188095Y-34607142D01*
X25235714Y-34654761D01*
X25330952Y-34702380D01*
X25616666Y-34702380D01*
X25711904Y-34654761D01*
X25759523Y-34607142D01*
X21795238Y-34797619D02*
X21890476Y-34750000D01*
X21985714Y-34654761D01*
X22128571Y-34511904D01*
X22223809Y-34464285D01*
X22319047Y-34464285D01*
X22271428Y-34702380D02*
X22366666Y-34654761D01*
X22461904Y-34559523D01*
X22509523Y-34369047D01*
X22509523Y-34035714D01*
X22461904Y-33845238D01*
X22366666Y-33750000D01*
X22271428Y-33702380D01*
X22080952Y-33702380D01*
X21985714Y-33750000D01*
X21890476Y-33845238D01*
X21842857Y-34035714D01*
X21842857Y-34369047D01*
X21890476Y-34559523D01*
X21985714Y-34654761D01*
X22080952Y-34702380D01*
X22271428Y-34702380D01*
X21461904Y-33797619D02*
X21414285Y-33750000D01*
X21319047Y-33702380D01*
X21080952Y-33702380D01*
X20985714Y-33750000D01*
X20938095Y-33797619D01*
X20890476Y-33892857D01*
X20890476Y-33988095D01*
X20938095Y-34130952D01*
X21509523Y-34702380D01*
X20890476Y-34702380D01*
X17545238Y-34797619D02*
X17640476Y-34750000D01*
X17735714Y-34654761D01*
X17878571Y-34511904D01*
X17973809Y-34464285D01*
X18069047Y-34464285D01*
X18021428Y-34702380D02*
X18116666Y-34654761D01*
X18211904Y-34559523D01*
X18259523Y-34369047D01*
X18259523Y-34035714D01*
X18211904Y-33845238D01*
X18116666Y-33750000D01*
X18021428Y-33702380D01*
X17830952Y-33702380D01*
X17735714Y-33750000D01*
X17640476Y-33845238D01*
X17592857Y-34035714D01*
X17592857Y-34369047D01*
X17640476Y-34559523D01*
X17735714Y-34654761D01*
X17830952Y-34702380D01*
X18021428Y-34702380D01*
X16640476Y-34702380D02*
X17211904Y-34702380D01*
X16926190Y-34702380D02*
X16926190Y-33702380D01*
X17021428Y-33845238D01*
X17116666Y-33940476D01*
X17211904Y-33988095D01*
%LPC*%
D12*
X26100000Y-39310000D03*
X23100000Y-39310000D03*
X20100000Y-39310000D03*
X17100000Y-39310000D03*
D13*
X17500000Y-19750000D03*
X17500000Y-17210000D03*
X20040000Y-19750000D03*
X20040000Y-17210000D03*
X22580000Y-19750000D03*
X22580000Y-17210000D03*
X25120000Y-19750000D03*
X25120000Y-17210000D03*
X27660000Y-19750000D03*
X27660000Y-17210000D03*
X30200000Y-19750000D03*
X30200000Y-17210000D03*
M02*
