G04 #@! TF.GenerationSoftware,KiCad,Pcbnew,(5.1.7)-1*
G04 #@! TF.CreationDate,2022-03-16T13:26:47+01:00*
G04 #@! TF.ProjectId,bluetooth-board,626c7565-746f-46f7-9468-2d626f617264,rev?*
G04 #@! TF.SameCoordinates,Original*
G04 #@! TF.FileFunction,Copper,L2,Bot*
G04 #@! TF.FilePolarity,Positive*
%FSLAX46Y46*%
G04 Gerber Fmt 4.6, Leading zero omitted, Abs format (unit mm)*
G04 Created by KiCad (PCBNEW (5.1.7)-1) date 2022-03-16 13:26:47*
%MOMM*%
%LPD*%
G01*
G04 APERTURE LIST*
G04 #@! TA.AperFunction,ComponentPad*
%ADD10C,2.000000*%
G04 #@! TD*
G04 #@! TA.AperFunction,ComponentPad*
%ADD11O,1.700000X1.700000*%
G04 #@! TD*
G04 #@! TA.AperFunction,ViaPad*
%ADD12C,0.800000*%
G04 #@! TD*
G04 #@! TA.AperFunction,Conductor*
%ADD13C,1.000000*%
G04 #@! TD*
G04 #@! TA.AperFunction,Conductor*
%ADD14C,0.500000*%
G04 #@! TD*
G04 #@! TA.AperFunction,Conductor*
%ADD15C,0.250000*%
G04 #@! TD*
G04 APERTURE END LIST*
D10*
X26100000Y-39310000D03*
X23100000Y-39310000D03*
X20100000Y-39310000D03*
X17100000Y-39310000D03*
D11*
X17500000Y-19750000D03*
X17500000Y-17210000D03*
X20040000Y-19750000D03*
X20040000Y-17210000D03*
X22580000Y-19750000D03*
X22580000Y-17210000D03*
X25120000Y-19750000D03*
X25120000Y-17210000D03*
X27660000Y-19750000D03*
X27660000Y-17210000D03*
X30200000Y-19750000D03*
X30200000Y-17210000D03*
D12*
X29000000Y-26750000D03*
X26950000Y-28500000D03*
X20100000Y-25270000D03*
D13*
X17100000Y-39310000D02*
X17100000Y-25650000D01*
X20040000Y-22710000D02*
X20040000Y-19750000D01*
X17100000Y-25650000D02*
X20040000Y-22710000D01*
D14*
X25120000Y-22870000D02*
X25120000Y-19750000D01*
X29000000Y-26750000D02*
X25120000Y-22870000D01*
X25120000Y-19750000D02*
X25120000Y-19370000D01*
D15*
X25120000Y-19750000D02*
X23870000Y-18500000D01*
X21290000Y-18500000D02*
X20040000Y-19750000D01*
X23870000Y-18500000D02*
X21290000Y-18500000D01*
X26950000Y-28500000D02*
X26950000Y-32050000D01*
X26950000Y-32050000D02*
X23100000Y-35900000D01*
X23100000Y-35900000D02*
X23100000Y-39310000D01*
D14*
X20100000Y-39310000D02*
X20100000Y-25270000D01*
X20100000Y-25270000D02*
X20100000Y-25270000D01*
M02*
