G04 #@! TF.GenerationSoftware,KiCad,Pcbnew,(5.1.7)-1*
G04 #@! TF.CreationDate,2022-03-16T13:26:47+01:00*
G04 #@! TF.ProjectId,bluetooth-board,626c7565-746f-46f7-9468-2d626f617264,rev?*
G04 #@! TF.SameCoordinates,Original*
G04 #@! TF.FileFunction,Soldermask,Top*
G04 #@! TF.FilePolarity,Negative*
%FSLAX46Y46*%
G04 Gerber Fmt 4.6, Leading zero omitted, Abs format (unit mm)*
G04 Created by KiCad (PCBNEW (5.1.7)-1) date 2022-03-16 13:26:47*
%MOMM*%
%LPD*%
G01*
G04 APERTURE LIST*
%ADD10R,0.800000X1.300000*%
%ADD11R,1.450000X0.550000*%
%ADD12R,0.700000X1.300000*%
%ADD13C,2.000000*%
%ADD14R,1.300000X0.700000*%
%ADD15R,0.900000X0.800000*%
%ADD16O,1.700000X1.700000*%
G04 APERTURE END LIST*
D10*
X31140000Y-35150000D03*
X29860000Y-35150000D03*
X29860000Y-28850000D03*
X31140000Y-28850000D03*
D11*
X23750000Y-25270000D03*
X23750000Y-22730000D03*
X18250000Y-22730000D03*
X18250000Y-25270000D03*
D12*
X26050000Y-25270000D03*
X27950000Y-25270000D03*
D13*
X26100000Y-39310000D03*
X23100000Y-39310000D03*
X20100000Y-39310000D03*
X17100000Y-39310000D03*
D14*
X29860000Y-39310000D03*
X29860000Y-37410000D03*
X31140000Y-24690000D03*
X31140000Y-26590000D03*
D12*
X26050000Y-22730000D03*
X27950000Y-22730000D03*
D14*
X26950000Y-31700000D03*
X26950000Y-29800000D03*
X24950000Y-30700000D03*
X24950000Y-28800000D03*
X22700000Y-31700000D03*
X22700000Y-29800000D03*
X20700000Y-30700000D03*
X20700000Y-28800000D03*
X18450000Y-31700000D03*
X18450000Y-29800000D03*
X16450000Y-30700000D03*
X16450000Y-28800000D03*
D15*
X24950000Y-33300000D03*
X24950000Y-35200000D03*
X26950000Y-34250000D03*
X20700000Y-33300000D03*
X20700000Y-35200000D03*
X22700000Y-34250000D03*
X16450000Y-33300000D03*
X16450000Y-35200000D03*
X18450000Y-34250000D03*
D16*
X17500000Y-19750000D03*
X17500000Y-17210000D03*
X20040000Y-19750000D03*
X20040000Y-17210000D03*
X22580000Y-19750000D03*
X22580000Y-17210000D03*
X25120000Y-19750000D03*
X25120000Y-17210000D03*
X27660000Y-19750000D03*
X27660000Y-17210000D03*
X30200000Y-19750000D03*
X30200000Y-17210000D03*
M02*
