%TF.GenerationSoftware,KiCad,Pcbnew,(5.1.7)-1*%
%TF.CreationDate,2021-11-13T12:13:23+01:00*%
%TF.ProjectId,cr-17xx-psu-board,63722d31-3778-4782-9d70-73752d626f61,rev?*%
%TF.SameCoordinates,Original*%
%TF.FileFunction,Legend,Bot*%
%TF.FilePolarity,Positive*%
%FSLAX46Y46*%
G04 Gerber Fmt 4.6, Leading zero omitted, Abs format (unit mm)*
G04 Created by KiCad (PCBNEW (5.1.7)-1) date 2021-11-13 12:13:23*
%MOMM*%
%LPD*%
G01*
G04 APERTURE LIST*
%ADD10C,0.120000*%
%ADD11C,0.150000*%
G04 APERTURE END LIST*
D10*
X127500000Y-70000000D02*
X127500000Y-65000000D01*
D11*
X127164404Y-64452380D02*
X127164404Y-63785714D01*
X127164404Y-63976190D02*
X127116785Y-63880952D01*
X127069166Y-63833333D01*
X126973928Y-63785714D01*
X126878690Y-63785714D01*
X126164404Y-64404761D02*
X126259642Y-64452380D01*
X126450119Y-64452380D01*
X126545357Y-64404761D01*
X126592976Y-64309523D01*
X126592976Y-63928571D01*
X126545357Y-63833333D01*
X126450119Y-63785714D01*
X126259642Y-63785714D01*
X126164404Y-63833333D01*
X126116785Y-63928571D01*
X126116785Y-64023809D01*
X126592976Y-64119047D01*
X125688214Y-64452380D02*
X125688214Y-63785714D01*
X125688214Y-63880952D02*
X125640595Y-63833333D01*
X125545357Y-63785714D01*
X125402500Y-63785714D01*
X125307261Y-63833333D01*
X125259642Y-63928571D01*
X125259642Y-64452380D01*
X125259642Y-63928571D02*
X125212023Y-63833333D01*
X125116785Y-63785714D01*
X124973928Y-63785714D01*
X124878690Y-63833333D01*
X124831071Y-63928571D01*
X124831071Y-64452380D01*
X124212023Y-64452380D02*
X124307261Y-64404761D01*
X124354880Y-64357142D01*
X124402500Y-64261904D01*
X124402500Y-63976190D01*
X124354880Y-63880952D01*
X124307261Y-63833333D01*
X124212023Y-63785714D01*
X124069166Y-63785714D01*
X123973928Y-63833333D01*
X123926309Y-63880952D01*
X123878690Y-63976190D01*
X123878690Y-64261904D01*
X123926309Y-64357142D01*
X123973928Y-64404761D01*
X124069166Y-64452380D01*
X124212023Y-64452380D01*
X123545357Y-63785714D02*
X123307261Y-64452380D01*
X123069166Y-63785714D01*
X122307261Y-64404761D02*
X122402500Y-64452380D01*
X122592976Y-64452380D01*
X122688214Y-64404761D01*
X122735833Y-64309523D01*
X122735833Y-63928571D01*
X122688214Y-63833333D01*
X122592976Y-63785714D01*
X122402500Y-63785714D01*
X122307261Y-63833333D01*
X122259642Y-63928571D01*
X122259642Y-64023809D01*
X122735833Y-64119047D01*
X120640595Y-63785714D02*
X120640595Y-64595238D01*
X120688214Y-64690476D01*
X120735833Y-64738095D01*
X120831071Y-64785714D01*
X120973928Y-64785714D01*
X121069166Y-64738095D01*
X120640595Y-64404761D02*
X120735833Y-64452380D01*
X120926309Y-64452380D01*
X121021547Y-64404761D01*
X121069166Y-64357142D01*
X121116785Y-64261904D01*
X121116785Y-63976190D01*
X121069166Y-63880952D01*
X121021547Y-63833333D01*
X120926309Y-63785714D01*
X120735833Y-63785714D01*
X120640595Y-63833333D01*
X120164404Y-64452380D02*
X120164404Y-63785714D01*
X120164404Y-63976190D02*
X120116785Y-63880952D01*
X120069166Y-63833333D01*
X119973928Y-63785714D01*
X119878690Y-63785714D01*
X119402500Y-64452380D02*
X119497738Y-64404761D01*
X119545357Y-64357142D01*
X119592976Y-64261904D01*
X119592976Y-63976190D01*
X119545357Y-63880952D01*
X119497738Y-63833333D01*
X119402500Y-63785714D01*
X119259642Y-63785714D01*
X119164404Y-63833333D01*
X119116785Y-63880952D01*
X119069166Y-63976190D01*
X119069166Y-64261904D01*
X119116785Y-64357142D01*
X119164404Y-64404761D01*
X119259642Y-64452380D01*
X119402500Y-64452380D01*
X118212023Y-63785714D02*
X118212023Y-64452380D01*
X118640595Y-63785714D02*
X118640595Y-64309523D01*
X118592976Y-64404761D01*
X118497738Y-64452380D01*
X118354880Y-64452380D01*
X118259642Y-64404761D01*
X118212023Y-64357142D01*
X117735833Y-63785714D02*
X117735833Y-64452380D01*
X117735833Y-63880952D02*
X117688214Y-63833333D01*
X117592976Y-63785714D01*
X117450119Y-63785714D01*
X117354880Y-63833333D01*
X117307261Y-63928571D01*
X117307261Y-64452380D01*
X116402500Y-64452380D02*
X116402500Y-63452380D01*
X116402500Y-64404761D02*
X116497738Y-64452380D01*
X116688214Y-64452380D01*
X116783452Y-64404761D01*
X116831071Y-64357142D01*
X116878690Y-64261904D01*
X116878690Y-63976190D01*
X116831071Y-63880952D01*
X116783452Y-63833333D01*
X116688214Y-63785714D01*
X116497738Y-63785714D01*
X116402500Y-63833333D01*
X115259642Y-63785714D02*
X115069166Y-64452380D01*
X114878690Y-63976190D01*
X114688214Y-64452380D01*
X114497738Y-63785714D01*
X114116785Y-64452380D02*
X114116785Y-63785714D01*
X114116785Y-63452380D02*
X114164404Y-63500000D01*
X114116785Y-63547619D01*
X114069166Y-63500000D01*
X114116785Y-63452380D01*
X114116785Y-63547619D01*
X113640595Y-64452380D02*
X113640595Y-63785714D01*
X113640595Y-63976190D02*
X113592976Y-63880952D01*
X113545357Y-63833333D01*
X113450119Y-63785714D01*
X113354880Y-63785714D01*
X112640595Y-64404761D02*
X112735833Y-64452380D01*
X112926309Y-64452380D01*
X113021547Y-64404761D01*
X113069166Y-64309523D01*
X113069166Y-63928571D01*
X113021547Y-63833333D01*
X112926309Y-63785714D01*
X112735833Y-63785714D01*
X112640595Y-63833333D01*
X112592976Y-63928571D01*
X112592976Y-64023809D01*
X113069166Y-64119047D01*
M02*
