%TF.GenerationSoftware,KiCad,Pcbnew,(5.1.7)-1*%
%TF.CreationDate,2022-01-04T16:30:19+01:00*%
%TF.ProjectId,cr-17xx-psu-board,63722d31-3778-4782-9d70-73752d626f61,rev?*%
%TF.SameCoordinates,Original*%
%TF.FileFunction,Legend,Top*%
%TF.FilePolarity,Positive*%
%FSLAX46Y46*%
G04 Gerber Fmt 4.6, Leading zero omitted, Abs format (unit mm)*
G04 Created by KiCad (PCBNEW (5.1.7)-1) date 2022-01-04 16:30:19*
%MOMM*%
%LPD*%
G01*
G04 APERTURE LIST*
%ADD10C,0.150000*%
%ADD11C,0.225000*%
%ADD12C,0.300000*%
%ADD13C,0.120000*%
%ADD14R,2.600000X2.600000*%
%ADD15C,2.600000*%
%ADD16C,4.000000*%
%ADD17O,1.800000X1.800000*%
%ADD18R,1.800000X1.800000*%
%ADD19R,2.200000X1.800000*%
%ADD20O,2.200000X1.800000*%
%ADD21C,1.800000*%
%ADD22C,2.350000*%
%ADD23C,2.800000*%
%ADD24O,2.800000X2.800000*%
%ADD25C,4.000500*%
%ADD26R,2.000000X2.000000*%
%ADD27C,2.000000*%
%ADD28C,3.000000*%
G04 APERTURE END LIST*
D10*
X82285714Y-114202380D02*
X81714285Y-114202380D01*
X82000000Y-114202380D02*
X82000000Y-113202380D01*
X81904761Y-113345238D01*
X81809523Y-113440476D01*
X81714285Y-113488095D01*
X79214285Y-113297619D02*
X79261904Y-113250000D01*
X79357142Y-113202380D01*
X79595238Y-113202380D01*
X79690476Y-113250000D01*
X79738095Y-113297619D01*
X79785714Y-113392857D01*
X79785714Y-113488095D01*
X79738095Y-113630952D01*
X79166666Y-114202380D01*
X79785714Y-114202380D01*
X76666666Y-113202380D02*
X77285714Y-113202380D01*
X76952380Y-113583333D01*
X77095238Y-113583333D01*
X77190476Y-113630952D01*
X77238095Y-113678571D01*
X77285714Y-113773809D01*
X77285714Y-114011904D01*
X77238095Y-114107142D01*
X77190476Y-114154761D01*
X77095238Y-114202380D01*
X76809523Y-114202380D01*
X76714285Y-114154761D01*
X76666666Y-114107142D01*
X74690476Y-113535714D02*
X74690476Y-114202380D01*
X74452380Y-113154761D02*
X74214285Y-113869047D01*
X74833333Y-113869047D01*
X72238095Y-113202380D02*
X71761904Y-113202380D01*
X71714285Y-113678571D01*
X71761904Y-113630952D01*
X71857142Y-113583333D01*
X72095238Y-113583333D01*
X72190476Y-113630952D01*
X72238095Y-113678571D01*
X72285714Y-113773809D01*
X72285714Y-114011904D01*
X72238095Y-114107142D01*
X72190476Y-114154761D01*
X72095238Y-114202380D01*
X71857142Y-114202380D01*
X71761904Y-114154761D01*
X71714285Y-114107142D01*
X69690476Y-113202380D02*
X69500000Y-113202380D01*
X69404761Y-113250000D01*
X69357142Y-113297619D01*
X69261904Y-113440476D01*
X69214285Y-113630952D01*
X69214285Y-114011904D01*
X69261904Y-114107142D01*
X69309523Y-114154761D01*
X69404761Y-114202380D01*
X69595238Y-114202380D01*
X69690476Y-114154761D01*
X69738095Y-114107142D01*
X69785714Y-114011904D01*
X69785714Y-113773809D01*
X69738095Y-113678571D01*
X69690476Y-113630952D01*
X69595238Y-113583333D01*
X69404761Y-113583333D01*
X69309523Y-113630952D01*
X69261904Y-113678571D01*
X69214285Y-113773809D01*
D11*
X72345238Y-40178571D02*
X72464285Y-40059523D01*
X72702380Y-39940476D01*
X73178571Y-40178571D01*
X73416666Y-40059523D01*
X73535714Y-39940476D01*
X31345238Y-28178571D02*
X31464285Y-28059523D01*
X31702380Y-27940476D01*
X32178571Y-28178571D01*
X32416666Y-28059523D01*
X32535714Y-27940476D01*
X46607142Y-23250000D02*
X46464285Y-23178571D01*
X46250000Y-23178571D01*
X46035714Y-23250000D01*
X45892857Y-23392857D01*
X45821428Y-23535714D01*
X45750000Y-23821428D01*
X45750000Y-24035714D01*
X45821428Y-24321428D01*
X45892857Y-24464285D01*
X46035714Y-24607142D01*
X46250000Y-24678571D01*
X46392857Y-24678571D01*
X46607142Y-24607142D01*
X46678571Y-24535714D01*
X46678571Y-24035714D01*
X46392857Y-24035714D01*
X47321428Y-24678571D02*
X47321428Y-23178571D01*
X48178571Y-24678571D01*
X48178571Y-23178571D01*
X48892857Y-24678571D02*
X48892857Y-23178571D01*
X49250000Y-23178571D01*
X49464285Y-23250000D01*
X49607142Y-23392857D01*
X49678571Y-23535714D01*
X49750000Y-23821428D01*
X49750000Y-24035714D01*
X49678571Y-24321428D01*
X49607142Y-24464285D01*
X49464285Y-24607142D01*
X49250000Y-24678571D01*
X48892857Y-24678571D01*
D10*
X53188095Y-113071428D02*
X53950000Y-113071428D01*
X54950000Y-113452380D02*
X54378571Y-113452380D01*
X54664285Y-113452380D02*
X54664285Y-112452380D01*
X54569047Y-112595238D01*
X54473809Y-112690476D01*
X54378571Y-112738095D01*
X55521428Y-112880952D02*
X55426190Y-112833333D01*
X55378571Y-112785714D01*
X55330952Y-112690476D01*
X55330952Y-112642857D01*
X55378571Y-112547619D01*
X55426190Y-112500000D01*
X55521428Y-112452380D01*
X55711904Y-112452380D01*
X55807142Y-112500000D01*
X55854761Y-112547619D01*
X55902380Y-112642857D01*
X55902380Y-112690476D01*
X55854761Y-112785714D01*
X55807142Y-112833333D01*
X55711904Y-112880952D01*
X55521428Y-112880952D01*
X55426190Y-112928571D01*
X55378571Y-112976190D01*
X55330952Y-113071428D01*
X55330952Y-113261904D01*
X55378571Y-113357142D01*
X55426190Y-113404761D01*
X55521428Y-113452380D01*
X55711904Y-113452380D01*
X55807142Y-113404761D01*
X55854761Y-113357142D01*
X55902380Y-113261904D01*
X55902380Y-113071428D01*
X55854761Y-112976190D01*
X55807142Y-112928571D01*
X55711904Y-112880952D01*
X56188095Y-112452380D02*
X56521428Y-113452380D01*
X56854761Y-112452380D01*
X43188095Y-113071428D02*
X43950000Y-113071428D01*
X43569047Y-113452380D02*
X43569047Y-112690476D01*
X44950000Y-113452380D02*
X44378571Y-113452380D01*
X44664285Y-113452380D02*
X44664285Y-112452380D01*
X44569047Y-112595238D01*
X44473809Y-112690476D01*
X44378571Y-112738095D01*
X45854761Y-112452380D02*
X45378571Y-112452380D01*
X45330952Y-112928571D01*
X45378571Y-112880952D01*
X45473809Y-112833333D01*
X45711904Y-112833333D01*
X45807142Y-112880952D01*
X45854761Y-112928571D01*
X45902380Y-113023809D01*
X45902380Y-113261904D01*
X45854761Y-113357142D01*
X45807142Y-113404761D01*
X45711904Y-113452380D01*
X45473809Y-113452380D01*
X45378571Y-113404761D01*
X45330952Y-113357142D01*
X46188095Y-112452380D02*
X46521428Y-113452380D01*
X46854761Y-112452380D01*
X30378571Y-113071428D02*
X31140476Y-113071428D01*
X30759523Y-113452380D02*
X30759523Y-112690476D01*
X32092857Y-112452380D02*
X31616666Y-112452380D01*
X31569047Y-112928571D01*
X31616666Y-112880952D01*
X31711904Y-112833333D01*
X31950000Y-112833333D01*
X32045238Y-112880952D01*
X32092857Y-112928571D01*
X32140476Y-113023809D01*
X32140476Y-113261904D01*
X32092857Y-113357142D01*
X32045238Y-113404761D01*
X31950000Y-113452380D01*
X31711904Y-113452380D01*
X31616666Y-113404761D01*
X31569047Y-113357142D01*
X32426190Y-112452380D02*
X32759523Y-113452380D01*
X33092857Y-112452380D01*
X34902380Y-112404761D02*
X34045238Y-113690476D01*
X35997619Y-113071428D02*
X36759523Y-113071428D01*
X36378571Y-113452380D02*
X36378571Y-112690476D01*
X37759523Y-113452380D02*
X37188095Y-113452380D01*
X37473809Y-113452380D02*
X37473809Y-112452380D01*
X37378571Y-112595238D01*
X37283333Y-112690476D01*
X37188095Y-112738095D01*
X38664285Y-112452380D02*
X38188095Y-112452380D01*
X38140476Y-112928571D01*
X38188095Y-112880952D01*
X38283333Y-112833333D01*
X38521428Y-112833333D01*
X38616666Y-112880952D01*
X38664285Y-112928571D01*
X38711904Y-113023809D01*
X38711904Y-113261904D01*
X38664285Y-113357142D01*
X38616666Y-113404761D01*
X38521428Y-113452380D01*
X38283333Y-113452380D01*
X38188095Y-113404761D01*
X38140476Y-113357142D01*
X38997619Y-112452380D02*
X39330952Y-113452380D01*
X39664285Y-112452380D01*
X46690476Y-39532142D02*
X46642857Y-39579761D01*
X46500000Y-39627380D01*
X46404761Y-39627380D01*
X46261904Y-39579761D01*
X46166666Y-39484523D01*
X46119047Y-39389285D01*
X46071428Y-39198809D01*
X46071428Y-39055952D01*
X46119047Y-38865476D01*
X46166666Y-38770238D01*
X46261904Y-38675000D01*
X46404761Y-38627380D01*
X46500000Y-38627380D01*
X46642857Y-38675000D01*
X46690476Y-38722619D01*
X47690476Y-39627380D02*
X47357142Y-39151190D01*
X47119047Y-39627380D02*
X47119047Y-38627380D01*
X47500000Y-38627380D01*
X47595238Y-38675000D01*
X47642857Y-38722619D01*
X47690476Y-38817857D01*
X47690476Y-38960714D01*
X47642857Y-39055952D01*
X47595238Y-39103571D01*
X47500000Y-39151190D01*
X47119047Y-39151190D01*
X48119047Y-39246428D02*
X48880952Y-39246428D01*
X49880952Y-39627380D02*
X49309523Y-39627380D01*
X49595238Y-39627380D02*
X49595238Y-38627380D01*
X49500000Y-38770238D01*
X49404761Y-38865476D01*
X49309523Y-38913095D01*
X50214285Y-38627380D02*
X50880952Y-38627380D01*
X50452380Y-39627380D01*
X51738095Y-38627380D02*
X51261904Y-38627380D01*
X51214285Y-39103571D01*
X51261904Y-39055952D01*
X51357142Y-39008333D01*
X51595238Y-39008333D01*
X51690476Y-39055952D01*
X51738095Y-39103571D01*
X51785714Y-39198809D01*
X51785714Y-39436904D01*
X51738095Y-39532142D01*
X51690476Y-39579761D01*
X51595238Y-39627380D01*
X51357142Y-39627380D01*
X51261904Y-39579761D01*
X51214285Y-39532142D01*
X52404761Y-38627380D02*
X52500000Y-38627380D01*
X52595238Y-38675000D01*
X52642857Y-38722619D01*
X52690476Y-38817857D01*
X52738095Y-39008333D01*
X52738095Y-39246428D01*
X52690476Y-39436904D01*
X52642857Y-39532142D01*
X52595238Y-39579761D01*
X52500000Y-39627380D01*
X52404761Y-39627380D01*
X52309523Y-39579761D01*
X52261904Y-39532142D01*
X52214285Y-39436904D01*
X52166666Y-39246428D01*
X52166666Y-39008333D01*
X52214285Y-38817857D01*
X52261904Y-38722619D01*
X52309523Y-38675000D01*
X52404761Y-38627380D01*
X53166666Y-39532142D02*
X53214285Y-39579761D01*
X53166666Y-39627380D01*
X53119047Y-39579761D01*
X53166666Y-39532142D01*
X53166666Y-39627380D01*
X53166666Y-39008333D02*
X53214285Y-39055952D01*
X53166666Y-39103571D01*
X53119047Y-39055952D01*
X53166666Y-39008333D01*
X53166666Y-39103571D01*
X54309523Y-38627380D02*
X54928571Y-38627380D01*
X54595238Y-39008333D01*
X54738095Y-39008333D01*
X54833333Y-39055952D01*
X54880952Y-39103571D01*
X54928571Y-39198809D01*
X54928571Y-39436904D01*
X54880952Y-39532142D01*
X54833333Y-39579761D01*
X54738095Y-39627380D01*
X54452380Y-39627380D01*
X54357142Y-39579761D01*
X54309523Y-39532142D01*
X55357142Y-39532142D02*
X55404761Y-39579761D01*
X55357142Y-39627380D01*
X55309523Y-39579761D01*
X55357142Y-39532142D01*
X55357142Y-39627380D01*
X56357142Y-39627380D02*
X55785714Y-39627380D01*
X56071428Y-39627380D02*
X56071428Y-38627380D01*
X55976190Y-38770238D01*
X55880952Y-38865476D01*
X55785714Y-38913095D01*
X57261904Y-38627380D02*
X56785714Y-38627380D01*
X56738095Y-39103571D01*
X56785714Y-39055952D01*
X56880952Y-39008333D01*
X57119047Y-39008333D01*
X57214285Y-39055952D01*
X57261904Y-39103571D01*
X57309523Y-39198809D01*
X57309523Y-39436904D01*
X57261904Y-39532142D01*
X57214285Y-39579761D01*
X57119047Y-39627380D01*
X56880952Y-39627380D01*
X56785714Y-39579761D01*
X56738095Y-39532142D01*
X57690476Y-39341666D02*
X58166666Y-39341666D01*
X57595238Y-39627380D02*
X57928571Y-38627380D01*
X58261904Y-39627380D01*
X58452380Y-38627380D02*
X59023809Y-38627380D01*
X58738095Y-39627380D02*
X58738095Y-38627380D01*
X47880952Y-41182142D02*
X47833333Y-41229761D01*
X47690476Y-41277380D01*
X47595238Y-41277380D01*
X47452380Y-41229761D01*
X47357142Y-41134523D01*
X47309523Y-41039285D01*
X47261904Y-40848809D01*
X47261904Y-40705952D01*
X47309523Y-40515476D01*
X47357142Y-40420238D01*
X47452380Y-40325000D01*
X47595238Y-40277380D01*
X47690476Y-40277380D01*
X47833333Y-40325000D01*
X47880952Y-40372619D01*
X48880952Y-41277380D02*
X48547619Y-40801190D01*
X48309523Y-41277380D02*
X48309523Y-40277380D01*
X48690476Y-40277380D01*
X48785714Y-40325000D01*
X48833333Y-40372619D01*
X48880952Y-40467857D01*
X48880952Y-40610714D01*
X48833333Y-40705952D01*
X48785714Y-40753571D01*
X48690476Y-40801190D01*
X48309523Y-40801190D01*
X49309523Y-40896428D02*
X50071428Y-40896428D01*
X51071428Y-41277380D02*
X50499999Y-41277380D01*
X50785714Y-41277380D02*
X50785714Y-40277380D01*
X50690476Y-40420238D01*
X50595238Y-40515476D01*
X50499999Y-40563095D01*
X51404761Y-40277380D02*
X52071428Y-40277380D01*
X51642857Y-41277380D01*
X52595238Y-40705952D02*
X52499999Y-40658333D01*
X52452380Y-40610714D01*
X52404761Y-40515476D01*
X52404761Y-40467857D01*
X52452380Y-40372619D01*
X52499999Y-40325000D01*
X52595238Y-40277380D01*
X52785714Y-40277380D01*
X52880952Y-40325000D01*
X52928571Y-40372619D01*
X52976190Y-40467857D01*
X52976190Y-40515476D01*
X52928571Y-40610714D01*
X52880952Y-40658333D01*
X52785714Y-40705952D01*
X52595238Y-40705952D01*
X52499999Y-40753571D01*
X52452380Y-40801190D01*
X52404761Y-40896428D01*
X52404761Y-41086904D01*
X52452380Y-41182142D01*
X52499999Y-41229761D01*
X52595238Y-41277380D01*
X52785714Y-41277380D01*
X52880952Y-41229761D01*
X52928571Y-41182142D01*
X52976190Y-41086904D01*
X52976190Y-40896428D01*
X52928571Y-40801190D01*
X52880952Y-40753571D01*
X52785714Y-40705952D01*
X53595238Y-40277380D02*
X53690476Y-40277380D01*
X53785714Y-40325000D01*
X53833333Y-40372619D01*
X53880952Y-40467857D01*
X53928571Y-40658333D01*
X53928571Y-40896428D01*
X53880952Y-41086904D01*
X53833333Y-41182142D01*
X53785714Y-41229761D01*
X53690476Y-41277380D01*
X53595238Y-41277380D01*
X53499999Y-41229761D01*
X53452380Y-41182142D01*
X53404761Y-41086904D01*
X53357142Y-40896428D01*
X53357142Y-40658333D01*
X53404761Y-40467857D01*
X53452380Y-40372619D01*
X53499999Y-40325000D01*
X53595238Y-40277380D01*
X54357142Y-41182142D02*
X54404761Y-41229761D01*
X54357142Y-41277380D01*
X54309523Y-41229761D01*
X54357142Y-41182142D01*
X54357142Y-41277380D01*
X54357142Y-40658333D02*
X54404761Y-40705952D01*
X54357142Y-40753571D01*
X54309523Y-40705952D01*
X54357142Y-40658333D01*
X54357142Y-40753571D01*
X56023809Y-40610714D02*
X56023809Y-41277380D01*
X55785714Y-40229761D02*
X55547619Y-40944047D01*
X56166666Y-40944047D01*
X56499999Y-40991666D02*
X56976190Y-40991666D01*
X56404761Y-41277380D02*
X56738095Y-40277380D01*
X57071428Y-41277380D01*
X57261904Y-40277380D02*
X57833333Y-40277380D01*
X57547619Y-41277380D02*
X57547619Y-40277380D01*
D12*
X72238095Y-28142857D02*
X73761904Y-28142857D01*
X73000000Y-28904761D02*
X73000000Y-27380952D01*
X23238095Y-36142857D02*
X24761904Y-36142857D01*
D10*
X93432142Y-49333333D02*
X93479761Y-49380952D01*
X93527380Y-49523809D01*
X93527380Y-49619047D01*
X93479761Y-49761904D01*
X93384523Y-49857142D01*
X93289285Y-49904761D01*
X93098809Y-49952380D01*
X92955952Y-49952380D01*
X92765476Y-49904761D01*
X92670238Y-49857142D01*
X92575000Y-49761904D01*
X92527380Y-49619047D01*
X92527380Y-49523809D01*
X92575000Y-49380952D01*
X92622619Y-49333333D01*
X93527380Y-48333333D02*
X93051190Y-48666666D01*
X93527380Y-48904761D02*
X92527380Y-48904761D01*
X92527380Y-48523809D01*
X92575000Y-48428571D01*
X92622619Y-48380952D01*
X92717857Y-48333333D01*
X92860714Y-48333333D01*
X92955952Y-48380952D01*
X93003571Y-48428571D01*
X93051190Y-48523809D01*
X93051190Y-48904761D01*
X93146428Y-47904761D02*
X93146428Y-47142857D01*
X93527380Y-46142857D02*
X93527380Y-46714285D01*
X93527380Y-46428571D02*
X92527380Y-46428571D01*
X92670238Y-46523809D01*
X92765476Y-46619047D01*
X92813095Y-46714285D01*
X92527380Y-45809523D02*
X92527380Y-45142857D01*
X93527380Y-45571428D01*
X92527380Y-44285714D02*
X92527380Y-44761904D01*
X93003571Y-44809523D01*
X92955952Y-44761904D01*
X92908333Y-44666666D01*
X92908333Y-44428571D01*
X92955952Y-44333333D01*
X93003571Y-44285714D01*
X93098809Y-44238095D01*
X93336904Y-44238095D01*
X93432142Y-44285714D01*
X93479761Y-44333333D01*
X93527380Y-44428571D01*
X93527380Y-44666666D01*
X93479761Y-44761904D01*
X93432142Y-44809523D01*
X92527380Y-43619047D02*
X92527380Y-43523809D01*
X92575000Y-43428571D01*
X92622619Y-43380952D01*
X92717857Y-43333333D01*
X92908333Y-43285714D01*
X93146428Y-43285714D01*
X93336904Y-43333333D01*
X93432142Y-43380952D01*
X93479761Y-43428571D01*
X93527380Y-43523809D01*
X93527380Y-43619047D01*
X93479761Y-43714285D01*
X93432142Y-43761904D01*
X93336904Y-43809523D01*
X93146428Y-43857142D01*
X92908333Y-43857142D01*
X92717857Y-43809523D01*
X92622619Y-43761904D01*
X92575000Y-43714285D01*
X92527380Y-43619047D01*
X93432142Y-42857142D02*
X93479761Y-42809523D01*
X93527380Y-42857142D01*
X93479761Y-42904761D01*
X93432142Y-42857142D01*
X93527380Y-42857142D01*
X92908333Y-42857142D02*
X92955952Y-42809523D01*
X93003571Y-42857142D01*
X92955952Y-42904761D01*
X92908333Y-42857142D01*
X93003571Y-42857142D01*
X93527380Y-41095238D02*
X93527380Y-41666666D01*
X93527380Y-41380952D02*
X92527380Y-41380952D01*
X92670238Y-41476190D01*
X92765476Y-41571428D01*
X92813095Y-41666666D01*
X93432142Y-40666666D02*
X93479761Y-40619047D01*
X93527380Y-40666666D01*
X93479761Y-40714285D01*
X93432142Y-40666666D01*
X93527380Y-40666666D01*
X92527380Y-39761904D02*
X92527380Y-39952380D01*
X92575000Y-40047619D01*
X92622619Y-40095238D01*
X92765476Y-40190476D01*
X92955952Y-40238095D01*
X93336904Y-40238095D01*
X93432142Y-40190476D01*
X93479761Y-40142857D01*
X93527380Y-40047619D01*
X93527380Y-39857142D01*
X93479761Y-39761904D01*
X93432142Y-39714285D01*
X93336904Y-39666666D01*
X93098809Y-39666666D01*
X93003571Y-39714285D01*
X92955952Y-39761904D01*
X92908333Y-39857142D01*
X92908333Y-40047619D01*
X92955952Y-40142857D01*
X93003571Y-40190476D01*
X93098809Y-40238095D01*
X93241666Y-39285714D02*
X93241666Y-38809523D01*
X93527380Y-39380952D02*
X92527380Y-39047619D01*
X93527380Y-38714285D01*
X92527380Y-38523809D02*
X92527380Y-37952380D01*
X93527380Y-38238095D02*
X92527380Y-38238095D01*
X95082142Y-48619047D02*
X95129761Y-48666666D01*
X95177380Y-48809523D01*
X95177380Y-48904761D01*
X95129761Y-49047619D01*
X95034523Y-49142857D01*
X94939285Y-49190476D01*
X94748809Y-49238095D01*
X94605952Y-49238095D01*
X94415476Y-49190476D01*
X94320238Y-49142857D01*
X94225000Y-49047619D01*
X94177380Y-48904761D01*
X94177380Y-48809523D01*
X94225000Y-48666666D01*
X94272619Y-48619047D01*
X95177380Y-47619047D02*
X94701190Y-47952380D01*
X95177380Y-48190476D02*
X94177380Y-48190476D01*
X94177380Y-47809523D01*
X94225000Y-47714285D01*
X94272619Y-47666666D01*
X94367857Y-47619047D01*
X94510714Y-47619047D01*
X94605952Y-47666666D01*
X94653571Y-47714285D01*
X94701190Y-47809523D01*
X94701190Y-48190476D01*
X94796428Y-47190476D02*
X94796428Y-46428571D01*
X95177380Y-45428571D02*
X95177380Y-46000000D01*
X95177380Y-45714285D02*
X94177380Y-45714285D01*
X94320238Y-45809523D01*
X94415476Y-45904761D01*
X94463095Y-46000000D01*
X94177380Y-45095238D02*
X94177380Y-44428571D01*
X95177380Y-44857142D01*
X94605952Y-43904761D02*
X94558333Y-44000000D01*
X94510714Y-44047619D01*
X94415476Y-44095238D01*
X94367857Y-44095238D01*
X94272619Y-44047619D01*
X94225000Y-44000000D01*
X94177380Y-43904761D01*
X94177380Y-43714285D01*
X94225000Y-43619047D01*
X94272619Y-43571428D01*
X94367857Y-43523809D01*
X94415476Y-43523809D01*
X94510714Y-43571428D01*
X94558333Y-43619047D01*
X94605952Y-43714285D01*
X94605952Y-43904761D01*
X94653571Y-44000000D01*
X94701190Y-44047619D01*
X94796428Y-44095238D01*
X94986904Y-44095238D01*
X95082142Y-44047619D01*
X95129761Y-44000000D01*
X95177380Y-43904761D01*
X95177380Y-43714285D01*
X95129761Y-43619047D01*
X95082142Y-43571428D01*
X94986904Y-43523809D01*
X94796428Y-43523809D01*
X94701190Y-43571428D01*
X94653571Y-43619047D01*
X94605952Y-43714285D01*
X94177380Y-42904761D02*
X94177380Y-42809523D01*
X94225000Y-42714285D01*
X94272619Y-42666666D01*
X94367857Y-42619047D01*
X94558333Y-42571428D01*
X94796428Y-42571428D01*
X94986904Y-42619047D01*
X95082142Y-42666666D01*
X95129761Y-42714285D01*
X95177380Y-42809523D01*
X95177380Y-42904761D01*
X95129761Y-43000000D01*
X95082142Y-43047619D01*
X94986904Y-43095238D01*
X94796428Y-43142857D01*
X94558333Y-43142857D01*
X94367857Y-43095238D01*
X94272619Y-43047619D01*
X94225000Y-43000000D01*
X94177380Y-42904761D01*
X95082142Y-42142857D02*
X95129761Y-42095238D01*
X95177380Y-42142857D01*
X95129761Y-42190476D01*
X95082142Y-42142857D01*
X95177380Y-42142857D01*
X94558333Y-42142857D02*
X94605952Y-42095238D01*
X94653571Y-42142857D01*
X94605952Y-42190476D01*
X94558333Y-42142857D01*
X94653571Y-42142857D01*
X94272619Y-40952380D02*
X94225000Y-40904761D01*
X94177380Y-40809523D01*
X94177380Y-40571428D01*
X94225000Y-40476190D01*
X94272619Y-40428571D01*
X94367857Y-40380952D01*
X94463095Y-40380952D01*
X94605952Y-40428571D01*
X95177380Y-41000000D01*
X95177380Y-40380952D01*
X94891666Y-40000000D02*
X94891666Y-39523809D01*
X95177380Y-40095238D02*
X94177380Y-39761904D01*
X95177380Y-39428571D01*
X94177380Y-39238095D02*
X94177380Y-38666666D01*
X95177380Y-38952380D02*
X94177380Y-38952380D01*
X104452380Y-99880952D02*
X104357142Y-99833333D01*
X104309523Y-99785714D01*
X104261904Y-99690476D01*
X104261904Y-99642857D01*
X104309523Y-99547619D01*
X104357142Y-99500000D01*
X104452380Y-99452380D01*
X104642857Y-99452380D01*
X104738095Y-99500000D01*
X104785714Y-99547619D01*
X104833333Y-99642857D01*
X104833333Y-99690476D01*
X104785714Y-99785714D01*
X104738095Y-99833333D01*
X104642857Y-99880952D01*
X104452380Y-99880952D01*
X104357142Y-99928571D01*
X104309523Y-99976190D01*
X104261904Y-100071428D01*
X104261904Y-100261904D01*
X104309523Y-100357142D01*
X104357142Y-100404761D01*
X104452380Y-100452380D01*
X104642857Y-100452380D01*
X104738095Y-100404761D01*
X104785714Y-100357142D01*
X104833333Y-100261904D01*
X104833333Y-100071428D01*
X104785714Y-99976190D01*
X104738095Y-99928571D01*
X104642857Y-99880952D01*
X105452380Y-99452380D02*
X105547619Y-99452380D01*
X105642857Y-99500000D01*
X105690476Y-99547619D01*
X105738095Y-99642857D01*
X105785714Y-99833333D01*
X105785714Y-100071428D01*
X105738095Y-100261904D01*
X105690476Y-100357142D01*
X105642857Y-100404761D01*
X105547619Y-100452380D01*
X105452380Y-100452380D01*
X105357142Y-100404761D01*
X105309523Y-100357142D01*
X105261904Y-100261904D01*
X105214285Y-100071428D01*
X105214285Y-99833333D01*
X105261904Y-99642857D01*
X105309523Y-99547619D01*
X105357142Y-99500000D01*
X105452380Y-99452380D01*
X106214285Y-100452380D02*
X106214285Y-99785714D01*
X106214285Y-99880952D02*
X106261904Y-99833333D01*
X106357142Y-99785714D01*
X106500000Y-99785714D01*
X106595238Y-99833333D01*
X106642857Y-99928571D01*
X106642857Y-100452380D01*
X106642857Y-99928571D02*
X106690476Y-99833333D01*
X106785714Y-99785714D01*
X106928571Y-99785714D01*
X107023809Y-99833333D01*
X107071428Y-99928571D01*
X107071428Y-100452380D01*
X107500000Y-100166666D02*
X107976190Y-100166666D01*
X107404761Y-100452380D02*
X107738095Y-99452380D01*
X108071428Y-100452380D01*
X108261904Y-99452380D02*
X108833333Y-99452380D01*
X108547619Y-100452380D02*
X108547619Y-99452380D01*
X104738095Y-112452380D02*
X104547619Y-112452380D01*
X104452380Y-112500000D01*
X104404761Y-112547619D01*
X104309523Y-112690476D01*
X104261904Y-112880952D01*
X104261904Y-113261904D01*
X104309523Y-113357142D01*
X104357142Y-113404761D01*
X104452380Y-113452380D01*
X104642857Y-113452380D01*
X104738095Y-113404761D01*
X104785714Y-113357142D01*
X104833333Y-113261904D01*
X104833333Y-113023809D01*
X104785714Y-112928571D01*
X104738095Y-112880952D01*
X104642857Y-112833333D01*
X104452380Y-112833333D01*
X104357142Y-112880952D01*
X104309523Y-112928571D01*
X104261904Y-113023809D01*
X105166666Y-112452380D02*
X105785714Y-112452380D01*
X105452380Y-112833333D01*
X105595238Y-112833333D01*
X105690476Y-112880952D01*
X105738095Y-112928571D01*
X105785714Y-113023809D01*
X105785714Y-113261904D01*
X105738095Y-113357142D01*
X105690476Y-113404761D01*
X105595238Y-113452380D01*
X105309523Y-113452380D01*
X105214285Y-113404761D01*
X105166666Y-113357142D01*
X106214285Y-113452380D02*
X106214285Y-112785714D01*
X106214285Y-112880952D02*
X106261904Y-112833333D01*
X106357142Y-112785714D01*
X106500000Y-112785714D01*
X106595238Y-112833333D01*
X106642857Y-112928571D01*
X106642857Y-113452380D01*
X106642857Y-112928571D02*
X106690476Y-112833333D01*
X106785714Y-112785714D01*
X106928571Y-112785714D01*
X107023809Y-112833333D01*
X107071428Y-112928571D01*
X107071428Y-113452380D01*
X107500000Y-113166666D02*
X107976190Y-113166666D01*
X107404761Y-113452380D02*
X107738095Y-112452380D01*
X108071428Y-113452380D01*
X108261904Y-112452380D02*
X108833333Y-112452380D01*
X108547619Y-113452380D02*
X108547619Y-112452380D01*
D13*
X101000000Y-37000000D02*
X95900000Y-30700000D01*
D10*
X124428571Y-29678571D02*
X124476190Y-29535714D01*
X124523809Y-29488095D01*
X124619047Y-29440476D01*
X124761904Y-29440476D01*
X124857142Y-29488095D01*
X124904761Y-29535714D01*
X124952380Y-29630952D01*
X124952380Y-30011904D01*
X123952380Y-30011904D01*
X123952380Y-29678571D01*
X124000000Y-29583333D01*
X124047619Y-29535714D01*
X124142857Y-29488095D01*
X124238095Y-29488095D01*
X124333333Y-29535714D01*
X124380952Y-29583333D01*
X124428571Y-29678571D01*
X124428571Y-30011904D01*
X121000000Y-29488095D02*
X120952380Y-29583333D01*
X120952380Y-29726190D01*
X121000000Y-29869047D01*
X121095238Y-29964285D01*
X121190476Y-30011904D01*
X121380952Y-30059523D01*
X121523809Y-30059523D01*
X121714285Y-30011904D01*
X121809523Y-29964285D01*
X121904761Y-29869047D01*
X121952380Y-29726190D01*
X121952380Y-29630952D01*
X121904761Y-29488095D01*
X121857142Y-29440476D01*
X121523809Y-29440476D01*
X121523809Y-29630952D01*
X114428571Y-29678571D02*
X114476190Y-29535714D01*
X114523809Y-29488095D01*
X114619047Y-29440476D01*
X114761904Y-29440476D01*
X114857142Y-29488095D01*
X114904761Y-29535714D01*
X114952380Y-29630952D01*
X114952380Y-30011904D01*
X113952380Y-30011904D01*
X113952380Y-29678571D01*
X114000000Y-29583333D01*
X114047619Y-29535714D01*
X114142857Y-29488095D01*
X114238095Y-29488095D01*
X114333333Y-29535714D01*
X114380952Y-29583333D01*
X114428571Y-29678571D01*
X114428571Y-30011904D01*
X111952380Y-30011904D02*
X110952380Y-30011904D01*
X110952380Y-29630952D01*
X111000000Y-29535714D01*
X111047619Y-29488095D01*
X111142857Y-29440476D01*
X111285714Y-29440476D01*
X111380952Y-29488095D01*
X111428571Y-29535714D01*
X111476190Y-29630952D01*
X111476190Y-30011904D01*
X104000000Y-29488095D02*
X103952380Y-29583333D01*
X103952380Y-29726190D01*
X104000000Y-29869047D01*
X104095238Y-29964285D01*
X104190476Y-30011904D01*
X104380952Y-30059523D01*
X104523809Y-30059523D01*
X104714285Y-30011904D01*
X104809523Y-29964285D01*
X104904761Y-29869047D01*
X104952380Y-29726190D01*
X104952380Y-29630952D01*
X104904761Y-29488095D01*
X104857142Y-29440476D01*
X104523809Y-29440476D01*
X104523809Y-29630952D01*
X100952380Y-30178571D02*
X101952380Y-29940476D01*
X101238095Y-29750000D01*
X101952380Y-29559523D01*
X100952380Y-29321428D01*
D13*
X101000000Y-37000000D02*
X101000000Y-31250000D01*
X102000000Y-37000000D02*
X102000000Y-31250000D01*
X104000000Y-32000000D02*
X104000000Y-31250000D01*
X104000000Y-33250000D02*
X104000000Y-32500000D01*
X104000000Y-34500000D02*
X104000000Y-33750000D01*
X104000000Y-37000000D02*
X104000000Y-36250000D01*
X104000000Y-35750000D02*
X104000000Y-35000000D01*
X105000000Y-32000000D02*
X105000000Y-31250000D01*
X105000000Y-33250000D02*
X105000000Y-32500000D01*
X105000000Y-34500000D02*
X105000000Y-33750000D01*
X105000000Y-37000000D02*
X105000000Y-36250000D01*
X105000000Y-35750000D02*
X105000000Y-35000000D01*
X115000000Y-32000000D02*
X115000000Y-31250000D01*
X115000000Y-33250000D02*
X115000000Y-32500000D01*
X115000000Y-34500000D02*
X115000000Y-33750000D01*
X115000000Y-35750000D02*
X115000000Y-35000000D01*
X115000000Y-37000000D02*
X115000000Y-36250000D01*
X114000000Y-32000000D02*
X114000000Y-31250000D01*
X114000000Y-33250000D02*
X114000000Y-32500000D01*
X114000000Y-34500000D02*
X114000000Y-33750000D01*
X114000000Y-35750000D02*
X114000000Y-35000000D01*
X114000000Y-37000000D02*
X114000000Y-36250000D01*
X111000000Y-37000000D02*
X111000000Y-31250000D01*
X112000000Y-37000000D02*
X112000000Y-31250000D01*
X121000000Y-37000000D02*
X121000000Y-31250000D01*
X122000000Y-37000000D02*
X122000000Y-31250000D01*
X124000000Y-37000000D02*
X124000000Y-31250000D01*
X125000000Y-37000000D02*
X125000000Y-31250000D01*
X116500000Y-57000000D02*
X109500000Y-57000000D01*
X116500000Y-49500000D02*
X116500000Y-57000000D01*
X109500000Y-49500000D02*
X109500000Y-57000000D01*
X116500000Y-37000000D02*
X109500000Y-37000000D01*
X116500000Y-44500000D02*
X116500000Y-37000000D01*
X109500000Y-44500000D02*
X109500000Y-37000000D01*
X106500000Y-37000000D02*
X106500000Y-44500000D01*
X106500000Y-57000000D02*
X106500000Y-49500000D01*
X120000000Y-57000000D02*
X120000000Y-49500000D01*
X119500000Y-37000000D02*
X119500000Y-44500000D01*
X120000000Y-49500000D02*
X116500000Y-49500000D01*
X109500000Y-49500000D02*
X106500000Y-49500000D01*
X109500000Y-44500000D02*
X106500000Y-44500000D01*
X119500000Y-44500000D02*
X116500000Y-44500000D01*
X99500000Y-37000000D02*
X106500000Y-37000000D01*
X106500000Y-57000000D02*
X99500000Y-57000000D01*
X120000000Y-57000000D02*
X126500000Y-57000000D01*
X119500000Y-37000000D02*
X126500000Y-37000000D01*
X99500000Y-57000000D02*
X99500000Y-37000000D01*
X126500000Y-57000000D02*
X126500000Y-37000000D01*
X89100000Y-86860000D02*
X90900000Y-86860000D01*
X90000000Y-87760000D02*
X90000000Y-85960000D01*
X89637000Y-72729000D02*
X90363000Y-72729000D01*
X89141000Y-72769000D02*
X90859000Y-72769000D01*
X88836000Y-72809000D02*
X91164000Y-72809000D01*
X88595000Y-72849000D02*
X91405000Y-72849000D01*
X88390000Y-72889000D02*
X91610000Y-72889000D01*
X88208000Y-72929000D02*
X91792000Y-72929000D01*
X88044000Y-72969000D02*
X91956000Y-72969000D01*
X87893000Y-73009000D02*
X92107000Y-73009000D01*
X87752000Y-73049000D02*
X92248000Y-73049000D01*
X87621000Y-73089000D02*
X92379000Y-73089000D01*
X87497000Y-73129000D02*
X92503000Y-73129000D01*
X87379000Y-73169000D02*
X92621000Y-73169000D01*
X87267000Y-73209000D02*
X92733000Y-73209000D01*
X87159000Y-73249000D02*
X92841000Y-73249000D01*
X87057000Y-73289000D02*
X92943000Y-73289000D01*
X86958000Y-73329000D02*
X93042000Y-73329000D01*
X86862000Y-73369000D02*
X93138000Y-73369000D01*
X86770000Y-73409000D02*
X93230000Y-73409000D01*
X86681000Y-73449000D02*
X93319000Y-73449000D01*
X86595000Y-73489000D02*
X93405000Y-73489000D01*
X86511000Y-73529000D02*
X93489000Y-73529000D01*
X86430000Y-73569000D02*
X93570000Y-73569000D01*
X86351000Y-73609000D02*
X93649000Y-73609000D01*
X86274000Y-73649000D02*
X93726000Y-73649000D01*
X86198000Y-73689000D02*
X93802000Y-73689000D01*
X86125000Y-73729000D02*
X93875000Y-73729000D01*
X86054000Y-73769000D02*
X93946000Y-73769000D01*
X85984000Y-73809000D02*
X94016000Y-73809000D01*
X85916000Y-73849000D02*
X94084000Y-73849000D01*
X85849000Y-73889000D02*
X94151000Y-73889000D01*
X85783000Y-73929000D02*
X94217000Y-73929000D01*
X85719000Y-73969000D02*
X94281000Y-73969000D01*
X85657000Y-74009000D02*
X94343000Y-74009000D01*
X85595000Y-74049000D02*
X94405000Y-74049000D01*
X85535000Y-74089000D02*
X94465000Y-74089000D01*
X85476000Y-74129000D02*
X94524000Y-74129000D01*
X85418000Y-74169000D02*
X94582000Y-74169000D01*
X85361000Y-74209000D02*
X94639000Y-74209000D01*
X85305000Y-74249000D02*
X94695000Y-74249000D01*
X85250000Y-74289000D02*
X94750000Y-74289000D01*
X85196000Y-74329000D02*
X94804000Y-74329000D01*
X85143000Y-74369000D02*
X94857000Y-74369000D01*
X85091000Y-74409000D02*
X94909000Y-74409000D01*
X85040000Y-74449000D02*
X94960000Y-74449000D01*
X84989000Y-74489000D02*
X95011000Y-74489000D01*
X84940000Y-74529000D02*
X95060000Y-74529000D01*
X84891000Y-74569000D02*
X95109000Y-74569000D01*
X84843000Y-74609000D02*
X95157000Y-74609000D01*
X84795000Y-74649000D02*
X95205000Y-74649000D01*
X84749000Y-74689000D02*
X95251000Y-74689000D01*
X84703000Y-74729000D02*
X95297000Y-74729000D01*
X84657000Y-74769000D02*
X95343000Y-74769000D01*
X84613000Y-74809000D02*
X95387000Y-74809000D01*
X84569000Y-74849000D02*
X95431000Y-74849000D01*
X84526000Y-74889000D02*
X95474000Y-74889000D01*
X84483000Y-74929000D02*
X95517000Y-74929000D01*
X84441000Y-74969000D02*
X95559000Y-74969000D01*
X84400000Y-75009000D02*
X95600000Y-75009000D01*
X84359000Y-75049000D02*
X95641000Y-75049000D01*
X84319000Y-75089000D02*
X95681000Y-75089000D01*
X84279000Y-75129000D02*
X95721000Y-75129000D01*
X84240000Y-75169000D02*
X95760000Y-75169000D01*
X84201000Y-75209000D02*
X95799000Y-75209000D01*
X84163000Y-75249000D02*
X95837000Y-75249000D01*
X84125000Y-75289000D02*
X95875000Y-75289000D01*
X84088000Y-75329000D02*
X95912000Y-75329000D01*
X84052000Y-75369000D02*
X95948000Y-75369000D01*
X84016000Y-75409000D02*
X95984000Y-75409000D01*
X83980000Y-75449000D02*
X96020000Y-75449000D01*
X83945000Y-75489000D02*
X96055000Y-75489000D01*
X83910000Y-75529000D02*
X96090000Y-75529000D01*
X83876000Y-75569000D02*
X96124000Y-75569000D01*
X83842000Y-75609000D02*
X96158000Y-75609000D01*
X83809000Y-75649000D02*
X96191000Y-75649000D01*
X91380000Y-75689000D02*
X96224000Y-75689000D01*
X83776000Y-75689000D02*
X88620000Y-75689000D01*
X91380000Y-75729000D02*
X96257000Y-75729000D01*
X83743000Y-75729000D02*
X88620000Y-75729000D01*
X91380000Y-75769000D02*
X96289000Y-75769000D01*
X83711000Y-75769000D02*
X88620000Y-75769000D01*
X91380000Y-75809000D02*
X96320000Y-75809000D01*
X83680000Y-75809000D02*
X88620000Y-75809000D01*
X91380000Y-75849000D02*
X96352000Y-75849000D01*
X83648000Y-75849000D02*
X88620000Y-75849000D01*
X91380000Y-75889000D02*
X96382000Y-75889000D01*
X83618000Y-75889000D02*
X88620000Y-75889000D01*
X91380000Y-75929000D02*
X96413000Y-75929000D01*
X83587000Y-75929000D02*
X88620000Y-75929000D01*
X91380000Y-75969000D02*
X96443000Y-75969000D01*
X83557000Y-75969000D02*
X88620000Y-75969000D01*
X91380000Y-76009000D02*
X96473000Y-76009000D01*
X83527000Y-76009000D02*
X88620000Y-76009000D01*
X91380000Y-76049000D02*
X96502000Y-76049000D01*
X83498000Y-76049000D02*
X88620000Y-76049000D01*
X91380000Y-76089000D02*
X96531000Y-76089000D01*
X83469000Y-76089000D02*
X88620000Y-76089000D01*
X91380000Y-76129000D02*
X96559000Y-76129000D01*
X83441000Y-76129000D02*
X88620000Y-76129000D01*
X91380000Y-76169000D02*
X96588000Y-76169000D01*
X83412000Y-76169000D02*
X88620000Y-76169000D01*
X91380000Y-76209000D02*
X96615000Y-76209000D01*
X83385000Y-76209000D02*
X88620000Y-76209000D01*
X91380000Y-76249000D02*
X96643000Y-76249000D01*
X83357000Y-76249000D02*
X88620000Y-76249000D01*
X91380000Y-76289000D02*
X96670000Y-76289000D01*
X83330000Y-76289000D02*
X88620000Y-76289000D01*
X91380000Y-76329000D02*
X96697000Y-76329000D01*
X83303000Y-76329000D02*
X88620000Y-76329000D01*
X91380000Y-76369000D02*
X96723000Y-76369000D01*
X83277000Y-76369000D02*
X88620000Y-76369000D01*
X91380000Y-76409000D02*
X96749000Y-76409000D01*
X83251000Y-76409000D02*
X88620000Y-76409000D01*
X91380000Y-76449000D02*
X96775000Y-76449000D01*
X83225000Y-76449000D02*
X88620000Y-76449000D01*
X91380000Y-76489000D02*
X96801000Y-76489000D01*
X83199000Y-76489000D02*
X88620000Y-76489000D01*
X91380000Y-76529000D02*
X96826000Y-76529000D01*
X83174000Y-76529000D02*
X88620000Y-76529000D01*
X91380000Y-76569000D02*
X96850000Y-76569000D01*
X83150000Y-76569000D02*
X88620000Y-76569000D01*
X91380000Y-76609000D02*
X96875000Y-76609000D01*
X83125000Y-76609000D02*
X88620000Y-76609000D01*
X91380000Y-76649000D02*
X96899000Y-76649000D01*
X83101000Y-76649000D02*
X88620000Y-76649000D01*
X91380000Y-76689000D02*
X96923000Y-76689000D01*
X83077000Y-76689000D02*
X88620000Y-76689000D01*
X91380000Y-76729000D02*
X96946000Y-76729000D01*
X83054000Y-76729000D02*
X88620000Y-76729000D01*
X91380000Y-76769000D02*
X96970000Y-76769000D01*
X83030000Y-76769000D02*
X88620000Y-76769000D01*
X91380000Y-76809000D02*
X96992000Y-76809000D01*
X83008000Y-76809000D02*
X88620000Y-76809000D01*
X91380000Y-76849000D02*
X97015000Y-76849000D01*
X82985000Y-76849000D02*
X88620000Y-76849000D01*
X91380000Y-76889000D02*
X97037000Y-76889000D01*
X82963000Y-76889000D02*
X88620000Y-76889000D01*
X91380000Y-76929000D02*
X97059000Y-76929000D01*
X82941000Y-76929000D02*
X88620000Y-76929000D01*
X91380000Y-76969000D02*
X97081000Y-76969000D01*
X82919000Y-76969000D02*
X88620000Y-76969000D01*
X91380000Y-77009000D02*
X97102000Y-77009000D01*
X82898000Y-77009000D02*
X88620000Y-77009000D01*
X91380000Y-77049000D02*
X97124000Y-77049000D01*
X82876000Y-77049000D02*
X88620000Y-77049000D01*
X91380000Y-77089000D02*
X97144000Y-77089000D01*
X82856000Y-77089000D02*
X88620000Y-77089000D01*
X91380000Y-77129000D02*
X97165000Y-77129000D01*
X82835000Y-77129000D02*
X88620000Y-77129000D01*
X91380000Y-77169000D02*
X97185000Y-77169000D01*
X82815000Y-77169000D02*
X88620000Y-77169000D01*
X91380000Y-77209000D02*
X97205000Y-77209000D01*
X82795000Y-77209000D02*
X88620000Y-77209000D01*
X91380000Y-77249000D02*
X97225000Y-77249000D01*
X82775000Y-77249000D02*
X88620000Y-77249000D01*
X91380000Y-77289000D02*
X97245000Y-77289000D01*
X82755000Y-77289000D02*
X88620000Y-77289000D01*
X91380000Y-77329000D02*
X97264000Y-77329000D01*
X82736000Y-77329000D02*
X88620000Y-77329000D01*
X91380000Y-77369000D02*
X97283000Y-77369000D01*
X82717000Y-77369000D02*
X88620000Y-77369000D01*
X91380000Y-77409000D02*
X97301000Y-77409000D01*
X82699000Y-77409000D02*
X88620000Y-77409000D01*
X91380000Y-77449000D02*
X97320000Y-77449000D01*
X82680000Y-77449000D02*
X88620000Y-77449000D01*
X91380000Y-77489000D02*
X97338000Y-77489000D01*
X82662000Y-77489000D02*
X88620000Y-77489000D01*
X91380000Y-77529000D02*
X97356000Y-77529000D01*
X82644000Y-77529000D02*
X88620000Y-77529000D01*
X91380000Y-77569000D02*
X97373000Y-77569000D01*
X82627000Y-77569000D02*
X88620000Y-77569000D01*
X91380000Y-77609000D02*
X97391000Y-77609000D01*
X82609000Y-77609000D02*
X88620000Y-77609000D01*
X91380000Y-77649000D02*
X97408000Y-77649000D01*
X82592000Y-77649000D02*
X88620000Y-77649000D01*
X91380000Y-77689000D02*
X97425000Y-77689000D01*
X82575000Y-77689000D02*
X88620000Y-77689000D01*
X91380000Y-77729000D02*
X97441000Y-77729000D01*
X82559000Y-77729000D02*
X88620000Y-77729000D01*
X91380000Y-77769000D02*
X97458000Y-77769000D01*
X82542000Y-77769000D02*
X88620000Y-77769000D01*
X91380000Y-77809000D02*
X97474000Y-77809000D01*
X82526000Y-77809000D02*
X88620000Y-77809000D01*
X91380000Y-77849000D02*
X97490000Y-77849000D01*
X82510000Y-77849000D02*
X88620000Y-77849000D01*
X91380000Y-77889000D02*
X97505000Y-77889000D01*
X82495000Y-77889000D02*
X88620000Y-77889000D01*
X91380000Y-77929000D02*
X97521000Y-77929000D01*
X82479000Y-77929000D02*
X88620000Y-77929000D01*
X91380000Y-77969000D02*
X97536000Y-77969000D01*
X82464000Y-77969000D02*
X88620000Y-77969000D01*
X91380000Y-78009000D02*
X97550000Y-78009000D01*
X82450000Y-78009000D02*
X88620000Y-78009000D01*
X91380000Y-78049000D02*
X97565000Y-78049000D01*
X82435000Y-78049000D02*
X88620000Y-78049000D01*
X91380000Y-78089000D02*
X97580000Y-78089000D01*
X82420000Y-78089000D02*
X88620000Y-78089000D01*
X91380000Y-78129000D02*
X97594000Y-78129000D01*
X82406000Y-78129000D02*
X88620000Y-78129000D01*
X91380000Y-78169000D02*
X97608000Y-78169000D01*
X82392000Y-78169000D02*
X88620000Y-78169000D01*
X91380000Y-78209000D02*
X97621000Y-78209000D01*
X82379000Y-78209000D02*
X88620000Y-78209000D01*
X91380000Y-78249000D02*
X97635000Y-78249000D01*
X82365000Y-78249000D02*
X88620000Y-78249000D01*
X91380000Y-78289000D02*
X97648000Y-78289000D01*
X82352000Y-78289000D02*
X88620000Y-78289000D01*
X91380000Y-78329000D02*
X97661000Y-78329000D01*
X82339000Y-78329000D02*
X88620000Y-78329000D01*
X91380000Y-78369000D02*
X97674000Y-78369000D01*
X82326000Y-78369000D02*
X88620000Y-78369000D01*
X91380000Y-78409000D02*
X97686000Y-78409000D01*
X82314000Y-78409000D02*
X88620000Y-78409000D01*
X82301000Y-78449000D02*
X97699000Y-78449000D01*
X82289000Y-78489000D02*
X97711000Y-78489000D01*
X82277000Y-78529000D02*
X97723000Y-78529000D01*
X82266000Y-78569000D02*
X97734000Y-78569000D01*
X82254000Y-78609000D02*
X97746000Y-78609000D01*
X82243000Y-78649000D02*
X97757000Y-78649000D01*
X82232000Y-78689000D02*
X97768000Y-78689000D01*
X82221000Y-78729000D02*
X97779000Y-78729000D01*
X82211000Y-78769000D02*
X97789000Y-78769000D01*
X82201000Y-78809000D02*
X97799000Y-78809000D01*
X82191000Y-78849000D02*
X97809000Y-78849000D01*
X82181000Y-78889000D02*
X97819000Y-78889000D01*
X82171000Y-78929000D02*
X97829000Y-78929000D01*
X82162000Y-78969000D02*
X97838000Y-78969000D01*
X82152000Y-79009000D02*
X97848000Y-79009000D01*
X82143000Y-79049000D02*
X97857000Y-79049000D01*
X82134000Y-79089000D02*
X97866000Y-79089000D01*
X82126000Y-79129000D02*
X97874000Y-79129000D01*
X82117000Y-79169000D02*
X97883000Y-79169000D01*
X82109000Y-79209000D02*
X97891000Y-79209000D01*
X82101000Y-79249000D02*
X97899000Y-79249000D01*
X82094000Y-79289000D02*
X97906000Y-79289000D01*
X82086000Y-79329000D02*
X97914000Y-79329000D01*
X82079000Y-79369000D02*
X97921000Y-79369000D01*
X82072000Y-79409000D02*
X97928000Y-79409000D01*
X82065000Y-79449000D02*
X97935000Y-79449000D01*
X82058000Y-79489000D02*
X97942000Y-79489000D01*
X82051000Y-79529000D02*
X97949000Y-79529000D01*
X82045000Y-79569000D02*
X97955000Y-79569000D01*
X82039000Y-79609000D02*
X97961000Y-79609000D01*
X82033000Y-79649000D02*
X97967000Y-79649000D01*
X82027000Y-79689000D02*
X97973000Y-79689000D01*
X82022000Y-79729000D02*
X97978000Y-79729000D01*
X82017000Y-79769000D02*
X97983000Y-79769000D01*
X82012000Y-79809000D02*
X97988000Y-79809000D01*
X82007000Y-79849000D02*
X97993000Y-79849000D01*
X82002000Y-79889000D02*
X97998000Y-79889000D01*
X81998000Y-79929000D02*
X98002000Y-79929000D01*
X81993000Y-79969000D02*
X98007000Y-79969000D01*
X81989000Y-80009000D02*
X98011000Y-80009000D01*
X81985000Y-80049000D02*
X98015000Y-80049000D01*
X81982000Y-80089000D02*
X98018000Y-80089000D01*
X81978000Y-80130000D02*
X98022000Y-80130000D01*
X81975000Y-80170000D02*
X98025000Y-80170000D01*
X81972000Y-80210000D02*
X98028000Y-80210000D01*
X81969000Y-80250000D02*
X98031000Y-80250000D01*
X81966000Y-80290000D02*
X98034000Y-80290000D01*
X81964000Y-80330000D02*
X98036000Y-80330000D01*
X81961000Y-80370000D02*
X98039000Y-80370000D01*
X81959000Y-80410000D02*
X98041000Y-80410000D01*
X81958000Y-80450000D02*
X98042000Y-80450000D01*
X81956000Y-80490000D02*
X98044000Y-80490000D01*
X81954000Y-80530000D02*
X98046000Y-80530000D01*
X81953000Y-80570000D02*
X98047000Y-80570000D01*
X81952000Y-80610000D02*
X98048000Y-80610000D01*
X81951000Y-80650000D02*
X98049000Y-80650000D01*
X81950000Y-80690000D02*
X98050000Y-80690000D01*
X81950000Y-80730000D02*
X98050000Y-80730000D01*
X81950000Y-80770000D02*
X98050000Y-80770000D01*
X81949000Y-80810000D02*
X98051000Y-80810000D01*
X98090000Y-80810000D02*
G75*
G03*
X98090000Y-80810000I-8090000J0D01*
G01*
D10*
X67000000Y-90000000D02*
X32000000Y-90000000D01*
X32000000Y-90000000D02*
X32000000Y-55000000D01*
X67000000Y-57200000D02*
X67000000Y-90000000D01*
X64800000Y-55000000D02*
X67000000Y-57200000D01*
X32000000Y-55000000D02*
X64800000Y-55000000D01*
D13*
X109900000Y-79810000D02*
X109900000Y-78040000D01*
X109900000Y-78040000D02*
X101300000Y-78040000D01*
X101300000Y-78040000D02*
X101300000Y-83580000D01*
X101300000Y-83580000D02*
X109900000Y-83580000D01*
X109900000Y-83580000D02*
X109900000Y-81810000D01*
X109900000Y-81810000D02*
G75*
G02*
X109900000Y-79810000I0J1000000D01*
G01*
X53380000Y-107120000D02*
X53380000Y-96880000D01*
X58021000Y-107120000D02*
X58021000Y-96880000D01*
X53380000Y-107120000D02*
X58021000Y-107120000D01*
X53380000Y-96880000D02*
X58021000Y-96880000D01*
X54890000Y-107120000D02*
X54890000Y-96880000D01*
X53380000Y-103850000D02*
X54890000Y-103850000D01*
X53380000Y-100149000D02*
X54890000Y-100149000D01*
X117330000Y-79810000D02*
X117330000Y-78160000D01*
X117330000Y-78160000D02*
X112130000Y-78160000D01*
X112130000Y-78160000D02*
X112130000Y-83460000D01*
X112130000Y-83460000D02*
X117330000Y-83460000D01*
X117330000Y-83460000D02*
X117330000Y-81810000D01*
X117330000Y-81810000D02*
G75*
G02*
X117330000Y-79810000I0J1000000D01*
G01*
X114130000Y-72560000D02*
X114130000Y-69940000D01*
X114130000Y-69940000D02*
X107710000Y-69940000D01*
X107710000Y-69940000D02*
X107710000Y-72560000D01*
X107710000Y-72560000D02*
X114130000Y-72560000D01*
X115020000Y-71250000D02*
X114130000Y-71250000D01*
X106820000Y-71250000D02*
X107710000Y-71250000D01*
X43380000Y-107120000D02*
X43380000Y-96880000D01*
X48021000Y-107120000D02*
X48021000Y-96880000D01*
X43380000Y-107120000D02*
X48021000Y-107120000D01*
X43380000Y-96880000D02*
X48021000Y-96880000D01*
X44890000Y-107120000D02*
X44890000Y-96880000D01*
X43380000Y-103850000D02*
X44890000Y-103850000D01*
X43380000Y-100149000D02*
X44890000Y-100149000D01*
X33380000Y-107120000D02*
X33380000Y-96880000D01*
X38021000Y-107120000D02*
X38021000Y-96880000D01*
X33380000Y-107120000D02*
X38021000Y-107120000D01*
X33380000Y-96880000D02*
X38021000Y-96880000D01*
X34890000Y-107120000D02*
X34890000Y-96880000D01*
X33380000Y-103850000D02*
X34890000Y-103850000D01*
X33380000Y-100149000D02*
X34890000Y-100149000D01*
X66250000Y-46000000D02*
X59750000Y-46000000D01*
X66250000Y-42500000D02*
X66250000Y-49500000D01*
X75000000Y-49500000D02*
X66250000Y-49500000D01*
X75000000Y-42500000D02*
X66250000Y-42500000D01*
X52250000Y-48500000D02*
X51000000Y-48500000D01*
X52500000Y-43500000D02*
X51000000Y-43500000D01*
X64500000Y-48500000D02*
X52250000Y-48500000D01*
X64250000Y-43500000D02*
X52500000Y-43500000D01*
X75000000Y-48500000D02*
X64500000Y-48500000D01*
X75000000Y-43500000D02*
X64250000Y-43500000D01*
X75000000Y-43500000D02*
X75000000Y-48500000D01*
X76000000Y-42500000D02*
X75000000Y-42500000D01*
X76000000Y-42500000D02*
X76000000Y-49500000D01*
X76000000Y-49500000D02*
X75000000Y-49500000D01*
X51000000Y-43500000D02*
X51000000Y-48500000D01*
X59750000Y-42500000D02*
X50000000Y-42500000D01*
X50000000Y-42500000D02*
X50000000Y-49500000D01*
X59750000Y-49500000D02*
X50000000Y-49500000D01*
X59750000Y-42500000D02*
X59750000Y-49500000D01*
X38750000Y-34000000D02*
X45250000Y-34000000D01*
X38750000Y-37500000D02*
X38750000Y-30500000D01*
X30000000Y-30500000D02*
X38750000Y-30500000D01*
X30000000Y-37500000D02*
X38750000Y-37500000D01*
X52750000Y-31500000D02*
X54000000Y-31500000D01*
X52500000Y-36500000D02*
X54000000Y-36500000D01*
X40500000Y-31500000D02*
X52750000Y-31500000D01*
X40750000Y-36500000D02*
X52500000Y-36500000D01*
X30000000Y-31500000D02*
X40500000Y-31500000D01*
X30000000Y-36500000D02*
X40750000Y-36500000D01*
X30000000Y-36500000D02*
X30000000Y-31500000D01*
X29000000Y-37500000D02*
X30000000Y-37500000D01*
X29000000Y-37500000D02*
X29000000Y-30500000D01*
X29000000Y-30500000D02*
X30000000Y-30500000D01*
X54000000Y-36500000D02*
X54000000Y-31500000D01*
X45250000Y-37500000D02*
X55000000Y-37500000D01*
X55000000Y-37500000D02*
X55000000Y-30500000D01*
X45250000Y-30500000D02*
X55000000Y-30500000D01*
X45250000Y-37500000D02*
X45250000Y-30500000D01*
X26000000Y-73740000D02*
X26000000Y-72370000D01*
X26000000Y-56580000D02*
X26000000Y-57950000D01*
X28910000Y-72370000D02*
X28910000Y-57950000D01*
X23090000Y-72370000D02*
X28910000Y-72370000D01*
X23090000Y-57950000D02*
X23090000Y-72370000D01*
X28910000Y-57950000D02*
X23090000Y-57950000D01*
X73000000Y-74240000D02*
X73000000Y-72870000D01*
X73000000Y-57080000D02*
X73000000Y-58450000D01*
X75910000Y-72870000D02*
X75910000Y-58450000D01*
X70090000Y-72870000D02*
X75910000Y-72870000D01*
X70090000Y-58450000D02*
X70090000Y-72870000D01*
X75910000Y-58450000D02*
X70090000Y-58450000D01*
X35440000Y-45004000D02*
X35440000Y-43390000D01*
X35440000Y-48610000D02*
X35440000Y-46996000D01*
X46560000Y-45004000D02*
X46560000Y-43390000D01*
X46560000Y-48610000D02*
X46560000Y-46996000D01*
X46560000Y-43390000D02*
X35440000Y-43390000D01*
X46560000Y-48610000D02*
X35440000Y-48610000D01*
X68560000Y-34996000D02*
X68560000Y-36610000D01*
X68560000Y-31390000D02*
X68560000Y-33004000D01*
X57440000Y-34996000D02*
X57440000Y-36610000D01*
X57440000Y-31390000D02*
X57440000Y-33004000D01*
X57440000Y-36610000D02*
X68560000Y-36610000D01*
X57440000Y-31390000D02*
X68560000Y-31390000D01*
X88000000Y-40750000D02*
X88000000Y-47250000D01*
X84500000Y-40750000D02*
X91500000Y-40750000D01*
X91500000Y-32000000D02*
X91500000Y-40750000D01*
X84500000Y-32000000D02*
X84500000Y-40750000D01*
X90500000Y-54750000D02*
X90500000Y-56000000D01*
X85500000Y-54500000D02*
X85500000Y-56000000D01*
X90500000Y-42500000D02*
X90500000Y-54750000D01*
X85500000Y-42750000D02*
X85500000Y-54500000D01*
X90500000Y-32000000D02*
X90500000Y-42500000D01*
X85500000Y-32000000D02*
X85500000Y-42750000D01*
X85500000Y-32000000D02*
X90500000Y-32000000D01*
X84500000Y-31000000D02*
X84500000Y-32000000D01*
X84500000Y-31000000D02*
X91500000Y-31000000D01*
X91500000Y-31000000D02*
X91500000Y-32000000D01*
X85500000Y-56000000D02*
X90500000Y-56000000D01*
X84500000Y-47250000D02*
X84500000Y-57000000D01*
X84500000Y-57000000D02*
X91500000Y-57000000D01*
X91500000Y-47250000D02*
X91500000Y-57000000D01*
X84500000Y-47250000D02*
X91500000Y-47250000D01*
X83500000Y-106500000D02*
X68000000Y-106500000D01*
X83500000Y-111500000D02*
X68000000Y-111500000D01*
X68000000Y-112500000D02*
X83500000Y-112500000D01*
X83500000Y-112500000D02*
X83500000Y-106500000D01*
X68000000Y-112500000D02*
X68000000Y-106500000D01*
X103250000Y-104500000D02*
X103250000Y-111500000D01*
X103250000Y-111500000D02*
X93500000Y-111500000D01*
X93500000Y-104500000D02*
X93500000Y-111500000D01*
X103250000Y-104500000D02*
X93500000Y-104500000D01*
X94500000Y-105500000D02*
X94500000Y-110500000D01*
X119500000Y-111500000D02*
X118500000Y-111500000D01*
X119500000Y-104500000D02*
X119500000Y-111500000D01*
X119500000Y-104500000D02*
X118500000Y-104500000D01*
X118500000Y-105500000D02*
X118500000Y-110500000D01*
X118500000Y-105500000D02*
X107750000Y-105500000D01*
X118500000Y-110500000D02*
X108000000Y-110500000D01*
X107750000Y-105500000D02*
X96000000Y-105500000D01*
X108000000Y-110500000D02*
X95750000Y-110500000D01*
X96000000Y-105500000D02*
X94500000Y-105500000D01*
X95750000Y-110500000D02*
X94500000Y-110500000D01*
X118500000Y-104500000D02*
X109750000Y-104500000D01*
X118500000Y-111500000D02*
X109750000Y-111500000D01*
X109750000Y-104500000D02*
X109750000Y-111500000D01*
X109750000Y-108000000D02*
X103250000Y-108000000D01*
X103250000Y-91500000D02*
X103250000Y-98500000D01*
X103250000Y-98500000D02*
X93500000Y-98500000D01*
X93500000Y-91500000D02*
X93500000Y-98500000D01*
X103250000Y-91500000D02*
X93500000Y-91500000D01*
X94500000Y-92500000D02*
X94500000Y-97500000D01*
X119500000Y-98500000D02*
X118500000Y-98500000D01*
X119500000Y-91500000D02*
X119500000Y-98500000D01*
X119500000Y-91500000D02*
X118500000Y-91500000D01*
X118500000Y-92500000D02*
X118500000Y-97500000D01*
X118500000Y-92500000D02*
X107750000Y-92500000D01*
X118500000Y-97500000D02*
X108000000Y-97500000D01*
X107750000Y-92500000D02*
X96000000Y-92500000D01*
X108000000Y-97500000D02*
X95750000Y-97500000D01*
X96000000Y-92500000D02*
X94500000Y-92500000D01*
X95750000Y-97500000D02*
X94500000Y-97500000D01*
X118500000Y-91500000D02*
X109750000Y-91500000D01*
X118500000Y-98500000D02*
X109750000Y-98500000D01*
X109750000Y-91500000D02*
X109750000Y-98500000D01*
X109750000Y-95000000D02*
X103250000Y-95000000D01*
D10*
X89357142Y-71357142D02*
X89309523Y-71404761D01*
X89166666Y-71452380D01*
X89071428Y-71452380D01*
X88928571Y-71404761D01*
X88833333Y-71309523D01*
X88785714Y-71214285D01*
X88738095Y-71023809D01*
X88738095Y-70880952D01*
X88785714Y-70690476D01*
X88833333Y-70595238D01*
X88928571Y-70500000D01*
X89071428Y-70452380D01*
X89166666Y-70452380D01*
X89309523Y-70500000D01*
X89357142Y-70547619D01*
X90309523Y-71452380D02*
X89738095Y-71452380D01*
X90023809Y-71452380D02*
X90023809Y-70452380D01*
X89928571Y-70595238D01*
X89833333Y-70690476D01*
X89738095Y-70738095D01*
X91261904Y-71452380D02*
X90690476Y-71452380D01*
X90976190Y-71452380D02*
X90976190Y-70452380D01*
X90880952Y-70595238D01*
X90785714Y-70690476D01*
X90690476Y-70738095D01*
X104245714Y-75202380D02*
X104245714Y-74202380D01*
X104483809Y-74202380D01*
X104626666Y-74250000D01*
X104721904Y-74345238D01*
X104769523Y-74440476D01*
X104817142Y-74630952D01*
X104817142Y-74773809D01*
X104769523Y-74964285D01*
X104721904Y-75059523D01*
X104626666Y-75154761D01*
X104483809Y-75202380D01*
X104245714Y-75202380D01*
X105769523Y-75202380D02*
X105198095Y-75202380D01*
X105483809Y-75202380D02*
X105483809Y-74202380D01*
X105388571Y-74345238D01*
X105293333Y-74440476D01*
X105198095Y-74488095D01*
X106721904Y-75202380D02*
X106150476Y-75202380D01*
X106436190Y-75202380D02*
X106436190Y-74202380D01*
X106340952Y-74345238D01*
X106245714Y-74440476D01*
X106150476Y-74488095D01*
X50452380Y-103238095D02*
X51261904Y-103238095D01*
X51357142Y-103190476D01*
X51404761Y-103142857D01*
X51452380Y-103047619D01*
X51452380Y-102857142D01*
X51404761Y-102761904D01*
X51357142Y-102714285D01*
X51261904Y-102666666D01*
X50452380Y-102666666D01*
X51452380Y-101666666D02*
X51452380Y-102238095D01*
X51452380Y-101952380D02*
X50452380Y-101952380D01*
X50595238Y-102047619D01*
X50690476Y-102142857D01*
X50738095Y-102238095D01*
X50452380Y-101333333D02*
X50452380Y-100714285D01*
X50833333Y-101047619D01*
X50833333Y-100904761D01*
X50880952Y-100809523D01*
X50928571Y-100761904D01*
X51023809Y-100714285D01*
X51261904Y-100714285D01*
X51357142Y-100761904D01*
X51404761Y-100809523D01*
X51452380Y-100904761D01*
X51452380Y-101190476D01*
X51404761Y-101285714D01*
X51357142Y-101333333D01*
X113968095Y-74202380D02*
X113968095Y-75011904D01*
X114015714Y-75107142D01*
X114063333Y-75154761D01*
X114158571Y-75202380D01*
X114349047Y-75202380D01*
X114444285Y-75154761D01*
X114491904Y-75107142D01*
X114539523Y-75011904D01*
X114539523Y-74202380D01*
X115539523Y-75202380D02*
X114968095Y-75202380D01*
X115253809Y-75202380D02*
X115253809Y-74202380D01*
X115158571Y-74345238D01*
X115063333Y-74440476D01*
X114968095Y-74488095D01*
X110753333Y-69202380D02*
X110420000Y-68726190D01*
X110181904Y-69202380D02*
X110181904Y-68202380D01*
X110562857Y-68202380D01*
X110658095Y-68250000D01*
X110705714Y-68297619D01*
X110753333Y-68392857D01*
X110753333Y-68535714D01*
X110705714Y-68630952D01*
X110658095Y-68678571D01*
X110562857Y-68726190D01*
X110181904Y-68726190D01*
X111705714Y-69202380D02*
X111134285Y-69202380D01*
X111420000Y-69202380D02*
X111420000Y-68202380D01*
X111324761Y-68345238D01*
X111229523Y-68440476D01*
X111134285Y-68488095D01*
X40452380Y-103238095D02*
X41261904Y-103238095D01*
X41357142Y-103190476D01*
X41404761Y-103142857D01*
X41452380Y-103047619D01*
X41452380Y-102857142D01*
X41404761Y-102761904D01*
X41357142Y-102714285D01*
X41261904Y-102666666D01*
X40452380Y-102666666D01*
X41452380Y-101666666D02*
X41452380Y-102238095D01*
X41452380Y-101952380D02*
X40452380Y-101952380D01*
X40595238Y-102047619D01*
X40690476Y-102142857D01*
X40738095Y-102238095D01*
X40547619Y-101285714D02*
X40500000Y-101238095D01*
X40452380Y-101142857D01*
X40452380Y-100904761D01*
X40500000Y-100809523D01*
X40547619Y-100761904D01*
X40642857Y-100714285D01*
X40738095Y-100714285D01*
X40880952Y-100761904D01*
X41452380Y-101333333D01*
X41452380Y-100714285D01*
X30452380Y-103238095D02*
X31261904Y-103238095D01*
X31357142Y-103190476D01*
X31404761Y-103142857D01*
X31452380Y-103047619D01*
X31452380Y-102857142D01*
X31404761Y-102761904D01*
X31357142Y-102714285D01*
X31261904Y-102666666D01*
X30452380Y-102666666D01*
X31452380Y-101666666D02*
X31452380Y-102238095D01*
X31452380Y-101952380D02*
X30452380Y-101952380D01*
X30595238Y-102047619D01*
X30690476Y-102142857D01*
X30738095Y-102238095D01*
X31452380Y-100714285D02*
X31452380Y-101285714D01*
X31452380Y-101000000D02*
X30452380Y-101000000D01*
X30595238Y-101095238D01*
X30690476Y-101190476D01*
X30738095Y-101285714D01*
X62666666Y-40848571D02*
X62333333Y-40848571D01*
X62333333Y-41372380D02*
X62333333Y-40372380D01*
X62809523Y-40372380D01*
X63142857Y-40467619D02*
X63190476Y-40420000D01*
X63285714Y-40372380D01*
X63523809Y-40372380D01*
X63619047Y-40420000D01*
X63666666Y-40467619D01*
X63714285Y-40562857D01*
X63714285Y-40658095D01*
X63666666Y-40800952D01*
X63095238Y-41372380D01*
X63714285Y-41372380D01*
X41666666Y-28928571D02*
X41333333Y-28928571D01*
X41333333Y-29452380D02*
X41333333Y-28452380D01*
X41809523Y-28452380D01*
X42714285Y-29452380D02*
X42142857Y-29452380D01*
X42428571Y-29452380D02*
X42428571Y-28452380D01*
X42333333Y-28595238D01*
X42238095Y-28690476D01*
X42142857Y-28738095D01*
X21952380Y-66279047D02*
X21476190Y-66612380D01*
X21952380Y-66850476D02*
X20952380Y-66850476D01*
X20952380Y-66469523D01*
X21000000Y-66374285D01*
X21047619Y-66326666D01*
X21142857Y-66279047D01*
X21285714Y-66279047D01*
X21380952Y-66326666D01*
X21428571Y-66374285D01*
X21476190Y-66469523D01*
X21476190Y-66850476D01*
X21285714Y-65421904D02*
X21952380Y-65421904D01*
X20904761Y-65660000D02*
X21619047Y-65898095D01*
X21619047Y-65279047D01*
X20952380Y-64993333D02*
X20952380Y-64374285D01*
X21333333Y-64707619D01*
X21333333Y-64564761D01*
X21380952Y-64469523D01*
X21428571Y-64421904D01*
X21523809Y-64374285D01*
X21761904Y-64374285D01*
X21857142Y-64421904D01*
X21904761Y-64469523D01*
X21952380Y-64564761D01*
X21952380Y-64850476D01*
X21904761Y-64945714D01*
X21857142Y-64993333D01*
X20952380Y-63469523D02*
X20952380Y-63945714D01*
X21428571Y-63993333D01*
X21380952Y-63945714D01*
X21333333Y-63850476D01*
X21333333Y-63612380D01*
X21380952Y-63517142D01*
X21428571Y-63469523D01*
X21523809Y-63421904D01*
X21761904Y-63421904D01*
X21857142Y-63469523D01*
X21904761Y-63517142D01*
X21952380Y-63612380D01*
X21952380Y-63850476D01*
X21904761Y-63945714D01*
X21857142Y-63993333D01*
X77952380Y-66779047D02*
X77476190Y-67112380D01*
X77952380Y-67350476D02*
X76952380Y-67350476D01*
X76952380Y-66969523D01*
X77000000Y-66874285D01*
X77047619Y-66826666D01*
X77142857Y-66779047D01*
X77285714Y-66779047D01*
X77380952Y-66826666D01*
X77428571Y-66874285D01*
X77476190Y-66969523D01*
X77476190Y-67350476D01*
X77285714Y-65921904D02*
X77952380Y-65921904D01*
X76904761Y-66160000D02*
X77619047Y-66398095D01*
X77619047Y-65779047D01*
X76952380Y-65493333D02*
X76952380Y-64874285D01*
X77333333Y-65207619D01*
X77333333Y-65064761D01*
X77380952Y-64969523D01*
X77428571Y-64921904D01*
X77523809Y-64874285D01*
X77761904Y-64874285D01*
X77857142Y-64921904D01*
X77904761Y-64969523D01*
X77952380Y-65064761D01*
X77952380Y-65350476D01*
X77904761Y-65445714D01*
X77857142Y-65493333D01*
X77285714Y-64017142D02*
X77952380Y-64017142D01*
X76904761Y-64255238D02*
X77619047Y-64493333D01*
X77619047Y-63874285D01*
X39880952Y-42497142D02*
X39833333Y-42544761D01*
X39690476Y-42592380D01*
X39595238Y-42592380D01*
X39452380Y-42544761D01*
X39357142Y-42449523D01*
X39309523Y-42354285D01*
X39261904Y-42163809D01*
X39261904Y-42020952D01*
X39309523Y-41830476D01*
X39357142Y-41735238D01*
X39452380Y-41640000D01*
X39595238Y-41592380D01*
X39690476Y-41592380D01*
X39833333Y-41640000D01*
X39880952Y-41687619D01*
X40738095Y-41925714D02*
X40738095Y-42592380D01*
X40500000Y-41544761D02*
X40261904Y-42259047D01*
X40880952Y-42259047D01*
X41690476Y-41925714D02*
X41690476Y-42592380D01*
X41452380Y-41544761D02*
X41214285Y-42259047D01*
X41833333Y-42259047D01*
X42357142Y-42020952D02*
X42261904Y-41973333D01*
X42214285Y-41925714D01*
X42166666Y-41830476D01*
X42166666Y-41782857D01*
X42214285Y-41687619D01*
X42261904Y-41640000D01*
X42357142Y-41592380D01*
X42547619Y-41592380D01*
X42642857Y-41640000D01*
X42690476Y-41687619D01*
X42738095Y-41782857D01*
X42738095Y-41830476D01*
X42690476Y-41925714D01*
X42642857Y-41973333D01*
X42547619Y-42020952D01*
X42357142Y-42020952D01*
X42261904Y-42068571D01*
X42214285Y-42116190D01*
X42166666Y-42211428D01*
X42166666Y-42401904D01*
X42214285Y-42497142D01*
X42261904Y-42544761D01*
X42357142Y-42592380D01*
X42547619Y-42592380D01*
X42642857Y-42544761D01*
X42690476Y-42497142D01*
X42738095Y-42401904D01*
X42738095Y-42211428D01*
X42690476Y-42116190D01*
X42642857Y-42068571D01*
X42547619Y-42020952D01*
X61880952Y-30497142D02*
X61833333Y-30544761D01*
X61690476Y-30592380D01*
X61595238Y-30592380D01*
X61452380Y-30544761D01*
X61357142Y-30449523D01*
X61309523Y-30354285D01*
X61261904Y-30163809D01*
X61261904Y-30020952D01*
X61309523Y-29830476D01*
X61357142Y-29735238D01*
X61452380Y-29640000D01*
X61595238Y-29592380D01*
X61690476Y-29592380D01*
X61833333Y-29640000D01*
X61880952Y-29687619D01*
X62738095Y-29925714D02*
X62738095Y-30592380D01*
X62500000Y-29544761D02*
X62261904Y-30259047D01*
X62880952Y-30259047D01*
X63690476Y-29925714D02*
X63690476Y-30592380D01*
X63452380Y-29544761D02*
X63214285Y-30259047D01*
X63833333Y-30259047D01*
X64119047Y-29592380D02*
X64785714Y-29592380D01*
X64357142Y-30592380D01*
X82928571Y-45285714D02*
X82928571Y-45619047D01*
X83452380Y-45619047D02*
X82452380Y-45619047D01*
X82452380Y-45142857D01*
X82785714Y-44333333D02*
X83452380Y-44333333D01*
X82404761Y-44571428D02*
X83119047Y-44809523D01*
X83119047Y-44190476D01*
X82452380Y-43619047D02*
X82452380Y-43523809D01*
X82500000Y-43428571D01*
X82547619Y-43380952D01*
X82642857Y-43333333D01*
X82833333Y-43285714D01*
X83071428Y-43285714D01*
X83261904Y-43333333D01*
X83357142Y-43380952D01*
X83404761Y-43428571D01*
X83452380Y-43523809D01*
X83452380Y-43619047D01*
X83404761Y-43714285D01*
X83357142Y-43761904D01*
X83261904Y-43809523D01*
X83071428Y-43857142D01*
X82833333Y-43857142D01*
X82642857Y-43809523D01*
X82547619Y-43761904D01*
X82500000Y-43714285D01*
X82452380Y-43619047D01*
X82452380Y-42428571D02*
X82452380Y-42619047D01*
X82500000Y-42714285D01*
X82547619Y-42761904D01*
X82690476Y-42857142D01*
X82880952Y-42904761D01*
X83261904Y-42904761D01*
X83357142Y-42857142D01*
X83404761Y-42809523D01*
X83452380Y-42714285D01*
X83452380Y-42523809D01*
X83404761Y-42428571D01*
X83357142Y-42380952D01*
X83261904Y-42333333D01*
X83023809Y-42333333D01*
X82928571Y-42380952D01*
X82880952Y-42428571D01*
X82833333Y-42523809D01*
X82833333Y-42714285D01*
X82880952Y-42809523D01*
X82928571Y-42857142D01*
X83023809Y-42904761D01*
X74535714Y-105702380D02*
X74535714Y-104702380D01*
X74916666Y-104702380D01*
X75011904Y-104750000D01*
X75059523Y-104797619D01*
X75107142Y-104892857D01*
X75107142Y-105035714D01*
X75059523Y-105130952D01*
X75011904Y-105178571D01*
X74916666Y-105226190D01*
X74535714Y-105226190D01*
X75964285Y-105035714D02*
X75964285Y-105702380D01*
X75726190Y-104654761D02*
X75488095Y-105369047D01*
X76107142Y-105369047D01*
X76678571Y-104702380D02*
X76773809Y-104702380D01*
X76869047Y-104750000D01*
X76916666Y-104797619D01*
X76964285Y-104892857D01*
X77011904Y-105083333D01*
X77011904Y-105321428D01*
X76964285Y-105511904D01*
X76916666Y-105607142D01*
X76869047Y-105654761D01*
X76773809Y-105702380D01*
X76678571Y-105702380D01*
X76583333Y-105654761D01*
X76535714Y-105607142D01*
X76488095Y-105511904D01*
X76440476Y-105321428D01*
X76440476Y-105083333D01*
X76488095Y-104892857D01*
X76535714Y-104797619D01*
X76583333Y-104750000D01*
X76678571Y-104702380D01*
X105214285Y-102928571D02*
X104880952Y-102928571D01*
X104880952Y-103452380D02*
X104880952Y-102452380D01*
X105357142Y-102452380D01*
X106166666Y-102785714D02*
X106166666Y-103452380D01*
X105928571Y-102404761D02*
X105690476Y-103119047D01*
X106309523Y-103119047D01*
X106880952Y-102452380D02*
X106976190Y-102452380D01*
X107071428Y-102500000D01*
X107119047Y-102547619D01*
X107166666Y-102642857D01*
X107214285Y-102833333D01*
X107214285Y-103071428D01*
X107166666Y-103261904D01*
X107119047Y-103357142D01*
X107071428Y-103404761D01*
X106976190Y-103452380D01*
X106880952Y-103452380D01*
X106785714Y-103404761D01*
X106738095Y-103357142D01*
X106690476Y-103261904D01*
X106642857Y-103071428D01*
X106642857Y-102833333D01*
X106690476Y-102642857D01*
X106738095Y-102547619D01*
X106785714Y-102500000D01*
X106880952Y-102452380D01*
X108119047Y-102452380D02*
X107642857Y-102452380D01*
X107595238Y-102928571D01*
X107642857Y-102880952D01*
X107738095Y-102833333D01*
X107976190Y-102833333D01*
X108071428Y-102880952D01*
X108119047Y-102928571D01*
X108166666Y-103023809D01*
X108166666Y-103261904D01*
X108119047Y-103357142D01*
X108071428Y-103404761D01*
X107976190Y-103452380D01*
X107738095Y-103452380D01*
X107642857Y-103404761D01*
X107595238Y-103357142D01*
X105214285Y-89928571D02*
X104880952Y-89928571D01*
X104880952Y-90452380D02*
X104880952Y-89452380D01*
X105357142Y-89452380D01*
X106166666Y-89785714D02*
X106166666Y-90452380D01*
X105928571Y-89404761D02*
X105690476Y-90119047D01*
X106309523Y-90119047D01*
X106880952Y-89452380D02*
X106976190Y-89452380D01*
X107071428Y-89500000D01*
X107119047Y-89547619D01*
X107166666Y-89642857D01*
X107214285Y-89833333D01*
X107214285Y-90071428D01*
X107166666Y-90261904D01*
X107119047Y-90357142D01*
X107071428Y-90404761D01*
X106976190Y-90452380D01*
X106880952Y-90452380D01*
X106785714Y-90404761D01*
X106738095Y-90357142D01*
X106690476Y-90261904D01*
X106642857Y-90071428D01*
X106642857Y-89833333D01*
X106690476Y-89642857D01*
X106738095Y-89547619D01*
X106785714Y-89500000D01*
X106880952Y-89452380D01*
X108071428Y-89785714D02*
X108071428Y-90452380D01*
X107833333Y-89404761D02*
X107595238Y-90119047D01*
X108214285Y-90119047D01*
%LPC*%
D14*
X90000000Y-84560000D03*
D15*
X90000000Y-77060000D03*
D16*
X126500000Y-24000000D03*
X25000000Y-24000000D03*
X25000000Y-111000000D03*
X126500000Y-111000000D03*
D17*
X108000000Y-84620000D03*
X102920000Y-77000000D03*
X102920000Y-84620000D03*
D18*
X108000000Y-77000000D03*
D19*
X56000000Y-104540000D03*
D20*
X56000000Y-102000000D03*
X56000000Y-99460000D03*
D18*
X116000000Y-77000000D03*
D17*
X113460000Y-84620000D03*
X113460000Y-77000000D03*
X116000000Y-84620000D03*
D21*
X116000000Y-71250000D03*
D17*
X105840000Y-71250000D03*
D19*
X46000000Y-104540000D03*
D20*
X46000000Y-102000000D03*
X46000000Y-99460000D03*
D19*
X36000000Y-104540000D03*
D20*
X36000000Y-102000000D03*
X36000000Y-99460000D03*
D22*
X68000000Y-46000000D03*
X73000000Y-46000000D03*
X58000000Y-46000000D03*
X53000000Y-46000000D03*
X37000000Y-34000000D03*
X32000000Y-34000000D03*
X47000000Y-34000000D03*
X52000000Y-34000000D03*
D23*
X26000000Y-55000000D03*
D24*
X26000000Y-75320000D03*
D23*
X73000000Y-55500000D03*
D24*
X73000000Y-75820000D03*
D21*
X46000000Y-46000000D03*
X36000000Y-46000000D03*
X58000000Y-34000000D03*
X68000000Y-34000000D03*
D25*
X24000000Y-40000000D03*
X73000000Y-36000000D03*
X32000000Y-24000000D03*
X73000000Y-24000000D03*
D22*
X88000000Y-39000000D03*
X88000000Y-34000000D03*
X88000000Y-49000000D03*
X88000000Y-54000000D03*
D26*
X82000000Y-110000000D03*
D27*
X79500000Y-110000000D03*
X77000000Y-110000000D03*
X74500000Y-110000000D03*
X72000000Y-110000000D03*
X69500000Y-110000000D03*
D22*
X111500000Y-108000000D03*
X116500000Y-108000000D03*
X101500000Y-108000000D03*
X96500000Y-108000000D03*
X111500000Y-95000000D03*
X116500000Y-95000000D03*
X101500000Y-95000000D03*
X96500000Y-95000000D03*
D25*
X42000000Y-24000000D03*
X94500000Y-59000000D03*
X94500000Y-29000000D03*
X127500000Y-104500000D03*
X127500000Y-96500000D03*
X127500000Y-88500000D03*
X127500000Y-80500000D03*
X127500000Y-72500000D03*
D28*
X118000000Y-47000000D03*
X108000000Y-47000000D03*
M02*
