M48
; DRILL file {KiCad (5.1.7)-1} date 01/04/22 16:30:33
; FORMAT={-:-/ absolute / metric / decimal}
; #@! TF.CreationDate,2022-01-04T16:30:33+01:00
; #@! TF.GenerationSoftware,Kicad,Pcbnew,(5.1.7)-1
; #@! TF.FileFunction,Plated,1,2,PTH
FMAT,2
METRIC
T1C1.000
T2C1.100
T3C1.200
T4C1.350
T5C1.400
T6C1.501
T7C2.000
%
G90
G05
T1
X58.0Y-34.0
X36.0Y-46.0
X46.0Y-46.0
X105.84Y-71.25
X116.0Y-71.25
X102.92Y-77.0
X102.92Y-84.62
X108.0Y-77.0
X108.0Y-84.62
X113.46Y-77.0
X113.46Y-84.62
X116.0Y-77.0
X116.0Y-84.62
X68.0Y-34.0
T2
X69.5Y-110.0
X72.0Y-110.0
X74.5Y-110.0
X77.0Y-110.0
X79.5Y-110.0
X82.0Y-110.0
T3
X56.0Y-99.46
X56.0Y-102.0
X56.0Y-104.54
X36.0Y-99.46
X36.0Y-102.0
X36.0Y-104.54
X46.0Y-99.46
X46.0Y-102.0
X46.0Y-104.54
T4
X53.0Y-46.0
X58.0Y-46.0
X68.0Y-46.0
X73.0Y-46.0
X96.5Y-95.0
X101.5Y-95.0
X111.5Y-95.0
X116.5Y-95.0
X32.0Y-34.0
X37.0Y-34.0
X47.0Y-34.0
X52.0Y-34.0
X88.0Y-34.0
X88.0Y-39.0
X88.0Y-49.0
X88.0Y-54.0
X96.5Y-108.0
X101.5Y-108.0
X111.5Y-108.0
X116.5Y-108.0
T5
X73.0Y-55.5
X73.0Y-75.82
X26.0Y-55.0
X26.0Y-75.32
X90.0Y-77.06
X90.0Y-84.56
T6
X94.5Y-59.0
X32.0Y-24.0
X127.5Y-104.5
X127.5Y-88.5
X127.5Y-72.5
X42.0Y-24.0
X73.0Y-36.0
X94.5Y-29.0
X73.0Y-24.0
X127.5Y-96.5
X127.5Y-80.5
X24.0Y-40.0
T7
X41.5Y-64.5
X41.5Y-80.5
X57.5Y-64.5
X57.5Y-80.5
T7
X33.5Y-60.0G85X33.5Y-64.0
G05
X44.0Y-87.0G85X40.0Y-87.0
G05
X61.0Y-58.0G85X57.0Y-58.0
G05
X65.5Y-81.0G85X65.5Y-85.0
G05
T0
M30
