%TF.GenerationSoftware,KiCad,Pcbnew,(5.1.7)-1*%
%TF.CreationDate,2022-01-04T16:30:19+01:00*%
%TF.ProjectId,cr-17xx-psu-board,63722d31-3778-4782-9d70-73752d626f61,rev?*%
%TF.SameCoordinates,Original*%
%TF.FileFunction,Soldermask,Bot*%
%TF.FilePolarity,Negative*%
%FSLAX46Y46*%
G04 Gerber Fmt 4.6, Leading zero omitted, Abs format (unit mm)*
G04 Created by KiCad (PCBNEW (5.1.7)-1) date 2022-01-04 16:30:19*
%MOMM*%
%LPD*%
G01*
G04 APERTURE LIST*
%ADD10R,2.600000X2.600000*%
%ADD11C,2.600000*%
%ADD12C,4.000000*%
%ADD13R,4.000000X7.000000*%
%ADD14R,7.000000X4.000000*%
%ADD15R,4.000000X4.000000*%
%ADD16O,1.800000X1.800000*%
%ADD17R,1.800000X1.800000*%
%ADD18R,2.200000X1.800000*%
%ADD19O,2.200000X1.800000*%
%ADD20C,1.800000*%
%ADD21C,2.350000*%
%ADD22C,2.800000*%
%ADD23O,2.800000X2.800000*%
%ADD24C,4.000500*%
%ADD25R,2.000000X2.000000*%
%ADD26C,2.000000*%
%ADD27C,3.000000*%
G04 APERTURE END LIST*
D10*
X90000000Y-84560000D03*
D11*
X90000000Y-77060000D03*
D12*
X126500000Y-24000000D03*
X25000000Y-24000000D03*
X25000000Y-111000000D03*
X126500000Y-111000000D03*
D13*
X65500000Y-83000000D03*
D14*
X59000000Y-58000000D03*
D13*
X33500000Y-62000000D03*
D14*
X42000000Y-87000000D03*
D12*
X41500000Y-80500000D03*
X57500000Y-80500000D03*
D15*
X57500000Y-64500000D03*
D12*
X41500000Y-64500000D03*
D16*
X108000000Y-84620000D03*
X102920000Y-77000000D03*
X102920000Y-84620000D03*
D17*
X108000000Y-77000000D03*
D18*
X56000000Y-104540000D03*
D19*
X56000000Y-102000000D03*
X56000000Y-99460000D03*
D17*
X116000000Y-77000000D03*
D16*
X113460000Y-84620000D03*
X113460000Y-77000000D03*
X116000000Y-84620000D03*
D20*
X116000000Y-71250000D03*
D16*
X105840000Y-71250000D03*
D18*
X46000000Y-104540000D03*
D19*
X46000000Y-102000000D03*
X46000000Y-99460000D03*
D18*
X36000000Y-104540000D03*
D19*
X36000000Y-102000000D03*
X36000000Y-99460000D03*
D21*
X68000000Y-46000000D03*
X73000000Y-46000000D03*
X58000000Y-46000000D03*
X53000000Y-46000000D03*
X37000000Y-34000000D03*
X32000000Y-34000000D03*
X47000000Y-34000000D03*
X52000000Y-34000000D03*
D22*
X26000000Y-55000000D03*
D23*
X26000000Y-75320000D03*
D22*
X73000000Y-55500000D03*
D23*
X73000000Y-75820000D03*
D20*
X46000000Y-46000000D03*
X36000000Y-46000000D03*
X58000000Y-34000000D03*
X68000000Y-34000000D03*
D24*
X24000000Y-40000000D03*
X73000000Y-36000000D03*
X32000000Y-24000000D03*
X73000000Y-24000000D03*
D21*
X88000000Y-39000000D03*
X88000000Y-34000000D03*
X88000000Y-49000000D03*
X88000000Y-54000000D03*
D25*
X82000000Y-110000000D03*
D26*
X79500000Y-110000000D03*
X77000000Y-110000000D03*
X74500000Y-110000000D03*
X72000000Y-110000000D03*
X69500000Y-110000000D03*
D21*
X111500000Y-108000000D03*
X116500000Y-108000000D03*
X101500000Y-108000000D03*
X96500000Y-108000000D03*
X111500000Y-95000000D03*
X116500000Y-95000000D03*
X101500000Y-95000000D03*
X96500000Y-95000000D03*
D24*
X42000000Y-24000000D03*
X94500000Y-59000000D03*
X94500000Y-29000000D03*
X127500000Y-104500000D03*
X127500000Y-96500000D03*
X127500000Y-88500000D03*
X127500000Y-80500000D03*
X127500000Y-72500000D03*
D27*
X118000000Y-47000000D03*
X108000000Y-47000000D03*
M02*
