%TF.GenerationSoftware,KiCad,Pcbnew,(5.1.7)-1*%
%TF.CreationDate,2021-11-13T12:13:23+01:00*%
%TF.ProjectId,cr-17xx-psu-board,63722d31-3778-4782-9d70-73752d626f61,rev?*%
%TF.SameCoordinates,Original*%
%TF.FileFunction,Copper,L1,Top*%
%TF.FilePolarity,Positive*%
%FSLAX46Y46*%
G04 Gerber Fmt 4.6, Leading zero omitted, Abs format (unit mm)*
G04 Created by KiCad (PCBNEW (5.1.7)-1) date 2021-11-13 12:13:23*
%MOMM*%
%LPD*%
G01*
G04 APERTURE LIST*
%TA.AperFunction,ComponentPad*%
%ADD10R,2.600000X2.600000*%
%TD*%
%TA.AperFunction,ComponentPad*%
%ADD11C,2.600000*%
%TD*%
%TA.AperFunction,ComponentPad*%
%ADD12O,1.800000X1.800000*%
%TD*%
%TA.AperFunction,ComponentPad*%
%ADD13R,1.800000X1.800000*%
%TD*%
%TA.AperFunction,ComponentPad*%
%ADD14R,2.200000X1.800000*%
%TD*%
%TA.AperFunction,ComponentPad*%
%ADD15O,2.200000X1.800000*%
%TD*%
%TA.AperFunction,ComponentPad*%
%ADD16C,1.800000*%
%TD*%
%TA.AperFunction,ComponentPad*%
%ADD17C,2.350000*%
%TD*%
%TA.AperFunction,ComponentPad*%
%ADD18C,2.800000*%
%TD*%
%TA.AperFunction,ComponentPad*%
%ADD19O,2.800000X2.800000*%
%TD*%
%TA.AperFunction,ComponentPad*%
%ADD20C,4.000500*%
%TD*%
%TA.AperFunction,ComponentPad*%
%ADD21R,2.000000X2.000000*%
%TD*%
%TA.AperFunction,ComponentPad*%
%ADD22C,2.000000*%
%TD*%
%TA.AperFunction,Conductor*%
%ADD23C,3.000000*%
%TD*%
%TA.AperFunction,Conductor*%
%ADD24C,0.750000*%
%TD*%
G04 APERTURE END LIST*
D10*
X90000000Y-84560000D03*
D11*
X90000000Y-77060000D03*
D12*
X108000000Y-84620000D03*
X102920000Y-77000000D03*
X102920000Y-84620000D03*
D13*
X108000000Y-77000000D03*
D14*
X56000000Y-104540000D03*
D15*
X56000000Y-102000000D03*
X56000000Y-99460000D03*
D13*
X116000000Y-77000000D03*
D12*
X113460000Y-84620000D03*
X113460000Y-77000000D03*
X116000000Y-84620000D03*
D16*
X116000000Y-71250000D03*
D12*
X105840000Y-71250000D03*
D14*
X46000000Y-104540000D03*
D15*
X46000000Y-102000000D03*
X46000000Y-99460000D03*
D14*
X36000000Y-104540000D03*
D15*
X36000000Y-102000000D03*
X36000000Y-99460000D03*
D17*
X68000000Y-46000000D03*
X73000000Y-46000000D03*
X58000000Y-46000000D03*
X53000000Y-46000000D03*
X37000000Y-34000000D03*
X32000000Y-34000000D03*
X47000000Y-34000000D03*
X52000000Y-34000000D03*
D18*
X26000000Y-55000000D03*
D19*
X26000000Y-75320000D03*
D18*
X73000000Y-55500000D03*
D19*
X73000000Y-75820000D03*
D16*
X46000000Y-46000000D03*
X36000000Y-46000000D03*
X58000000Y-34000000D03*
X68000000Y-34000000D03*
D20*
X24000000Y-40000000D03*
X73000000Y-36000000D03*
X32000000Y-24000000D03*
X73000000Y-24000000D03*
D17*
X88000000Y-39000000D03*
X88000000Y-34000000D03*
X88000000Y-49000000D03*
X88000000Y-54000000D03*
D21*
X82000000Y-110000000D03*
D22*
X79500000Y-110000000D03*
X77000000Y-110000000D03*
X74500000Y-110000000D03*
X72000000Y-110000000D03*
X69500000Y-110000000D03*
D17*
X111500000Y-108000000D03*
X116500000Y-108000000D03*
X101500000Y-108000000D03*
X96500000Y-108000000D03*
X111500000Y-95000000D03*
X116500000Y-95000000D03*
X101500000Y-95000000D03*
X96500000Y-95000000D03*
D20*
X42000000Y-24000000D03*
X94500000Y-59000000D03*
X94500000Y-29000000D03*
X127500000Y-104500000D03*
X127500000Y-96500000D03*
X127500000Y-88500000D03*
X127500000Y-80500000D03*
X127500000Y-72500000D03*
D23*
X93000000Y-29000000D02*
X88000000Y-34000000D01*
X94500000Y-29000000D02*
X93000000Y-29000000D01*
X88000000Y-34000000D02*
X88000000Y-39000000D01*
X93000000Y-59000000D02*
X88000000Y-54000000D01*
X94500000Y-59000000D02*
X93000000Y-59000000D01*
X88000000Y-54000000D02*
X88000000Y-49000000D01*
D24*
X116000000Y-71250000D02*
X116000000Y-77000000D01*
X118380000Y-84620000D02*
X116000000Y-84620000D01*
X122000000Y-81000000D02*
X118380000Y-84620000D01*
X122000000Y-74500000D02*
X122000000Y-81000000D01*
X124000000Y-72500000D02*
X122000000Y-74500000D01*
X127500000Y-72500000D02*
X124000000Y-72500000D01*
X72000000Y-112000000D02*
X72000000Y-110000000D01*
X71000000Y-113000000D02*
X72000000Y-112000000D01*
X40500000Y-101000000D02*
X40500000Y-110500000D01*
X43000000Y-113000000D02*
X43500000Y-113000000D01*
X46000000Y-99460000D02*
X42040000Y-99460000D01*
X40500000Y-110500000D02*
X43000000Y-113000000D01*
X43500000Y-113000000D02*
X71000000Y-113000000D01*
X42040000Y-99460000D02*
X40500000Y-101000000D01*
X77000000Y-106000000D02*
X77000000Y-110000000D01*
X75750000Y-104750000D02*
X77000000Y-106000000D01*
X68750000Y-104750000D02*
X75750000Y-104750000D01*
X61500000Y-112000000D02*
X68750000Y-104750000D01*
X52000000Y-112000000D02*
X61500000Y-112000000D01*
X50500000Y-110500000D02*
X52000000Y-112000000D01*
X50500000Y-101000000D02*
X50500000Y-110500000D01*
X52040000Y-99460000D02*
X50500000Y-101000000D01*
X56000000Y-99460000D02*
X52040000Y-99460000D01*
X74500000Y-111500000D02*
X74500000Y-110000000D01*
X72049990Y-113950010D02*
X74500000Y-111500000D01*
X33950010Y-113950010D02*
X34950010Y-113950010D01*
X30500000Y-101000000D02*
X30500000Y-110500000D01*
X32040000Y-99460000D02*
X30500000Y-101000000D01*
X36000000Y-99460000D02*
X32040000Y-99460000D01*
X34950010Y-113950010D02*
X72049990Y-113950010D01*
X30500000Y-110500000D02*
X33950010Y-113950010D01*
X87500000Y-70000000D02*
X73000000Y-55500000D01*
X105840000Y-71250000D02*
X88750000Y-71250000D01*
X86875000Y-69375000D02*
X73000000Y-55500000D01*
X88750000Y-71250000D02*
X86875000Y-69375000D01*
X108000000Y-77000000D02*
X108000000Y-78500000D01*
X108000000Y-78500000D02*
X105500000Y-81000000D01*
X56000000Y-104540000D02*
X63960000Y-104540000D01*
X100500000Y-81000000D02*
X105500000Y-81000000D01*
X96940000Y-84560000D02*
X100500000Y-81000000D01*
X83940000Y-84560000D02*
X63960000Y-104540000D01*
X96940000Y-84560000D02*
X83940000Y-84560000D01*
X108000000Y-84620000D02*
X113460000Y-84620000D01*
X101500000Y-95000000D02*
X96500000Y-95000000D01*
X101500000Y-95000000D02*
X101500000Y-90500000D01*
X102920000Y-89080000D02*
X102920000Y-84620000D01*
X101500000Y-90500000D02*
X102920000Y-89080000D01*
X111500000Y-95000000D02*
X116500000Y-95000000D01*
X119500000Y-95000000D02*
X116500000Y-95000000D01*
X122000000Y-92500000D02*
X119500000Y-95000000D01*
X124000000Y-88500000D02*
X122000000Y-90500000D01*
X122000000Y-90500000D02*
X122000000Y-92500000D01*
X127500000Y-88500000D02*
X124000000Y-88500000D01*
X111500000Y-108000000D02*
X116500000Y-108000000D01*
X127500000Y-104500000D02*
X124000000Y-104500000D01*
X120500000Y-108000000D02*
X116500000Y-108000000D01*
X124000000Y-104500000D02*
X120500000Y-108000000D01*
X101500000Y-108000000D02*
X96500000Y-108000000D01*
X96500000Y-108000000D02*
X89000000Y-108000000D01*
X87000000Y-110000000D02*
X82000000Y-110000000D01*
X89000000Y-108000000D02*
X87000000Y-110000000D01*
X79500000Y-106000000D02*
X84000000Y-101500000D01*
X79500000Y-110000000D02*
X79500000Y-106000000D01*
X127500000Y-96500000D02*
X124000000Y-96500000D01*
X124000000Y-96500000D02*
X119000000Y-101500000D01*
X84000000Y-101500000D02*
X119000000Y-101500000D01*
M02*
