%TF.GenerationSoftware,KiCad,Pcbnew,(5.1.7)-1*%
%TF.CreationDate,2022-01-04T16:30:19+01:00*%
%TF.ProjectId,cr-17xx-psu-board,63722d31-3778-4782-9d70-73752d626f61,rev?*%
%TF.SameCoordinates,Original*%
%TF.FileFunction,Legend,Bot*%
%TF.FilePolarity,Positive*%
%FSLAX46Y46*%
G04 Gerber Fmt 4.6, Leading zero omitted, Abs format (unit mm)*
G04 Created by KiCad (PCBNEW (5.1.7)-1) date 2022-01-04 16:30:19*
%MOMM*%
%LPD*%
G01*
G04 APERTURE LIST*
%ADD10C,0.120000*%
%ADD11C,0.150000*%
%ADD12R,2.600000X2.600000*%
%ADD13C,2.600000*%
%ADD14C,4.000000*%
%ADD15R,4.000000X7.000000*%
%ADD16R,7.000000X4.000000*%
%ADD17R,4.000000X4.000000*%
%ADD18O,1.800000X1.800000*%
%ADD19R,1.800000X1.800000*%
%ADD20R,2.200000X1.800000*%
%ADD21O,2.200000X1.800000*%
%ADD22C,1.800000*%
%ADD23C,2.350000*%
%ADD24C,2.800000*%
%ADD25O,2.800000X2.800000*%
%ADD26C,4.000500*%
%ADD27R,2.000000X2.000000*%
%ADD28C,2.000000*%
%ADD29C,3.000000*%
G04 APERTURE END LIST*
D10*
X127500000Y-70000000D02*
X127500000Y-65000000D01*
D11*
X127164404Y-64452380D02*
X127164404Y-63785714D01*
X127164404Y-63976190D02*
X127116785Y-63880952D01*
X127069166Y-63833333D01*
X126973928Y-63785714D01*
X126878690Y-63785714D01*
X126164404Y-64404761D02*
X126259642Y-64452380D01*
X126450119Y-64452380D01*
X126545357Y-64404761D01*
X126592976Y-64309523D01*
X126592976Y-63928571D01*
X126545357Y-63833333D01*
X126450119Y-63785714D01*
X126259642Y-63785714D01*
X126164404Y-63833333D01*
X126116785Y-63928571D01*
X126116785Y-64023809D01*
X126592976Y-64119047D01*
X125688214Y-64452380D02*
X125688214Y-63785714D01*
X125688214Y-63880952D02*
X125640595Y-63833333D01*
X125545357Y-63785714D01*
X125402500Y-63785714D01*
X125307261Y-63833333D01*
X125259642Y-63928571D01*
X125259642Y-64452380D01*
X125259642Y-63928571D02*
X125212023Y-63833333D01*
X125116785Y-63785714D01*
X124973928Y-63785714D01*
X124878690Y-63833333D01*
X124831071Y-63928571D01*
X124831071Y-64452380D01*
X124212023Y-64452380D02*
X124307261Y-64404761D01*
X124354880Y-64357142D01*
X124402500Y-64261904D01*
X124402500Y-63976190D01*
X124354880Y-63880952D01*
X124307261Y-63833333D01*
X124212023Y-63785714D01*
X124069166Y-63785714D01*
X123973928Y-63833333D01*
X123926309Y-63880952D01*
X123878690Y-63976190D01*
X123878690Y-64261904D01*
X123926309Y-64357142D01*
X123973928Y-64404761D01*
X124069166Y-64452380D01*
X124212023Y-64452380D01*
X123545357Y-63785714D02*
X123307261Y-64452380D01*
X123069166Y-63785714D01*
X122307261Y-64404761D02*
X122402500Y-64452380D01*
X122592976Y-64452380D01*
X122688214Y-64404761D01*
X122735833Y-64309523D01*
X122735833Y-63928571D01*
X122688214Y-63833333D01*
X122592976Y-63785714D01*
X122402500Y-63785714D01*
X122307261Y-63833333D01*
X122259642Y-63928571D01*
X122259642Y-64023809D01*
X122735833Y-64119047D01*
X120640595Y-63785714D02*
X120640595Y-64595238D01*
X120688214Y-64690476D01*
X120735833Y-64738095D01*
X120831071Y-64785714D01*
X120973928Y-64785714D01*
X121069166Y-64738095D01*
X120640595Y-64404761D02*
X120735833Y-64452380D01*
X120926309Y-64452380D01*
X121021547Y-64404761D01*
X121069166Y-64357142D01*
X121116785Y-64261904D01*
X121116785Y-63976190D01*
X121069166Y-63880952D01*
X121021547Y-63833333D01*
X120926309Y-63785714D01*
X120735833Y-63785714D01*
X120640595Y-63833333D01*
X120164404Y-64452380D02*
X120164404Y-63785714D01*
X120164404Y-63976190D02*
X120116785Y-63880952D01*
X120069166Y-63833333D01*
X119973928Y-63785714D01*
X119878690Y-63785714D01*
X119402500Y-64452380D02*
X119497738Y-64404761D01*
X119545357Y-64357142D01*
X119592976Y-64261904D01*
X119592976Y-63976190D01*
X119545357Y-63880952D01*
X119497738Y-63833333D01*
X119402500Y-63785714D01*
X119259642Y-63785714D01*
X119164404Y-63833333D01*
X119116785Y-63880952D01*
X119069166Y-63976190D01*
X119069166Y-64261904D01*
X119116785Y-64357142D01*
X119164404Y-64404761D01*
X119259642Y-64452380D01*
X119402500Y-64452380D01*
X118212023Y-63785714D02*
X118212023Y-64452380D01*
X118640595Y-63785714D02*
X118640595Y-64309523D01*
X118592976Y-64404761D01*
X118497738Y-64452380D01*
X118354880Y-64452380D01*
X118259642Y-64404761D01*
X118212023Y-64357142D01*
X117735833Y-63785714D02*
X117735833Y-64452380D01*
X117735833Y-63880952D02*
X117688214Y-63833333D01*
X117592976Y-63785714D01*
X117450119Y-63785714D01*
X117354880Y-63833333D01*
X117307261Y-63928571D01*
X117307261Y-64452380D01*
X116402500Y-64452380D02*
X116402500Y-63452380D01*
X116402500Y-64404761D02*
X116497738Y-64452380D01*
X116688214Y-64452380D01*
X116783452Y-64404761D01*
X116831071Y-64357142D01*
X116878690Y-64261904D01*
X116878690Y-63976190D01*
X116831071Y-63880952D01*
X116783452Y-63833333D01*
X116688214Y-63785714D01*
X116497738Y-63785714D01*
X116402500Y-63833333D01*
X115259642Y-63785714D02*
X115069166Y-64452380D01*
X114878690Y-63976190D01*
X114688214Y-64452380D01*
X114497738Y-63785714D01*
X114116785Y-64452380D02*
X114116785Y-63785714D01*
X114116785Y-63452380D02*
X114164404Y-63500000D01*
X114116785Y-63547619D01*
X114069166Y-63500000D01*
X114116785Y-63452380D01*
X114116785Y-63547619D01*
X113640595Y-64452380D02*
X113640595Y-63785714D01*
X113640595Y-63976190D02*
X113592976Y-63880952D01*
X113545357Y-63833333D01*
X113450119Y-63785714D01*
X113354880Y-63785714D01*
X112640595Y-64404761D02*
X112735833Y-64452380D01*
X112926309Y-64452380D01*
X113021547Y-64404761D01*
X113069166Y-64309523D01*
X113069166Y-63928571D01*
X113021547Y-63833333D01*
X112926309Y-63785714D01*
X112735833Y-63785714D01*
X112640595Y-63833333D01*
X112592976Y-63928571D01*
X112592976Y-64023809D01*
X113069166Y-64119047D01*
%LPC*%
D12*
X90000000Y-84560000D03*
D13*
X90000000Y-77060000D03*
D14*
X126500000Y-24000000D03*
X25000000Y-24000000D03*
X25000000Y-111000000D03*
X126500000Y-111000000D03*
D15*
X65500000Y-83000000D03*
D16*
X59000000Y-58000000D03*
D15*
X33500000Y-62000000D03*
D16*
X42000000Y-87000000D03*
D14*
X41500000Y-80500000D03*
X57500000Y-80500000D03*
D17*
X57500000Y-64500000D03*
D14*
X41500000Y-64500000D03*
D18*
X108000000Y-84620000D03*
X102920000Y-77000000D03*
X102920000Y-84620000D03*
D19*
X108000000Y-77000000D03*
D20*
X56000000Y-104540000D03*
D21*
X56000000Y-102000000D03*
X56000000Y-99460000D03*
D19*
X116000000Y-77000000D03*
D18*
X113460000Y-84620000D03*
X113460000Y-77000000D03*
X116000000Y-84620000D03*
D22*
X116000000Y-71250000D03*
D18*
X105840000Y-71250000D03*
D20*
X46000000Y-104540000D03*
D21*
X46000000Y-102000000D03*
X46000000Y-99460000D03*
D20*
X36000000Y-104540000D03*
D21*
X36000000Y-102000000D03*
X36000000Y-99460000D03*
D23*
X68000000Y-46000000D03*
X73000000Y-46000000D03*
X58000000Y-46000000D03*
X53000000Y-46000000D03*
X37000000Y-34000000D03*
X32000000Y-34000000D03*
X47000000Y-34000000D03*
X52000000Y-34000000D03*
D24*
X26000000Y-55000000D03*
D25*
X26000000Y-75320000D03*
D24*
X73000000Y-55500000D03*
D25*
X73000000Y-75820000D03*
D22*
X46000000Y-46000000D03*
X36000000Y-46000000D03*
X58000000Y-34000000D03*
X68000000Y-34000000D03*
D26*
X24000000Y-40000000D03*
X73000000Y-36000000D03*
X32000000Y-24000000D03*
X73000000Y-24000000D03*
D23*
X88000000Y-39000000D03*
X88000000Y-34000000D03*
X88000000Y-49000000D03*
X88000000Y-54000000D03*
D27*
X82000000Y-110000000D03*
D28*
X79500000Y-110000000D03*
X77000000Y-110000000D03*
X74500000Y-110000000D03*
X72000000Y-110000000D03*
X69500000Y-110000000D03*
D23*
X111500000Y-108000000D03*
X116500000Y-108000000D03*
X101500000Y-108000000D03*
X96500000Y-108000000D03*
X111500000Y-95000000D03*
X116500000Y-95000000D03*
X101500000Y-95000000D03*
X96500000Y-95000000D03*
D26*
X42000000Y-24000000D03*
X94500000Y-59000000D03*
X94500000Y-29000000D03*
X127500000Y-104500000D03*
X127500000Y-96500000D03*
X127500000Y-88500000D03*
X127500000Y-80500000D03*
X127500000Y-72500000D03*
D29*
X118000000Y-47000000D03*
X108000000Y-47000000D03*
M02*
