%TF.GenerationSoftware,KiCad,Pcbnew,(5.1.7)-1*%
%TF.CreationDate,2022-01-04T16:30:19+01:00*%
%TF.ProjectId,cr-17xx-psu-board,63722d31-3778-4782-9d70-73752d626f61,rev?*%
%TF.SameCoordinates,Original*%
%TF.FileFunction,Copper,L2,Bot*%
%TF.FilePolarity,Positive*%
%FSLAX46Y46*%
G04 Gerber Fmt 4.6, Leading zero omitted, Abs format (unit mm)*
G04 Created by KiCad (PCBNEW (5.1.7)-1) date 2022-01-04 16:30:19*
%MOMM*%
%LPD*%
G01*
G04 APERTURE LIST*
%TA.AperFunction,ComponentPad*%
%ADD10R,2.600000X2.600000*%
%TD*%
%TA.AperFunction,ComponentPad*%
%ADD11C,2.600000*%
%TD*%
%TA.AperFunction,ComponentPad*%
%ADD12R,4.000000X7.000000*%
%TD*%
%TA.AperFunction,ComponentPad*%
%ADD13R,7.000000X4.000000*%
%TD*%
%TA.AperFunction,ComponentPad*%
%ADD14C,4.000000*%
%TD*%
%TA.AperFunction,ComponentPad*%
%ADD15R,4.000000X4.000000*%
%TD*%
%TA.AperFunction,ComponentPad*%
%ADD16O,1.800000X1.800000*%
%TD*%
%TA.AperFunction,ComponentPad*%
%ADD17R,1.800000X1.800000*%
%TD*%
%TA.AperFunction,ComponentPad*%
%ADD18R,2.200000X1.800000*%
%TD*%
%TA.AperFunction,ComponentPad*%
%ADD19O,2.200000X1.800000*%
%TD*%
%TA.AperFunction,ComponentPad*%
%ADD20C,1.800000*%
%TD*%
%TA.AperFunction,ComponentPad*%
%ADD21C,2.350000*%
%TD*%
%TA.AperFunction,ComponentPad*%
%ADD22C,2.800000*%
%TD*%
%TA.AperFunction,ComponentPad*%
%ADD23O,2.800000X2.800000*%
%TD*%
%TA.AperFunction,ComponentPad*%
%ADD24C,4.000500*%
%TD*%
%TA.AperFunction,ComponentPad*%
%ADD25R,2.000000X2.000000*%
%TD*%
%TA.AperFunction,ComponentPad*%
%ADD26C,2.000000*%
%TD*%
%TA.AperFunction,Conductor*%
%ADD27C,3.000000*%
%TD*%
%TA.AperFunction,Conductor*%
%ADD28C,1.500000*%
%TD*%
%TA.AperFunction,Conductor*%
%ADD29C,0.750000*%
%TD*%
G04 APERTURE END LIST*
D10*
X90000000Y-84560000D03*
D11*
X90000000Y-77060000D03*
D12*
X65500000Y-83000000D03*
D13*
X59000000Y-58000000D03*
D12*
X33500000Y-62000000D03*
D13*
X42000000Y-87000000D03*
D14*
X41500000Y-80500000D03*
X57500000Y-80500000D03*
D15*
X57500000Y-64500000D03*
D14*
X41500000Y-64500000D03*
D16*
X108000000Y-84620000D03*
X102920000Y-77000000D03*
X102920000Y-84620000D03*
D17*
X108000000Y-77000000D03*
D18*
X56000000Y-104540000D03*
D19*
X56000000Y-102000000D03*
X56000000Y-99460000D03*
D17*
X116000000Y-77000000D03*
D16*
X113460000Y-84620000D03*
X113460000Y-77000000D03*
X116000000Y-84620000D03*
D20*
X116000000Y-71250000D03*
D16*
X105840000Y-71250000D03*
D18*
X46000000Y-104540000D03*
D19*
X46000000Y-102000000D03*
X46000000Y-99460000D03*
D18*
X36000000Y-104540000D03*
D19*
X36000000Y-102000000D03*
X36000000Y-99460000D03*
D21*
X68000000Y-46000000D03*
X73000000Y-46000000D03*
X58000000Y-46000000D03*
X53000000Y-46000000D03*
X37000000Y-34000000D03*
X32000000Y-34000000D03*
X47000000Y-34000000D03*
X52000000Y-34000000D03*
D22*
X26000000Y-55000000D03*
D23*
X26000000Y-75320000D03*
D22*
X73000000Y-55500000D03*
D23*
X73000000Y-75820000D03*
D20*
X46000000Y-46000000D03*
X36000000Y-46000000D03*
X58000000Y-34000000D03*
X68000000Y-34000000D03*
D24*
X24000000Y-40000000D03*
X73000000Y-36000000D03*
X32000000Y-24000000D03*
X73000000Y-24000000D03*
D21*
X88000000Y-39000000D03*
X88000000Y-34000000D03*
X88000000Y-49000000D03*
X88000000Y-54000000D03*
D25*
X82000000Y-110000000D03*
D26*
X79500000Y-110000000D03*
X77000000Y-110000000D03*
X74500000Y-110000000D03*
X72000000Y-110000000D03*
X69500000Y-110000000D03*
D21*
X111500000Y-108000000D03*
X116500000Y-108000000D03*
X101500000Y-108000000D03*
X96500000Y-108000000D03*
X111500000Y-95000000D03*
X116500000Y-95000000D03*
X101500000Y-95000000D03*
X96500000Y-95000000D03*
D24*
X42000000Y-24000000D03*
X94500000Y-59000000D03*
X94500000Y-29000000D03*
X127500000Y-104500000D03*
X127500000Y-96500000D03*
X127500000Y-88500000D03*
X127500000Y-80500000D03*
X127500000Y-72500000D03*
D27*
X47000000Y-34000000D02*
X58000000Y-34000000D01*
X36500000Y-62000000D02*
X39000000Y-64500000D01*
X33500000Y-62000000D02*
X36500000Y-62000000D01*
X41500000Y-64500000D02*
X39000000Y-64500000D01*
X47000000Y-37500000D02*
X47000000Y-34000000D01*
X41500000Y-43000000D02*
X47000000Y-37500000D01*
X41500000Y-64500000D02*
X41500000Y-43000000D01*
X47000000Y-52000000D02*
X53000000Y-46000000D01*
X47000000Y-70000000D02*
X47000000Y-52000000D01*
X46000000Y-46000000D02*
X58000000Y-46000000D01*
X60000000Y-83000000D02*
X57500000Y-80500000D01*
X65500000Y-83000000D02*
X60000000Y-83000000D01*
X57500000Y-80500000D02*
X47000000Y-70000000D01*
X37000000Y-34000000D02*
X32000000Y-34000000D01*
X32000000Y-24000000D02*
X32000000Y-34000000D01*
X68000000Y-46000000D02*
X73000000Y-46000000D01*
X73000000Y-36000000D02*
X73000000Y-46000000D01*
D28*
X105920000Y-80000000D02*
X102920000Y-77000000D01*
X110460000Y-80000000D02*
X105920000Y-80000000D01*
X113460000Y-77000000D02*
X110460000Y-80000000D01*
X56000000Y-102000000D02*
X36000000Y-102000000D01*
D27*
X63000000Y-48500000D02*
X63000000Y-39000000D01*
X51500000Y-54000000D02*
X54000000Y-51500000D01*
X60000000Y-51500000D02*
X63000000Y-48500000D01*
X51500000Y-67500000D02*
X51500000Y-54000000D01*
X54000000Y-51500000D02*
X60000000Y-51500000D01*
X55500000Y-71500000D02*
X51500000Y-67500000D01*
X63000000Y-39000000D02*
X68000000Y-34000000D01*
X68680000Y-71500000D02*
X55500000Y-71500000D01*
X73000000Y-75820000D02*
X68680000Y-71500000D01*
D28*
X80820000Y-75820000D02*
X73000000Y-75820000D01*
X56000000Y-102000000D02*
X69500000Y-102000000D01*
X69500000Y-102000000D02*
X69500000Y-110000000D01*
D27*
X69500000Y-94000000D02*
X69500000Y-102000000D01*
X73000000Y-90500000D02*
X69500000Y-94000000D01*
X73000000Y-75820000D02*
X73000000Y-90500000D01*
X44320000Y-75320000D02*
X26000000Y-75320000D01*
X63000000Y-94000000D02*
X44320000Y-75320000D01*
X69500000Y-94000000D02*
X63000000Y-94000000D01*
D28*
X90060000Y-77000000D02*
X90000000Y-77060000D01*
X102920000Y-77000000D02*
X90060000Y-77000000D01*
X82060000Y-77060000D02*
X80820000Y-75820000D01*
X90000000Y-77060000D02*
X82060000Y-77060000D01*
D27*
X68000000Y-29000000D02*
X68000000Y-34000000D01*
X63000000Y-24000000D02*
X68000000Y-29000000D01*
X42000000Y-24000000D02*
X63000000Y-24000000D01*
X42000000Y-24000000D02*
X42000000Y-36000000D01*
X36000000Y-42000000D02*
X42000000Y-36000000D01*
X36000000Y-46000000D02*
X36000000Y-42000000D01*
X70500000Y-58000000D02*
X73000000Y-55500000D01*
X59000000Y-58000000D02*
X70500000Y-58000000D01*
X57500000Y-59500000D02*
X59000000Y-58000000D01*
X57500000Y-64500000D02*
X57500000Y-59500000D01*
X73000000Y-24000000D02*
X77274990Y-28274990D01*
X77274990Y-51225010D02*
X73000000Y-55500000D01*
X77274990Y-28274990D02*
X77274990Y-51225010D01*
X28000000Y-87000000D02*
X42000000Y-87000000D01*
X21725010Y-80725010D02*
X28000000Y-87000000D01*
X21725010Y-59274990D02*
X21725010Y-80725010D01*
X26000000Y-55000000D02*
X21725010Y-59274990D01*
X42000000Y-81000000D02*
X41500000Y-80500000D01*
X42000000Y-87000000D02*
X42000000Y-81000000D01*
X24000000Y-45000000D02*
X26000000Y-47000000D01*
X24000000Y-40000000D02*
X24000000Y-45000000D01*
X26000000Y-55000000D02*
X26000000Y-47000000D01*
D29*
X44688542Y-104540000D02*
X46000000Y-104540000D01*
X36000000Y-104540000D02*
X44688542Y-104540000D01*
X46000000Y-104540000D02*
X56000000Y-104540000D01*
M02*
