%TF.GenerationSoftware,KiCad,Pcbnew,(5.1.7)-1*%
%TF.CreationDate,2021-11-13T12:13:23+01:00*%
%TF.ProjectId,cr-17xx-psu-board,63722d31-3778-4782-9d70-73752d626f61,rev?*%
%TF.SameCoordinates,Original*%
%TF.FileFunction,Profile,NP*%
%FSLAX46Y46*%
G04 Gerber Fmt 4.6, Leading zero omitted, Abs format (unit mm)*
G04 Created by KiCad (PCBNEW (5.1.7)-1) date 2021-11-13 12:13:23*
%MOMM*%
%LPD*%
G01*
G04 APERTURE LIST*
%TA.AperFunction,Profile*%
%ADD10C,0.050000*%
%TD*%
G04 APERTURE END LIST*
D10*
X52850000Y-105800000D02*
X52850000Y-111200000D01*
X52850000Y-111200000D02*
X54950000Y-111200000D01*
X54950000Y-111200000D02*
X54950000Y-105800000D01*
X54950000Y-105800000D02*
X52850000Y-105800000D01*
X52850000Y-92800000D02*
X54950000Y-92800000D01*
X52850000Y-92800000D02*
X52850000Y-98200000D01*
X54950000Y-98200000D02*
X54950000Y-92800000D01*
X54950000Y-98200000D02*
X52850000Y-98200000D01*
X42850000Y-92800000D02*
X42850000Y-98200000D01*
X42850000Y-92800000D02*
X44950000Y-92800000D01*
X44950000Y-98200000D02*
X44950000Y-92800000D01*
X44950000Y-98200000D02*
X42850000Y-98200000D01*
X42850000Y-105800000D02*
X42850000Y-111200000D01*
X44950000Y-105800000D02*
X42850000Y-105800000D01*
X44950000Y-111200000D02*
X44950000Y-105800000D01*
X42850000Y-111200000D02*
X44950000Y-111200000D01*
X32850000Y-92800000D02*
X32850000Y-98200000D01*
X32850000Y-92800000D02*
X34950000Y-92800000D01*
X34950000Y-98200000D02*
X34950000Y-92800000D01*
X34950000Y-98200000D02*
X32850000Y-98200000D01*
X34950000Y-111200000D02*
X32850000Y-111200000D01*
X34950000Y-105800000D02*
X34950000Y-111200000D01*
X34950000Y-105800000D02*
X32850000Y-105800000D01*
X32850000Y-111200000D02*
X32850000Y-105800000D01*
X79000000Y-58000000D02*
X86000000Y-65000000D01*
X108000000Y-65000000D02*
X86000000Y-65000000D01*
X108000000Y-63000000D02*
X108000000Y-65000000D01*
X87000000Y-63000000D02*
X108000000Y-63000000D01*
X81000000Y-57000000D02*
X87000000Y-63000000D01*
X81000000Y-29000000D02*
X79000000Y-29000000D01*
X81000000Y-57000000D02*
X81000000Y-29000000D01*
X79000000Y-29000000D02*
X79000000Y-58000000D01*
X75000000Y-62500000D02*
G75*
G03*
X75000000Y-62500000I-2000000J0D01*
G01*
X75000000Y-68820000D02*
G75*
G03*
X75000000Y-68820000I-2000000J0D01*
G01*
X28000000Y-62000000D02*
G75*
G03*
X28000000Y-62000000I-2000000J0D01*
G01*
X28000000Y-68320000D02*
G75*
G03*
X28000000Y-68320000I-2000000J0D01*
G01*
X20000000Y-115000000D02*
X20000000Y-20000000D01*
X131500000Y-115000000D02*
X20000000Y-115000000D01*
X131500000Y-20000000D02*
X131500000Y-115000000D01*
X20000000Y-20000000D02*
X131500000Y-20000000D01*
M02*
